M48
; DRILL file {KiCad (5.1.6)-1} date 06/21/20 19:34:41
; FORMAT={-:-/ absolute / inch / decimal}
; #@! TF.CreationDate,2020-06-21T19:34:41+02:00
; #@! TF.GenerationSoftware,Kicad,Pcbnew,(5.1.6)-1
; #@! TF.FileFunction,Plated,1,2,PTH
FMAT,2
INCH
T1C0.0157
T2C0.0236
T3C0.0394
T4C0.0579
T5C0.0866
%
G90
G05
T1
X1.4396Y-3.027
X2.4685Y-2.939
X3.2604Y-2.9266
X4.0135Y-2.9254
X4.7122Y-2.925
X5.1063Y-3.9006
X5.2618Y-3.4488
X5.4331Y-3.5256
X5.4528Y-2.8583
X5.5315Y-3.5256
X5.5401Y-2.5714
X5.935Y-3.0079
X5.9612Y-3.0984
X5.9961Y-3.622
X6.034Y-3.0984
X6.0354Y-3.2559
X6.0394Y-1.4291
X6.0531Y-1.252
X6.0591Y-2.4862
X6.128Y-3.3819
X6.1319Y-1.3957
X6.1467Y-2.2175
X6.1467Y-2.2569
X6.1467Y-2.2963
X6.1467Y-2.3356
X6.1467Y-2.375
X6.1535Y-3.439
X6.1673Y-2.6004
X6.1752Y-2.187
X6.2083Y-2.8528
X6.2087Y-2.4321
X6.2185Y-2.1476
X6.2677Y-1.2539
X6.2687Y-1.1299
X6.2736Y-3.2579
X6.2913Y-3.0177
X6.3543Y-2.1476
X6.3583Y-2.2185
X6.3583Y-2.2579
X6.3583Y-2.2972
X6.3583Y-2.3366
X6.3583Y-2.378
X6.3602Y-1.4291
X6.3799Y-2.4488
X6.3799Y-3.3307
X6.4341Y-2.9852
X6.9232Y-3.4291
X6.9429Y-3.9006
X7.3303Y-2.2181
X8.0783Y-2.2583
X8.8264Y-2.3016
X9.8549Y-2.336
X10.1358Y-1.4606
T3
X6.6776Y-3.1291
X6.6776Y-3.2291
X6.7776Y-3.1291
X6.7776Y-3.2291
X6.8776Y-3.1291
X6.8776Y-3.2291
T4
X2.6551Y-1.2091
X2.9051Y-1.1091
X10.0419Y-2.7051
X10.2919Y-2.6051
X4.7122Y-2.7051
X4.9622Y-2.6051
X10.0419Y-3.4531
X10.2919Y-3.3531
X3.9642Y-2.7051
X4.2142Y-2.6051
X4.6187Y-3.4531
X4.8687Y-3.3531
X9.3874Y-1.2091
X9.6374Y-1.1091
X9.2004Y-2.7051
X9.4504Y-2.6051
X7.3303Y-1.9571
X7.5803Y-1.8571
X4.1512Y-1.2091
X4.4012Y-1.1091
X6.3018Y-3.4531
X6.5518Y-3.3531
X9.9484Y-3.4531
X10.1984Y-3.3531
X1.3461Y-3.4531
X1.5961Y-3.3531
X8.0783Y-1.9571
X8.3283Y-1.8571
X3.2161Y-2.7051
X3.4661Y-2.6051
X4.3382Y-1.9571
X4.5882Y-1.8571
X3.4031Y-1.2091
X3.6531Y-1.1091
X2.9356Y-3.4531
X3.1856Y-3.3531
X8.0783Y-3.4531
X8.3283Y-3.3531
X1.9071Y-1.2091
X2.1571Y-1.1091
X10.1354Y-1.2091
X10.3854Y-1.1091
X9.8549Y-1.9571
X10.1049Y-1.8571
X6.3953Y-1.2091
X6.6453Y-1.1091
X5.0862Y-1.9571
X5.3362Y-1.8571
X3.8707Y-3.4531
X4.1207Y-3.3531
X6.2083Y-2.7051
X6.4583Y-2.6051
X3.2161Y-3.4531
X3.4661Y-3.3531
X6.5823Y-1.9571
X6.8323Y-1.8571
X2.0941Y-3.4531
X2.3441Y-3.3531
X5.6472Y-1.2091
X5.8972Y-1.1091
X8.8264Y-1.9571
X9.0764Y-1.8571
X6.9563Y-2.7051
X7.2063Y-2.6051
X1.2526Y-3.4531
X1.5026Y-3.3531
X4.8992Y-1.2091
X5.1492Y-1.1091
X1.4396Y-2.7051
X1.6896Y-2.6051
X7.8913Y-1.2091
X8.1413Y-1.1091
X3.5902Y-1.9571
X3.8402Y-1.8571
X6.0222Y-3.4531
X6.2722Y-3.3531
X5.4602Y-2.7051
X5.7102Y-2.6051
X1.1591Y-1.2091
X1.4091Y-1.1091
X7.4238Y-3.4531
X7.6738Y-3.3531
X9.2004Y-3.4531
X9.4504Y-3.3531
X1.2526Y-1.9571
X1.5026Y-1.8571
X8.6394Y-1.2091
X8.8894Y-1.1091
X4.9927Y-3.4531
X5.2427Y-3.3531
X2.0941Y-1.9571
X2.3441Y-1.8571
X5.8343Y-1.9571
X6.0843Y-1.8571
X6.4888Y-3.4531
X6.7388Y-3.3531
X8.4524Y-2.7051
X8.7024Y-2.6051
X8.3589Y-3.4531
X8.6089Y-3.3531
X7.7043Y-2.7051
X7.9543Y-2.6051
X7.1433Y-1.2091
X7.3933Y-1.1091
X2.4681Y-2.7051
X2.7181Y-2.6051
X2.8421Y-1.9571
X3.0921Y-1.8571
T5
X9.7244Y-1.6831
X1.8701Y-3.1791
X9.7244Y-3.1791
X5.7972Y-2.4311
X1.8701Y-1.6831
T2
G00X6.0012Y-0.7918
M15
G01X6.0012Y-0.8155
M16
G05
G00X6.0012Y-0.9466
M15
G01X6.0012Y-0.9899
M16
G05
G00X6.3413Y-0.7918
M15
G01X6.3413Y-0.8155
M16
G05
G00X6.3413Y-0.9466
M15
G01X6.3413Y-0.9899
M16
G05
T0
M30
