M48
; DRILL file {KiCad (5.1.6)-1} date 06/21/20 19:34:41
; FORMAT={-:-/ absolute / inch / decimal}
; #@! TF.CreationDate,2020-06-21T19:34:41+02:00
; #@! TF.GenerationSoftware,Kicad,Pcbnew,(5.1.6)-1
; #@! TF.FileFunction,NonPlated,1,2,NPTH
FMAT,2
INCH
T1C0.0256
T2C0.0689
T3C0.1200
T4C0.1570
%
G90
G05
T1
X6.0575Y-0.9473
X6.285Y-0.9473
T2
X6.9063Y-2.8051
X7.3063Y-2.8051
X1.2026Y-3.5531
X1.6026Y-3.5531
X4.8492Y-1.3091
X5.2492Y-1.3091
X1.3896Y-2.8051
X1.7896Y-2.8051
X7.8413Y-1.3091
X8.2413Y-1.3091
X3.5402Y-2.0571
X3.9402Y-2.0571
X5.9722Y-3.5531
X6.3722Y-3.5531
X5.4102Y-2.8051
X5.8102Y-2.8051
X1.1091Y-1.3091
X1.5091Y-1.3091
X7.3738Y-3.5531
X7.7738Y-3.5531
X9.1504Y-3.5531
X9.5504Y-3.5531
X1.2026Y-2.0571
X1.6026Y-2.0571
X8.5894Y-1.3091
X8.9894Y-1.3091
X4.9427Y-3.5531
X5.3427Y-3.5531
X2.0441Y-2.0571
X2.4441Y-2.0571
X5.7843Y-2.0571
X6.1843Y-2.0571
X6.4388Y-3.5531
X6.8388Y-3.5531
X8.4024Y-2.8051
X8.8024Y-2.8051
X8.3089Y-3.5531
X8.7089Y-3.5531
X7.6543Y-2.8051
X8.0543Y-2.8051
X7.0933Y-1.3091
X7.4933Y-1.3091
X2.4181Y-2.8051
X2.8181Y-2.8051
X2.7921Y-2.0571
X3.1921Y-2.0571
X2.6051Y-1.3091
X3.0051Y-1.3091
X9.9919Y-2.8051
X10.3919Y-2.8051
X4.6622Y-2.8051
X5.0622Y-2.8051
X9.9919Y-3.5531
X10.3919Y-3.5531
X3.9142Y-2.8051
X4.3142Y-2.8051
X4.5687Y-3.5531
X4.9687Y-3.5531
X9.3374Y-1.3091
X9.7374Y-1.3091
X9.1504Y-2.8051
X9.5504Y-2.8051
X7.2803Y-2.0571
X7.6803Y-2.0571
X4.1012Y-1.3091
X4.5012Y-1.3091
X6.2518Y-3.5531
X6.6518Y-3.5531
X9.8984Y-3.5531
X10.2984Y-3.5531
X1.2961Y-3.5531
X1.6961Y-3.5531
X8.0283Y-2.0571
X8.4283Y-2.0571
X3.1661Y-2.8051
X3.5661Y-2.8051
X4.2882Y-2.0571
X4.6882Y-2.0571
X3.3531Y-1.3091
X3.7531Y-1.3091
X2.8856Y-3.5531
X3.2856Y-3.5531
X8.0283Y-3.5531
X8.4283Y-3.5531
X1.8571Y-1.3091
X2.2571Y-1.3091
X10.0854Y-1.3091
X10.4854Y-1.3091
X9.8049Y-2.0571
X10.2049Y-2.0571
X6.3453Y-1.3091
X6.7453Y-1.3091
X5.0362Y-2.0571
X5.4362Y-2.0571
X3.8207Y-3.5531
X4.2207Y-3.5531
X6.1583Y-2.8051
X6.5583Y-2.8051
X3.1661Y-3.5531
X3.5661Y-3.5531
X6.5323Y-2.0571
X6.9323Y-2.0571
X2.0441Y-3.5531
X2.4441Y-3.5531
X5.5972Y-1.3091
X5.9972Y-1.3091
X8.7764Y-2.0571
X9.1764Y-2.0571
T3
X3.9222Y-3.8281
X7.6722Y-3.8281
X6.17Y-3.8281
X7.1075Y-3.8281
X4.3Y-3.8281
X5.2375Y-3.8281
T4
X7.1063Y-2.8051
X1.4026Y-3.5531
X5.0492Y-1.3091
X1.5896Y-2.8051
X8.0413Y-1.3091
X3.7402Y-2.0571
X3.9222Y-3.2281
X6.1722Y-3.5531
X7.6722Y-3.2281
X5.6102Y-2.8051
X1.3091Y-1.3091
X7.5738Y-3.5531
X9.3504Y-3.5531
X1.4026Y-2.0571
X8.7894Y-1.3091
X5.1427Y-3.5531
X2.2441Y-2.0571
X5.9843Y-2.0571
X6.17Y-3.2281
X6.6388Y-3.5531
X7.1075Y-3.2281
X8.6024Y-2.8051
X8.5089Y-3.5531
X7.8543Y-2.8051
X7.2933Y-1.3091
X2.6181Y-2.8051
X2.9921Y-2.0571
X2.8051Y-1.3091
X10.1919Y-2.8051
X4.8622Y-2.8051
X10.1919Y-3.5531
X4.1142Y-2.8051
X4.3Y-3.2281
X4.7687Y-3.5531
X5.2375Y-3.2281
X9.5374Y-1.3091
X9.3504Y-2.8051
X7.4803Y-2.0571
X4.3012Y-1.3091
X6.4518Y-3.5531
X10.0984Y-3.5531
X1.4961Y-3.5531
X8.2283Y-2.0571
X3.3661Y-2.8051
X4.4882Y-2.0571
X3.5531Y-1.3091
X3.0856Y-3.5531
X8.2283Y-3.5531
X2.0571Y-1.3091
X10.2854Y-1.3091
X10.0049Y-2.0571
X6.5453Y-1.3091
X5.2362Y-2.0571
X4.0207Y-3.5531
X6.3583Y-2.8051
X3.3661Y-3.5531
X6.7323Y-2.0571
X2.2441Y-3.5531
X5.7972Y-1.3091
X8.9764Y-2.0571
T0
M30
