G04 #@! TF.GenerationSoftware,KiCad,Pcbnew,(5.1.6)-1*
G04 #@! TF.CreationDate,2020-06-21T19:34:39+02:00*
G04 #@! TF.ProjectId,CC45,43433435-2e6b-4696-9361-645f70636258,rev?*
G04 #@! TF.SameCoordinates,Original*
G04 #@! TF.FileFunction,Legend,Top*
G04 #@! TF.FilePolarity,Positive*
%FSLAX46Y46*%
G04 Gerber Fmt 4.6, Leading zero omitted, Abs format (unit mm)*
G04 Created by KiCad (PCBNEW (5.1.6)-1) date 2020-06-21 19:34:39*
%MOMM*%
%LPD*%
G01*
G04 APERTURE LIST*
%ADD10C,0.100000*%
G04 APERTURE END LIST*
D10*
G36*
X146637843Y-81955752D02*
G01*
X146808660Y-81987296D01*
X146934379Y-82014940D01*
X147137511Y-82059785D01*
X147325641Y-82099585D01*
X147468619Y-82128025D01*
X147507815Y-82135040D01*
X147641938Y-82168068D01*
X147809662Y-82223253D01*
X147902576Y-82259136D01*
X148139432Y-82356901D01*
X148139432Y-91412307D01*
X147938592Y-91294607D01*
X147820163Y-91232559D01*
X147709462Y-91198347D01*
X147573379Y-91185463D01*
X147391352Y-91187022D01*
X147044951Y-91197136D01*
X146881623Y-90975733D01*
X146718295Y-90754329D01*
X146692425Y-91070137D01*
X146674320Y-91247399D01*
X146652210Y-91402887D01*
X146631944Y-91498734D01*
X146545991Y-91747501D01*
X146438933Y-92010709D01*
X146321961Y-92264390D01*
X146206267Y-92484582D01*
X146103043Y-92647317D01*
X146084170Y-92671736D01*
X146034854Y-92746039D01*
X145961641Y-92871463D01*
X145892401Y-92998395D01*
X145820476Y-93121016D01*
X145763226Y-93193976D01*
X145732995Y-93201563D01*
X145732934Y-93201415D01*
X145713290Y-93187766D01*
X145706759Y-93226287D01*
X145674591Y-93318943D01*
X145617944Y-93398634D01*
X145552512Y-93499473D01*
X145492100Y-93640858D01*
X145476963Y-93689179D01*
X145433860Y-93805480D01*
X145390944Y-93860014D01*
X145374785Y-93859505D01*
X145349922Y-93860079D01*
X145359478Y-93881191D01*
X145356914Y-93953370D01*
X145306190Y-94087206D01*
X145212609Y-94271669D01*
X145081473Y-94495730D01*
X145008296Y-94611700D01*
X144913959Y-94751691D01*
X144862763Y-94813428D01*
X144855173Y-94798159D01*
X144891655Y-94707130D01*
X144972675Y-94541589D01*
X144978148Y-94530900D01*
X145061569Y-94359975D01*
X145145013Y-94175026D01*
X145220751Y-93995131D01*
X145281053Y-93839364D01*
X145318192Y-93726803D01*
X145324439Y-93676523D01*
X145324339Y-93676419D01*
X145297188Y-93703872D01*
X145243973Y-93793077D01*
X145183346Y-93910464D01*
X145111260Y-94047769D01*
X145048325Y-94150333D01*
X145013773Y-94190948D01*
X144989132Y-94190447D01*
X144999600Y-94167517D01*
X145013214Y-94120570D01*
X145004683Y-94115430D01*
X144964841Y-94155502D01*
X144905513Y-94263506D01*
X144833720Y-94421122D01*
X144756483Y-94610033D01*
X144680822Y-94811921D01*
X144613758Y-95008466D01*
X144562313Y-95181351D01*
X144533506Y-95312258D01*
X144529781Y-95354542D01*
X144512809Y-95450130D01*
X144467045Y-95606014D01*
X144399687Y-95799746D01*
X144326762Y-95987409D01*
X144247348Y-96186458D01*
X144182544Y-96357743D01*
X144139205Y-96482527D01*
X144124156Y-96541165D01*
X144106820Y-96558063D01*
X144049507Y-96571405D01*
X143944262Y-96581504D01*
X143783132Y-96588674D01*
X143558161Y-96593228D01*
X143261394Y-96595482D01*
X142884877Y-96595749D01*
X142748135Y-96595471D01*
X141372114Y-96591978D01*
X141372114Y-96488832D01*
X141330358Y-96383916D01*
X141259325Y-96334297D01*
X141167471Y-96270227D01*
X141159314Y-96193831D01*
X141235090Y-96096176D01*
X141263755Y-96070433D01*
X141567614Y-96070433D01*
X141573807Y-96097254D01*
X141597691Y-96100510D01*
X141634826Y-96084003D01*
X141627768Y-96070433D01*
X141574227Y-96065034D01*
X141567614Y-96070433D01*
X141263755Y-96070433D01*
X141266342Y-96068110D01*
X141341408Y-95999743D01*
X141350677Y-95971153D01*
X141298354Y-95965179D01*
X141291563Y-95965164D01*
X141197481Y-95946658D01*
X141174172Y-95904708D01*
X141229419Y-95859667D01*
X141248554Y-95852722D01*
X141313944Y-95826057D01*
X141296931Y-95806991D01*
X141270604Y-95799170D01*
X141192499Y-95766731D01*
X141195935Y-95736722D01*
X141272229Y-95712547D01*
X141412696Y-95697613D01*
X141537601Y-95694471D01*
X141760710Y-95686915D01*
X141998899Y-95667218D01*
X142179707Y-95642898D01*
X142360895Y-95603412D01*
X142483169Y-95552451D01*
X142577806Y-95475766D01*
X142600588Y-95451157D01*
X142681319Y-95361427D01*
X142746522Y-95293559D01*
X142775622Y-95265874D01*
X144304618Y-95265874D01*
X144327176Y-95288432D01*
X144349734Y-95265874D01*
X144327176Y-95243317D01*
X144304618Y-95265874D01*
X142775622Y-95265874D01*
X142824472Y-95219400D01*
X142847681Y-95198201D01*
X144394849Y-95198201D01*
X144411356Y-95235336D01*
X144424926Y-95228278D01*
X144430326Y-95174737D01*
X144424926Y-95168124D01*
X144398105Y-95174317D01*
X144394849Y-95198201D01*
X142847681Y-95198201D01*
X142931878Y-95121300D01*
X142972043Y-95077893D01*
X143462463Y-95077893D01*
X143468656Y-95104714D01*
X143492540Y-95107970D01*
X143529675Y-95091463D01*
X143522617Y-95077893D01*
X143469076Y-95072494D01*
X143462463Y-95077893D01*
X142972043Y-95077893D01*
X143016695Y-95029637D01*
X143037065Y-94974086D01*
X142992978Y-94964915D01*
X142932029Y-94987606D01*
X142867257Y-95033639D01*
X142869172Y-95067953D01*
X142891725Y-95105478D01*
X142851176Y-95131761D01*
X142774647Y-95134437D01*
X142740928Y-95126419D01*
X142687182Y-95113103D01*
X142713030Y-95138995D01*
X142725577Y-95148139D01*
X142757562Y-95182492D01*
X142714740Y-95196018D01*
X142664356Y-95197510D01*
X142574884Y-95209362D01*
X142557367Y-95251456D01*
X142563358Y-95270898D01*
X142566850Y-95322630D01*
X142523069Y-95317429D01*
X142464569Y-95314366D01*
X142454885Y-95330998D01*
X142413309Y-95375235D01*
X142297367Y-95397551D01*
X142120241Y-95397872D01*
X141895108Y-95376128D01*
X141650769Y-95335364D01*
X141449290Y-95296972D01*
X141275253Y-95266429D01*
X141151229Y-95247550D01*
X141106241Y-95243317D01*
X141024948Y-95212613D01*
X140981859Y-95175644D01*
X142093961Y-95175644D01*
X142116519Y-95198201D01*
X142139076Y-95175644D01*
X142116519Y-95153086D01*
X142093961Y-95175644D01*
X140981859Y-95175644D01*
X140939378Y-95139198D01*
X140874236Y-95051114D01*
X140854227Y-94976403D01*
X140859255Y-94962967D01*
X140858963Y-94931208D01*
X140814528Y-94941384D01*
X140763450Y-94951370D01*
X140773129Y-94906647D01*
X140785613Y-94882393D01*
X140810673Y-94819219D01*
X140779409Y-94814886D01*
X140770328Y-94818172D01*
X140716642Y-94797344D01*
X140651723Y-94694435D01*
X140604862Y-94588430D01*
X140553686Y-94473691D01*
X141507460Y-94473691D01*
X141540210Y-94519633D01*
X141552576Y-94521469D01*
X141596518Y-94506077D01*
X141597691Y-94501574D01*
X141566077Y-94463056D01*
X141552576Y-94453796D01*
X141511002Y-94457373D01*
X141507460Y-94473691D01*
X140553686Y-94473691D01*
X140547697Y-94460265D01*
X140498788Y-94393731D01*
X140450385Y-94393634D01*
X140394738Y-94464779D01*
X140324100Y-94611972D01*
X140241054Y-94814060D01*
X140122151Y-95190408D01*
X140080614Y-95542512D01*
X140115896Y-95891639D01*
X140205420Y-96200690D01*
X140264546Y-96365076D01*
X140309417Y-96494359D01*
X140332736Y-96567340D01*
X140334458Y-96575522D01*
X140291943Y-96582920D01*
X140174794Y-96589198D01*
X139998606Y-96593867D01*
X139778974Y-96596436D01*
X139657727Y-96596780D01*
X139422222Y-96594903D01*
X139222362Y-96589732D01*
X139073741Y-96581953D01*
X138991953Y-96572257D01*
X138980995Y-96566904D01*
X138994770Y-96514540D01*
X139032107Y-96395547D01*
X139087019Y-96228552D01*
X139142295Y-96064960D01*
X139303595Y-95592892D01*
X139135848Y-95454622D01*
X138942780Y-95259648D01*
X138800462Y-95042631D01*
X138721787Y-94825881D01*
X138710302Y-94718319D01*
X138699290Y-94592700D01*
X138671709Y-94508515D01*
X138659578Y-94495446D01*
X138605934Y-94430168D01*
X138551726Y-94330221D01*
X141617258Y-94330221D01*
X141661605Y-94337446D01*
X141720120Y-94329151D01*
X141720819Y-94313750D01*
X141660437Y-94302981D01*
X141634347Y-94310189D01*
X141617258Y-94330221D01*
X138551726Y-94330221D01*
X138538116Y-94305129D01*
X138467368Y-94147143D01*
X138412398Y-94002642D01*
X141642807Y-94002642D01*
X141665364Y-94025200D01*
X141687922Y-94002642D01*
X141665364Y-93980084D01*
X141642807Y-94002642D01*
X138412398Y-94002642D01*
X138404935Y-93983025D01*
X138395065Y-93950007D01*
X141116460Y-93950007D01*
X141122653Y-93976828D01*
X141146537Y-93980084D01*
X141183672Y-93963577D01*
X141176613Y-93950007D01*
X141123072Y-93944608D01*
X141116460Y-93950007D01*
X138395065Y-93950007D01*
X138362058Y-93839592D01*
X138349378Y-93755627D01*
X138391911Y-93602242D01*
X138410334Y-93576795D01*
X140546244Y-93576795D01*
X140553946Y-93663675D01*
X140619934Y-93710279D01*
X140750546Y-93740602D01*
X140870958Y-93731196D01*
X140948253Y-93686147D01*
X140957473Y-93668366D01*
X140950344Y-93624570D01*
X140910021Y-93631016D01*
X140851099Y-93619218D01*
X140794186Y-93531592D01*
X140875844Y-93531592D01*
X140910255Y-93572830D01*
X140920959Y-93574045D01*
X140960553Y-93537323D01*
X140966075Y-93503709D01*
X140944203Y-93457012D01*
X140920959Y-93461256D01*
X140877565Y-93518935D01*
X140875844Y-93531592D01*
X140794186Y-93531592D01*
X140793155Y-93530005D01*
X140772148Y-93480301D01*
X140719365Y-93377482D01*
X140665358Y-93314438D01*
X140625718Y-93300531D01*
X140616033Y-93345119D01*
X140627709Y-93393583D01*
X140633618Y-93465011D01*
X140613453Y-93483814D01*
X140569177Y-93521488D01*
X140546244Y-93576795D01*
X138410334Y-93576795D01*
X138502053Y-93450107D01*
X138654728Y-93280795D01*
X138594138Y-93192561D01*
X139810911Y-93192561D01*
X139818073Y-93262166D01*
X139818602Y-93263044D01*
X139864301Y-93289155D01*
X139903992Y-93248307D01*
X139915948Y-93167118D01*
X139897411Y-93094138D01*
X139890448Y-93088103D01*
X140315289Y-93088103D01*
X140331702Y-93121431D01*
X140367244Y-93149550D01*
X140461321Y-93195295D01*
X140561354Y-93210205D01*
X140633822Y-93192717D01*
X140650267Y-93162744D01*
X140614560Y-93131726D01*
X140560036Y-93135963D01*
X140485059Y-93132926D01*
X140469805Y-93100333D01*
X140435304Y-93060186D01*
X140378523Y-93064978D01*
X140315289Y-93088103D01*
X139890448Y-93088103D01*
X139878530Y-93077775D01*
X139836374Y-93114680D01*
X139810911Y-93192561D01*
X138594138Y-93192561D01*
X138547169Y-93124164D01*
X138479851Y-93015084D01*
X138475865Y-93006342D01*
X139661288Y-93006342D01*
X139669583Y-93064858D01*
X139684984Y-93065556D01*
X139695754Y-93005174D01*
X139688546Y-92979085D01*
X139668513Y-92961996D01*
X139661288Y-93006342D01*
X138475865Y-93006342D01*
X138442374Y-92932900D01*
X138439609Y-92917649D01*
X138475951Y-92876514D01*
X138575321Y-92799596D01*
X138593265Y-92787186D01*
X139726761Y-92787186D01*
X139736915Y-92874755D01*
X139773079Y-92968084D01*
X139823959Y-92981322D01*
X139860960Y-92942083D01*
X139859262Y-92919871D01*
X140289343Y-92919871D01*
X140311901Y-92942429D01*
X140334458Y-92919871D01*
X140311901Y-92897313D01*
X140289343Y-92919871D01*
X139859262Y-92919871D01*
X139856056Y-92877943D01*
X139848502Y-92867236D01*
X140078804Y-92867236D01*
X140084997Y-92894057D01*
X140108881Y-92897313D01*
X140146016Y-92880806D01*
X140138958Y-92867236D01*
X140085417Y-92861837D01*
X140078804Y-92867236D01*
X139848502Y-92867236D01*
X139821730Y-92829294D01*
X139751431Y-92769983D01*
X139726761Y-92787186D01*
X138593265Y-92787186D01*
X138723235Y-92697302D01*
X138832817Y-92626686D01*
X140073832Y-92626686D01*
X140089989Y-92687577D01*
X140133373Y-92737557D01*
X140160915Y-92735133D01*
X140173501Y-92684025D01*
X140149758Y-92644071D01*
X140092007Y-92596644D01*
X140073832Y-92626686D01*
X138832817Y-92626686D01*
X138905208Y-92580037D01*
X138936969Y-92560302D01*
X139167868Y-92414827D01*
X139320878Y-92311836D01*
X139397161Y-92250310D01*
X139397878Y-92229231D01*
X139324194Y-92247582D01*
X139272722Y-92266276D01*
X139153613Y-92294432D01*
X139070555Y-92283444D01*
X139044174Y-92238704D01*
X139055895Y-92209621D01*
X139090225Y-92129103D01*
X139093780Y-92107793D01*
X139096178Y-92084361D01*
X139705749Y-92084361D01*
X139719407Y-92148113D01*
X139774123Y-92260076D01*
X139781794Y-92273303D01*
X139838826Y-92354035D01*
X139869807Y-92354050D01*
X139875326Y-92336692D01*
X139859326Y-92254535D01*
X139813904Y-92175466D01*
X142342096Y-92175466D01*
X142359725Y-92207418D01*
X142447501Y-92220560D01*
X142452222Y-92220581D01*
X142548398Y-92207746D01*
X142590177Y-92176736D01*
X142590231Y-92175466D01*
X142657904Y-92175466D01*
X142671350Y-92211310D01*
X142720252Y-92220581D01*
X142807725Y-92200449D01*
X142838366Y-92175466D01*
X142824921Y-92139622D01*
X142776018Y-92130350D01*
X142688545Y-92150483D01*
X142657904Y-92175466D01*
X142590231Y-92175466D01*
X142551705Y-92141257D01*
X142480105Y-92130350D01*
X142384578Y-92146985D01*
X142342096Y-92175466D01*
X139813904Y-92175466D01*
X139800630Y-92152361D01*
X139796374Y-92146858D01*
X139731840Y-92080163D01*
X139705749Y-92084361D01*
X139096178Y-92084361D01*
X139105639Y-91991945D01*
X139128884Y-91836935D01*
X139159048Y-91665834D01*
X139191662Y-91501712D01*
X139222259Y-91367640D01*
X139246369Y-91286688D01*
X139255430Y-91273157D01*
X139289254Y-91311051D01*
X139349075Y-91411858D01*
X139423739Y-91556262D01*
X139448240Y-91607040D01*
X139527572Y-91765897D01*
X139597818Y-91891898D01*
X139646664Y-91963368D01*
X139654782Y-91970626D01*
X139696843Y-91982304D01*
X139689952Y-91931227D01*
X139637659Y-91819357D01*
X139584133Y-91680550D01*
X139548275Y-91519861D01*
X139532875Y-91364507D01*
X139540724Y-91241705D01*
X139572127Y-91180064D01*
X139608693Y-91140376D01*
X139594620Y-91122858D01*
X139702842Y-91122858D01*
X139730409Y-91186485D01*
X139799870Y-91272411D01*
X139891368Y-91362811D01*
X139985046Y-91439861D01*
X140061044Y-91485738D01*
X140099507Y-91482617D01*
X140100376Y-91479677D01*
X140151392Y-91414218D01*
X140190607Y-91397671D01*
X140283005Y-91402685D01*
X140404358Y-91437042D01*
X140413410Y-91440618D01*
X140517199Y-91471281D01*
X140559729Y-91457635D01*
X140560036Y-91454224D01*
X140560525Y-91453619D01*
X141326998Y-91453619D01*
X141343505Y-91490754D01*
X141357075Y-91483696D01*
X141362475Y-91430154D01*
X141357075Y-91423542D01*
X141330254Y-91429735D01*
X141326998Y-91453619D01*
X140560525Y-91453619D01*
X140595133Y-91410879D01*
X140611456Y-91408503D01*
X140677895Y-91376306D01*
X140724356Y-91329551D01*
X140769117Y-91275444D01*
X140770538Y-91293273D01*
X140758339Y-91329551D01*
X140756043Y-91394468D01*
X140777798Y-91408503D01*
X140805948Y-91371039D01*
X140804401Y-91296268D01*
X140816638Y-91184009D01*
X140879484Y-91007459D01*
X140965293Y-90823558D01*
X141046416Y-90656165D01*
X141108850Y-90515835D01*
X141143108Y-90424402D01*
X141146814Y-90405686D01*
X141166932Y-90328500D01*
X141215329Y-90219627D01*
X141218836Y-90212944D01*
X141283366Y-90080598D01*
X141332143Y-89964809D01*
X141349184Y-89906616D01*
X141330705Y-89906608D01*
X141267182Y-89969171D01*
X141226205Y-90013599D01*
X141112684Y-90154937D01*
X141010841Y-90308824D01*
X140988553Y-90349054D01*
X140912549Y-90479266D01*
X140836068Y-90586099D01*
X140819449Y-90604793D01*
X140758328Y-90690712D01*
X140740497Y-90747782D01*
X140707188Y-90823054D01*
X140621959Y-90928946D01*
X140506857Y-91044401D01*
X140383932Y-91148364D01*
X140275232Y-91219779D01*
X140227137Y-91238038D01*
X140140749Y-91242162D01*
X140108881Y-91221785D01*
X140072694Y-91186406D01*
X140047292Y-91182926D01*
X139970434Y-91156744D01*
X139872872Y-91094173D01*
X139771824Y-91035598D01*
X139715823Y-91054839D01*
X139702842Y-91122858D01*
X139594620Y-91122858D01*
X139569865Y-91092045D01*
X139558526Y-91083198D01*
X139520777Y-91042537D01*
X139502952Y-90980028D01*
X139503118Y-90895691D01*
X139612611Y-90895691D01*
X139634855Y-90961843D01*
X139679428Y-90987610D01*
X139696075Y-90979155D01*
X139689848Y-90932804D01*
X139665998Y-90902458D01*
X139620576Y-90877025D01*
X139612611Y-90895691D01*
X139503118Y-90895691D01*
X139503161Y-90874161D01*
X139519511Y-90703427D01*
X139522681Y-90675716D01*
X139537536Y-90424459D01*
X139521839Y-90215965D01*
X139477774Y-90066863D01*
X139435258Y-90009924D01*
X139407675Y-89955383D01*
X139369252Y-89844208D01*
X139329311Y-89707713D01*
X139297176Y-89577214D01*
X139283637Y-89500683D01*
X139240145Y-89407336D01*
X139206572Y-89376615D01*
X139161584Y-89334972D01*
X139197488Y-89294823D01*
X139206572Y-89288768D01*
X139246914Y-89253586D01*
X139203268Y-89243838D01*
X139191069Y-89243652D01*
X139113287Y-89205106D01*
X139084431Y-89153238D01*
X139050134Y-89091423D01*
X139021660Y-89087808D01*
X139001881Y-89067859D01*
X139007542Y-88986360D01*
X139008777Y-88979983D01*
X139013991Y-88877569D01*
X138989775Y-88819791D01*
X138963743Y-88759447D01*
X138967023Y-88724134D01*
X139026110Y-88724134D01*
X139048668Y-88746692D01*
X139071226Y-88724134D01*
X139048668Y-88701576D01*
X139026110Y-88724134D01*
X138967023Y-88724134D01*
X138969779Y-88694476D01*
X138972400Y-88670292D01*
X139264937Y-88670292D01*
X139282440Y-88701815D01*
X139358839Y-88741537D01*
X139483664Y-88770746D01*
X139524176Y-88775541D01*
X139651591Y-88791842D01*
X139739914Y-88811841D01*
X139753573Y-88817835D01*
X139782862Y-88861860D01*
X139744498Y-88896995D01*
X139660884Y-88908697D01*
X139621125Y-88903823D01*
X139499822Y-88880162D01*
X139612611Y-88931623D01*
X139742449Y-88991348D01*
X139829844Y-89031985D01*
X139930287Y-89056453D01*
X139965190Y-89035506D01*
X140023664Y-88987945D01*
X140128755Y-88928234D01*
X140153997Y-88916001D01*
X140284321Y-88834609D01*
X140390157Y-88735683D01*
X140397172Y-88726611D01*
X140399386Y-88724134D01*
X140469805Y-88724134D01*
X140492362Y-88746692D01*
X140514920Y-88724134D01*
X140492362Y-88701576D01*
X140469805Y-88724134D01*
X140399386Y-88724134D01*
X140480566Y-88633312D01*
X140537930Y-88621365D01*
X140578604Y-88689114D01*
X140580228Y-88694123D01*
X140612097Y-88744284D01*
X140681395Y-88763661D01*
X140813207Y-88758974D01*
X140820124Y-88758381D01*
X140946575Y-88758250D01*
X140991154Y-88781039D01*
X140950895Y-88818252D01*
X140853286Y-88853347D01*
X140833667Y-88863946D01*
X140891175Y-88860774D01*
X140932238Y-88855682D01*
X141040297Y-88850839D01*
X141098288Y-88867231D01*
X141101421Y-88874853D01*
X141062693Y-88920583D01*
X140963988Y-88980206D01*
X140831525Y-89040933D01*
X140691521Y-89089973D01*
X140627709Y-89105944D01*
X140537658Y-89137542D01*
X140505893Y-89175583D01*
X140506304Y-89177138D01*
X140480022Y-89220503D01*
X140416073Y-89249743D01*
X140347943Y-89271783D01*
X140364213Y-89281002D01*
X140403695Y-89283580D01*
X140494951Y-89271465D01*
X140635314Y-89235482D01*
X140752213Y-89197846D01*
X140896080Y-89149650D01*
X140961892Y-89130173D01*
X141642807Y-89130173D01*
X141665364Y-89152731D01*
X141687922Y-89130173D01*
X141665364Y-89107615D01*
X141642807Y-89130173D01*
X140961892Y-89130173D01*
X141006705Y-89116911D01*
X141052242Y-89107615D01*
X141125010Y-89092764D01*
X141199994Y-89067905D01*
X141296059Y-89036474D01*
X141344512Y-89026642D01*
X141401700Y-88989671D01*
X141450848Y-88914165D01*
X141461654Y-88870759D01*
X141425645Y-88840719D01*
X141394672Y-88836922D01*
X141334899Y-88811596D01*
X141334918Y-88756076D01*
X141387926Y-88701052D01*
X141428508Y-88684281D01*
X141496085Y-88657195D01*
X141483126Y-88623362D01*
X141462345Y-88607090D01*
X141422534Y-88572930D01*
X141461550Y-88579518D01*
X141477313Y-88584532D01*
X141567638Y-88607396D01*
X141601381Y-88611345D01*
X141638150Y-88647942D01*
X141642807Y-88679018D01*
X141678920Y-88738831D01*
X141710480Y-88746692D01*
X141750830Y-88744710D01*
X141770368Y-88726774D01*
X141768599Y-88674896D01*
X141745027Y-88571086D01*
X141701045Y-88404452D01*
X141657559Y-88249969D01*
X141620805Y-88163368D01*
X141575489Y-88125029D01*
X141506318Y-88115333D01*
X141475468Y-88115075D01*
X141374908Y-88103078D01*
X141327537Y-88073807D01*
X141326998Y-88069960D01*
X141301577Y-88030280D01*
X141293162Y-88030187D01*
X141197415Y-88026591D01*
X141166526Y-87965799D01*
X141174111Y-87898250D01*
X141177157Y-87799267D01*
X141236767Y-87799267D01*
X141253274Y-87836402D01*
X141266844Y-87829344D01*
X141269877Y-87799267D01*
X142635346Y-87799267D01*
X142651854Y-87836402D01*
X142665423Y-87829344D01*
X142670823Y-87775802D01*
X142665423Y-87769190D01*
X142638602Y-87775383D01*
X142635346Y-87799267D01*
X141269877Y-87799267D01*
X141272244Y-87775802D01*
X141266844Y-87769190D01*
X141240023Y-87775383D01*
X141236767Y-87799267D01*
X141177157Y-87799267D01*
X141177362Y-87792622D01*
X141132269Y-87718677D01*
X141030012Y-87673588D01*
X140861771Y-87654528D01*
X140618725Y-87658670D01*
X140459184Y-87669105D01*
X140355249Y-87685749D01*
X140337154Y-87712454D01*
X140346395Y-87720514D01*
X140343219Y-87741417D01*
X140262357Y-87748145D01*
X140192139Y-87745327D01*
X140073925Y-87743694D01*
X140008198Y-87754919D01*
X140003061Y-87765430D01*
X139990036Y-87797157D01*
X139974018Y-87799267D01*
X139905753Y-87817683D01*
X139791818Y-87864139D01*
X139737195Y-87889551D01*
X139612872Y-87941811D01*
X139542112Y-87947728D01*
X139510841Y-87923387D01*
X139489112Y-87909399D01*
X139499907Y-87968450D01*
X139504448Y-88050827D01*
X139475478Y-88069960D01*
X139442396Y-88102533D01*
X139447910Y-88136188D01*
X139447341Y-88208839D01*
X139430013Y-88229184D01*
X139405552Y-88290648D01*
X139422911Y-88392517D01*
X139472312Y-88501177D01*
X139529594Y-88571522D01*
X139597459Y-88640580D01*
X139594782Y-88674335D01*
X139514908Y-88678754D01*
X139420870Y-88669025D01*
X139305313Y-88658976D01*
X139264937Y-88670292D01*
X138972400Y-88670292D01*
X138977035Y-88627536D01*
X138939485Y-88631736D01*
X138935319Y-88634249D01*
X138895100Y-88644542D01*
X138905655Y-88592499D01*
X138931726Y-88502704D01*
X138935879Y-88469646D01*
X138960234Y-88442345D01*
X138969716Y-88446417D01*
X138989200Y-88417588D01*
X139004455Y-88321413D01*
X139010699Y-88217440D01*
X139012719Y-88194220D01*
X139161457Y-88194220D01*
X139183542Y-88268061D01*
X139237188Y-88372414D01*
X139303476Y-88476559D01*
X139363491Y-88549773D01*
X139390523Y-88566230D01*
X139402539Y-88531212D01*
X139377019Y-88446512D01*
X139375111Y-88442162D01*
X139319448Y-88339330D01*
X139254605Y-88248667D01*
X139197291Y-88189565D01*
X139164215Y-88181414D01*
X139161457Y-88194220D01*
X139012719Y-88194220D01*
X139021570Y-88092517D01*
X139116341Y-88092517D01*
X139138899Y-88115075D01*
X139296803Y-88115075D01*
X139313310Y-88152210D01*
X139326880Y-88145152D01*
X139332279Y-88091611D01*
X139326880Y-88084998D01*
X139300059Y-88091191D01*
X139296803Y-88115075D01*
X139138899Y-88115075D01*
X139161457Y-88092517D01*
X139138899Y-88069960D01*
X139116341Y-88092517D01*
X139021570Y-88092517D01*
X139023179Y-88074037D01*
X139047731Y-87969735D01*
X139068648Y-87936206D01*
X139088331Y-87882640D01*
X139101783Y-87765267D01*
X139109128Y-87606732D01*
X139110492Y-87429675D01*
X139105999Y-87256741D01*
X139095774Y-87110571D01*
X139079942Y-87013810D01*
X139063419Y-86987189D01*
X139033689Y-86949113D01*
X139026110Y-86891434D01*
X139017289Y-86825667D01*
X138975595Y-86837576D01*
X138949777Y-86857597D01*
X138896670Y-86896137D01*
X138900082Y-86872886D01*
X138911524Y-86851842D01*
X138974351Y-86757309D01*
X139006198Y-86716496D01*
X139038944Y-86648630D01*
X139008257Y-86603708D01*
X144439965Y-86603708D01*
X144462522Y-86626265D01*
X144485080Y-86603708D01*
X144462522Y-86581150D01*
X144439965Y-86603708D01*
X139008257Y-86603708D01*
X138999336Y-86590650D01*
X138950662Y-86560099D01*
X138936206Y-86606520D01*
X138935879Y-86627452D01*
X138917331Y-86744572D01*
X138897005Y-86798414D01*
X138858899Y-86898107D01*
X138828712Y-87009747D01*
X138814274Y-87092771D01*
X138826998Y-87096512D01*
X138847155Y-87066348D01*
X138897048Y-87014419D01*
X138954319Y-87042217D01*
X138956038Y-87043790D01*
X138991174Y-87115611D01*
X138972586Y-87154396D01*
X138949031Y-87228937D01*
X138957465Y-87256309D01*
X138970534Y-87326857D01*
X138952267Y-87406663D01*
X138915572Y-87458349D01*
X138887516Y-87458894D01*
X138863163Y-87449991D01*
X138847623Y-87469761D01*
X138838904Y-87533371D01*
X138835014Y-87655986D01*
X138833964Y-87852773D01*
X138833948Y-87866940D01*
X138831333Y-88000203D01*
X138824695Y-88068474D01*
X138815348Y-88060373D01*
X138813088Y-88047402D01*
X138784001Y-87931855D01*
X138747698Y-87857826D01*
X138724323Y-87775617D01*
X138733799Y-87699922D01*
X138751988Y-87629281D01*
X138733155Y-87638830D01*
X138700933Y-87679797D01*
X138659542Y-87726690D01*
X138646721Y-87707390D01*
X138654969Y-87610420D01*
X138655063Y-87609616D01*
X138648286Y-87471148D01*
X138592765Y-87390720D01*
X138542040Y-87358107D01*
X138546351Y-87381870D01*
X138548166Y-87456896D01*
X138509896Y-87538534D01*
X138459081Y-87595326D01*
X138441357Y-87579940D01*
X138455687Y-87503725D01*
X138501035Y-87378032D01*
X138523800Y-87325555D01*
X138845648Y-87325555D01*
X138868206Y-87348112D01*
X138890764Y-87325555D01*
X138868206Y-87302997D01*
X138845648Y-87325555D01*
X138523800Y-87325555D01*
X138530831Y-87309349D01*
X138563794Y-87235324D01*
X138719097Y-87235324D01*
X138723974Y-87312373D01*
X138738097Y-87319157D01*
X138739895Y-87315135D01*
X138748820Y-87225572D01*
X138741567Y-87179788D01*
X138727206Y-87161390D01*
X138719395Y-87221314D01*
X138719097Y-87235324D01*
X138563794Y-87235324D01*
X138589705Y-87177136D01*
X138613750Y-87108462D01*
X138605718Y-87084837D01*
X138568361Y-87087768D01*
X138563677Y-87088699D01*
X138523545Y-87061372D01*
X138521541Y-86987189D01*
X138522787Y-86964631D01*
X138620071Y-86964631D01*
X138642629Y-86987189D01*
X138665187Y-86964631D01*
X138642629Y-86942073D01*
X138620071Y-86964631D01*
X138522787Y-86964631D01*
X138524821Y-86927823D01*
X138504822Y-86920877D01*
X138448510Y-86972090D01*
X138374915Y-87051779D01*
X138286928Y-87139341D01*
X138228491Y-87179396D01*
X138214032Y-87171528D01*
X138237602Y-87088464D01*
X138296856Y-86965040D01*
X138374615Y-86834016D01*
X138435074Y-86750056D01*
X138465766Y-86693938D01*
X138620071Y-86693938D01*
X138642629Y-86716496D01*
X138665187Y-86693938D01*
X138642629Y-86671381D01*
X138620071Y-86693938D01*
X138465766Y-86693938D01*
X138474720Y-86677567D01*
X138471434Y-86643052D01*
X138474691Y-86590927D01*
X138512547Y-86486230D01*
X138554422Y-86396693D01*
X138624873Y-86253987D01*
X138657448Y-86173491D01*
X138656965Y-86137921D01*
X138628780Y-86129995D01*
X138587388Y-86166958D01*
X138540249Y-86254063D01*
X138511206Y-86312210D01*
X138507847Y-86293250D01*
X138510131Y-86282579D01*
X138511471Y-86165176D01*
X138490706Y-86078054D01*
X138486418Y-86017207D01*
X138574956Y-86017207D01*
X138597513Y-86039764D01*
X138620071Y-86017207D01*
X138597513Y-85994649D01*
X138574956Y-86017207D01*
X138486418Y-86017207D01*
X138483803Y-85980116D01*
X138495574Y-85926976D01*
X138529840Y-85926976D01*
X138552398Y-85949533D01*
X138574956Y-85926976D01*
X138620071Y-85926976D01*
X138642629Y-85949533D01*
X138665187Y-85926976D01*
X138642629Y-85904418D01*
X138620071Y-85926976D01*
X138574956Y-85926976D01*
X138552398Y-85904418D01*
X138529840Y-85926976D01*
X138495574Y-85926976D01*
X138511843Y-85853531D01*
X138563095Y-85725944D01*
X138625822Y-85624997D01*
X138688292Y-85578336D01*
X138702768Y-85578449D01*
X138741024Y-85566285D01*
X138735477Y-85547730D01*
X138741860Y-85489631D01*
X138761223Y-85472233D01*
X138789651Y-85466095D01*
X138794711Y-85505736D01*
X138775037Y-85604714D01*
X138731356Y-85769072D01*
X138700010Y-85881860D01*
X138800533Y-85881860D01*
X138823091Y-85904418D01*
X138845648Y-85881860D01*
X138823091Y-85859303D01*
X138800533Y-85881860D01*
X138700010Y-85881860D01*
X138766984Y-85791629D01*
X138845648Y-85791629D01*
X138868206Y-85814187D01*
X138890764Y-85791629D01*
X138868206Y-85769072D01*
X138845648Y-85791629D01*
X138766984Y-85791629D01*
X138775916Y-85779596D01*
X138850334Y-85707063D01*
X138898790Y-85717007D01*
X138916345Y-85804157D01*
X138906037Y-85918420D01*
X138890546Y-86033381D01*
X138897725Y-86075257D01*
X138933351Y-86059598D01*
X138952738Y-86044122D01*
X139007545Y-85955351D01*
X139006244Y-85834626D01*
X139009535Y-85784110D01*
X144094079Y-85784110D01*
X144100272Y-85810931D01*
X144124156Y-85814187D01*
X144161292Y-85797680D01*
X144154233Y-85784110D01*
X144100692Y-85778711D01*
X144094079Y-85784110D01*
X139009535Y-85784110D01*
X139017111Y-85667833D01*
X139063446Y-85582133D01*
X139127283Y-85457856D01*
X139142677Y-85391606D01*
X143853464Y-85391606D01*
X143875707Y-85457758D01*
X143920281Y-85483525D01*
X143936927Y-85475069D01*
X143930701Y-85428719D01*
X143906850Y-85398373D01*
X143861429Y-85372939D01*
X143853464Y-85391606D01*
X139142677Y-85391606D01*
X139152286Y-85350258D01*
X139175318Y-85237148D01*
X139209586Y-85169796D01*
X139260611Y-85097982D01*
X139330749Y-84982747D01*
X139358028Y-84934436D01*
X142274423Y-84934436D01*
X142296981Y-84956993D01*
X142319538Y-84934436D01*
X142296981Y-84911878D01*
X142274423Y-84934436D01*
X139358028Y-84934436D01*
X139431272Y-84825944D01*
X139460203Y-84799089D01*
X141236767Y-84799089D01*
X141259325Y-84821647D01*
X141281883Y-84799089D01*
X141259325Y-84776532D01*
X141236767Y-84799089D01*
X139460203Y-84799089D01*
X139500591Y-84761600D01*
X139523816Y-84753974D01*
X139601416Y-84730833D01*
X139618152Y-84715479D01*
X139674043Y-84704278D01*
X139741205Y-84727802D01*
X139808385Y-84756512D01*
X139816874Y-84730605D01*
X139809592Y-84709391D01*
X139807453Y-84661397D01*
X139860971Y-84670072D01*
X139912837Y-84681624D01*
X139906526Y-84641369D01*
X139886965Y-84602911D01*
X139862255Y-84524910D01*
X139895081Y-84510007D01*
X139971130Y-84562233D01*
X140013145Y-84596061D01*
X140001291Y-84564443D01*
X140000049Y-84562233D01*
X139999657Y-84555529D01*
X140617932Y-84555529D01*
X140627398Y-84600735D01*
X140630609Y-84609294D01*
X140666350Y-84664540D01*
X140686669Y-84664937D01*
X140681608Y-84617211D01*
X140655865Y-84584039D01*
X140617932Y-84555529D01*
X139999657Y-84555529D01*
X139997143Y-84512648D01*
X140015988Y-84505839D01*
X140031527Y-84483281D01*
X140560036Y-84483281D01*
X140582593Y-84505839D01*
X140605151Y-84483281D01*
X140582593Y-84460723D01*
X140560036Y-84483281D01*
X140031527Y-84483281D01*
X140044233Y-84464836D01*
X140061148Y-84357852D01*
X140063302Y-84295300D01*
X140304381Y-84295300D01*
X140310574Y-84322121D01*
X140334458Y-84325377D01*
X140371594Y-84308870D01*
X140364535Y-84295300D01*
X140310994Y-84289901D01*
X140304381Y-84295300D01*
X140063302Y-84295300D01*
X140063766Y-84281849D01*
X140068907Y-84192750D01*
X140431858Y-84192750D01*
X140432964Y-84214621D01*
X140443841Y-84250115D01*
X140468006Y-84347546D01*
X140473366Y-84385461D01*
X140484277Y-84411811D01*
X140499117Y-84383471D01*
X140498475Y-84370493D01*
X140650267Y-84370493D01*
X140666774Y-84407628D01*
X140680344Y-84400570D01*
X140685743Y-84347028D01*
X140680344Y-84340416D01*
X140653522Y-84346609D01*
X140650267Y-84370493D01*
X140498475Y-84370493D01*
X140495197Y-84304289D01*
X140469591Y-84248125D01*
X140431858Y-84192750D01*
X140068907Y-84192750D01*
X140072247Y-84134888D01*
X140076891Y-84122358D01*
X140334458Y-84122358D01*
X140357016Y-84144915D01*
X140379574Y-84122358D01*
X140357016Y-84099800D01*
X140334458Y-84122358D01*
X140076891Y-84122358D01*
X140103371Y-84050925D01*
X140152317Y-84010468D01*
X140217188Y-83939335D01*
X140215734Y-83884813D01*
X140206203Y-83837411D01*
X140232562Y-83864896D01*
X140292623Y-83886455D01*
X140377172Y-83841160D01*
X140471897Y-83743619D01*
X140562488Y-83608442D01*
X140632250Y-83456905D01*
X140675475Y-83385519D01*
X140710592Y-83399380D01*
X140721162Y-83468184D01*
X140708452Y-83541577D01*
X140690903Y-83558414D01*
X140647671Y-83592190D01*
X140585072Y-83673767D01*
X140582991Y-83676928D01*
X140523872Y-83783680D01*
X140478514Y-83894035D01*
X140454151Y-83984290D01*
X140458015Y-84030741D01*
X140475722Y-84028470D01*
X140509262Y-84035871D01*
X140509093Y-84061436D01*
X140513601Y-84149252D01*
X140534252Y-84231993D01*
X140558721Y-84291320D01*
X140581085Y-84289410D01*
X140612599Y-84216493D01*
X140638185Y-84141762D01*
X140698969Y-83999929D01*
X140771267Y-83883599D01*
X140795578Y-83856427D01*
X140859081Y-83799850D01*
X140870865Y-83811191D01*
X140850134Y-83878985D01*
X140830717Y-83978582D01*
X140817964Y-84123459D01*
X140812182Y-84287021D01*
X140813680Y-84442676D01*
X140822766Y-84563830D01*
X140839748Y-84623891D01*
X140841490Y-84625281D01*
X140857020Y-84610325D01*
X140847612Y-84574994D01*
X140840118Y-84534168D01*
X140877429Y-84539654D01*
X140960632Y-84583929D01*
X141054165Y-84652986D01*
X141100162Y-84717958D01*
X141101136Y-84725661D01*
X141114247Y-84764188D01*
X141166442Y-84733608D01*
X141169094Y-84731416D01*
X141215900Y-84663743D01*
X141281883Y-84663743D01*
X141304441Y-84686301D01*
X141326998Y-84663743D01*
X141304441Y-84641185D01*
X141281883Y-84663743D01*
X141215900Y-84663743D01*
X141226361Y-84648620D01*
X141236077Y-84601825D01*
X141227106Y-84555420D01*
X141196601Y-84589608D01*
X141151405Y-84623173D01*
X141115773Y-84572690D01*
X141092202Y-84444063D01*
X141084656Y-84325116D01*
X141086492Y-84210790D01*
X141099111Y-84155335D01*
X141111255Y-84159283D01*
X141136642Y-84241574D01*
X141145846Y-84341483D01*
X141159172Y-84432146D01*
X141203212Y-84448138D01*
X141212765Y-84444963D01*
X141285361Y-84445444D01*
X141305658Y-84462694D01*
X141353081Y-84510313D01*
X141379458Y-84483629D01*
X141377337Y-84397537D01*
X141365188Y-84343704D01*
X141342238Y-84231986D01*
X141342466Y-84162152D01*
X141345954Y-84156037D01*
X141370721Y-84176431D01*
X141397290Y-84260155D01*
X141399998Y-84273056D01*
X141432177Y-84384366D01*
X141461097Y-84411692D01*
X141478536Y-84361146D01*
X141476272Y-84238838D01*
X141474101Y-84217981D01*
X141471198Y-84075983D01*
X141490943Y-83960542D01*
X141501773Y-83936009D01*
X141535556Y-83888833D01*
X141546270Y-83915211D01*
X141543897Y-83987011D01*
X141539386Y-84184061D01*
X141552019Y-84307183D01*
X141580809Y-84350385D01*
X141601871Y-84339244D01*
X141627184Y-84270069D01*
X141598215Y-84191010D01*
X141569905Y-84106380D01*
X141580291Y-84058306D01*
X141618455Y-84067965D01*
X141644569Y-84101106D01*
X141674732Y-84127333D01*
X141689200Y-84074729D01*
X141691728Y-84032127D01*
X141696853Y-83942637D01*
X141707471Y-83938507D01*
X141730250Y-84009569D01*
X141774137Y-84088864D01*
X141821518Y-84109234D01*
X141859342Y-84126831D01*
X141851361Y-84169318D01*
X141826460Y-84248807D01*
X141822577Y-84272673D01*
X141801791Y-84268233D01*
X141775037Y-84235146D01*
X141741294Y-84197085D01*
X141739760Y-84239345D01*
X141742509Y-84257704D01*
X141780492Y-84331166D01*
X141819339Y-84347935D01*
X141883440Y-84385192D01*
X141914733Y-84438166D01*
X141940911Y-84492762D01*
X141968024Y-84477703D01*
X141983829Y-84446596D01*
X142066313Y-84446596D01*
X142115959Y-84537973D01*
X142121837Y-84544940D01*
X142184075Y-84607364D01*
X142221666Y-84601789D01*
X142244756Y-84566862D01*
X142255288Y-84491053D01*
X142212499Y-84452214D01*
X142148008Y-84379520D01*
X142136023Y-84334414D01*
X142126726Y-84292073D01*
X142098620Y-84329382D01*
X142086527Y-84353581D01*
X142066313Y-84446596D01*
X141983829Y-84446596D01*
X142006946Y-84401098D01*
X142040138Y-84289404D01*
X142020432Y-84243194D01*
X141976178Y-84193883D01*
X141943981Y-84129051D01*
X141935608Y-84080490D01*
X141959131Y-84077562D01*
X142000773Y-84069189D01*
X142006590Y-84046068D01*
X142021778Y-84035389D01*
X142050251Y-84088521D01*
X142098606Y-84166681D01*
X142137623Y-84190031D01*
X142172627Y-84228631D01*
X142184192Y-84302819D01*
X142197574Y-84387636D01*
X142223250Y-84415608D01*
X142239666Y-84376327D01*
X142236503Y-84302819D01*
X142274423Y-84302819D01*
X142296981Y-84325377D01*
X142319538Y-84302819D01*
X142296981Y-84280262D01*
X142274423Y-84302819D01*
X142236503Y-84302819D01*
X142235403Y-84277284D01*
X142227165Y-84223867D01*
X142225294Y-84210961D01*
X142381111Y-84210961D01*
X142401608Y-84235146D01*
X142437458Y-84195920D01*
X142464283Y-84101266D01*
X142464716Y-84098382D01*
X142467961Y-84011871D01*
X142446692Y-84004373D01*
X142410549Y-84071385D01*
X142389242Y-84133636D01*
X142381111Y-84210961D01*
X142225294Y-84210961D01*
X142209598Y-84102723D01*
X142207010Y-84024987D01*
X142210665Y-84013329D01*
X142228012Y-84029245D01*
X142229307Y-84047165D01*
X142259517Y-84096830D01*
X142274423Y-84099800D01*
X142305524Y-84060331D01*
X142320738Y-83964205D01*
X142320973Y-83953175D01*
X142343270Y-83819957D01*
X142391621Y-83716319D01*
X142440161Y-83657435D01*
X142447805Y-83674078D01*
X142432298Y-83742636D01*
X142424336Y-83830818D01*
X142466170Y-83858928D01*
X142474439Y-83859184D01*
X142532169Y-83820612D01*
X142545116Y-83752466D01*
X142562555Y-83639410D01*
X142605287Y-83502393D01*
X142612789Y-83483783D01*
X142666979Y-83337430D01*
X142675516Y-83265143D01*
X142638709Y-83263340D01*
X142631620Y-83267467D01*
X142615231Y-83266518D01*
X142632204Y-83218418D01*
X142687036Y-83113823D01*
X142784227Y-82943385D01*
X142803864Y-82909628D01*
X142845395Y-82850692D01*
X142860259Y-82850142D01*
X142892040Y-82848985D01*
X142970980Y-82802924D01*
X143007549Y-82776774D01*
X143150392Y-82688572D01*
X143302466Y-82620034D01*
X143315916Y-82615531D01*
X143457182Y-82546331D01*
X143514215Y-82503032D01*
X143648168Y-82503032D01*
X143681889Y-82551977D01*
X143732059Y-82562313D01*
X143758536Y-82551295D01*
X143729115Y-82535902D01*
X143694971Y-82487835D01*
X143702249Y-82464820D01*
X143703748Y-82438148D01*
X143679237Y-82449233D01*
X143648168Y-82503032D01*
X143514215Y-82503032D01*
X143591100Y-82444663D01*
X143606328Y-82429485D01*
X143726810Y-82332172D01*
X143856258Y-82299256D01*
X143895741Y-82298846D01*
X144056483Y-82302510D01*
X143785791Y-82433638D01*
X143943695Y-82403303D01*
X144118359Y-82382428D01*
X144321835Y-82376595D01*
X144521617Y-82384876D01*
X144685196Y-82406339D01*
X144755773Y-82426523D01*
X144796022Y-82449649D01*
X144767860Y-82459186D01*
X144663295Y-82455966D01*
X144552753Y-82447606D01*
X144366343Y-82437573D01*
X144227555Y-82449065D01*
X144095073Y-82488387D01*
X143988810Y-82533648D01*
X143823295Y-82601684D01*
X143663717Y-82656142D01*
X143582771Y-82677075D01*
X143416286Y-82718572D01*
X143241148Y-82775871D01*
X143086674Y-82838022D01*
X142982178Y-82894070D01*
X142965212Y-82907809D01*
X142920584Y-82972371D01*
X142852683Y-83094242D01*
X142775314Y-83248466D01*
X142766361Y-83267302D01*
X142697763Y-83420889D01*
X142654527Y-83549522D01*
X142630596Y-83683920D01*
X142619915Y-83854801D01*
X142616958Y-84024978D01*
X142619527Y-84241391D01*
X142630967Y-84397519D01*
X142650143Y-84480934D01*
X142659541Y-84491097D01*
X142699798Y-84467089D01*
X142713132Y-84416154D01*
X142703726Y-84342724D01*
X142683874Y-84325377D01*
X142667052Y-84285550D01*
X142659400Y-84186119D01*
X142660123Y-84057158D01*
X142668431Y-83928743D01*
X142683529Y-83830949D01*
X142697809Y-83796722D01*
X142712758Y-83794183D01*
X142724025Y-83830098D01*
X142733087Y-83917909D01*
X142741422Y-84071060D01*
X142749038Y-84262628D01*
X142762064Y-84438808D01*
X142793556Y-84540575D01*
X142856246Y-84583567D01*
X142962864Y-84583418D01*
X143005257Y-84577308D01*
X143122668Y-84567117D01*
X143158340Y-84586615D01*
X143154832Y-84595006D01*
X143157412Y-84637340D01*
X143174069Y-84641185D01*
X143212737Y-84602865D01*
X143225409Y-84539676D01*
X143235375Y-84481111D01*
X143250225Y-84490055D01*
X143308399Y-84520791D01*
X143393288Y-84508769D01*
X143551022Y-84507903D01*
X143710974Y-84593527D01*
X143753432Y-84629906D01*
X143834784Y-84680596D01*
X143889142Y-84672188D01*
X143898579Y-84641185D01*
X143935121Y-84601160D01*
X143966252Y-84596070D01*
X144026279Y-84621180D01*
X144033926Y-84642601D01*
X143997872Y-84697541D01*
X143966252Y-84715101D01*
X143902548Y-84768116D01*
X143911888Y-84827925D01*
X143984863Y-84864670D01*
X144014030Y-84866763D01*
X144090789Y-84881084D01*
X144101599Y-84911878D01*
X144037965Y-84949778D01*
X143986147Y-84956993D01*
X143914335Y-84978792D01*
X143898579Y-85007748D01*
X143937461Y-85038741D01*
X144033926Y-85031434D01*
X144133802Y-85023584D01*
X144168616Y-85058317D01*
X144169272Y-85068668D01*
X144204336Y-85142471D01*
X144248224Y-85178957D01*
X144293005Y-85217698D01*
X144282061Y-85231518D01*
X144194849Y-85247883D01*
X144191830Y-85248576D01*
X144104713Y-85264516D01*
X144094544Y-85265930D01*
X144065852Y-85304910D01*
X144069838Y-85378555D01*
X144099095Y-85440692D01*
X144124591Y-85453263D01*
X144168845Y-85417372D01*
X144186684Y-85382731D01*
X144228183Y-85334062D01*
X144270220Y-85353238D01*
X144291773Y-85420485D01*
X144286009Y-85476151D01*
X144287879Y-85589455D01*
X144327191Y-85708085D01*
X144373694Y-85844301D01*
X144394497Y-85998160D01*
X144394571Y-86005545D01*
X144416599Y-86149698D01*
X144482786Y-86229264D01*
X144541358Y-86284252D01*
X144521912Y-86342900D01*
X144518326Y-86347317D01*
X144492952Y-86410771D01*
X144541114Y-86465429D01*
X144584185Y-86508585D01*
X144593126Y-86568755D01*
X144569423Y-86674994D01*
X144554436Y-86725963D01*
X144520036Y-86870701D01*
X144525502Y-86955501D01*
X144542965Y-86981912D01*
X144567662Y-87024160D01*
X144534328Y-87032304D01*
X144495377Y-87064815D01*
X144503606Y-87145093D01*
X144517789Y-87223930D01*
X144496572Y-87251436D01*
X144423869Y-87231105D01*
X144321733Y-87184602D01*
X144226514Y-87144840D01*
X144148132Y-87136488D01*
X144051207Y-87161619D01*
X143936696Y-87207159D01*
X143770009Y-87262981D01*
X143604522Y-87297529D01*
X143534302Y-87302997D01*
X143415756Y-87314430D01*
X143340309Y-87342701D01*
X143333164Y-87350494D01*
X143271248Y-87382427D01*
X143251550Y-87378709D01*
X143176873Y-87386421D01*
X143069041Y-87432366D01*
X142959830Y-87498174D01*
X142881013Y-87565473D01*
X142860924Y-87604555D01*
X142833647Y-87659055D01*
X142815808Y-87663921D01*
X142773238Y-87628676D01*
X142770693Y-87611286D01*
X142754499Y-87578864D01*
X142744480Y-87584864D01*
X142743419Y-87639374D01*
X142772776Y-87712929D01*
X142799189Y-87783353D01*
X142778938Y-87842973D01*
X142699799Y-87920304D01*
X142674922Y-87941157D01*
X142570678Y-88019048D01*
X142490210Y-88064264D01*
X142472420Y-88068746D01*
X142441201Y-88107266D01*
X142443333Y-88180082D01*
X142440283Y-88288982D01*
X142407730Y-88432691D01*
X142388470Y-88488983D01*
X142344379Y-88619455D01*
X142337044Y-88712842D01*
X142365928Y-88814224D01*
X142384073Y-88858927D01*
X142432270Y-89008656D01*
X142472101Y-89191002D01*
X142484007Y-89271873D01*
X142507772Y-89417948D01*
X142540365Y-89492352D01*
X142590049Y-89513642D01*
X142591691Y-89513654D01*
X142640933Y-89525990D01*
X142651645Y-89578913D01*
X142633151Y-89681294D01*
X142616606Y-89801965D01*
X142623937Y-89886290D01*
X142628661Y-89895592D01*
X142649357Y-89976227D01*
X142655768Y-90129741D01*
X142647427Y-90339844D01*
X142643057Y-90398374D01*
X142608663Y-90485767D01*
X142529932Y-90600576D01*
X142478378Y-90660007D01*
X142376283Y-90759266D01*
X142297004Y-90802441D01*
X142207175Y-90804052D01*
X142163870Y-90796887D01*
X142031948Y-90754518D01*
X141875060Y-90680329D01*
X141800444Y-90636764D01*
X141648601Y-90555946D01*
X141518891Y-90513618D01*
X141424385Y-90508318D01*
X141378155Y-90538580D01*
X141393273Y-90602943D01*
X141455532Y-90675377D01*
X141649834Y-90855201D01*
X141800230Y-90982618D01*
X141924857Y-91070741D01*
X142041851Y-91132681D01*
X142143309Y-91172604D01*
X142323795Y-91226110D01*
X142446764Y-91234234D01*
X142533146Y-91196184D01*
X142571769Y-91156380D01*
X142617711Y-91123447D01*
X142687789Y-91134146D01*
X142787019Y-91179749D01*
X143000139Y-91245110D01*
X143127662Y-91247583D01*
X143245021Y-91244175D01*
X143303289Y-91272084D01*
X143328253Y-91330135D01*
X143357649Y-91396421D01*
X143400806Y-91382521D01*
X143409855Y-91373889D01*
X143475898Y-91326627D01*
X143517634Y-91323622D01*
X143509978Y-91363540D01*
X143498629Y-91378609D01*
X143424773Y-91418082D01*
X143301023Y-91443448D01*
X143256248Y-91446786D01*
X143098679Y-91465137D01*
X142911606Y-91503153D01*
X142815808Y-91528833D01*
X142659337Y-91567552D01*
X142474945Y-91596360D01*
X142248130Y-91616428D01*
X141964384Y-91628928D01*
X141609203Y-91635033D01*
X141492166Y-91635768D01*
X141289597Y-91638279D01*
X141163849Y-91645199D01*
X141101538Y-91658844D01*
X141089279Y-91681528D01*
X141102568Y-91703135D01*
X141188701Y-91747369D01*
X141253209Y-91745214D01*
X141349587Y-91743365D01*
X141493911Y-91763631D01*
X141597550Y-91787046D01*
X141773765Y-91823059D01*
X141878268Y-91818488D01*
X141901022Y-91806177D01*
X141963928Y-91791068D01*
X142086226Y-91783813D01*
X142237443Y-91784117D01*
X142387108Y-91791685D01*
X142504750Y-91806223D01*
X142530529Y-91812263D01*
X142547067Y-91850925D01*
X142559583Y-91893494D01*
X142579149Y-91940687D01*
X142601159Y-91907186D01*
X142612545Y-91873702D01*
X142661958Y-91802743D01*
X142768932Y-91752183D01*
X142867683Y-91727076D01*
X143027926Y-91694312D01*
X143111142Y-91682646D01*
X143127981Y-91691860D01*
X143089092Y-91721735D01*
X143087808Y-91722549D01*
X143044853Y-91770986D01*
X143049485Y-91792565D01*
X143101534Y-91789120D01*
X143206905Y-91751070D01*
X143306092Y-91704787D01*
X143435548Y-91644578D01*
X143543025Y-91603698D01*
X143613056Y-91586100D01*
X143630171Y-91595737D01*
X143582771Y-91634081D01*
X143544808Y-91670247D01*
X143555927Y-91678505D01*
X143560262Y-91706621D01*
X143515098Y-91769427D01*
X143432889Y-91837287D01*
X143372759Y-91859658D01*
X143319481Y-91896069D01*
X143312078Y-91929300D01*
X143272610Y-92031974D01*
X143170359Y-92137393D01*
X143029556Y-92224422D01*
X142932831Y-92260063D01*
X142813612Y-92285210D01*
X142733318Y-92289611D01*
X142722318Y-92286240D01*
X142660278Y-92286549D01*
X142560180Y-92316871D01*
X142441019Y-92357650D01*
X142353397Y-92377326D01*
X142262356Y-92404695D01*
X142229700Y-92449975D01*
X142241853Y-92473743D01*
X142301821Y-92489767D01*
X142425614Y-92499254D01*
X142587074Y-92502333D01*
X142760042Y-92499131D01*
X142918360Y-92489776D01*
X143035869Y-92474396D01*
X143055314Y-92469762D01*
X143152307Y-92421328D01*
X143283399Y-92328589D01*
X143304222Y-92310812D01*
X144056483Y-92310812D01*
X144066711Y-92349436D01*
X144098936Y-92355928D01*
X144160664Y-92332373D01*
X144169272Y-92310812D01*
X144136891Y-92266988D01*
X144126819Y-92265697D01*
X144065717Y-92298491D01*
X144056483Y-92310812D01*
X143304222Y-92310812D01*
X143416238Y-92215187D01*
X143536180Y-92106910D01*
X143631504Y-92028393D01*
X143682798Y-91995553D01*
X143684281Y-91995376D01*
X143710334Y-91956609D01*
X143714572Y-91919900D01*
X144052479Y-91919900D01*
X144060531Y-91979812D01*
X144110381Y-92008540D01*
X144201892Y-92027542D01*
X144249898Y-92029275D01*
X144233239Y-92013429D01*
X144225666Y-92010240D01*
X144174678Y-91950823D01*
X144169272Y-91919812D01*
X144141844Y-91869945D01*
X144115697Y-91869997D01*
X144052479Y-91919900D01*
X143714572Y-91919900D01*
X143718117Y-91889208D01*
X143750594Y-91777125D01*
X143804027Y-91705665D01*
X143883163Y-91654464D01*
X143959201Y-91671874D01*
X143979987Y-91684156D01*
X144041281Y-91752409D01*
X144045141Y-91805274D01*
X144040229Y-91846445D01*
X144089611Y-91832573D01*
X144114803Y-91819548D01*
X144201341Y-91760896D01*
X144238229Y-91722234D01*
X144298603Y-91696596D01*
X144359180Y-91704752D01*
X144423542Y-91712799D01*
X144420394Y-91684029D01*
X144354353Y-91642751D01*
X144297129Y-91634081D01*
X144229618Y-91612922D01*
X144230148Y-91567852D01*
X144227575Y-91493957D01*
X144208487Y-91472530D01*
X144178661Y-91410393D01*
X144182658Y-91362187D01*
X144170068Y-91295715D01*
X144349734Y-91295715D01*
X144372291Y-91318272D01*
X144394849Y-91295715D01*
X144372291Y-91273157D01*
X144349734Y-91295715D01*
X144170068Y-91295715D01*
X144168000Y-91284802D01*
X144118915Y-91258714D01*
X144048485Y-91215165D01*
X144033926Y-91179630D01*
X144050359Y-91144580D01*
X144062415Y-91151262D01*
X144119741Y-91155776D01*
X144175204Y-91134636D01*
X144244712Y-91112990D01*
X144259503Y-91138886D01*
X144287500Y-91166272D01*
X144308074Y-91158233D01*
X144369953Y-91165792D01*
X144445686Y-91223790D01*
X144502398Y-91294493D01*
X144495616Y-91330923D01*
X144464789Y-91346203D01*
X144411851Y-91392264D01*
X144395930Y-91452333D01*
X144420468Y-91490169D01*
X144451243Y-91488758D01*
X144515684Y-91431277D01*
X144583855Y-91314630D01*
X144642733Y-91168316D01*
X144679294Y-91021831D01*
X144685114Y-90959046D01*
X144717324Y-90807658D01*
X144796069Y-90726340D01*
X144904865Y-90721411D01*
X145027229Y-90799188D01*
X145047384Y-90820191D01*
X145093587Y-90898506D01*
X145082386Y-90994173D01*
X145070048Y-91029053D01*
X145043952Y-91133232D01*
X145068406Y-91174348D01*
X145092488Y-91216098D01*
X145067565Y-91280660D01*
X145037598Y-91369827D01*
X145064168Y-91397086D01*
X145135031Y-91351407D01*
X145140328Y-91346201D01*
X145224456Y-91281560D01*
X145267651Y-91290980D01*
X145263270Y-91370443D01*
X145257665Y-91438207D01*
X145290051Y-91435453D01*
X145325582Y-91372149D01*
X145342121Y-91261209D01*
X145342274Y-91249353D01*
X145352902Y-91144365D01*
X145388660Y-91115362D01*
X145404419Y-91119374D01*
X145448514Y-91106818D01*
X145481823Y-91022309D01*
X145499889Y-90926218D01*
X145521096Y-90816368D01*
X145543000Y-90774583D01*
X145568557Y-90805749D01*
X145600729Y-90914749D01*
X145642472Y-91106469D01*
X145658831Y-91188612D01*
X145685150Y-91340836D01*
X145693933Y-91466591D01*
X145683513Y-91597127D01*
X145652229Y-91763696D01*
X145620832Y-91902165D01*
X145570770Y-92103103D01*
X145519407Y-92286673D01*
X145475137Y-92423638D01*
X145460593Y-92460423D01*
X145408428Y-92578835D01*
X145369156Y-92668806D01*
X145367892Y-92671736D01*
X145316166Y-92777856D01*
X145262239Y-92868951D01*
X145221020Y-92922006D01*
X145207111Y-92919871D01*
X145179230Y-92926984D01*
X145107099Y-92988591D01*
X145006114Y-93091480D01*
X145002378Y-93095524D01*
X144898230Y-93204199D01*
X144820668Y-93277129D01*
X144786438Y-93298573D01*
X144786417Y-93298544D01*
X144757232Y-93240855D01*
X144716225Y-93145602D01*
X144680106Y-93053324D01*
X144665542Y-93005316D01*
X144693122Y-92999592D01*
X144699378Y-93003044D01*
X144725729Y-92979529D01*
X144742606Y-92893950D01*
X144742875Y-92890406D01*
X144769534Y-92780832D01*
X144829464Y-92623473D01*
X144909079Y-92447651D01*
X144994791Y-92282690D01*
X145073013Y-92157914D01*
X145095048Y-92130350D01*
X145140562Y-92049879D01*
X145185565Y-91926202D01*
X145221960Y-91790156D01*
X145241651Y-91672575D01*
X145236543Y-91604296D01*
X145234023Y-91601022D01*
X145185628Y-91608180D01*
X145109538Y-91666328D01*
X145106671Y-91669170D01*
X145047626Y-91746279D01*
X145039822Y-91797737D01*
X145040717Y-91798717D01*
X145087601Y-91792382D01*
X145137476Y-91743576D01*
X145184159Y-91685598D01*
X145189341Y-91705388D01*
X145176503Y-91759528D01*
X145124871Y-91865954D01*
X145077237Y-91917432D01*
X145024702Y-91981895D01*
X144948695Y-92105635D01*
X144862928Y-92265714D01*
X144833999Y-92324305D01*
X144753653Y-92479094D01*
X144683670Y-92593032D01*
X144635050Y-92649033D01*
X144623554Y-92651111D01*
X144574439Y-92658810D01*
X144567885Y-92671455D01*
X144559402Y-92657948D01*
X144553912Y-92574430D01*
X144552753Y-92491773D01*
X144563921Y-92341326D01*
X144594717Y-92256099D01*
X144609148Y-92245054D01*
X144662611Y-92197857D01*
X144636986Y-92145000D01*
X144575311Y-92117278D01*
X144498934Y-92056814D01*
X144485080Y-91999228D01*
X144457847Y-91922445D01*
X144417407Y-91904773D01*
X144362679Y-91943467D01*
X144349734Y-92008539D01*
X144331815Y-92109650D01*
X144305389Y-92156649D01*
X144284114Y-92234588D01*
X144293333Y-92391204D01*
X144304632Y-92468801D01*
X144325758Y-92634004D01*
X144320384Y-92752739D01*
X144284069Y-92866034D01*
X144254721Y-92929749D01*
X144191474Y-93043236D01*
X144136754Y-93112687D01*
X144117974Y-93122890D01*
X144066346Y-93153418D01*
X143975710Y-93232779D01*
X143883921Y-93324880D01*
X143662406Y-93509408D01*
X143439390Y-93614164D01*
X143279451Y-93675067D01*
X143138768Y-93738580D01*
X143074524Y-93774280D01*
X142944600Y-93825914D01*
X142831910Y-93837085D01*
X142716641Y-93841190D01*
X142643193Y-93862446D01*
X142558386Y-93874595D01*
X142413892Y-93856186D01*
X142232800Y-93812569D01*
X142038202Y-93749095D01*
X141887885Y-93687418D01*
X141741756Y-93602002D01*
X141570949Y-93474780D01*
X141410214Y-93331844D01*
X141397437Y-93319108D01*
X141270490Y-93192918D01*
X141217449Y-93145448D01*
X141326998Y-93145448D01*
X141349556Y-93168006D01*
X141372114Y-93145448D01*
X141349556Y-93122890D01*
X141326998Y-93145448D01*
X141217449Y-93145448D01*
X141195388Y-93125705D01*
X141161396Y-93111443D01*
X141157779Y-93144105D01*
X141167140Y-93189815D01*
X141227385Y-93319154D01*
X141347486Y-93480603D01*
X141511957Y-93656614D01*
X141705315Y-93829642D01*
X141791289Y-93897109D01*
X141908841Y-93987388D01*
X141961777Y-94038889D01*
X141958008Y-94066515D01*
X141905442Y-94085169D01*
X141892799Y-94088375D01*
X141812672Y-94131508D01*
X141778680Y-94191410D01*
X141799099Y-94239459D01*
X141845826Y-94250777D01*
X141902122Y-94282313D01*
X141912294Y-94352801D01*
X141880183Y-94426058D01*
X141823268Y-94463282D01*
X141750130Y-94498991D01*
X141733037Y-94526731D01*
X141695179Y-94559053D01*
X141642194Y-94566585D01*
X141524005Y-94587803D01*
X141473011Y-94608746D01*
X141376736Y-94654921D01*
X141252273Y-94708282D01*
X141248046Y-94709990D01*
X141139306Y-94772520D01*
X141104230Y-94835265D01*
X141147620Y-94885001D01*
X141180373Y-94896409D01*
X141218748Y-94912678D01*
X141170493Y-94921402D01*
X141155153Y-94922275D01*
X141084203Y-94942806D01*
X141080764Y-94975700D01*
X141142652Y-95006492D01*
X141168551Y-95001633D01*
X141208345Y-95011503D01*
X141203077Y-95069152D01*
X141196429Y-95116906D01*
X141220836Y-95140391D01*
X141294782Y-95143683D01*
X141436745Y-95130861D01*
X141439821Y-95130528D01*
X142229307Y-95130528D01*
X142251865Y-95153086D01*
X142274423Y-95130528D01*
X142251865Y-95107970D01*
X142229307Y-95130528D01*
X141439821Y-95130528D01*
X141467598Y-95127522D01*
X141679143Y-95098739D01*
X141913318Y-95058528D01*
X142048846Y-95030946D01*
X142219352Y-94993493D01*
X142369344Y-94961302D01*
X142454885Y-94943650D01*
X142567673Y-94921521D01*
X142443606Y-95002638D01*
X142358495Y-95068020D01*
X142319762Y-95116995D01*
X142319538Y-95119279D01*
X142356978Y-95135760D01*
X142449988Y-95125739D01*
X142569606Y-95094265D01*
X142657904Y-95060276D01*
X142782446Y-95008753D01*
X142917969Y-94958928D01*
X143017948Y-94927893D01*
X143018828Y-94927684D01*
X143078285Y-94893343D01*
X143173556Y-94819892D01*
X143211823Y-94787210D01*
X143352856Y-94678256D01*
X143506255Y-94580081D01*
X143527631Y-94568376D01*
X143673888Y-94473288D01*
X143813605Y-94356110D01*
X143830906Y-94338739D01*
X143940744Y-94239204D01*
X144092156Y-94119908D01*
X144232995Y-94019956D01*
X144457220Y-93863400D01*
X144641287Y-93721368D01*
X144775604Y-93602258D01*
X144850578Y-93514467D01*
X144860453Y-93470694D01*
X144861137Y-93446795D01*
X144888033Y-93459349D01*
X144945051Y-93445202D01*
X145045057Y-93372295D01*
X145175860Y-93253263D01*
X145325270Y-93100738D01*
X145481097Y-92927355D01*
X145631150Y-92745746D01*
X145763238Y-92568547D01*
X145800384Y-92513832D01*
X146011827Y-92188297D01*
X146176305Y-91919680D01*
X146300138Y-91692083D01*
X146389649Y-91489608D01*
X146451159Y-91296358D01*
X146490988Y-91096434D01*
X146515460Y-90873940D01*
X146527395Y-90685482D01*
X146548782Y-90507688D01*
X146597065Y-90388813D01*
X146640517Y-90335837D01*
X146725491Y-90216459D01*
X146728820Y-90093900D01*
X146687012Y-89995679D01*
X146644534Y-89873978D01*
X146615650Y-89706857D01*
X146601817Y-89523392D01*
X146604489Y-89352659D01*
X146625121Y-89223734D01*
X146646147Y-89179250D01*
X146668950Y-89112783D01*
X146692600Y-88982705D01*
X146712427Y-88815469D01*
X146714529Y-88791807D01*
X146745461Y-88439562D01*
X146771951Y-88167491D01*
X146795694Y-87965746D01*
X146818387Y-87824478D01*
X146841723Y-87733839D01*
X146867400Y-87683982D01*
X146897112Y-87665059D01*
X146908706Y-87663921D01*
X146938290Y-87653372D01*
X146955614Y-87611885D01*
X146961722Y-87524695D01*
X146957659Y-87377041D01*
X146944614Y-87156372D01*
X146931470Y-86946151D01*
X146921333Y-86765452D01*
X146915325Y-86635549D01*
X146914294Y-86581150D01*
X146927610Y-86256954D01*
X146935773Y-86010562D01*
X146938766Y-85829695D01*
X146936575Y-85702073D01*
X146929185Y-85615417D01*
X146916578Y-85557445D01*
X146912988Y-85547008D01*
X146882282Y-85433139D01*
X146854889Y-85281895D01*
X146848563Y-85233969D01*
X146820816Y-85079764D01*
X146780916Y-84944370D01*
X146768186Y-84914647D01*
X146719796Y-84798473D01*
X146666737Y-84647111D01*
X146650795Y-84596070D01*
X146606726Y-84465686D01*
X146566019Y-84371441D01*
X146552546Y-84350191D01*
X146518684Y-84269439D01*
X146515275Y-84235662D01*
X146498360Y-84159666D01*
X146456946Y-84055216D01*
X146405031Y-83950525D01*
X146356612Y-83873807D01*
X146325686Y-83853275D01*
X146325603Y-83853356D01*
X146292601Y-83834155D01*
X146244546Y-83761366D01*
X146188035Y-83679417D01*
X146144066Y-83648645D01*
X146123441Y-83620974D01*
X146129886Y-83606617D01*
X146117866Y-83552543D01*
X146065163Y-83501060D01*
X146005557Y-83444415D01*
X145999882Y-83412115D01*
X145998942Y-83356516D01*
X145957252Y-83255621D01*
X145889325Y-83135457D01*
X145809673Y-83022057D01*
X145741424Y-82948545D01*
X145603544Y-82838073D01*
X145467677Y-82742392D01*
X145356963Y-82676797D01*
X145298985Y-82656105D01*
X145253706Y-82622875D01*
X145252043Y-82610990D01*
X145288518Y-82570812D01*
X145318787Y-82565874D01*
X145383043Y-82534637D01*
X145481982Y-82453560D01*
X145572668Y-82362855D01*
X145678005Y-82255599D01*
X145762647Y-82182019D01*
X145802397Y-82159835D01*
X145867212Y-82131157D01*
X145905705Y-82099120D01*
X145980406Y-82057865D01*
X146112628Y-82012460D01*
X146242634Y-81979787D01*
X146385135Y-81953538D01*
X146506769Y-81945013D01*
X146637843Y-81955752D01*
G37*
G36*
X141097655Y-95387344D02*
G01*
X141270604Y-95403350D01*
X141467939Y-95423244D01*
X141655920Y-95440412D01*
X141795424Y-95451293D01*
X141800711Y-95451625D01*
X141951151Y-95461546D01*
X142026933Y-95470434D01*
X142043467Y-95482710D01*
X142016161Y-95502796D01*
X142003730Y-95509872D01*
X141914427Y-95537096D01*
X141766669Y-95559197D01*
X141584278Y-95575178D01*
X141391075Y-95584046D01*
X141210885Y-95584806D01*
X141067528Y-95576463D01*
X140984828Y-95558022D01*
X140977354Y-95552731D01*
X140927755Y-95468711D01*
X140920959Y-95431090D01*
X140934964Y-95399368D01*
X140988235Y-95385232D01*
X141097655Y-95387344D01*
G37*
G36*
X141417229Y-94950066D02*
G01*
X141394672Y-94972624D01*
X141372114Y-94950066D01*
X141394672Y-94927509D01*
X141417229Y-94950066D01*
G37*
G36*
X142635346Y-94904951D02*
G01*
X142612789Y-94927509D01*
X142590231Y-94904951D01*
X142612789Y-94882393D01*
X142635346Y-94904951D01*
G37*
G36*
X143402309Y-94318450D02*
G01*
X143379751Y-94341008D01*
X143357194Y-94318450D01*
X143379751Y-94295892D01*
X143402309Y-94318450D01*
G37*
G36*
X143492540Y-94273335D02*
G01*
X143469982Y-94295892D01*
X143447425Y-94273335D01*
X143469982Y-94250777D01*
X143492540Y-94273335D01*
G37*
G36*
X142409769Y-94228219D02*
G01*
X142387211Y-94250777D01*
X142364654Y-94228219D01*
X142387211Y-94205661D01*
X142409769Y-94228219D01*
G37*
G36*
X141958615Y-94183104D02*
G01*
X141936057Y-94205661D01*
X141913499Y-94183104D01*
X141936057Y-94160546D01*
X141958615Y-94183104D01*
G37*
G36*
X142274423Y-94183104D02*
G01*
X142251865Y-94205661D01*
X142229307Y-94183104D01*
X142251865Y-94160546D01*
X142274423Y-94183104D01*
G37*
G36*
X142124038Y-94130469D02*
G01*
X142117845Y-94157290D01*
X142093961Y-94160546D01*
X142056826Y-94144039D01*
X142063884Y-94130469D01*
X142117426Y-94125069D01*
X142124038Y-94130469D01*
G37*
G36*
X143673002Y-94092873D02*
G01*
X143650444Y-94115430D01*
X143627886Y-94092873D01*
X143650444Y-94070315D01*
X143673002Y-94092873D01*
G37*
G36*
X143401792Y-93744297D02*
G01*
X143402309Y-93754507D01*
X143367627Y-93797889D01*
X143354531Y-93799622D01*
X143327587Y-93771983D01*
X143334636Y-93754507D01*
X143375177Y-93711467D01*
X143382414Y-93709391D01*
X143401792Y-93744297D01*
G37*
G36*
X143537656Y-93686834D02*
G01*
X143515098Y-93709391D01*
X143492540Y-93686834D01*
X143515098Y-93664276D01*
X143537656Y-93686834D01*
G37*
G36*
X144981350Y-93416141D02*
G01*
X144958792Y-93438699D01*
X144936235Y-93416141D01*
X144958792Y-93393583D01*
X144981350Y-93416141D01*
G37*
G36*
X144575311Y-93325910D02*
G01*
X144552753Y-93348468D01*
X144530195Y-93325910D01*
X144552753Y-93303352D01*
X144575311Y-93325910D01*
G37*
G36*
X145161812Y-93190564D02*
G01*
X145139254Y-93213121D01*
X145116696Y-93190564D01*
X145139254Y-93168006D01*
X145161812Y-93190564D01*
G37*
G36*
X144515157Y-92416082D02*
G01*
X144520556Y-92469623D01*
X144515157Y-92476236D01*
X144488336Y-92470043D01*
X144485080Y-92446159D01*
X144501587Y-92409024D01*
X144515157Y-92416082D01*
G37*
G36*
X145793428Y-92423601D02*
G01*
X145770870Y-92446159D01*
X145748313Y-92423601D01*
X145770870Y-92401043D01*
X145793428Y-92423601D01*
G37*
G36*
X143402309Y-92017562D02*
G01*
X143379751Y-92040120D01*
X143357194Y-92017562D01*
X143379751Y-91995004D01*
X143402309Y-92017562D01*
G37*
G36*
X144086491Y-91490954D02*
G01*
X144120127Y-91577833D01*
X144109416Y-91643871D01*
X144088639Y-91677122D01*
X144082603Y-91645359D01*
X144040298Y-91604954D01*
X143943695Y-91588965D01*
X143848646Y-91577115D01*
X143808358Y-91548566D01*
X143808348Y-91548073D01*
X143844594Y-91525770D01*
X143905634Y-91532622D01*
X143973399Y-91538227D01*
X143970645Y-91505841D01*
X143974761Y-91461252D01*
X144010121Y-91453619D01*
X144086491Y-91490954D01*
G37*
G36*
X143711147Y-91562099D02*
G01*
X143759200Y-91604038D01*
X143763233Y-91614185D01*
X143741822Y-91632728D01*
X143697245Y-91591178D01*
X143691251Y-91581994D01*
X143685934Y-91551122D01*
X143711147Y-91562099D01*
G37*
G36*
X144213870Y-90947139D02*
G01*
X144214387Y-90957349D01*
X144179705Y-91000730D01*
X144166609Y-91002464D01*
X144139665Y-90974825D01*
X144146714Y-90957349D01*
X144187255Y-90914309D01*
X144194492Y-90912233D01*
X144213870Y-90947139D01*
G37*
G36*
X143509913Y-90050140D02*
G01*
X143653178Y-90135877D01*
X143729331Y-90194281D01*
X143904876Y-90335010D01*
X144100474Y-90491834D01*
X144230912Y-90596425D01*
X144347661Y-90696416D01*
X144422755Y-90773451D01*
X144442097Y-90812792D01*
X144439467Y-90814483D01*
X144402235Y-90865998D01*
X144394849Y-90915993D01*
X144372891Y-90991063D01*
X144325225Y-90989679D01*
X144286339Y-90929672D01*
X144225558Y-90877105D01*
X144168133Y-90880488D01*
X144075873Y-90867840D01*
X144025711Y-90806654D01*
X144013906Y-90781714D01*
X144079041Y-90781714D01*
X144094770Y-90819539D01*
X144146097Y-90780972D01*
X144170129Y-90753296D01*
X144203046Y-90704385D01*
X144167401Y-90707693D01*
X144153095Y-90713008D01*
X144089541Y-90757068D01*
X144079041Y-90781714D01*
X144013906Y-90781714D01*
X143988680Y-90728424D01*
X143981186Y-90697935D01*
X143982091Y-90639674D01*
X143899854Y-90599553D01*
X143834071Y-90588232D01*
X143738120Y-90585178D01*
X143699825Y-90600796D01*
X143701387Y-90605854D01*
X143693417Y-90636328D01*
X143633244Y-90635812D01*
X143552763Y-90606012D01*
X143537656Y-90597084D01*
X143509416Y-90564313D01*
X143555353Y-90538824D01*
X143598489Y-90528752D01*
X143853464Y-90528752D01*
X143876021Y-90551310D01*
X143898579Y-90528752D01*
X143876021Y-90506194D01*
X143853464Y-90528752D01*
X143598489Y-90528752D01*
X143618370Y-90524110D01*
X143720006Y-90485008D01*
X143744894Y-90438861D01*
X143694240Y-90407528D01*
X143611875Y-90406392D01*
X143524545Y-90399927D01*
X143492540Y-90369515D01*
X143457413Y-90340205D01*
X143399149Y-90349293D01*
X143336387Y-90358989D01*
X143315755Y-90317899D01*
X143318879Y-90258059D01*
X143627886Y-90258059D01*
X143650444Y-90280617D01*
X143673002Y-90258059D01*
X143650444Y-90235501D01*
X143627886Y-90258059D01*
X143318879Y-90258059D01*
X143320197Y-90232816D01*
X143334515Y-90168713D01*
X143458070Y-90168713D01*
X143503595Y-90220796D01*
X143545842Y-90235501D01*
X143564028Y-90209724D01*
X143536751Y-90166738D01*
X143481583Y-90119444D01*
X143459036Y-90118621D01*
X143458070Y-90168713D01*
X143334515Y-90168713D01*
X143350319Y-90097959D01*
X143411259Y-90037284D01*
X143509913Y-90050140D01*
G37*
G36*
X145431987Y-90902023D02*
G01*
X145432505Y-90912233D01*
X145397822Y-90955615D01*
X145384727Y-90957349D01*
X145357782Y-90929709D01*
X145364831Y-90912233D01*
X145405372Y-90869194D01*
X145412609Y-90867118D01*
X145431987Y-90902023D01*
G37*
G36*
X142996270Y-90889676D02*
G01*
X142973712Y-90912233D01*
X142951155Y-90889676D01*
X142973712Y-90867118D01*
X142996270Y-90889676D01*
G37*
G36*
X142996270Y-90709214D02*
G01*
X142973712Y-90731771D01*
X142951155Y-90709214D01*
X142973712Y-90686656D01*
X142996270Y-90709214D01*
G37*
G36*
X145234509Y-88331351D02*
G01*
X145266427Y-88390786D01*
X145264635Y-88468026D01*
X145196098Y-88520857D01*
X145162065Y-88534829D01*
X145075940Y-88570844D01*
X145067883Y-88596556D01*
X145130740Y-88632454D01*
X145226326Y-88723635D01*
X145246442Y-88851659D01*
X145227470Y-88918510D01*
X145208962Y-89011059D01*
X145203140Y-89145754D01*
X145204258Y-89182556D01*
X145197681Y-89322230D01*
X145156195Y-89399228D01*
X145134526Y-89414342D01*
X145055935Y-89499932D01*
X145023717Y-89649233D01*
X145022919Y-89731396D01*
X144999300Y-89842268D01*
X144962588Y-89899785D01*
X144920829Y-89995048D01*
X144924945Y-90061856D01*
X144931980Y-90132017D01*
X144889096Y-90136473D01*
X144875813Y-90131738D01*
X144812243Y-90132689D01*
X144800888Y-90167828D01*
X144829719Y-90211450D01*
X144879721Y-90202418D01*
X144913329Y-90201480D01*
X144876938Y-90252607D01*
X144844508Y-90286214D01*
X144690243Y-90400894D01*
X144545095Y-90429784D01*
X144458028Y-90401721D01*
X144355576Y-90359690D01*
X144303278Y-90349022D01*
X144206911Y-90316766D01*
X144062209Y-90238427D01*
X143888910Y-90127148D01*
X143706752Y-89996070D01*
X143535474Y-89858335D01*
X143447425Y-89779185D01*
X143341050Y-89672993D01*
X143278459Y-89599430D01*
X143269739Y-89570820D01*
X143278242Y-89572512D01*
X143344960Y-89572319D01*
X143357194Y-89537183D01*
X143344356Y-89491096D01*
X144800888Y-89491096D01*
X144823446Y-89513654D01*
X144846004Y-89491096D01*
X144823446Y-89468539D01*
X144800888Y-89491096D01*
X143344356Y-89491096D01*
X143334531Y-89455831D01*
X143274526Y-89322676D01*
X143189152Y-89161474D01*
X143090382Y-88995984D01*
X143063498Y-88954446D01*
X142977318Y-88823835D01*
X143189840Y-88855705D01*
X143349044Y-88872675D01*
X143538192Y-88882662D01*
X143735147Y-88885844D01*
X143917768Y-88882402D01*
X144063916Y-88872517D01*
X144151451Y-88856367D01*
X144165399Y-88847779D01*
X144236823Y-88782698D01*
X144349767Y-88713393D01*
X144471731Y-88656173D01*
X144570212Y-88627349D01*
X144601357Y-88628999D01*
X144646972Y-88631523D01*
X144642665Y-88610828D01*
X144658691Y-88577532D01*
X144725028Y-88566230D01*
X144828209Y-88541136D01*
X144903811Y-88481677D01*
X144925497Y-88411591D01*
X144917820Y-88392472D01*
X144928470Y-88345241D01*
X145008018Y-88309800D01*
X145135159Y-88295542D01*
X145137682Y-88295537D01*
X145234509Y-88331351D01*
G37*
G36*
X139146418Y-90340771D02*
G01*
X139151818Y-90394312D01*
X139146418Y-90400925D01*
X139119597Y-90394732D01*
X139116341Y-90370848D01*
X139132848Y-90333713D01*
X139146418Y-90340771D01*
G37*
G36*
X139116341Y-90122713D02*
G01*
X139093783Y-90145271D01*
X139071226Y-90122713D01*
X139093783Y-90100155D01*
X139116341Y-90122713D01*
G37*
G36*
X139057279Y-89734469D02*
G01*
X139071226Y-89829462D01*
X139055801Y-89933817D01*
X139019638Y-89960562D01*
X138977905Y-89904897D01*
X138964315Y-89863299D01*
X138940164Y-89753507D01*
X138950978Y-89705090D01*
X139002308Y-89694118D01*
X139003553Y-89694116D01*
X139057279Y-89734469D01*
G37*
G36*
X139011814Y-89550311D02*
G01*
X139017192Y-89620821D01*
X139008252Y-89636782D01*
X138987747Y-89623327D01*
X138984557Y-89577568D01*
X138995575Y-89529428D01*
X139011814Y-89550311D01*
G37*
G36*
X143033445Y-89392867D02*
G01*
X143063693Y-89423147D01*
X143108176Y-89487899D01*
X143099017Y-89513654D01*
X143034177Y-89482471D01*
X142995365Y-89444891D01*
X142954156Y-89375042D01*
X142972965Y-89355754D01*
X143033445Y-89392867D01*
G37*
G36*
X139026110Y-89445981D02*
G01*
X139003553Y-89468539D01*
X138980995Y-89445981D01*
X139003553Y-89423423D01*
X139026110Y-89445981D01*
G37*
G36*
X142665423Y-89393346D02*
G01*
X142670823Y-89446888D01*
X142665423Y-89453500D01*
X142638602Y-89447307D01*
X142635346Y-89423423D01*
X142651854Y-89386288D01*
X142665423Y-89393346D01*
G37*
G36*
X146607770Y-88545071D02*
G01*
X146631357Y-88602629D01*
X146644089Y-88718995D01*
X146645770Y-88863375D01*
X146636201Y-89004979D01*
X146615184Y-89113012D01*
X146611490Y-89123268D01*
X146577200Y-89178710D01*
X146533871Y-89152376D01*
X146526820Y-89144083D01*
X146485193Y-89052766D01*
X146468248Y-88926762D01*
X146472867Y-88789148D01*
X146495932Y-88663002D01*
X146534323Y-88571402D01*
X146584922Y-88537426D01*
X146607770Y-88545071D01*
G37*
G36*
X142996270Y-89039942D02*
G01*
X142973712Y-89062500D01*
X142951155Y-89039942D01*
X142973712Y-89017384D01*
X142996270Y-89039942D01*
G37*
G36*
X145342274Y-88949711D02*
G01*
X145385668Y-89007389D01*
X145387389Y-89020047D01*
X145352978Y-89061285D01*
X145342274Y-89062500D01*
X145302680Y-89025777D01*
X145297158Y-88992164D01*
X145319030Y-88945467D01*
X145342274Y-88949711D01*
G37*
G36*
X143041386Y-88769249D02*
G01*
X143018828Y-88791807D01*
X142996270Y-88769249D01*
X143018828Y-88746692D01*
X143041386Y-88769249D01*
G37*
G36*
X143447470Y-88282477D02*
G01*
X143520765Y-88327801D01*
X143537656Y-88368472D01*
X143576264Y-88413662D01*
X143695722Y-88434052D01*
X143729396Y-88435313D01*
X143921137Y-88439742D01*
X143718117Y-88499551D01*
X143515098Y-88559361D01*
X143842185Y-88535643D01*
X144013700Y-88526028D01*
X144113475Y-88529807D01*
X144159341Y-88549512D01*
X144169272Y-88582072D01*
X144127952Y-88640107D01*
X144019159Y-88691820D01*
X143865644Y-88729702D01*
X143690155Y-88746246D01*
X143671262Y-88746440D01*
X143526554Y-88725171D01*
X143367968Y-88672124D01*
X143333331Y-88655795D01*
X143205348Y-88604387D01*
X143106397Y-88589058D01*
X143055283Y-88609783D01*
X143063746Y-88656142D01*
X143079689Y-88691714D01*
X143052871Y-88696539D01*
X142965567Y-88670275D01*
X142916389Y-88653308D01*
X142792106Y-88597206D01*
X142755579Y-88550248D01*
X142804409Y-88517763D01*
X142936202Y-88505079D01*
X142982789Y-88505653D01*
X143123949Y-88514142D01*
X143224853Y-88528403D01*
X143255261Y-88539490D01*
X143311948Y-88568473D01*
X143340502Y-88546571D01*
X143326113Y-88509835D01*
X143289037Y-88408432D01*
X143316209Y-88321849D01*
X143392517Y-88278400D01*
X143447470Y-88282477D01*
G37*
G36*
X145018689Y-88128964D02*
G01*
X145026465Y-88160191D01*
X144994841Y-88204022D01*
X144985040Y-88205306D01*
X144909992Y-88217911D01*
X144860972Y-88231547D01*
X144807577Y-88244970D01*
X144823617Y-88221786D01*
X144865905Y-88186431D01*
X144964781Y-88123436D01*
X145018689Y-88128964D01*
G37*
G36*
X138710302Y-88182748D02*
G01*
X138687744Y-88205306D01*
X138665187Y-88182748D01*
X138687744Y-88160191D01*
X138710302Y-88182748D01*
G37*
G36*
X143864222Y-87680029D02*
G01*
X144046242Y-87713996D01*
X144142416Y-87761957D01*
X144156542Y-87827623D01*
X144098376Y-87908833D01*
X144061442Y-87963029D01*
X144075818Y-87979729D01*
X144122246Y-88008039D01*
X144124156Y-88018934D01*
X144082549Y-88037364D01*
X143971743Y-88052253D01*
X143812767Y-88061147D01*
X143751954Y-88062365D01*
X143554392Y-88070138D01*
X143371499Y-88086839D01*
X143237983Y-88109125D01*
X143222145Y-88113390D01*
X143066781Y-88153476D01*
X142989171Y-88156142D01*
X142984155Y-88119570D01*
X143011450Y-88084998D01*
X143056424Y-88084998D01*
X143062617Y-88111819D01*
X143086501Y-88115075D01*
X143123636Y-88098568D01*
X143116578Y-88084998D01*
X143063036Y-88079599D01*
X143056424Y-88084998D01*
X143011450Y-88084998D01*
X143039802Y-88049088D01*
X143166766Y-87945352D01*
X143339782Y-87843701D01*
X143530353Y-87756893D01*
X143709986Y-87697683D01*
X143850183Y-87678827D01*
X143864222Y-87680029D01*
G37*
G36*
X145161812Y-88137633D02*
G01*
X145139254Y-88160191D01*
X145116696Y-88137633D01*
X145139254Y-88115075D01*
X145161812Y-88137633D01*
G37*
G36*
X138439609Y-87686478D02*
G01*
X138417052Y-87709036D01*
X138394494Y-87686478D01*
X138417052Y-87663921D01*
X138439609Y-87686478D01*
G37*
G36*
X146049082Y-87633844D02*
G01*
X146054482Y-87687385D01*
X146049082Y-87693998D01*
X146022261Y-87687805D01*
X146019005Y-87663921D01*
X146035512Y-87626786D01*
X146049082Y-87633844D01*
G37*
G36*
X145026465Y-87460901D02*
G01*
X145003908Y-87483459D01*
X144981350Y-87460901D01*
X145003908Y-87438343D01*
X145026465Y-87460901D01*
G37*
G36*
X138379455Y-87227805D02*
G01*
X138384855Y-87281346D01*
X138379455Y-87287959D01*
X138352634Y-87281766D01*
X138349378Y-87257882D01*
X138365885Y-87220746D01*
X138379455Y-87227805D01*
G37*
G36*
X138393977Y-86661171D02*
G01*
X138394494Y-86671381D01*
X138359811Y-86714762D01*
X138346716Y-86716496D01*
X138319771Y-86688857D01*
X138326821Y-86671381D01*
X138367362Y-86628341D01*
X138374599Y-86626265D01*
X138393977Y-86661171D01*
G37*
G36*
X138379455Y-86505957D02*
G01*
X138384855Y-86559499D01*
X138379455Y-86566111D01*
X138352634Y-86559918D01*
X138349378Y-86536034D01*
X138365885Y-86498899D01*
X138379455Y-86505957D01*
G37*
G36*
X138349378Y-86378130D02*
G01*
X138326821Y-86400688D01*
X138304263Y-86378130D01*
X138326821Y-86355573D01*
X138349378Y-86378130D01*
G37*
G36*
X145432505Y-86378130D02*
G01*
X145409947Y-86400688D01*
X145387389Y-86378130D01*
X145409947Y-86355573D01*
X145432505Y-86378130D01*
G37*
G36*
X145180592Y-85772831D02*
G01*
X145208740Y-85823998D01*
X145251759Y-85924481D01*
X145299154Y-86046445D01*
X145340431Y-86162051D01*
X145365092Y-86243464D01*
X145366284Y-86265342D01*
X145338452Y-86227905D01*
X145288931Y-86132157D01*
X145254154Y-86056587D01*
X145197045Y-85915831D01*
X145165130Y-85813258D01*
X145162666Y-85765285D01*
X145180592Y-85772831D01*
G37*
G36*
X145103091Y-85808122D02*
G01*
X145101827Y-85901855D01*
X145101265Y-85915495D01*
X145092466Y-86039107D01*
X145077786Y-86079714D01*
X145053611Y-86044511D01*
X145045978Y-86025540D01*
X145043807Y-85940777D01*
X145065800Y-85856357D01*
X145092681Y-85795622D01*
X145103091Y-85808122D01*
G37*
G36*
X145428242Y-85854401D02*
G01*
X145477620Y-85904418D01*
X145547349Y-86001069D01*
X145568793Y-86067234D01*
X145547851Y-86084880D01*
X145510328Y-86052321D01*
X145457621Y-85984610D01*
X145400308Y-85887762D01*
X145391474Y-85840513D01*
X145428242Y-85854401D01*
G37*
G36*
X145793428Y-86017207D02*
G01*
X145770870Y-86039764D01*
X145748313Y-86017207D01*
X145770870Y-85994649D01*
X145793428Y-86017207D01*
G37*
G36*
X144846004Y-85972091D02*
G01*
X144823446Y-85994649D01*
X144800888Y-85972091D01*
X144823446Y-85949533D01*
X144846004Y-85972091D01*
G37*
G36*
X144610267Y-85757782D02*
G01*
X144612456Y-85799170D01*
X144574781Y-85874373D01*
X144522652Y-85891175D01*
X144487571Y-85844935D01*
X144485080Y-85817947D01*
X144513740Y-85740390D01*
X144556061Y-85723956D01*
X144610267Y-85757782D01*
G37*
G36*
X144800371Y-85849093D02*
G01*
X144800888Y-85859303D01*
X144766206Y-85902684D01*
X144753110Y-85904418D01*
X144726166Y-85876779D01*
X144733215Y-85859303D01*
X144773756Y-85816263D01*
X144780993Y-85814187D01*
X144800371Y-85849093D01*
G37*
G36*
X145600909Y-85748837D02*
G01*
X145630453Y-85790221D01*
X145669682Y-85868962D01*
X145662841Y-85904276D01*
X145660709Y-85904418D01*
X145607077Y-85869109D01*
X145565783Y-85810323D01*
X145530840Y-85721182D01*
X145547011Y-85699300D01*
X145600909Y-85748837D01*
G37*
G36*
X145793428Y-85836745D02*
G01*
X145770870Y-85859303D01*
X145748313Y-85836745D01*
X145770870Y-85814187D01*
X145793428Y-85836745D01*
G37*
G36*
X138424571Y-85738995D02*
G01*
X138429970Y-85792536D01*
X138424571Y-85799149D01*
X138397750Y-85792956D01*
X138394494Y-85769072D01*
X138411001Y-85731936D01*
X138424571Y-85738995D01*
G37*
G36*
X144966114Y-85577331D02*
G01*
X144972072Y-85669698D01*
X144966114Y-85690120D01*
X144949647Y-85695787D01*
X144943358Y-85633725D01*
X144950448Y-85569678D01*
X144966114Y-85577331D01*
G37*
G36*
X138758990Y-85301513D02*
G01*
X138728915Y-85365559D01*
X138663070Y-85458375D01*
X138598734Y-85532878D01*
X138511403Y-85619198D01*
X138454824Y-85660503D01*
X138442721Y-85656283D01*
X138459868Y-85598405D01*
X138500542Y-85510042D01*
X138550096Y-85418039D01*
X138593884Y-85349237D01*
X138617259Y-85330481D01*
X138618180Y-85334720D01*
X138647302Y-85343480D01*
X138687744Y-85317917D01*
X138747275Y-85280784D01*
X138758990Y-85301513D01*
G37*
G36*
X144509884Y-85417914D02*
G01*
X144518422Y-85477480D01*
X144497687Y-85573348D01*
X144466797Y-85655138D01*
X144447502Y-85656721D01*
X144430844Y-85603719D01*
X144426282Y-85513125D01*
X144450055Y-85437588D01*
X144489288Y-85407375D01*
X144509884Y-85417914D01*
G37*
G36*
X145191889Y-85603648D02*
G01*
X145197288Y-85657190D01*
X145191889Y-85663802D01*
X145165068Y-85657609D01*
X145161812Y-85633725D01*
X145178319Y-85596590D01*
X145191889Y-85603648D01*
G37*
G36*
X145462582Y-85603648D02*
G01*
X145467981Y-85657190D01*
X145462582Y-85663802D01*
X145435760Y-85657609D01*
X145432505Y-85633725D01*
X145449012Y-85596590D01*
X145462582Y-85603648D01*
G37*
G36*
X145567064Y-85443364D02*
G01*
X145631621Y-85537788D01*
X145649845Y-85618990D01*
X145625631Y-85633529D01*
X145578411Y-85567139D01*
X145552743Y-85516101D01*
X145469961Y-85340475D01*
X145567064Y-85443364D01*
G37*
G36*
X145432505Y-85520937D02*
G01*
X145409947Y-85543494D01*
X145387389Y-85520937D01*
X145409947Y-85498379D01*
X145432505Y-85520937D01*
G37*
G36*
X139071226Y-85475821D02*
G01*
X139048668Y-85498379D01*
X139026110Y-85475821D01*
X139048668Y-85453263D01*
X139071226Y-85475821D01*
G37*
G36*
X145387389Y-85430706D02*
G01*
X145364831Y-85453263D01*
X145342274Y-85430706D01*
X145364831Y-85408148D01*
X145387389Y-85430706D01*
G37*
G36*
X145342274Y-85340475D02*
G01*
X145319716Y-85363033D01*
X145297158Y-85340475D01*
X145319716Y-85317917D01*
X145342274Y-85340475D01*
G37*
G36*
X138766696Y-84965057D02*
G01*
X138696830Y-85053605D01*
X138665331Y-85118154D01*
X138665187Y-85120728D01*
X138628258Y-85167141D01*
X138536495Y-85226380D01*
X138505752Y-85241888D01*
X138358829Y-85303229D01*
X138279163Y-85313727D01*
X138259456Y-85284081D01*
X138293630Y-85240308D01*
X138379259Y-85170071D01*
X138422724Y-85139243D01*
X138509685Y-85069898D01*
X138542808Y-85021738D01*
X138535204Y-85011416D01*
X138487068Y-84964317D01*
X138484725Y-84950194D01*
X138519857Y-84925993D01*
X138573252Y-84933895D01*
X138680734Y-84935672D01*
X138764992Y-84908254D01*
X138868206Y-84854517D01*
X138766696Y-84965057D01*
G37*
G36*
X145477620Y-85295359D02*
G01*
X145455062Y-85317917D01*
X145432505Y-85295359D01*
X145455062Y-85272802D01*
X145477620Y-85295359D01*
G37*
G36*
X144515157Y-85197609D02*
G01*
X144508964Y-85224430D01*
X144485080Y-85227686D01*
X144447945Y-85211179D01*
X144455003Y-85197609D01*
X144508545Y-85192210D01*
X144515157Y-85197609D01*
G37*
G36*
X145883659Y-85205128D02*
G01*
X145861101Y-85227686D01*
X145838544Y-85205128D01*
X145861101Y-85182571D01*
X145883659Y-85205128D01*
G37*
G36*
X138335224Y-85121482D02*
G01*
X138326821Y-85137455D01*
X138284312Y-85180541D01*
X138276380Y-85182571D01*
X138273302Y-85153429D01*
X138281705Y-85137455D01*
X138324214Y-85094370D01*
X138332146Y-85092340D01*
X138335224Y-85121482D01*
G37*
G36*
X144430553Y-84664107D02*
G01*
X144427458Y-84729253D01*
X144422741Y-84806572D01*
X144437774Y-84830763D01*
X144471690Y-84879840D01*
X144501518Y-84968272D01*
X144511569Y-85061400D01*
X144474747Y-85092039D01*
X144467141Y-85092340D01*
X144397472Y-85124247D01*
X144384331Y-85146453D01*
X144358642Y-85162637D01*
X144336872Y-85123895D01*
X144324614Y-85021222D01*
X144333419Y-84979551D01*
X144329944Y-84921690D01*
X144306223Y-84911878D01*
X144220339Y-84874809D01*
X144148008Y-84790043D01*
X144124156Y-84712081D01*
X144149586Y-84648911D01*
X144200058Y-84655010D01*
X144227546Y-84697580D01*
X144257672Y-84731350D01*
X144308002Y-84697580D01*
X144388205Y-84645262D01*
X144430553Y-84664107D01*
G37*
G36*
X145709666Y-85116185D02*
G01*
X145748313Y-85137455D01*
X145784424Y-85173203D01*
X145770870Y-85181189D01*
X145696729Y-85158726D01*
X145658082Y-85137455D01*
X145621970Y-85101707D01*
X145635524Y-85093722D01*
X145709666Y-85116185D01*
G37*
G36*
X145380418Y-85065474D02*
G01*
X145428852Y-85110900D01*
X145418916Y-85137016D01*
X145412609Y-85137455D01*
X145374450Y-85105411D01*
X145360523Y-85085369D01*
X145355206Y-85054497D01*
X145380418Y-85065474D01*
G37*
G36*
X145567851Y-85069782D02*
G01*
X145545293Y-85092340D01*
X145522735Y-85069782D01*
X145545293Y-85047224D01*
X145567851Y-85069782D01*
G37*
G36*
X145477620Y-85024667D02*
G01*
X145455062Y-85047224D01*
X145432505Y-85024667D01*
X145455062Y-85002109D01*
X145477620Y-85024667D01*
G37*
G36*
X145297158Y-84889320D02*
G01*
X145274600Y-84911878D01*
X145252043Y-84889320D01*
X145274600Y-84866763D01*
X145297158Y-84889320D01*
G37*
G36*
X145567851Y-84889320D02*
G01*
X145545293Y-84911878D01*
X145522735Y-84889320D01*
X145545293Y-84866763D01*
X145567851Y-84889320D01*
G37*
G36*
X138620071Y-84844205D02*
G01*
X138597513Y-84866763D01*
X138574956Y-84844205D01*
X138597513Y-84821647D01*
X138620071Y-84844205D01*
G37*
G36*
X138710302Y-84799089D02*
G01*
X138687744Y-84821647D01*
X138665187Y-84799089D01*
X138687744Y-84776532D01*
X138710302Y-84799089D01*
G37*
G36*
X138800533Y-84753974D02*
G01*
X138777975Y-84776532D01*
X138755418Y-84753974D01*
X138777975Y-84731416D01*
X138800533Y-84753974D01*
G37*
G36*
X145793428Y-84753974D02*
G01*
X145770870Y-84776532D01*
X145748313Y-84753974D01*
X145770870Y-84731416D01*
X145793428Y-84753974D01*
G37*
G36*
X138665187Y-84708858D02*
G01*
X138642629Y-84731416D01*
X138620071Y-84708858D01*
X138642629Y-84686301D01*
X138665187Y-84708858D01*
G37*
G36*
X138800533Y-84618628D02*
G01*
X138777975Y-84641185D01*
X138755418Y-84618628D01*
X138777975Y-84596070D01*
X138800533Y-84618628D01*
G37*
G36*
X139644784Y-84281260D02*
G01*
X139682182Y-84352911D01*
X139688295Y-84368540D01*
X139721257Y-84472518D01*
X139716982Y-84502191D01*
X139678794Y-84452921D01*
X139656388Y-84413107D01*
X139622934Y-84322420D01*
X139621615Y-84275808D01*
X139644784Y-84281260D01*
G37*
G36*
X142936116Y-84430647D02*
G01*
X142941516Y-84484188D01*
X142936116Y-84490800D01*
X142909295Y-84484607D01*
X142906039Y-84460723D01*
X142922546Y-84423588D01*
X142936116Y-84430647D01*
G37*
G36*
X143853464Y-84483281D02*
G01*
X143830906Y-84505839D01*
X143808348Y-84483281D01*
X143830906Y-84460723D01*
X143853464Y-84483281D01*
G37*
G36*
X139823892Y-84362033D02*
G01*
X139829270Y-84432543D01*
X139820330Y-84448505D01*
X139799825Y-84435050D01*
X139796635Y-84389291D01*
X139807653Y-84341151D01*
X139823892Y-84362033D01*
G37*
G36*
X141019358Y-84333232D02*
G01*
X141020026Y-84336656D01*
X141031049Y-84433315D01*
X141017962Y-84458094D01*
X140986127Y-84402617D01*
X140982961Y-84394539D01*
X140971283Y-84299410D01*
X140976911Y-84270471D01*
X140997162Y-84265439D01*
X141019358Y-84333232D01*
G37*
G36*
X145736094Y-84433466D02*
G01*
X145722639Y-84453972D01*
X145676880Y-84457162D01*
X145628740Y-84446144D01*
X145649623Y-84429904D01*
X145720133Y-84424526D01*
X145736094Y-84433466D01*
G37*
G36*
X138755418Y-84393050D02*
G01*
X138732860Y-84415608D01*
X138710302Y-84393050D01*
X138732860Y-84370493D01*
X138755418Y-84393050D01*
G37*
G36*
X142949992Y-83872213D02*
G01*
X142951331Y-83874223D01*
X142969807Y-83951141D01*
X142973963Y-84076230D01*
X142965612Y-84212319D01*
X142946570Y-84322240D01*
X142927409Y-84364161D01*
X142916638Y-84334527D01*
X142909196Y-84236223D01*
X142906730Y-84096040D01*
X142911491Y-83938857D01*
X142925545Y-83866069D01*
X142949992Y-83872213D01*
G37*
G36*
X143356676Y-84270052D02*
G01*
X143357194Y-84280262D01*
X143322511Y-84323643D01*
X143309416Y-84325377D01*
X143282471Y-84297738D01*
X143289521Y-84280262D01*
X143330062Y-84237222D01*
X143337299Y-84235146D01*
X143356676Y-84270052D01*
G37*
G36*
X146154352Y-84302819D02*
G01*
X146131794Y-84325377D01*
X146109236Y-84302819D01*
X146131794Y-84280262D01*
X146154352Y-84302819D01*
G37*
G36*
X139602053Y-82956979D02*
G01*
X139683725Y-82985498D01*
X139706018Y-83010641D01*
X139709351Y-83069076D01*
X139714318Y-83185887D01*
X139717297Y-83265164D01*
X139727998Y-83399763D01*
X139746302Y-83492800D01*
X139758119Y-83515271D01*
X139792424Y-83591715D01*
X139803383Y-83746799D01*
X139800221Y-83843049D01*
X139781735Y-83930816D01*
X139738262Y-83936828D01*
X139736679Y-83935898D01*
X139706702Y-83926490D01*
X139739939Y-83975623D01*
X139778090Y-84073395D01*
X139780535Y-84176024D01*
X139766374Y-84248822D01*
X139757455Y-84234478D01*
X139754717Y-84203972D01*
X139734645Y-84127827D01*
X139698728Y-84074555D01*
X139666908Y-84065578D01*
X139657727Y-84099800D01*
X139630498Y-84129776D01*
X139614381Y-84123451D01*
X139608874Y-84071631D01*
X139646217Y-83967837D01*
X139682054Y-83897808D01*
X139755256Y-83762879D01*
X139784872Y-83688281D01*
X139772391Y-83656181D01*
X139719300Y-83648743D01*
X139702842Y-83648645D01*
X139629665Y-83622747D01*
X139612611Y-83586496D01*
X139580806Y-83506724D01*
X139547620Y-83470409D01*
X139498426Y-83399726D01*
X139495110Y-83363375D01*
X139495382Y-83335021D01*
X139488575Y-83344397D01*
X139440686Y-83357346D01*
X139421325Y-83348705D01*
X139394603Y-83347269D01*
X139405283Y-83370982D01*
X139411086Y-83417550D01*
X139395953Y-83423068D01*
X139370783Y-83461420D01*
X139369894Y-83547136D01*
X139379356Y-83631795D01*
X139371551Y-83629735D01*
X139345577Y-83558414D01*
X139313048Y-83422906D01*
X139302593Y-83284276D01*
X139314641Y-83175003D01*
X139339948Y-83131035D01*
X139365645Y-83072089D01*
X139359913Y-83043964D01*
X139374834Y-82979658D01*
X139410584Y-82955218D01*
X139497710Y-82944391D01*
X139602053Y-82956979D01*
G37*
G36*
X145748313Y-84257704D02*
G01*
X145725755Y-84280262D01*
X145703197Y-84257704D01*
X145725755Y-84235146D01*
X145748313Y-84257704D01*
G37*
G36*
X145868621Y-84250185D02*
G01*
X145862428Y-84277006D01*
X145838544Y-84280262D01*
X145801409Y-84263755D01*
X145808467Y-84250185D01*
X145862008Y-84244785D01*
X145868621Y-84250185D01*
G37*
G36*
X146003967Y-84250185D02*
G01*
X145997774Y-84277006D01*
X145973890Y-84280262D01*
X145936755Y-84263755D01*
X145943813Y-84250185D01*
X145997355Y-84244785D01*
X146003967Y-84250185D01*
G37*
G36*
X139953705Y-83723937D02*
G01*
X139954764Y-83835994D01*
X139951394Y-83892618D01*
X139933741Y-84043857D01*
X139907884Y-84159532D01*
X139886409Y-84204972D01*
X139861891Y-84198771D01*
X139858878Y-84108160D01*
X139868018Y-84006114D01*
X139892152Y-83838949D01*
X139917646Y-83731885D01*
X139939748Y-83691391D01*
X139953705Y-83723937D01*
G37*
G36*
X145522735Y-84212588D02*
G01*
X145500178Y-84235146D01*
X145477620Y-84212588D01*
X145500178Y-84190031D01*
X145522735Y-84212588D01*
G37*
G36*
X138813434Y-84132628D02*
G01*
X138823091Y-84144915D01*
X138838970Y-84185493D01*
X138796286Y-84170210D01*
X138755418Y-84144915D01*
X138720734Y-84108698D01*
X138741476Y-84100491D01*
X138813434Y-84132628D01*
G37*
G36*
X145810130Y-83988347D02*
G01*
X145857206Y-84038245D01*
X145875645Y-84106513D01*
X145873442Y-84122986D01*
X145825818Y-84130803D01*
X145711457Y-84141974D01*
X145553683Y-84154264D01*
X145529270Y-84155960D01*
X145372052Y-84162637D01*
X145276016Y-84158100D01*
X145254404Y-84143131D01*
X145258578Y-84139922D01*
X145346554Y-84111150D01*
X145455062Y-84099800D01*
X145539651Y-84090900D01*
X145538798Y-84077242D01*
X145612966Y-84077242D01*
X145635524Y-84099800D01*
X145658082Y-84077242D01*
X145635524Y-84054684D01*
X145612966Y-84077242D01*
X145538798Y-84077242D01*
X145538082Y-84065789D01*
X145529198Y-84059633D01*
X145507313Y-84032127D01*
X145748313Y-84032127D01*
X145770870Y-84054684D01*
X145793428Y-84032127D01*
X145770870Y-84009569D01*
X145748313Y-84032127D01*
X145507313Y-84032127D01*
X145495558Y-84017353D01*
X145549759Y-83988176D01*
X145686962Y-83971981D01*
X145810130Y-83988347D01*
G37*
G36*
X139026110Y-84122358D02*
G01*
X139003553Y-84144915D01*
X138980995Y-84122358D01*
X139003553Y-84099800D01*
X139026110Y-84122358D01*
G37*
G36*
X140018650Y-84122358D02*
G01*
X139996092Y-84144915D01*
X139973535Y-84122358D01*
X139996092Y-84099800D01*
X140018650Y-84122358D01*
G37*
G36*
X141357075Y-84024607D02*
G01*
X141362475Y-84078149D01*
X141357075Y-84084761D01*
X141330254Y-84078568D01*
X141326998Y-84054684D01*
X141343505Y-84017549D01*
X141357075Y-84024607D01*
G37*
G36*
X141800485Y-83762789D02*
G01*
X141823132Y-83796568D01*
X141856811Y-83905664D01*
X141854938Y-83977030D01*
X141838274Y-84029002D01*
X141828796Y-84009569D01*
X141813935Y-83913436D01*
X141796990Y-83829107D01*
X141784085Y-83755965D01*
X141800485Y-83762789D01*
G37*
G36*
X143160649Y-83878603D02*
G01*
X143162881Y-83886360D01*
X143169486Y-83984636D01*
X143161209Y-84021706D01*
X143146399Y-84023206D01*
X143140350Y-83952580D01*
X143140412Y-83941896D01*
X143146917Y-83871924D01*
X143160649Y-83878603D01*
G37*
G36*
X138890764Y-83987011D02*
G01*
X138868206Y-84009569D01*
X138845648Y-83987011D01*
X138868206Y-83964454D01*
X138890764Y-83987011D01*
G37*
G36*
X139116341Y-83987011D02*
G01*
X139093783Y-84009569D01*
X139071226Y-83987011D01*
X139093783Y-83964454D01*
X139116341Y-83987011D01*
G37*
G36*
X141056306Y-83987011D02*
G01*
X141033748Y-84009569D01*
X141011190Y-83987011D01*
X141033748Y-83964454D01*
X141056306Y-83987011D01*
G37*
G36*
X141146537Y-83987011D02*
G01*
X141123979Y-84009569D01*
X141101421Y-83987011D01*
X141123979Y-83964454D01*
X141146537Y-83987011D01*
G37*
G36*
X141642807Y-83941896D02*
G01*
X141620249Y-83964454D01*
X141597691Y-83941896D01*
X141620249Y-83919338D01*
X141642807Y-83941896D01*
G37*
G36*
X143071463Y-83889261D02*
G01*
X143076862Y-83942803D01*
X143071463Y-83949415D01*
X143044641Y-83943222D01*
X143041386Y-83919338D01*
X143057893Y-83882203D01*
X143071463Y-83889261D01*
G37*
G36*
X143402309Y-83941896D02*
G01*
X143379751Y-83964454D01*
X143357194Y-83941896D01*
X143379751Y-83919338D01*
X143402309Y-83941896D01*
G37*
G36*
X138774395Y-83552621D02*
G01*
X138775050Y-83598184D01*
X138756323Y-83603530D01*
X138747650Y-83630834D01*
X138794006Y-83697075D01*
X138798775Y-83702268D01*
X138863286Y-83785028D01*
X138890728Y-83846243D01*
X138874231Y-83865357D01*
X138849502Y-83854046D01*
X138800832Y-83863337D01*
X138790089Y-83882998D01*
X138764342Y-83912619D01*
X138736602Y-83880278D01*
X138719828Y-83814084D01*
X138727951Y-83796420D01*
X138727033Y-83744563D01*
X138706347Y-83711553D01*
X138683728Y-83621081D01*
X138700495Y-83577541D01*
X138746427Y-83531617D01*
X138774395Y-83552621D01*
G37*
G36*
X138721581Y-83400955D02*
G01*
X138803299Y-83443635D01*
X138899967Y-83519826D01*
X138992845Y-83610201D01*
X139063191Y-83695429D01*
X139092265Y-83756183D01*
X139082143Y-83772833D01*
X139050388Y-83821621D01*
X139056029Y-83854580D01*
X139070294Y-83907171D01*
X139046651Y-83899577D01*
X138978867Y-83827208D01*
X138923415Y-83761434D01*
X138980995Y-83761434D01*
X139003553Y-83783992D01*
X139026110Y-83761434D01*
X139003553Y-83738876D01*
X138980995Y-83761434D01*
X138923415Y-83761434D01*
X138913322Y-83749463D01*
X138838896Y-83653775D01*
X138823035Y-83613306D01*
X138862045Y-83617963D01*
X138865677Y-83619315D01*
X138924548Y-83638568D01*
X138920364Y-83617931D01*
X138869963Y-83560356D01*
X138778549Y-83490957D01*
X138703310Y-83468184D01*
X138633906Y-83446531D01*
X138620071Y-83420028D01*
X138656208Y-83392293D01*
X138721581Y-83400955D01*
G37*
G36*
X139352420Y-83773460D02*
G01*
X139387034Y-83829107D01*
X139416076Y-83898861D01*
X139412766Y-83919338D01*
X139376532Y-83884754D01*
X139341918Y-83829107D01*
X139312876Y-83759353D01*
X139316186Y-83738876D01*
X139352420Y-83773460D01*
G37*
G36*
X139544816Y-83717257D02*
G01*
X139567282Y-83751855D01*
X139600126Y-83841196D01*
X139596808Y-83887201D01*
X139576337Y-83915976D01*
X139571057Y-83889191D01*
X139555110Y-83802743D01*
X139541531Y-83753845D01*
X139525773Y-83696772D01*
X139544816Y-83717257D01*
G37*
G36*
X145642752Y-83856904D02*
G01*
X145635524Y-83874223D01*
X145575759Y-83917654D01*
X145562526Y-83919338D01*
X145538066Y-83891541D01*
X145545293Y-83874223D01*
X145605058Y-83830791D01*
X145618292Y-83829107D01*
X145642752Y-83856904D01*
G37*
G36*
X141131498Y-83799030D02*
G01*
X141136897Y-83852572D01*
X141131498Y-83859184D01*
X141104677Y-83852991D01*
X141101421Y-83829107D01*
X141117928Y-83791972D01*
X141131498Y-83799030D01*
G37*
G36*
X145282120Y-83799030D02*
G01*
X145275927Y-83825851D01*
X145252043Y-83829107D01*
X145214908Y-83812600D01*
X145221966Y-83799030D01*
X145275507Y-83793631D01*
X145282120Y-83799030D01*
G37*
G36*
X145603281Y-83542284D02*
G01*
X145603626Y-83542629D01*
X145687520Y-83594884D01*
X145729360Y-83603530D01*
X145770347Y-83617816D01*
X145749188Y-83675276D01*
X145740654Y-83689259D01*
X145677252Y-83748631D01*
X145632046Y-83753857D01*
X145562404Y-83764395D01*
X145547194Y-83780916D01*
X145480823Y-83827575D01*
X145417368Y-83798932D01*
X145419671Y-83761434D01*
X145477620Y-83761434D01*
X145500178Y-83783992D01*
X145522735Y-83761434D01*
X145500178Y-83738876D01*
X145477620Y-83761434D01*
X145419671Y-83761434D01*
X145420534Y-83747391D01*
X145461956Y-83686143D01*
X145471657Y-83671203D01*
X145567851Y-83671203D01*
X145590409Y-83693761D01*
X145612966Y-83671203D01*
X145590409Y-83648645D01*
X145567851Y-83671203D01*
X145471657Y-83671203D01*
X145503646Y-83621940D01*
X145482834Y-83603530D01*
X145453591Y-83587742D01*
X145485837Y-83542629D01*
X145543353Y-83504287D01*
X145603281Y-83542284D01*
G37*
G36*
X139702842Y-83761434D02*
G01*
X139680284Y-83783992D01*
X139657727Y-83761434D01*
X139680284Y-83738876D01*
X139702842Y-83761434D01*
G37*
G36*
X140244227Y-83761434D02*
G01*
X140221670Y-83783992D01*
X140199112Y-83761434D01*
X140221670Y-83738876D01*
X140244227Y-83761434D01*
G37*
G36*
X140379574Y-83761434D02*
G01*
X140357016Y-83783992D01*
X140334458Y-83761434D01*
X140357016Y-83738876D01*
X140379574Y-83761434D01*
G37*
G36*
X141597691Y-83761434D02*
G01*
X141575133Y-83783992D01*
X141552576Y-83761434D01*
X141575133Y-83738876D01*
X141597691Y-83761434D01*
G37*
G36*
X146064121Y-83761434D02*
G01*
X146041563Y-83783992D01*
X146019005Y-83761434D01*
X146041563Y-83738876D01*
X146064121Y-83761434D01*
G37*
G36*
X141146537Y-83716319D02*
G01*
X141123979Y-83738876D01*
X141101421Y-83716319D01*
X141123979Y-83693761D01*
X141146537Y-83716319D01*
G37*
G36*
X142847339Y-83568045D02*
G01*
X142845462Y-83616580D01*
X142837115Y-83712576D01*
X142821971Y-83732285D01*
X142793471Y-83694118D01*
X142789928Y-83621868D01*
X142809184Y-83571854D01*
X142839093Y-83531218D01*
X142847339Y-83568045D01*
G37*
G36*
X143402309Y-83716319D02*
G01*
X143379751Y-83738876D01*
X143357194Y-83716319D01*
X143379751Y-83693761D01*
X143402309Y-83716319D01*
G37*
G36*
X145883659Y-83716319D02*
G01*
X145861101Y-83738876D01*
X145838544Y-83716319D01*
X145861101Y-83693761D01*
X145883659Y-83716319D01*
G37*
G36*
X140449810Y-83588553D02*
G01*
X140441903Y-83623744D01*
X140405497Y-83687247D01*
X140381956Y-83676609D01*
X140379574Y-83651308D01*
X140412340Y-83590130D01*
X140424173Y-83581292D01*
X140449810Y-83588553D01*
G37*
G36*
X142363810Y-83556771D02*
G01*
X142363963Y-83567031D01*
X142340974Y-83648605D01*
X142319538Y-83671203D01*
X142278141Y-83674194D01*
X142275114Y-83662587D01*
X142297783Y-83596761D01*
X142319538Y-83558414D01*
X142354576Y-83516136D01*
X142363810Y-83556771D01*
G37*
G36*
X143266963Y-83626088D02*
G01*
X143244405Y-83648645D01*
X143221847Y-83626088D01*
X143244405Y-83603530D01*
X143266963Y-83626088D01*
G37*
G36*
X145252043Y-83626088D02*
G01*
X145229485Y-83648645D01*
X145206927Y-83626088D01*
X145229485Y-83603530D01*
X145252043Y-83626088D01*
G37*
G36*
X139008952Y-83449913D02*
G01*
X139070420Y-83508300D01*
X139107627Y-83565003D01*
X139106397Y-83583397D01*
X139065229Y-83569692D01*
X139003803Y-83513576D01*
X138954912Y-83448404D01*
X138954667Y-83423068D01*
X139008952Y-83449913D01*
G37*
G36*
X142569060Y-83363473D02*
G01*
X142540969Y-83454244D01*
X142540082Y-83456905D01*
X142495922Y-83568806D01*
X142466321Y-83600862D01*
X142454912Y-83549336D01*
X142454885Y-83544480D01*
X142480556Y-83464571D01*
X142521938Y-83397854D01*
X142563697Y-83347869D01*
X142569060Y-83363473D01*
G37*
G36*
X141042009Y-83459724D02*
G01*
X141047388Y-83530234D01*
X141038447Y-83546196D01*
X141017942Y-83532741D01*
X141014752Y-83486982D01*
X141025770Y-83438842D01*
X141042009Y-83459724D01*
G37*
G36*
X142770693Y-83535857D02*
G01*
X142748135Y-83558414D01*
X142725577Y-83535857D01*
X142748135Y-83513299D01*
X142770693Y-83535857D01*
G37*
G36*
X140288999Y-83405208D02*
G01*
X140294941Y-83411037D01*
X140330577Y-83470189D01*
X140325745Y-83491935D01*
X140292185Y-83478396D01*
X140269686Y-83436293D01*
X140255950Y-83383585D01*
X140288999Y-83405208D01*
G37*
G36*
X143192624Y-82047829D02*
G01*
X143235291Y-82084680D01*
X143211358Y-82141707D01*
X143104661Y-82207199D01*
X143062053Y-82225837D01*
X142940984Y-82272376D01*
X142857768Y-82298103D01*
X142839886Y-82300052D01*
X142792125Y-82322593D01*
X142716194Y-82384472D01*
X142635111Y-82449921D01*
X142582883Y-82475644D01*
X142531458Y-82516179D01*
X142474986Y-82622003D01*
X142423502Y-82769442D01*
X142387041Y-82934824D01*
X142386372Y-82939226D01*
X142358661Y-83074504D01*
X142328644Y-83156295D01*
X142304378Y-83176114D01*
X142293922Y-83125476D01*
X142300818Y-83029319D01*
X142310376Y-82929838D01*
X142302160Y-82911781D01*
X142278026Y-82957972D01*
X142249356Y-83061259D01*
X142226827Y-83209979D01*
X142220467Y-83285051D01*
X142205743Y-83414639D01*
X142183022Y-83497337D01*
X142167793Y-83513290D01*
X142146294Y-83474777D01*
X142148162Y-83381723D01*
X142148700Y-83377953D01*
X142153702Y-83283525D01*
X142138313Y-83242651D01*
X142137519Y-83242606D01*
X142121479Y-83204993D01*
X142127721Y-83131455D01*
X142131508Y-83051376D01*
X142086220Y-83033745D01*
X142055504Y-83038304D01*
X141993150Y-83039629D01*
X141976001Y-82994035D01*
X141985616Y-82912599D01*
X141999498Y-82817888D01*
X141990488Y-82805210D01*
X141950552Y-82867600D01*
X141944825Y-82877234D01*
X141892045Y-82941685D01*
X141861655Y-82929169D01*
X141837128Y-82938518D01*
X141790083Y-83015843D01*
X141730252Y-83144850D01*
X141724260Y-83159195D01*
X141659727Y-83306545D01*
X141616797Y-83378832D01*
X141587598Y-83386274D01*
X141571004Y-83358100D01*
X141562575Y-83277551D01*
X141587040Y-83253676D01*
X141618435Y-83204955D01*
X141612667Y-83171444D01*
X141616856Y-83083846D01*
X141639492Y-83043580D01*
X141669148Y-82960025D01*
X141675702Y-82834242D01*
X141673671Y-82808354D01*
X141679120Y-82647086D01*
X141686414Y-82616621D01*
X141987726Y-82616621D01*
X141989593Y-82635203D01*
X142019235Y-82614700D01*
X142105792Y-82523876D01*
X142110638Y-82516632D01*
X142184267Y-82516632D01*
X142212490Y-82507486D01*
X142218029Y-82504199D01*
X142266632Y-82494677D01*
X142266952Y-82536353D01*
X142220284Y-82601967D01*
X142190333Y-82647436D01*
X142199963Y-82656105D01*
X142248668Y-82626845D01*
X142336611Y-82551909D01*
X142400727Y-82490813D01*
X142483415Y-82405313D01*
X142521448Y-82358294D01*
X142514396Y-82356202D01*
X142449275Y-82357217D01*
X142432782Y-82341033D01*
X142440358Y-82300042D01*
X142463927Y-82295182D01*
X142532289Y-82260578D01*
X142579761Y-82204951D01*
X142609656Y-82131627D01*
X142587603Y-82114720D01*
X142525337Y-82138498D01*
X142434498Y-82196462D01*
X142340953Y-82268559D01*
X142270569Y-82334732D01*
X142249213Y-82374928D01*
X142250246Y-82376274D01*
X142245425Y-82425081D01*
X142217637Y-82468874D01*
X142184267Y-82516632D01*
X142110638Y-82516632D01*
X142143127Y-82468075D01*
X142173550Y-82397482D01*
X142157928Y-82392770D01*
X142105192Y-82448270D01*
X142042401Y-82532038D01*
X141987726Y-82616621D01*
X141686414Y-82616621D01*
X141716463Y-82491120D01*
X141719697Y-82483101D01*
X141755346Y-82377328D01*
X141761814Y-82311393D01*
X141758830Y-82305936D01*
X141725775Y-82320252D01*
X141683911Y-82398128D01*
X141641817Y-82514583D01*
X141608073Y-82644638D01*
X141591259Y-82763312D01*
X141590861Y-82794968D01*
X141576651Y-82929692D01*
X141534587Y-83037851D01*
X141530824Y-83043103D01*
X141481414Y-83089634D01*
X141463780Y-83073423D01*
X141442147Y-83019974D01*
X141397324Y-83034795D01*
X141352508Y-83108760D01*
X141349091Y-83118539D01*
X141323250Y-83188267D01*
X141308188Y-83174946D01*
X141294373Y-83107260D01*
X141254789Y-83006897D01*
X141209869Y-82958393D01*
X141165425Y-82884072D01*
X141146940Y-82731694D01*
X141146537Y-82698979D01*
X141138501Y-82571035D01*
X141137191Y-82565874D01*
X141507460Y-82565874D01*
X141523967Y-82603010D01*
X141537537Y-82595951D01*
X141542937Y-82542410D01*
X141537537Y-82535797D01*
X141510716Y-82541990D01*
X141507460Y-82565874D01*
X141137191Y-82565874D01*
X141117976Y-82490230D01*
X141102284Y-82475644D01*
X141079420Y-82516137D01*
X141079480Y-82624157D01*
X141084978Y-82672236D01*
X141090445Y-82837986D01*
X141047701Y-82965173D01*
X141032047Y-82990736D01*
X140969486Y-83067848D01*
X140926791Y-83068723D01*
X140914698Y-83053558D01*
X140885664Y-83035390D01*
X140873510Y-83103298D01*
X140873364Y-83107260D01*
X140867529Y-83182080D01*
X140851409Y-83172364D01*
X140833179Y-83129818D01*
X140805063Y-83072019D01*
X140787552Y-83093673D01*
X140774821Y-83152375D01*
X140763109Y-83169709D01*
X140752911Y-83109704D01*
X140746287Y-82985253D01*
X140745951Y-82971914D01*
X140737867Y-82813345D01*
X140722195Y-82738982D01*
X140697631Y-82743017D01*
X140695382Y-82746336D01*
X140659655Y-82785271D01*
X140650957Y-82754953D01*
X140625160Y-82717575D01*
X140605151Y-82723779D01*
X140576735Y-82782578D01*
X140560176Y-82895978D01*
X140558601Y-82940740D01*
X140541264Y-83083496D01*
X140500068Y-83200603D01*
X140487428Y-83220049D01*
X140438117Y-83270768D01*
X140430228Y-83242606D01*
X140429442Y-83156867D01*
X140411812Y-83028778D01*
X140405107Y-82994471D01*
X140367447Y-82814009D01*
X140329841Y-82947261D01*
X140309749Y-83085045D01*
X140315920Y-83195396D01*
X140339607Y-83310279D01*
X140266532Y-83197491D01*
X140216560Y-83123875D01*
X140203630Y-83124228D01*
X140214635Y-83186274D01*
X140216434Y-83254303D01*
X140194905Y-83262564D01*
X140160539Y-83276160D01*
X140153997Y-83313141D01*
X140136363Y-83360661D01*
X140087647Y-83332679D01*
X140014126Y-83235826D01*
X139922080Y-83076733D01*
X139912077Y-83057615D01*
X139852021Y-82939221D01*
X140012601Y-82939221D01*
X140022698Y-83038815D01*
X140043846Y-83147726D01*
X140069781Y-83235108D01*
X140094237Y-83270116D01*
X140098649Y-83267877D01*
X140102542Y-83217288D01*
X140093191Y-83108044D01*
X140083903Y-83039172D01*
X140059911Y-82927606D01*
X140033486Y-82875145D01*
X140019822Y-82879787D01*
X140012601Y-82939221D01*
X139852021Y-82939221D01*
X139837063Y-82909734D01*
X139801722Y-82828066D01*
X139802244Y-82799765D01*
X139834815Y-82811982D01*
X139840165Y-82815231D01*
X139910609Y-82816450D01*
X139972749Y-82763555D01*
X139992309Y-82688844D01*
X139988584Y-82675365D01*
X139992381Y-82619467D01*
X140013823Y-82610990D01*
X140054382Y-82648729D01*
X140063766Y-82701221D01*
X140081052Y-82779168D01*
X140125344Y-82781218D01*
X140185288Y-82713145D01*
X140191389Y-82701221D01*
X140334458Y-82701221D01*
X140350965Y-82738356D01*
X140364535Y-82731298D01*
X140369935Y-82677756D01*
X140364535Y-82671144D01*
X140337714Y-82677337D01*
X140334458Y-82701221D01*
X140191389Y-82701221D01*
X140236299Y-82613461D01*
X140322289Y-82469500D01*
X140419895Y-82409370D01*
X140516500Y-82431505D01*
X140552490Y-82497416D01*
X140546901Y-82535030D01*
X140556425Y-82606746D01*
X140585442Y-82628398D01*
X140626247Y-82624159D01*
X140645907Y-82559869D01*
X140646690Y-82539557D01*
X140744059Y-82539557D01*
X140752354Y-82598073D01*
X140767755Y-82598771D01*
X140778525Y-82538389D01*
X140771316Y-82512300D01*
X140751284Y-82495211D01*
X140744059Y-82539557D01*
X140646690Y-82539557D01*
X140650267Y-82446843D01*
X140655596Y-82320978D01*
X140676350Y-82267029D01*
X140719676Y-82267061D01*
X140721630Y-82267797D01*
X140792717Y-82291656D01*
X140810445Y-82295182D01*
X140812500Y-82329267D01*
X140801928Y-82362855D01*
X140803913Y-82420796D01*
X140825902Y-82430528D01*
X140860303Y-82405428D01*
X141507963Y-82405428D01*
X141548433Y-82430496D01*
X141550988Y-82430528D01*
X141603839Y-82395257D01*
X141644634Y-82336882D01*
X141673782Y-82271631D01*
X141644149Y-82271498D01*
X141601106Y-82293354D01*
X141528655Y-82351136D01*
X141507963Y-82405428D01*
X140860303Y-82405428D01*
X140869954Y-82398387D01*
X140866885Y-82337635D01*
X141011190Y-82337635D01*
X141043940Y-82383577D01*
X141056306Y-82385413D01*
X141100248Y-82370020D01*
X141101421Y-82365518D01*
X141069807Y-82326999D01*
X141056306Y-82317739D01*
X141014732Y-82321316D01*
X141011190Y-82337635D01*
X140866885Y-82337635D01*
X140866341Y-82326872D01*
X140826797Y-82264181D01*
X140819080Y-82247129D01*
X141924561Y-82247129D01*
X141930732Y-82250066D01*
X141971903Y-82218306D01*
X141981172Y-82204951D01*
X141992669Y-82162773D01*
X141986498Y-82159835D01*
X141945326Y-82191596D01*
X141936057Y-82204951D01*
X141924561Y-82247129D01*
X140819080Y-82247129D01*
X140802150Y-82209724D01*
X140826797Y-82184823D01*
X140871373Y-82179908D01*
X140875844Y-82193265D01*
X140915467Y-82219092D01*
X141012647Y-82231759D01*
X141030617Y-82232020D01*
X141154418Y-82213417D01*
X141186968Y-82182393D01*
X141507460Y-82182393D01*
X141530018Y-82204951D01*
X141552576Y-82182393D01*
X141548816Y-82178633D01*
X141781715Y-82178633D01*
X141790009Y-82237149D01*
X141805410Y-82237848D01*
X141816180Y-82177465D01*
X141808972Y-82151376D01*
X141788939Y-82134287D01*
X141781715Y-82178633D01*
X141548816Y-82178633D01*
X141530018Y-82159835D01*
X141507460Y-82182393D01*
X141186968Y-82182393D01*
X141223057Y-82147996D01*
X141230608Y-82132780D01*
X141260822Y-82082000D01*
X141307812Y-82054542D01*
X141393494Y-82045925D01*
X141539782Y-82051663D01*
X141605941Y-82056001D01*
X141783923Y-82067238D01*
X141937749Y-82075412D01*
X142035114Y-82078812D01*
X142037268Y-82078824D01*
X142106713Y-82092562D01*
X142115484Y-82116394D01*
X142125354Y-82169179D01*
X142145311Y-82186246D01*
X142177324Y-82192323D01*
X142168864Y-82171534D01*
X142176839Y-82122760D01*
X142236239Y-82088363D01*
X142308388Y-82087553D01*
X142323610Y-82094678D01*
X142362389Y-82092690D01*
X142364654Y-82081488D01*
X142404385Y-82053308D01*
X142502058Y-82034003D01*
X142522558Y-82032297D01*
X142626646Y-82036900D01*
X142678993Y-82061955D01*
X142680462Y-82068191D01*
X142717010Y-82103054D01*
X142798936Y-82113586D01*
X142884664Y-82099550D01*
X142928597Y-82069604D01*
X142994126Y-82033069D01*
X143096798Y-82026531D01*
X143192624Y-82047829D01*
G37*
G36*
X139206572Y-83445626D02*
G01*
X139184014Y-83468184D01*
X139161457Y-83445626D01*
X139184014Y-83423068D01*
X139206572Y-83445626D01*
G37*
G36*
X143082481Y-83016224D02*
G01*
X143041050Y-83092308D01*
X142967346Y-83207439D01*
X142869102Y-83352791D01*
X142810563Y-83434967D01*
X142781487Y-83465937D01*
X142771637Y-83457673D01*
X142770693Y-83437356D01*
X142796333Y-83375412D01*
X142860004Y-83272397D01*
X142941833Y-83156440D01*
X143021944Y-83055669D01*
X143080464Y-82998214D01*
X143081365Y-82997645D01*
X143082481Y-83016224D01*
G37*
G36*
X144656968Y-82534701D02*
G01*
X144638459Y-82555286D01*
X144580159Y-82618721D01*
X144534686Y-82691206D01*
X144481358Y-82759321D01*
X144440818Y-82769422D01*
X144385159Y-82776821D01*
X144371612Y-82792551D01*
X144310025Y-82820946D01*
X144262076Y-82814826D01*
X144168574Y-82823856D01*
X144128513Y-82853875D01*
X144063044Y-82897841D01*
X143935471Y-82958585D01*
X143769553Y-83025160D01*
X143710178Y-83046634D01*
X143429336Y-83164507D01*
X143229691Y-83293195D01*
X143186112Y-83332837D01*
X143100134Y-83413647D01*
X143051106Y-83450840D01*
X143046509Y-83445626D01*
X143132884Y-83286352D01*
X143233842Y-83157692D01*
X143329183Y-83084411D01*
X143345915Y-83078550D01*
X143424818Y-83045475D01*
X143447425Y-83018230D01*
X143486003Y-82986198D01*
X143588838Y-82930398D01*
X143736576Y-82860992D01*
X143797069Y-82834615D01*
X144010147Y-82741259D01*
X144147869Y-82673940D01*
X144219119Y-82626365D01*
X144232780Y-82592240D01*
X144197738Y-82565273D01*
X144184925Y-82559891D01*
X144148531Y-82537256D01*
X144193415Y-82526173D01*
X144246808Y-82523930D01*
X144345526Y-82531568D01*
X144371781Y-82566321D01*
X144366049Y-82588432D01*
X144365040Y-82645935D01*
X144410860Y-82648353D01*
X144478868Y-82595687D01*
X144485080Y-82588432D01*
X144567876Y-82531166D01*
X144614672Y-82521450D01*
X144656968Y-82534701D01*
G37*
G36*
X145913736Y-83392991D02*
G01*
X145907543Y-83419812D01*
X145883659Y-83423068D01*
X145846524Y-83406561D01*
X145853582Y-83392991D01*
X145907124Y-83387592D01*
X145913736Y-83392991D01*
G37*
G36*
X139116341Y-83355395D02*
G01*
X139093783Y-83377953D01*
X139071226Y-83355395D01*
X139093783Y-83332837D01*
X139116341Y-83355395D01*
G37*
G36*
X144244232Y-83173630D02*
G01*
X144259503Y-83176116D01*
X144227331Y-83202757D01*
X144147746Y-83263086D01*
X144125410Y-83279661D01*
X144038979Y-83335287D01*
X144012729Y-83328658D01*
X144017448Y-83310704D01*
X144063169Y-83250705D01*
X144086530Y-83242606D01*
X144111883Y-83216712D01*
X144107574Y-83207158D01*
X144125781Y-83178499D01*
X144172584Y-83171711D01*
X144244232Y-83173630D01*
G37*
G36*
X140952301Y-83221465D02*
G01*
X140926558Y-83254637D01*
X140888624Y-83283147D01*
X140898090Y-83237941D01*
X140901302Y-83229382D01*
X140937042Y-83174136D01*
X140957362Y-83173739D01*
X140952301Y-83221465D01*
G37*
G36*
X144439965Y-83265164D02*
G01*
X144417407Y-83287722D01*
X144394849Y-83265164D01*
X144417407Y-83242606D01*
X144439965Y-83265164D01*
G37*
G36*
X145276687Y-83124817D02*
G01*
X145295667Y-83150221D01*
X145319018Y-83233183D01*
X145263622Y-83274539D01*
X145181962Y-83277177D01*
X145071238Y-83268013D01*
X145163126Y-83176358D01*
X145233756Y-83117658D01*
X145276687Y-83124817D01*
G37*
G36*
X145883659Y-83220049D02*
G01*
X145926699Y-83260590D01*
X145928775Y-83267827D01*
X145893869Y-83287204D01*
X145883659Y-83287722D01*
X145840277Y-83253039D01*
X145838544Y-83239944D01*
X145866183Y-83212999D01*
X145883659Y-83220049D01*
G37*
G36*
X142034549Y-83143916D02*
G01*
X142039928Y-83214426D01*
X142030987Y-83230387D01*
X142010482Y-83216932D01*
X142007292Y-83171173D01*
X142018310Y-83123034D01*
X142034549Y-83143916D01*
G37*
G36*
X145022268Y-82949320D02*
G01*
X145017935Y-83001104D01*
X144966787Y-83058483D01*
X144881955Y-83097788D01*
X144870525Y-83100098D01*
X144768580Y-83147011D01*
X144720554Y-83190329D01*
X144681237Y-83231536D01*
X144690716Y-83199052D01*
X144691466Y-83197491D01*
X144760566Y-83091713D01*
X144851749Y-82994895D01*
X144852348Y-82994471D01*
X144936235Y-82994471D01*
X144958792Y-83017029D01*
X144981350Y-82994471D01*
X144958792Y-82971914D01*
X144936235Y-82994471D01*
X144852348Y-82994471D01*
X144936956Y-82934639D01*
X144966657Y-82926798D01*
X145022268Y-82949320D01*
G37*
G36*
X141462345Y-83174933D02*
G01*
X141439787Y-83197491D01*
X141417229Y-83174933D01*
X141439787Y-83152375D01*
X141462345Y-83174933D01*
G37*
G36*
X144644354Y-83051888D02*
G01*
X144638274Y-83058541D01*
X144573946Y-83097303D01*
X144481640Y-83124123D01*
X144391607Y-83134786D01*
X144334094Y-83125078D01*
X144330816Y-83101370D01*
X144393113Y-83071108D01*
X144438648Y-83074872D01*
X144542488Y-83071726D01*
X144602740Y-83050188D01*
X144658210Y-83025871D01*
X144644354Y-83051888D01*
G37*
G36*
X144711647Y-82709776D02*
G01*
X144725777Y-82754166D01*
X144735672Y-82851999D01*
X144713266Y-82904405D01*
X144669842Y-82891677D01*
X144656468Y-82875220D01*
X144614710Y-82838865D01*
X144590850Y-82869878D01*
X144538954Y-82919528D01*
X144432381Y-82983189D01*
X144362972Y-83016503D01*
X144228604Y-83074830D01*
X144156935Y-83101255D01*
X144128611Y-83101423D01*
X144124156Y-83086143D01*
X144159313Y-83052379D01*
X144244299Y-82999858D01*
X144248224Y-82997718D01*
X144315124Y-82948205D01*
X144297696Y-82921668D01*
X144199705Y-82921566D01*
X144169272Y-82925223D01*
X144127100Y-82919160D01*
X144153149Y-82881274D01*
X144216054Y-82851029D01*
X144306042Y-82882444D01*
X144378691Y-82909319D01*
X144438080Y-82885754D01*
X144514963Y-82799216D01*
X144517175Y-82796393D01*
X144610358Y-82691318D01*
X144671469Y-82663198D01*
X144711647Y-82709776D01*
G37*
G36*
X141236767Y-83039587D02*
G01*
X141214210Y-83062144D01*
X141191652Y-83039587D01*
X141214210Y-83017029D01*
X141236767Y-83039587D01*
G37*
G36*
X145161812Y-82994471D02*
G01*
X145139254Y-83017029D01*
X145116696Y-82994471D01*
X145139254Y-82971914D01*
X145161812Y-82994471D01*
G37*
G36*
X144424926Y-82806490D02*
G01*
X144430326Y-82860032D01*
X144424926Y-82866644D01*
X144398105Y-82860451D01*
X144394849Y-82836567D01*
X144411356Y-82799432D01*
X144424926Y-82806490D01*
G37*
G36*
X142847150Y-82680080D02*
G01*
X142821407Y-82713252D01*
X142783473Y-82741762D01*
X142792939Y-82696555D01*
X142796151Y-82687996D01*
X142831891Y-82632750D01*
X142852211Y-82632354D01*
X142847150Y-82680080D01*
G37*
G36*
X142752161Y-82458856D02*
G01*
X142694176Y-82528512D01*
X142680462Y-82543317D01*
X142603273Y-82619195D01*
X142554672Y-82655561D01*
X142551945Y-82656105D01*
X142563647Y-82627778D01*
X142621633Y-82558122D01*
X142635346Y-82543317D01*
X142712535Y-82467438D01*
X142761136Y-82431072D01*
X142763864Y-82430528D01*
X142752161Y-82458856D01*
G37*
G36*
X143423774Y-82367761D02*
G01*
X143379751Y-82430528D01*
X143303556Y-82497927D01*
X143252978Y-82520759D01*
X143245498Y-82493295D01*
X143289521Y-82430528D01*
X143365716Y-82363129D01*
X143416294Y-82340297D01*
X143423774Y-82367761D01*
G37*
G36*
X143447425Y-82498201D02*
G01*
X143424867Y-82520759D01*
X143402309Y-82498201D01*
X143424867Y-82475644D01*
X143447425Y-82498201D01*
G37*
G36*
X143176732Y-82453086D02*
G01*
X143154174Y-82475644D01*
X143131616Y-82453086D01*
X143154174Y-82430528D01*
X143176732Y-82453086D01*
G37*
G36*
X143026347Y-82310220D02*
G01*
X143031747Y-82363762D01*
X143026347Y-82370374D01*
X142999526Y-82364181D01*
X142996270Y-82340297D01*
X143012777Y-82303162D01*
X143026347Y-82310220D01*
G37*
G36*
X143357194Y-82137278D02*
G01*
X143334636Y-82159835D01*
X143312078Y-82137278D01*
X143334636Y-82114720D01*
X143357194Y-82137278D01*
G37*
G36*
X140590113Y-89167769D02*
G01*
X140583920Y-89194590D01*
X140560036Y-89197846D01*
X140522901Y-89181339D01*
X140529959Y-89167769D01*
X140583500Y-89162370D01*
X140590113Y-89167769D01*
G37*
G36*
X140887037Y-88026909D02*
G01*
X140956861Y-88053470D01*
X140958746Y-88056002D01*
X141014157Y-88099297D01*
X141124471Y-88160939D01*
X141214210Y-88203978D01*
X141330265Y-88264285D01*
X141384864Y-88310104D01*
X141378175Y-88328672D01*
X141303702Y-88316809D01*
X141276665Y-88289757D01*
X141230534Y-88254393D01*
X141202931Y-88277996D01*
X141141644Y-88313059D01*
X141023016Y-88346714D01*
X140943517Y-88361090D01*
X140785529Y-88394684D01*
X140595220Y-88450450D01*
X140395928Y-88519626D01*
X140210989Y-88593450D01*
X140063739Y-88663159D01*
X139977515Y-88719991D01*
X139972132Y-88725824D01*
X139911704Y-88780454D01*
X139842135Y-88776099D01*
X139804352Y-88761928D01*
X139746576Y-88718116D01*
X139762441Y-88680528D01*
X139836411Y-88669161D01*
X139872025Y-88674819D01*
X139954402Y-88690547D01*
X139958126Y-88675591D01*
X139911671Y-88636901D01*
X139850679Y-88549721D01*
X139851466Y-88536153D01*
X139898342Y-88536153D01*
X139904535Y-88562974D01*
X139928419Y-88566230D01*
X139965554Y-88549723D01*
X139958496Y-88536153D01*
X139904955Y-88530753D01*
X139898342Y-88536153D01*
X139851466Y-88536153D01*
X139856136Y-88455747D01*
X139862006Y-88362997D01*
X139830215Y-88340652D01*
X139815345Y-88324288D01*
X139863966Y-88282139D01*
X139956923Y-88224625D01*
X140075058Y-88162164D01*
X140199213Y-88105176D01*
X140310231Y-88064080D01*
X140361907Y-88051490D01*
X140568849Y-88025763D01*
X140750796Y-88017621D01*
X140887037Y-88026909D01*
G37*
G36*
X141281883Y-88769249D02*
G01*
X141259325Y-88791807D01*
X141236767Y-88769249D01*
X141259325Y-88746692D01*
X141281883Y-88769249D01*
G37*
G36*
X141281883Y-88633903D02*
G01*
X141259325Y-88656461D01*
X141236767Y-88633903D01*
X141259325Y-88611345D01*
X141281883Y-88633903D01*
G37*
G36*
X141085913Y-87917137D02*
G01*
X141078863Y-87934613D01*
X141038322Y-87977653D01*
X141031085Y-87979729D01*
X141011707Y-87944823D01*
X141011190Y-87934613D01*
X141045873Y-87891232D01*
X141058968Y-87889498D01*
X141085913Y-87917137D01*
G37*
G36*
X141094450Y-87772401D02*
G01*
X141142504Y-87814340D01*
X141146537Y-87824487D01*
X141125126Y-87843030D01*
X141080549Y-87801480D01*
X141074555Y-87792296D01*
X141069238Y-87761424D01*
X141094450Y-87772401D01*
G37*
G36*
X142386892Y-82431045D02*
G01*
X142338638Y-82468444D01*
X142286927Y-82474720D01*
X142274423Y-82457913D01*
X142309812Y-82428938D01*
X142344439Y-82413314D01*
X142391011Y-82410161D01*
X142386892Y-82431045D01*
G37*
G36*
X142350499Y-82324324D02*
G01*
X142342096Y-82340297D01*
X142299588Y-82383383D01*
X142291655Y-82385413D01*
X142288577Y-82356270D01*
X142296981Y-82340297D01*
X142339489Y-82297212D01*
X142347421Y-82295182D01*
X142350499Y-82324324D01*
G37*
M02*
