G04 #@! TF.GenerationSoftware,KiCad,Pcbnew,(5.1.6)-1*
G04 #@! TF.CreationDate,2020-06-21T19:34:39+02:00*
G04 #@! TF.ProjectId,CC45,43433435-2e6b-4696-9361-645f70636258,rev?*
G04 #@! TF.SameCoordinates,Original*
G04 #@! TF.FileFunction,Copper,L2,Bot*
G04 #@! TF.FilePolarity,Positive*
%FSLAX46Y46*%
G04 Gerber Fmt 4.6, Leading zero omitted, Abs format (unit mm)*
G04 Created by KiCad (PCBNEW (5.1.6)-1) date 2020-06-21 19:34:39*
%MOMM*%
%LPD*%
G01*
G04 APERTURE LIST*
G04 #@! TA.AperFunction,ComponentPad*
%ADD10C,4.400000*%
G04 #@! TD*
G04 #@! TA.AperFunction,SMDPad,CuDef*
%ADD11R,1.000000X1.000000*%
G04 #@! TD*
G04 #@! TA.AperFunction,SMDPad,CuDef*
%ADD12R,0.700000X1.000000*%
G04 #@! TD*
G04 #@! TA.AperFunction,SMDPad,CuDef*
%ADD13R,0.700000X0.600000*%
G04 #@! TD*
G04 #@! TA.AperFunction,ComponentPad*
%ADD14R,1.700000X1.700000*%
G04 #@! TD*
G04 #@! TA.AperFunction,ComponentPad*
%ADD15C,1.700000*%
G04 #@! TD*
G04 #@! TA.AperFunction,ComponentPad*
%ADD16C,2.250000*%
G04 #@! TD*
G04 #@! TA.AperFunction,SMDPad,CuDef*
%ADD17R,2.100000X1.800000*%
G04 #@! TD*
G04 #@! TA.AperFunction,SMDPad,CuDef*
%ADD18R,0.600000X2.450000*%
G04 #@! TD*
G04 #@! TA.AperFunction,SMDPad,CuDef*
%ADD19R,0.300000X2.450000*%
G04 #@! TD*
G04 #@! TA.AperFunction,ComponentPad*
%ADD20O,1.000000X2.100000*%
G04 #@! TD*
G04 #@! TA.AperFunction,ComponentPad*
%ADD21O,1.000000X1.600000*%
G04 #@! TD*
G04 #@! TA.AperFunction,SMDPad,CuDef*
%ADD22R,0.550000X1.500000*%
G04 #@! TD*
G04 #@! TA.AperFunction,SMDPad,CuDef*
%ADD23R,1.500000X0.550000*%
G04 #@! TD*
G04 #@! TA.AperFunction,SMDPad,CuDef*
%ADD24R,1.800000X1.100000*%
G04 #@! TD*
G04 #@! TA.AperFunction,ViaPad*
%ADD25C,0.800000*%
G04 #@! TD*
G04 #@! TA.AperFunction,Conductor*
%ADD26C,0.400000*%
G04 #@! TD*
G04 #@! TA.AperFunction,Conductor*
%ADD27C,0.250000*%
G04 #@! TD*
G04 #@! TA.AperFunction,Conductor*
%ADD28C,0.380000*%
G04 #@! TD*
G04 #@! TA.AperFunction,Conductor*
%ADD29C,0.200000*%
G04 #@! TD*
G04 #@! TA.AperFunction,Conductor*
%ADD30C,0.254000*%
G04 #@! TD*
G04 APERTURE END LIST*
D10*
X147250000Y-61750000D03*
X47500000Y-42750000D03*
X247000000Y-42750000D03*
X247000000Y-80750000D03*
X47500000Y-80750000D03*
G04 #@! TA.AperFunction,SMDPad,CuDef*
G36*
G01*
X136537500Y-73175000D02*
X136537500Y-74425000D01*
G75*
G02*
X136287500Y-74675000I-250000J0D01*
G01*
X135362500Y-74675000D01*
G75*
G02*
X135112500Y-74425000I0J250000D01*
G01*
X135112500Y-73175000D01*
G75*
G02*
X135362500Y-72925000I250000J0D01*
G01*
X136287500Y-72925000D01*
G75*
G02*
X136537500Y-73175000I0J-250000D01*
G01*
G37*
G04 #@! TD.AperFunction*
G04 #@! TA.AperFunction,SMDPad,CuDef*
G36*
G01*
X133562500Y-73175000D02*
X133562500Y-74425000D01*
G75*
G02*
X133312500Y-74675000I-250000J0D01*
G01*
X132387500Y-74675000D01*
G75*
G02*
X132137500Y-74425000I0J250000D01*
G01*
X132137500Y-73175000D01*
G75*
G02*
X132387500Y-72925000I250000J0D01*
G01*
X133312500Y-72925000D01*
G75*
G02*
X133562500Y-73175000I0J-250000D01*
G01*
G37*
G04 #@! TD.AperFunction*
G04 #@! TA.AperFunction,SMDPad,CuDef*
G36*
G01*
X148625000Y-97793750D02*
X147375000Y-97793750D01*
G75*
G02*
X147125000Y-97543750I0J250000D01*
G01*
X147125000Y-96618750D01*
G75*
G02*
X147375000Y-96368750I250000J0D01*
G01*
X148625000Y-96368750D01*
G75*
G02*
X148875000Y-96618750I0J-250000D01*
G01*
X148875000Y-97543750D01*
G75*
G02*
X148625000Y-97793750I-250000J0D01*
G01*
G37*
G04 #@! TD.AperFunction*
G04 #@! TA.AperFunction,SMDPad,CuDef*
G36*
G01*
X148625000Y-94818750D02*
X147375000Y-94818750D01*
G75*
G02*
X147125000Y-94568750I0J250000D01*
G01*
X147125000Y-93643750D01*
G75*
G02*
X147375000Y-93393750I250000J0D01*
G01*
X148625000Y-93393750D01*
G75*
G02*
X148875000Y-93643750I0J-250000D01*
G01*
X148875000Y-94568750D01*
G75*
G02*
X148625000Y-94818750I-250000J0D01*
G01*
G37*
G04 #@! TD.AperFunction*
G04 #@! TA.AperFunction,SMDPad,CuDef*
G36*
G01*
X136687500Y-93393750D02*
X137937500Y-93393750D01*
G75*
G02*
X138187500Y-93643750I0J-250000D01*
G01*
X138187500Y-94568750D01*
G75*
G02*
X137937500Y-94818750I-250000J0D01*
G01*
X136687500Y-94818750D01*
G75*
G02*
X136437500Y-94568750I0J250000D01*
G01*
X136437500Y-93643750D01*
G75*
G02*
X136687500Y-93393750I250000J0D01*
G01*
G37*
G04 #@! TD.AperFunction*
G04 #@! TA.AperFunction,SMDPad,CuDef*
G36*
G01*
X136687500Y-96368750D02*
X137937500Y-96368750D01*
G75*
G02*
X138187500Y-96618750I0J-250000D01*
G01*
X138187500Y-97543750D01*
G75*
G02*
X137937500Y-97793750I-250000J0D01*
G01*
X136687500Y-97793750D01*
G75*
G02*
X136437500Y-97543750I0J250000D01*
G01*
X136437500Y-96618750D01*
G75*
G02*
X136687500Y-96368750I250000J0D01*
G01*
G37*
G04 #@! TD.AperFunction*
G04 #@! TA.AperFunction,SMDPad,CuDef*
G36*
G01*
X154275000Y-74000000D02*
X155525000Y-74000000D01*
G75*
G02*
X155775000Y-74250000I0J-250000D01*
G01*
X155775000Y-75175000D01*
G75*
G02*
X155525000Y-75425000I-250000J0D01*
G01*
X154275000Y-75425000D01*
G75*
G02*
X154025000Y-75175000I0J250000D01*
G01*
X154025000Y-74250000D01*
G75*
G02*
X154275000Y-74000000I250000J0D01*
G01*
G37*
G04 #@! TD.AperFunction*
G04 #@! TA.AperFunction,SMDPad,CuDef*
G36*
G01*
X154275000Y-76975000D02*
X155525000Y-76975000D01*
G75*
G02*
X155775000Y-77225000I0J-250000D01*
G01*
X155775000Y-78150000D01*
G75*
G02*
X155525000Y-78400000I-250000J0D01*
G01*
X154275000Y-78400000D01*
G75*
G02*
X154025000Y-78150000I0J250000D01*
G01*
X154025000Y-77225000D01*
G75*
G02*
X154275000Y-76975000I250000J0D01*
G01*
G37*
G04 #@! TD.AperFunction*
G04 #@! TA.AperFunction,SMDPad,CuDef*
G36*
G01*
X151387500Y-73225000D02*
X151387500Y-74475000D01*
G75*
G02*
X151137500Y-74725000I-250000J0D01*
G01*
X150212500Y-74725000D01*
G75*
G02*
X149962500Y-74475000I0J250000D01*
G01*
X149962500Y-73225000D01*
G75*
G02*
X150212500Y-72975000I250000J0D01*
G01*
X151137500Y-72975000D01*
G75*
G02*
X151387500Y-73225000I0J-250000D01*
G01*
G37*
G04 #@! TD.AperFunction*
G04 #@! TA.AperFunction,SMDPad,CuDef*
G36*
G01*
X148412500Y-73225000D02*
X148412500Y-74475000D01*
G75*
G02*
X148162500Y-74725000I-250000J0D01*
G01*
X147237500Y-74725000D01*
G75*
G02*
X146987500Y-74475000I0J250000D01*
G01*
X146987500Y-73225000D01*
G75*
G02*
X147237500Y-72975000I250000J0D01*
G01*
X148162500Y-72975000D01*
G75*
G02*
X148412500Y-73225000I0J-250000D01*
G01*
G37*
G04 #@! TD.AperFunction*
G04 #@! TA.AperFunction,SMDPad,CuDef*
G36*
G01*
X152675000Y-93350000D02*
X153925000Y-93350000D01*
G75*
G02*
X154175000Y-93600000I0J-250000D01*
G01*
X154175000Y-94525000D01*
G75*
G02*
X153925000Y-94775000I-250000J0D01*
G01*
X152675000Y-94775000D01*
G75*
G02*
X152425000Y-94525000I0J250000D01*
G01*
X152425000Y-93600000D01*
G75*
G02*
X152675000Y-93350000I250000J0D01*
G01*
G37*
G04 #@! TD.AperFunction*
G04 #@! TA.AperFunction,SMDPad,CuDef*
G36*
G01*
X152675000Y-96325000D02*
X153925000Y-96325000D01*
G75*
G02*
X154175000Y-96575000I0J-250000D01*
G01*
X154175000Y-97500000D01*
G75*
G02*
X153925000Y-97750000I-250000J0D01*
G01*
X152675000Y-97750000D01*
G75*
G02*
X152425000Y-97500000I0J250000D01*
G01*
X152425000Y-96575000D01*
G75*
G02*
X152675000Y-96325000I250000J0D01*
G01*
G37*
G04 #@! TD.AperFunction*
G04 #@! TA.AperFunction,SMDPad,CuDef*
G36*
G01*
X135575000Y-84400000D02*
X136825000Y-84400000D01*
G75*
G02*
X137075000Y-84650000I0J-250000D01*
G01*
X137075000Y-85575000D01*
G75*
G02*
X136825000Y-85825000I-250000J0D01*
G01*
X135575000Y-85825000D01*
G75*
G02*
X135325000Y-85575000I0J250000D01*
G01*
X135325000Y-84650000D01*
G75*
G02*
X135575000Y-84400000I250000J0D01*
G01*
G37*
G04 #@! TD.AperFunction*
G04 #@! TA.AperFunction,SMDPad,CuDef*
G36*
G01*
X135575000Y-87375000D02*
X136825000Y-87375000D01*
G75*
G02*
X137075000Y-87625000I0J-250000D01*
G01*
X137075000Y-88550000D01*
G75*
G02*
X136825000Y-88800000I-250000J0D01*
G01*
X135575000Y-88800000D01*
G75*
G02*
X135325000Y-88550000I0J250000D01*
G01*
X135325000Y-87625000D01*
G75*
G02*
X135575000Y-87375000I250000J0D01*
G01*
G37*
G04 #@! TD.AperFunction*
G04 #@! TA.AperFunction,SMDPad,CuDef*
G36*
G01*
X162875000Y-82150000D02*
X161625000Y-82150000D01*
G75*
G02*
X161375000Y-81900000I0J250000D01*
G01*
X161375000Y-80975000D01*
G75*
G02*
X161625000Y-80725000I250000J0D01*
G01*
X162875000Y-80725000D01*
G75*
G02*
X163125000Y-80975000I0J-250000D01*
G01*
X163125000Y-81900000D01*
G75*
G02*
X162875000Y-82150000I-250000J0D01*
G01*
G37*
G04 #@! TD.AperFunction*
G04 #@! TA.AperFunction,SMDPad,CuDef*
G36*
G01*
X162875000Y-79175000D02*
X161625000Y-79175000D01*
G75*
G02*
X161375000Y-78925000I0J250000D01*
G01*
X161375000Y-78000000D01*
G75*
G02*
X161625000Y-77750000I250000J0D01*
G01*
X162875000Y-77750000D01*
G75*
G02*
X163125000Y-78000000I0J-250000D01*
G01*
X163125000Y-78925000D01*
G75*
G02*
X162875000Y-79175000I-250000J0D01*
G01*
G37*
G04 #@! TD.AperFunction*
D11*
X41562500Y-34500000D03*
X41562500Y-32000000D03*
X267187500Y-91500000D03*
X267187500Y-89000000D03*
X245812500Y-91500000D03*
X245812500Y-89000000D03*
X224437500Y-91500000D03*
X224437500Y-89000000D03*
X200687500Y-91500000D03*
X200687500Y-89000000D03*
X176937500Y-91500000D03*
X176937500Y-89000000D03*
X113406250Y-91500000D03*
X113406250Y-89000000D03*
X110437500Y-91500000D03*
X110437500Y-89000000D03*
X93218750Y-91500000D03*
X93218750Y-89000000D03*
X65312500Y-91500000D03*
X65312500Y-89000000D03*
X46312500Y-91500000D03*
X46312500Y-89000000D03*
X267187500Y-72500000D03*
X267187500Y-70000000D03*
X245812500Y-72500000D03*
X245812500Y-70000000D03*
X226812500Y-72500000D03*
X226812500Y-70000000D03*
X207812500Y-72500000D03*
X207812500Y-70000000D03*
X188812500Y-72500000D03*
X188812500Y-70000000D03*
X169812500Y-72500000D03*
X169812500Y-70000000D03*
X134187500Y-71312500D03*
X134187500Y-68812500D03*
X131812500Y-71312500D03*
X131812500Y-68812500D03*
X112812500Y-72500000D03*
X112812500Y-70000000D03*
X93812500Y-72500000D03*
X93812500Y-70000000D03*
X74812500Y-72500000D03*
X74812500Y-70000000D03*
X48687500Y-72500000D03*
X48687500Y-70000000D03*
X262437500Y-53500000D03*
X262437500Y-51000000D03*
X236312500Y-53500000D03*
X236312500Y-51000000D03*
X217312500Y-53500000D03*
X217312500Y-51000000D03*
X198312500Y-53500000D03*
X198312500Y-51000000D03*
X179312500Y-53500000D03*
X179312500Y-51000000D03*
X143687500Y-53500000D03*
X143687500Y-51000000D03*
X141312500Y-53500000D03*
X141312500Y-51000000D03*
X122312500Y-53500000D03*
X122312500Y-51000000D03*
X103312500Y-53500000D03*
X103312500Y-51000000D03*
X84312500Y-53500000D03*
X84312500Y-51000000D03*
X65312500Y-53500000D03*
X65312500Y-51000000D03*
X43937500Y-53500000D03*
X43937500Y-51000000D03*
X269562500Y-34500000D03*
X269562500Y-32000000D03*
X250562500Y-34500000D03*
X250562500Y-32000000D03*
X231562500Y-34500000D03*
X231562500Y-32000000D03*
X212562500Y-34500000D03*
X212562500Y-32000000D03*
X193562500Y-34500000D03*
X193562500Y-32000000D03*
X174562500Y-34500000D03*
X174562500Y-32000000D03*
X138937500Y-34500000D03*
X138937500Y-32000000D03*
X136562500Y-34500000D03*
X136562500Y-32000000D03*
X117562500Y-34500000D03*
X117562500Y-32000000D03*
X98562500Y-34500000D03*
X98562500Y-32000000D03*
X79562500Y-34500000D03*
X79562500Y-32000000D03*
X60562500Y-34500000D03*
X60562500Y-32000000D03*
G04 #@! TA.AperFunction,SMDPad,CuDef*
G36*
G01*
X149775000Y-31150000D02*
X151025000Y-31150000D01*
G75*
G02*
X151275000Y-31400000I0J-250000D01*
G01*
X151275000Y-32325000D01*
G75*
G02*
X151025000Y-32575000I-250000J0D01*
G01*
X149775000Y-32575000D01*
G75*
G02*
X149525000Y-32325000I0J250000D01*
G01*
X149525000Y-31400000D01*
G75*
G02*
X149775000Y-31150000I250000J0D01*
G01*
G37*
G04 #@! TD.AperFunction*
G04 #@! TA.AperFunction,SMDPad,CuDef*
G36*
G01*
X149775000Y-34125000D02*
X151025000Y-34125000D01*
G75*
G02*
X151275000Y-34375000I0J-250000D01*
G01*
X151275000Y-35300000D01*
G75*
G02*
X151025000Y-35550000I-250000J0D01*
G01*
X149775000Y-35550000D01*
G75*
G02*
X149525000Y-35300000I0J250000D01*
G01*
X149525000Y-34375000D01*
G75*
G02*
X149775000Y-34125000I250000J0D01*
G01*
G37*
G04 #@! TD.AperFunction*
G04 #@! TA.AperFunction,SMDPad,CuDef*
G36*
G01*
X166200000Y-26425000D02*
X166200000Y-27675000D01*
G75*
G02*
X165950000Y-27925000I-250000J0D01*
G01*
X165025000Y-27925000D01*
G75*
G02*
X164775000Y-27675000I0J250000D01*
G01*
X164775000Y-26425000D01*
G75*
G02*
X165025000Y-26175000I250000J0D01*
G01*
X165950000Y-26175000D01*
G75*
G02*
X166200000Y-26425000I0J-250000D01*
G01*
G37*
G04 #@! TD.AperFunction*
G04 #@! TA.AperFunction,SMDPad,CuDef*
G36*
G01*
X163225000Y-26425000D02*
X163225000Y-27675000D01*
G75*
G02*
X162975000Y-27925000I-250000J0D01*
G01*
X162050000Y-27925000D01*
G75*
G02*
X161800000Y-27675000I0J250000D01*
G01*
X161800000Y-26425000D01*
G75*
G02*
X162050000Y-26175000I250000J0D01*
G01*
X162975000Y-26175000D01*
G75*
G02*
X163225000Y-26425000I0J-250000D01*
G01*
G37*
G04 #@! TD.AperFunction*
G04 #@! TA.AperFunction,SMDPad,CuDef*
G36*
G01*
X163375000Y-93550000D02*
X164625000Y-93550000D01*
G75*
G02*
X164875000Y-93800000I0J-250000D01*
G01*
X164875000Y-94725000D01*
G75*
G02*
X164625000Y-94975000I-250000J0D01*
G01*
X163375000Y-94975000D01*
G75*
G02*
X163125000Y-94725000I0J250000D01*
G01*
X163125000Y-93800000D01*
G75*
G02*
X163375000Y-93550000I250000J0D01*
G01*
G37*
G04 #@! TD.AperFunction*
G04 #@! TA.AperFunction,SMDPad,CuDef*
G36*
G01*
X163375000Y-96525000D02*
X164625000Y-96525000D01*
G75*
G02*
X164875000Y-96775000I0J-250000D01*
G01*
X164875000Y-97700000D01*
G75*
G02*
X164625000Y-97950000I-250000J0D01*
G01*
X163375000Y-97950000D01*
G75*
G02*
X163125000Y-97700000I0J250000D01*
G01*
X163125000Y-96775000D01*
G75*
G02*
X163375000Y-96525000I250000J0D01*
G01*
G37*
G04 #@! TD.AperFunction*
G04 #@! TA.AperFunction,SMDPad,CuDef*
G36*
G01*
X154406250Y-72262500D02*
X153156250Y-72262500D01*
G75*
G02*
X152906250Y-72012500I0J250000D01*
G01*
X152906250Y-71087500D01*
G75*
G02*
X153156250Y-70837500I250000J0D01*
G01*
X154406250Y-70837500D01*
G75*
G02*
X154656250Y-71087500I0J-250000D01*
G01*
X154656250Y-72012500D01*
G75*
G02*
X154406250Y-72262500I-250000J0D01*
G01*
G37*
G04 #@! TD.AperFunction*
G04 #@! TA.AperFunction,SMDPad,CuDef*
G36*
G01*
X154406250Y-69287500D02*
X153156250Y-69287500D01*
G75*
G02*
X152906250Y-69037500I0J250000D01*
G01*
X152906250Y-68112500D01*
G75*
G02*
X153156250Y-67862500I250000J0D01*
G01*
X154406250Y-67862500D01*
G75*
G02*
X154656250Y-68112500I0J-250000D01*
G01*
X154656250Y-69037500D01*
G75*
G02*
X154406250Y-69287500I-250000J0D01*
G01*
G37*
G04 #@! TD.AperFunction*
G04 #@! TA.AperFunction,SMDPad,CuDef*
G36*
G01*
X151520250Y-72262500D02*
X150270250Y-72262500D01*
G75*
G02*
X150020250Y-72012500I0J250000D01*
G01*
X150020250Y-71087500D01*
G75*
G02*
X150270250Y-70837500I250000J0D01*
G01*
X151520250Y-70837500D01*
G75*
G02*
X151770250Y-71087500I0J-250000D01*
G01*
X151770250Y-72012500D01*
G75*
G02*
X151520250Y-72262500I-250000J0D01*
G01*
G37*
G04 #@! TD.AperFunction*
G04 #@! TA.AperFunction,SMDPad,CuDef*
G36*
G01*
X151520250Y-69287500D02*
X150270250Y-69287500D01*
G75*
G02*
X150020250Y-69037500I0J250000D01*
G01*
X150020250Y-68112500D01*
G75*
G02*
X150270250Y-67862500I250000J0D01*
G01*
X151520250Y-67862500D01*
G75*
G02*
X151770250Y-68112500I0J-250000D01*
G01*
X151770250Y-69037500D01*
G75*
G02*
X151520250Y-69287500I-250000J0D01*
G01*
G37*
G04 #@! TD.AperFunction*
G04 #@! TA.AperFunction,SMDPad,CuDef*
G36*
G01*
X130912500Y-74025000D02*
X130912500Y-75275000D01*
G75*
G02*
X130662500Y-75525000I-250000J0D01*
G01*
X129737500Y-75525000D01*
G75*
G02*
X129487500Y-75275000I0J250000D01*
G01*
X129487500Y-74025000D01*
G75*
G02*
X129737500Y-73775000I250000J0D01*
G01*
X130662500Y-73775000D01*
G75*
G02*
X130912500Y-74025000I0J-250000D01*
G01*
G37*
G04 #@! TD.AperFunction*
G04 #@! TA.AperFunction,SMDPad,CuDef*
G36*
G01*
X127937500Y-74025000D02*
X127937500Y-75275000D01*
G75*
G02*
X127687500Y-75525000I-250000J0D01*
G01*
X126762500Y-75525000D01*
G75*
G02*
X126512500Y-75275000I0J250000D01*
G01*
X126512500Y-74025000D01*
G75*
G02*
X126762500Y-73775000I250000J0D01*
G01*
X127687500Y-73775000D01*
G75*
G02*
X127937500Y-74025000I0J-250000D01*
G01*
G37*
G04 #@! TD.AperFunction*
D12*
X155750000Y-31612500D03*
D13*
X157750000Y-31812500D03*
X155750000Y-29912500D03*
X157750000Y-29912500D03*
D14*
X174690000Y-82020000D03*
D15*
X174690000Y-79480000D03*
X172150000Y-82020000D03*
X172150000Y-79480000D03*
X169610000Y-82020000D03*
X169610000Y-79480000D03*
D16*
X261415000Y-85170000D03*
X255065000Y-87710000D03*
X218665000Y-85170000D03*
X212315000Y-87710000D03*
X194915000Y-85170000D03*
X188565000Y-87710000D03*
X104665000Y-85170000D03*
X98315000Y-87710000D03*
X80915000Y-85170000D03*
X74565000Y-87710000D03*
X38165000Y-85170000D03*
X31815000Y-87710000D03*
X261415000Y-66170000D03*
X255065000Y-68710000D03*
X38165000Y-47170000D03*
X31815000Y-49710000D03*
X159315000Y-85170000D03*
X152965000Y-87710000D03*
X171165000Y-85170000D03*
X164815000Y-87710000D03*
X123665000Y-85170000D03*
X117315000Y-87710000D03*
X40540000Y-85170000D03*
X34190000Y-87710000D03*
X88040000Y-85170000D03*
X81690000Y-87710000D03*
X211540000Y-85170000D03*
X205190000Y-87710000D03*
X259040000Y-85170000D03*
X252690000Y-87710000D03*
X240040000Y-85170000D03*
X233690000Y-87710000D03*
X166415000Y-85170000D03*
X160065000Y-87710000D03*
X133165000Y-85170000D03*
X126815000Y-87710000D03*
X59540000Y-85170000D03*
X53190000Y-87710000D03*
X42915000Y-66170000D03*
X36565000Y-68710000D03*
X256665000Y-47170000D03*
X250315000Y-49710000D03*
X240040000Y-66170000D03*
X233690000Y-68710000D03*
X221040000Y-66170000D03*
X214690000Y-68710000D03*
X202040000Y-66170000D03*
X195690000Y-68710000D03*
X183040000Y-66170000D03*
X176690000Y-68710000D03*
X164040000Y-66170000D03*
X157690000Y-68710000D03*
X145040000Y-66170000D03*
X138690000Y-68710000D03*
X126040000Y-66170000D03*
X119690000Y-68710000D03*
X107040000Y-66170000D03*
X100690000Y-68710000D03*
X88040000Y-66170000D03*
X81690000Y-68710000D03*
X69040000Y-66170000D03*
X62690000Y-68710000D03*
X230540000Y-47170000D03*
X224190000Y-49710000D03*
X211540000Y-47170000D03*
X205190000Y-49710000D03*
X192540000Y-47170000D03*
X186190000Y-49710000D03*
X173540000Y-47170000D03*
X167190000Y-49710000D03*
X154540000Y-47170000D03*
X148190000Y-49710000D03*
X135540000Y-47170000D03*
X129190000Y-49710000D03*
X116540000Y-47170000D03*
X110190000Y-49710000D03*
X97540000Y-47170000D03*
X91190000Y-49710000D03*
X78540000Y-47170000D03*
X72190000Y-49710000D03*
X59540000Y-47170000D03*
X53190000Y-49710000D03*
X263790000Y-28170000D03*
X257440000Y-30710000D03*
X244790000Y-28170000D03*
X238440000Y-30710000D03*
X225790000Y-28170000D03*
X219440000Y-30710000D03*
X206790000Y-28170000D03*
X200440000Y-30710000D03*
X187790000Y-28170000D03*
X181440000Y-30710000D03*
X168790000Y-28170000D03*
X162440000Y-30710000D03*
X149790000Y-28170000D03*
X143440000Y-30710000D03*
X130790000Y-28170000D03*
X124440000Y-30710000D03*
X111790000Y-28170000D03*
X105440000Y-30710000D03*
X92790000Y-28170000D03*
X86440000Y-30710000D03*
X73790000Y-28170000D03*
X67440000Y-30710000D03*
X54790000Y-28170000D03*
X48440000Y-30710000D03*
X35790000Y-28170000D03*
X29440000Y-30710000D03*
D17*
X141206250Y-96743750D03*
X144106250Y-96743750D03*
X144106250Y-94443750D03*
X141206250Y-94443750D03*
D18*
X159975000Y-26007500D03*
X153525000Y-26007500D03*
X159200000Y-26007500D03*
X154300000Y-26007500D03*
D19*
X155000000Y-26007500D03*
X158500000Y-26007500D03*
X155500000Y-26007500D03*
X158000000Y-26007500D03*
X156000000Y-26007500D03*
X157500000Y-26007500D03*
X157000000Y-26007500D03*
X156500000Y-26007500D03*
D20*
X152430000Y-24592500D03*
X161070000Y-24592500D03*
D21*
X152430000Y-20412500D03*
X161070000Y-20412500D03*
D22*
X148500000Y-76200000D03*
X147700000Y-76200000D03*
X146900000Y-76200000D03*
X146100000Y-76200000D03*
X145300000Y-76200000D03*
X144500000Y-76200000D03*
X143700000Y-76200000D03*
X142900000Y-76200000D03*
X142100000Y-76200000D03*
X141300000Y-76200000D03*
X140500000Y-76200000D03*
D23*
X138800000Y-77900000D03*
X138800000Y-78700000D03*
X138800000Y-79500000D03*
X138800000Y-80300000D03*
X138800000Y-81100000D03*
X138800000Y-81900000D03*
X138800000Y-82700000D03*
X138800000Y-83500000D03*
X138800000Y-84300000D03*
X138800000Y-85100000D03*
X138800000Y-85900000D03*
D22*
X140500000Y-87600000D03*
X141300000Y-87600000D03*
X142100000Y-87600000D03*
X142900000Y-87600000D03*
X143700000Y-87600000D03*
X144500000Y-87600000D03*
X145300000Y-87600000D03*
X146100000Y-87600000D03*
X146900000Y-87600000D03*
X147700000Y-87600000D03*
X148500000Y-87600000D03*
D23*
X150200000Y-85900000D03*
X150200000Y-85100000D03*
X150200000Y-84300000D03*
X150200000Y-83500000D03*
X150200000Y-82700000D03*
X150200000Y-81900000D03*
X150200000Y-81100000D03*
X150200000Y-80300000D03*
X150200000Y-79500000D03*
X150200000Y-78700000D03*
X150200000Y-77900000D03*
D24*
X168450000Y-94250000D03*
X174650000Y-97950000D03*
X168450000Y-97950000D03*
X174650000Y-94250000D03*
G04 #@! TA.AperFunction,SMDPad,CuDef*
G36*
G01*
X159625000Y-35225000D02*
X158375000Y-35225000D01*
G75*
G02*
X158125000Y-34975000I0J250000D01*
G01*
X158125000Y-34050000D01*
G75*
G02*
X158375000Y-33800000I250000J0D01*
G01*
X159625000Y-33800000D01*
G75*
G02*
X159875000Y-34050000I0J-250000D01*
G01*
X159875000Y-34975000D01*
G75*
G02*
X159625000Y-35225000I-250000J0D01*
G01*
G37*
G04 #@! TD.AperFunction*
G04 #@! TA.AperFunction,SMDPad,CuDef*
G36*
G01*
X159625000Y-38200000D02*
X158375000Y-38200000D01*
G75*
G02*
X158125000Y-37950000I0J250000D01*
G01*
X158125000Y-37025000D01*
G75*
G02*
X158375000Y-36775000I250000J0D01*
G01*
X159625000Y-36775000D01*
G75*
G02*
X159875000Y-37025000I0J-250000D01*
G01*
X159875000Y-37950000D01*
G75*
G02*
X159625000Y-38200000I-250000J0D01*
G01*
G37*
G04 #@! TD.AperFunction*
D25*
X153750000Y-31800000D03*
X155750000Y-35450000D03*
X163425000Y-75825000D03*
X156650000Y-66050000D03*
X153900000Y-63150000D03*
X152300000Y-92000000D03*
X153300000Y-82700000D03*
X153263250Y-78700000D03*
X151413250Y-78700000D03*
X138500000Y-72600000D03*
X133650000Y-87600000D03*
X153400000Y-36300000D03*
X161550000Y-36300000D03*
X161400000Y-54550000D03*
X157950000Y-54550000D03*
X162050000Y-62200000D03*
X140718750Y-65312500D03*
X129700000Y-99074984D03*
X140500000Y-89550000D03*
X138000000Y-89550000D03*
X176350000Y-99075000D03*
X175850000Y-87100000D03*
X162050000Y-84600000D03*
X159225000Y-28700000D03*
X159200000Y-31850000D03*
X159350000Y-82750000D03*
X155650000Y-85900000D03*
X36565000Y-76885000D03*
X62700000Y-74650000D03*
X82814999Y-74335001D03*
X101943901Y-74306099D03*
X119690000Y-74293901D03*
X156850000Y-55550000D03*
X157700000Y-61775000D03*
X156300000Y-87350000D03*
X159800000Y-76650000D03*
X157690000Y-72459996D03*
X150750000Y-76400000D03*
X156125000Y-56324988D03*
X186190000Y-56340000D03*
X161500000Y-56349994D03*
X156125000Y-57324991D03*
X205190000Y-57360000D03*
X161500000Y-57349997D03*
X224190000Y-58460000D03*
X161500000Y-58350000D03*
X156125000Y-58324994D03*
X250315000Y-59335000D03*
X161500000Y-59350000D03*
X156125000Y-59324997D03*
X161500000Y-60400000D03*
X156125000Y-60325000D03*
X257450000Y-37100000D03*
D26*
X153687500Y-31862500D02*
X153750000Y-31800000D01*
X150400000Y-31862500D02*
X153687500Y-31862500D01*
X153525000Y-27632500D02*
X153525000Y-26007500D01*
X153750000Y-29600000D02*
X153525000Y-29375000D01*
X153750000Y-31800000D02*
X153750000Y-29600000D01*
X153525000Y-29375000D02*
X153525000Y-27632500D01*
X141300000Y-77350000D02*
X141300000Y-76200000D01*
X143495002Y-79545002D02*
X141300000Y-77350000D01*
X147700000Y-79545002D02*
X143495002Y-79545002D01*
X161237500Y-77687500D02*
X162012500Y-78462500D01*
X162012500Y-78462500D02*
X162250000Y-78462500D01*
X154900000Y-77687500D02*
X161237500Y-77687500D01*
X138800000Y-90200000D02*
X135850000Y-93150000D01*
X138800000Y-85900000D02*
X138800000Y-90200000D01*
X135850000Y-93150000D02*
X135850000Y-96493750D01*
X135850000Y-96493750D02*
X136437500Y-97081250D01*
X136437500Y-97081250D02*
X137312500Y-97081250D01*
X153525000Y-26007500D02*
X153525000Y-25687500D01*
X153525000Y-25687500D02*
X152430000Y-24592500D01*
X174650000Y-94250000D02*
X173350000Y-94250000D01*
X174700000Y-82030000D02*
X174690000Y-82020000D01*
X174700000Y-85250000D02*
X174700000Y-82030000D01*
X171750000Y-88200000D02*
X174700000Y-85250000D01*
X171750000Y-92650000D02*
X171750000Y-88200000D01*
X173350000Y-94250000D02*
X171750000Y-92650000D01*
X174650000Y-97950000D02*
X174650000Y-94250000D01*
X161070000Y-24592500D02*
X161070000Y-23142500D01*
X161070000Y-23142500D02*
X161070000Y-20412500D01*
X152430000Y-20412500D02*
X152430000Y-21612500D01*
X152430000Y-21612500D02*
X152430000Y-24592500D01*
X152430000Y-20412500D02*
X161070000Y-20412500D01*
X159975000Y-26007500D02*
X159975000Y-25687500D01*
X159975000Y-25687500D02*
X161070000Y-24592500D01*
X150200000Y-81100000D02*
X149254998Y-81100000D01*
X149254998Y-81100000D02*
X147700000Y-79545002D01*
X147700000Y-79545002D02*
X147700000Y-77350000D01*
X147700000Y-77350000D02*
X147700000Y-76200000D01*
X145550000Y-85900000D02*
X145550000Y-84600000D01*
X149050000Y-81100000D02*
X150200000Y-81100000D01*
X145550000Y-84600000D02*
X149050000Y-81100000D01*
X146100000Y-87600000D02*
X146100000Y-86450000D01*
X146100000Y-86450000D02*
X145550000Y-85900000D01*
X145550000Y-85900000D02*
X139950000Y-85900000D01*
X139950000Y-85900000D02*
X138800000Y-85900000D01*
X141206250Y-96743750D02*
X141576252Y-96743750D01*
X143876252Y-94443750D02*
X144106250Y-94443750D01*
X141576252Y-96743750D02*
X143876252Y-94443750D01*
X137312500Y-97081250D02*
X140868750Y-97081250D01*
X140868750Y-97081250D02*
X141206250Y-96743750D01*
X138800000Y-85900000D02*
X138387500Y-85900000D01*
X138387500Y-85900000D02*
X136200000Y-88087500D01*
X165487500Y-26175000D02*
X165487500Y-27050000D01*
X163905000Y-24592500D02*
X165487500Y-26175000D01*
X161070000Y-24592500D02*
X163905000Y-24592500D01*
X154900000Y-79300000D02*
X154900000Y-77687500D01*
X153100000Y-81100000D02*
X154900000Y-79300000D01*
X150200000Y-81100000D02*
X153100000Y-81100000D01*
X155750000Y-35450000D02*
X155750000Y-31612500D01*
X141300000Y-77145002D02*
X141300000Y-76200000D01*
X141095001Y-77350001D02*
X141300000Y-77145002D01*
X132850000Y-74000000D02*
X134350000Y-75500000D01*
X132850000Y-73800000D02*
X132850000Y-74000000D01*
X134350000Y-75500000D02*
X138050000Y-75500000D01*
X138050000Y-75500000D02*
X139900001Y-77350001D01*
X139900001Y-77350001D02*
X141095001Y-77350001D01*
X132450000Y-74200000D02*
X132850000Y-73800000D01*
X130650000Y-74200000D02*
X132450000Y-74200000D01*
X130200000Y-74650000D02*
X130650000Y-74200000D01*
X148000000Y-92750000D02*
X148000000Y-94106250D01*
X149250000Y-92750000D02*
X148000000Y-92750000D01*
X153300000Y-97037500D02*
X153300000Y-96800000D01*
X153300000Y-96800000D02*
X149250000Y-92750000D01*
X146100000Y-87600000D02*
X146100000Y-90850000D01*
X146100000Y-90850000D02*
X148000000Y-92750000D01*
X155509001Y-99159001D02*
X153387500Y-97037500D01*
X174390999Y-99159001D02*
X155509001Y-99159001D01*
X153387500Y-97037500D02*
X153300000Y-97037500D01*
X174650000Y-97950000D02*
X174650000Y-98900000D01*
X174650000Y-98900000D02*
X174390999Y-99159001D01*
X156000000Y-35700000D02*
X155750000Y-35450000D01*
X156000000Y-42925320D02*
X156000000Y-35700000D01*
X158950000Y-45875320D02*
X156000000Y-42925320D01*
X147700000Y-76200000D02*
X147700000Y-73900000D01*
X147700000Y-73900000D02*
X148900000Y-72700000D01*
X148900000Y-72700000D02*
X148900000Y-67000000D01*
X148900000Y-67000000D02*
X153700000Y-62200000D01*
X153700000Y-62200000D02*
X155100000Y-62200000D01*
X155100000Y-62200000D02*
X155499999Y-62599999D01*
X155499999Y-62599999D02*
X158100001Y-62599999D01*
X158100001Y-62599999D02*
X158950000Y-61750000D01*
X158950000Y-61750000D02*
X158950000Y-45875320D01*
D27*
X153200000Y-81900000D02*
X155750000Y-79350000D01*
X150200000Y-81900000D02*
X153200000Y-81900000D01*
X155750000Y-79350000D02*
X160050000Y-79350000D01*
X160050000Y-79350000D02*
X162137500Y-81437500D01*
X162137500Y-81437500D02*
X162250000Y-81437500D01*
D26*
X159587500Y-97237500D02*
X164000000Y-97237500D01*
X160450000Y-66050000D02*
X164350000Y-69950000D01*
X164350000Y-69950000D02*
X164350000Y-74900000D01*
X156650000Y-66050000D02*
X160450000Y-66050000D01*
X164350000Y-74900000D02*
X163425000Y-75825000D01*
X153300000Y-82700000D02*
X150200000Y-82700000D01*
X153263250Y-76136750D02*
X154687500Y-74712500D01*
X154687500Y-74712500D02*
X154900000Y-74712500D01*
X153263250Y-78700000D02*
X153263250Y-76136750D01*
X150200000Y-78700000D02*
X151413250Y-78700000D01*
X136200000Y-85112500D02*
X138787500Y-85112500D01*
X138787500Y-85112500D02*
X138800000Y-85100000D01*
X155100000Y-74512500D02*
X154900000Y-74712500D01*
X157500000Y-42350000D02*
X160450000Y-45300000D01*
X160450000Y-62400000D02*
X158700000Y-64150000D01*
X160450000Y-45300000D02*
X160450000Y-62400000D01*
X159000000Y-37487500D02*
X157500000Y-38987500D01*
X158700000Y-64150000D02*
X156850000Y-64150000D01*
X157500000Y-38987500D02*
X157500000Y-42350000D01*
X156850000Y-64150000D02*
X155100000Y-65900000D01*
X155100000Y-65900000D02*
X155100000Y-74512500D01*
X135825000Y-73800000D02*
X139400000Y-73800000D01*
X140500000Y-74900000D02*
X140500000Y-76200000D01*
X139400000Y-73800000D02*
X140500000Y-74900000D01*
X136750000Y-72600000D02*
X138500000Y-72600000D01*
X135825000Y-73800000D02*
X135825000Y-73525000D01*
X135825000Y-73525000D02*
X136750000Y-72600000D01*
X136137500Y-85112500D02*
X133650000Y-87600000D01*
X136200000Y-85112500D02*
X136137500Y-85112500D01*
X153300000Y-94062500D02*
X156412500Y-94062500D01*
X156412500Y-94062500D02*
X159587500Y-97237500D01*
X153300000Y-93000000D02*
X152300000Y-92000000D01*
X153300000Y-94062500D02*
X153300000Y-93000000D01*
X152162500Y-94062500D02*
X153300000Y-94062500D01*
X146900000Y-87600000D02*
X146900000Y-88800000D01*
X146900000Y-88800000D02*
X152162500Y-94062500D01*
X150675000Y-74025000D02*
X148500000Y-76200000D01*
X150675000Y-73850000D02*
X150675000Y-74025000D01*
X149500000Y-67550000D02*
X153900000Y-63150000D01*
X150675000Y-73850000D02*
X149500000Y-72675000D01*
X149500000Y-72675000D02*
X149500000Y-67550000D01*
D27*
X141206250Y-94443750D02*
X141206250Y-93293750D01*
X141206250Y-93293750D02*
X144500000Y-90000000D01*
X144500000Y-90000000D02*
X144500000Y-88600000D01*
X144500000Y-88600000D02*
X144500000Y-87600000D01*
X137312500Y-94106250D02*
X140868750Y-94106250D01*
X140868750Y-94106250D02*
X141206250Y-94443750D01*
X145550000Y-95450000D02*
X147181250Y-97081250D01*
X147181250Y-97081250D02*
X148000000Y-97081250D01*
X145300000Y-88600000D02*
X145550000Y-88850000D01*
X145300000Y-87600000D02*
X145300000Y-88600000D01*
X145550000Y-88850000D02*
X145550000Y-95450000D01*
X145550000Y-95450000D02*
X144256250Y-96743750D01*
X144256250Y-96743750D02*
X144106250Y-96743750D01*
X144237501Y-96743750D02*
X144106250Y-96743750D01*
X35790000Y-28170000D02*
X38482500Y-28170000D01*
X38482500Y-28170000D02*
X41562500Y-31250000D01*
X41562500Y-31250000D02*
X41562500Y-32000000D01*
X173600000Y-36300000D02*
X174562500Y-35337500D01*
X161550000Y-36300000D02*
X173600000Y-36300000D01*
X174562500Y-35337500D02*
X174562500Y-35250000D01*
X174562500Y-34500000D02*
X174550000Y-34512500D01*
X60562500Y-34500000D02*
X60562500Y-35250000D01*
X60562500Y-35250000D02*
X60243599Y-35568901D01*
X60243599Y-35568901D02*
X41881401Y-35568901D01*
X41881401Y-35568901D02*
X41562500Y-35250000D01*
X41562500Y-35250000D02*
X41562500Y-34500000D01*
X79562500Y-34500000D02*
X78812500Y-34500000D01*
X78812500Y-34500000D02*
X77743599Y-35568901D01*
X77743599Y-35568901D02*
X60881401Y-35568901D01*
X60881401Y-35568901D02*
X60562500Y-35250000D01*
X98562500Y-34500000D02*
X97812500Y-34500000D01*
X97812500Y-34500000D02*
X96743599Y-35568901D01*
X96743599Y-35568901D02*
X79881401Y-35568901D01*
X79881401Y-35568901D02*
X79562500Y-35250000D01*
X79562500Y-35250000D02*
X79562500Y-34500000D01*
X117562500Y-34500000D02*
X117562500Y-35250000D01*
X117562500Y-35250000D02*
X117243599Y-35568901D01*
X117243599Y-35568901D02*
X98881401Y-35568901D01*
X98881401Y-35568901D02*
X98562500Y-35250000D01*
X98562500Y-35250000D02*
X98562500Y-34500000D01*
X136562500Y-34500000D02*
X136562500Y-35250000D01*
X136562500Y-35250000D02*
X136243599Y-35568901D01*
X136243599Y-35568901D02*
X117881401Y-35568901D01*
X117881401Y-35568901D02*
X117562500Y-35250000D01*
X138937500Y-34500000D02*
X136562500Y-34500000D01*
X153400000Y-36300000D02*
X139987500Y-36300000D01*
X139987500Y-36300000D02*
X138937500Y-35250000D01*
X138937500Y-35250000D02*
X138937500Y-34500000D01*
X193562500Y-34500000D02*
X193562500Y-35250000D01*
X193562500Y-35250000D02*
X193243599Y-35568901D01*
X193243599Y-35568901D02*
X174881401Y-35568901D01*
X174881401Y-35568901D02*
X174562500Y-35250000D01*
X174562500Y-35250000D02*
X174562500Y-34500000D01*
X212562500Y-34500000D02*
X212562500Y-35250000D01*
X212562500Y-35250000D02*
X212243599Y-35568901D01*
X212243599Y-35568901D02*
X193881401Y-35568901D01*
X193881401Y-35568901D02*
X193562500Y-35250000D01*
X231562500Y-35237500D02*
X231231099Y-35568901D01*
X231562500Y-34500000D02*
X231562500Y-35237500D01*
X231231099Y-35568901D02*
X212881401Y-35568901D01*
X212881401Y-35568901D02*
X212562500Y-35250000D01*
X250562500Y-35187500D02*
X250181099Y-35568901D01*
X250562500Y-34500000D02*
X250562500Y-35187500D01*
X250181099Y-35568901D02*
X231881401Y-35568901D01*
X231881401Y-35568901D02*
X231562500Y-35250000D01*
X231562500Y-35250000D02*
X231562500Y-34500000D01*
X269562500Y-34500000D02*
X269562500Y-35250000D01*
X269562500Y-35250000D02*
X269243599Y-35568901D01*
X269243599Y-35568901D02*
X250881401Y-35568901D01*
X250881401Y-35568901D02*
X250562500Y-35250000D01*
X250562500Y-35250000D02*
X250562500Y-34500000D01*
X135600000Y-81800000D02*
X135600000Y-81200000D01*
X41250000Y-35550000D02*
X41562500Y-35237500D01*
X138800000Y-84300000D02*
X138100000Y-84300000D01*
X41562500Y-35237500D02*
X41562500Y-34500000D01*
X29344999Y-71781409D02*
X29344999Y-41905001D01*
X134050000Y-79650000D02*
X53050000Y-79650000D01*
X135600000Y-81200000D02*
X134050000Y-79650000D01*
X53050000Y-79650000D02*
X51500000Y-78100000D01*
X51500000Y-78100000D02*
X35663590Y-78100000D01*
X35663590Y-78100000D02*
X29344999Y-71781409D01*
X138100000Y-84300000D02*
X135600000Y-81800000D01*
X35700000Y-35550000D02*
X41250000Y-35550000D01*
X29344999Y-41905001D02*
X35700000Y-35550000D01*
X54790000Y-28170000D02*
X57482500Y-28170000D01*
X57482500Y-28170000D02*
X60562500Y-31250000D01*
X60562500Y-31250000D02*
X60562500Y-32000000D01*
X73790000Y-28170000D02*
X76482500Y-28170000D01*
X76482500Y-28170000D02*
X79562500Y-31250000D01*
X79562500Y-31250000D02*
X79562500Y-32000000D01*
X92790000Y-28170000D02*
X95482500Y-28170000D01*
X95482500Y-28170000D02*
X98562500Y-31250000D01*
X98562500Y-31250000D02*
X98562500Y-32000000D01*
X111790000Y-28170000D02*
X114482500Y-28170000D01*
X114482500Y-28170000D02*
X117562500Y-31250000D01*
X117562500Y-31250000D02*
X117562500Y-32000000D01*
X130790000Y-28170000D02*
X133482500Y-28170000D01*
X133482500Y-28170000D02*
X136562500Y-31250000D01*
X136562500Y-31250000D02*
X136562500Y-32000000D01*
X149790000Y-28170000D02*
X142017500Y-28170000D01*
X142017500Y-28170000D02*
X138937500Y-31250000D01*
X138937500Y-31250000D02*
X138937500Y-32000000D01*
X168790000Y-28170000D02*
X171482500Y-28170000D01*
X171482500Y-28170000D02*
X174562500Y-31250000D01*
X174562500Y-31250000D02*
X174562500Y-32000000D01*
X187790000Y-28170000D02*
X190482500Y-28170000D01*
X190482500Y-28170000D02*
X193562500Y-31250000D01*
X193562500Y-31250000D02*
X193562500Y-32000000D01*
X206790000Y-28170000D02*
X209482500Y-28170000D01*
X209482500Y-28170000D02*
X212562500Y-31250000D01*
X212562500Y-31250000D02*
X212562500Y-32000000D01*
X225790000Y-28170000D02*
X228482500Y-28170000D01*
X228482500Y-28170000D02*
X231562500Y-31250000D01*
X231562500Y-31250000D02*
X231562500Y-32000000D01*
X244790000Y-28170000D02*
X247482500Y-28170000D01*
X247482500Y-28170000D02*
X250562500Y-31250000D01*
X250562500Y-31250000D02*
X250562500Y-32000000D01*
X263790000Y-28170000D02*
X266482500Y-28170000D01*
X266482500Y-28170000D02*
X269562500Y-31250000D01*
X269562500Y-31250000D02*
X269562500Y-32000000D01*
X38165000Y-47170000D02*
X40857500Y-47170000D01*
X40857500Y-47170000D02*
X43937500Y-50250000D01*
X43937500Y-50250000D02*
X43937500Y-51000000D01*
X43937500Y-54250000D02*
X43937500Y-53500000D01*
X236312500Y-54212500D02*
X236668901Y-54568901D01*
X236312500Y-53500000D02*
X236312500Y-54212500D01*
X236668901Y-54568901D02*
X262118599Y-54568901D01*
X262118599Y-54568901D02*
X262437500Y-54250000D01*
X262437500Y-54250000D02*
X262437500Y-53500000D01*
X217312500Y-54212500D02*
X217668901Y-54568901D01*
X217312500Y-53500000D02*
X217312500Y-54212500D01*
X217668901Y-54568901D02*
X235993599Y-54568901D01*
X235993599Y-54568901D02*
X236312500Y-54250000D01*
X236312500Y-54250000D02*
X236312500Y-53500000D01*
X198312500Y-54212500D02*
X198668901Y-54568901D01*
X198312500Y-53500000D02*
X198312500Y-54212500D01*
X198668901Y-54568901D02*
X216993599Y-54568901D01*
X216993599Y-54568901D02*
X217312500Y-54250000D01*
X217312500Y-54250000D02*
X217312500Y-53500000D01*
X179312500Y-54212500D02*
X179668901Y-54568901D01*
X179312500Y-53500000D02*
X179312500Y-54212500D01*
X179668901Y-54568901D02*
X197993599Y-54568901D01*
X197993599Y-54568901D02*
X198312500Y-54250000D01*
X198312500Y-54250000D02*
X198312500Y-53500000D01*
X161450000Y-54600000D02*
X178962500Y-54600000D01*
X161400000Y-54550000D02*
X161450000Y-54600000D01*
X178962500Y-54600000D02*
X179312500Y-54250000D01*
X179312500Y-54250000D02*
X179312500Y-53500000D01*
X143687500Y-54250000D02*
X144006401Y-54568901D01*
X143687500Y-53500000D02*
X143687500Y-54250000D01*
X144006401Y-54568901D02*
X157931099Y-54568901D01*
X157931099Y-54568901D02*
X157950000Y-54550000D01*
X141312500Y-53500000D02*
X143687500Y-53500000D01*
X122312500Y-53500000D02*
X123062500Y-53500000D01*
X123062500Y-53500000D02*
X124131401Y-54568901D01*
X124131401Y-54568901D02*
X140993599Y-54568901D01*
X140993599Y-54568901D02*
X141312500Y-54250000D01*
X141312500Y-54250000D02*
X141312500Y-53500000D01*
X103312500Y-53500000D02*
X104062500Y-53500000D01*
X104062500Y-53500000D02*
X105131401Y-54568901D01*
X105131401Y-54568901D02*
X121993599Y-54568901D01*
X121993599Y-54568901D02*
X122312500Y-54250000D01*
X122312500Y-54250000D02*
X122312500Y-53500000D01*
X84312500Y-53500000D02*
X84312500Y-54250000D01*
X84312500Y-54250000D02*
X84631401Y-54568901D01*
X84631401Y-54568901D02*
X102993599Y-54568901D01*
X102993599Y-54568901D02*
X103312500Y-54250000D01*
X103312500Y-54250000D02*
X103312500Y-53500000D01*
X65312500Y-53500000D02*
X65312500Y-54250000D01*
X65312500Y-54250000D02*
X65631401Y-54568901D01*
X65631401Y-54568901D02*
X83993599Y-54568901D01*
X83993599Y-54568901D02*
X84312500Y-54250000D01*
X43937500Y-54250000D02*
X44256401Y-54568901D01*
X44256401Y-54568901D02*
X64993599Y-54568901D01*
X64993599Y-54568901D02*
X65312500Y-54250000D01*
X43937500Y-54262500D02*
X43937500Y-53500000D01*
X136050000Y-81581776D02*
X136050000Y-81000000D01*
X138800000Y-83500000D02*
X137968224Y-83500000D01*
X43650000Y-54550000D02*
X43937500Y-54262500D01*
X51700000Y-77650000D02*
X35850000Y-77650000D01*
X136050000Y-81000000D02*
X134250000Y-79200000D01*
X33500000Y-60200000D02*
X39150000Y-54550000D01*
X134250000Y-79200000D02*
X53250000Y-79200000D01*
X35850000Y-77650000D02*
X33500000Y-75300000D01*
X33500000Y-75300000D02*
X33500000Y-60200000D01*
X53250000Y-79200000D02*
X51700000Y-77650000D01*
X137968224Y-83500000D02*
X136050000Y-81581776D01*
X39150000Y-54550000D02*
X43650000Y-54550000D01*
X59540000Y-47170000D02*
X62232500Y-47170000D01*
X62232500Y-47170000D02*
X65312500Y-50250000D01*
X65312500Y-50250000D02*
X65312500Y-51000000D01*
X78540000Y-47170000D02*
X81232500Y-47170000D01*
X81232500Y-47170000D02*
X84312500Y-50250000D01*
X84312500Y-50250000D02*
X84312500Y-51000000D01*
X97540000Y-47170000D02*
X100232500Y-47170000D01*
X100232500Y-47170000D02*
X103312500Y-50250000D01*
X103312500Y-50250000D02*
X103312500Y-51000000D01*
X116540000Y-47170000D02*
X119232500Y-47170000D01*
X119232500Y-47170000D02*
X122312500Y-50250000D01*
X122312500Y-50250000D02*
X122312500Y-51000000D01*
X135540000Y-47170000D02*
X138232500Y-47170000D01*
X138232500Y-47170000D02*
X141312500Y-50250000D01*
X141312500Y-50250000D02*
X141312500Y-51000000D01*
X154520000Y-47150000D02*
X146787500Y-47150000D01*
X154540000Y-47170000D02*
X154520000Y-47150000D01*
X146787500Y-47150000D02*
X143687500Y-50250000D01*
X143687500Y-50250000D02*
X143687500Y-51000000D01*
X173540000Y-47170000D02*
X176232500Y-47170000D01*
X176232500Y-47170000D02*
X179312500Y-50250000D01*
X179312500Y-50250000D02*
X179312500Y-51000000D01*
X192540000Y-47170000D02*
X195232500Y-47170000D01*
X195232500Y-47170000D02*
X198312500Y-50250000D01*
X198312500Y-50250000D02*
X198312500Y-51000000D01*
X211540000Y-47170000D02*
X214232500Y-47170000D01*
X214232500Y-47170000D02*
X217312500Y-50250000D01*
X217312500Y-50250000D02*
X217312500Y-51000000D01*
X230540000Y-47170000D02*
X233232500Y-47170000D01*
X233232500Y-47170000D02*
X236312500Y-50250000D01*
X236312500Y-50250000D02*
X236312500Y-51000000D01*
X256665000Y-47170000D02*
X259357500Y-47170000D01*
X259357500Y-47170000D02*
X262437500Y-50250000D01*
X262437500Y-50250000D02*
X262437500Y-51000000D01*
X42915000Y-66170000D02*
X45607500Y-66170000D01*
X45607500Y-66170000D02*
X48687500Y-69250000D01*
X48687500Y-69250000D02*
X48687500Y-70000000D01*
X162050000Y-66326002D02*
X162050000Y-62765685D01*
X163343999Y-67620001D02*
X162050000Y-66326002D01*
X165682501Y-67620001D02*
X163343999Y-67620001D01*
X169812500Y-71750000D02*
X165682501Y-67620001D01*
X169812500Y-72500000D02*
X169812500Y-71750000D01*
X162050000Y-62765685D02*
X162050000Y-62200000D01*
X134150000Y-71350000D02*
X131850000Y-71350000D01*
X134187500Y-71312500D02*
X134150000Y-71350000D01*
X131850000Y-71350000D02*
X131812500Y-71312500D01*
X93812500Y-73187500D02*
X93431099Y-73568901D01*
X93812500Y-72500000D02*
X93812500Y-73187500D01*
X93431099Y-73568901D02*
X75131401Y-73568901D01*
X75131401Y-73568901D02*
X74812500Y-73250000D01*
X74812500Y-73250000D02*
X74812500Y-72500000D01*
X112812500Y-73237500D02*
X112481099Y-73568901D01*
X112812500Y-72500000D02*
X112812500Y-73237500D01*
X112481099Y-73568901D02*
X94131401Y-73568901D01*
X94131401Y-73568901D02*
X93812500Y-73250000D01*
X93812500Y-73250000D02*
X93812500Y-72500000D01*
X188812500Y-73187500D02*
X188431099Y-73568901D01*
X188812500Y-72500000D02*
X188812500Y-73187500D01*
X188431099Y-73568901D02*
X170131401Y-73568901D01*
X170131401Y-73568901D02*
X169812500Y-73250000D01*
X169812500Y-73250000D02*
X169812500Y-72500000D01*
X207812500Y-73237500D02*
X207481099Y-73568901D01*
X207812500Y-72500000D02*
X207812500Y-73237500D01*
X207481099Y-73568901D02*
X189131401Y-73568901D01*
X189131401Y-73568901D02*
X188812500Y-73250000D01*
X188812500Y-73250000D02*
X188812500Y-72500000D01*
X226812500Y-73237500D02*
X226481099Y-73568901D01*
X226812500Y-72500000D02*
X226812500Y-73237500D01*
X226481099Y-73568901D02*
X208131401Y-73568901D01*
X208131401Y-73568901D02*
X207812500Y-73250000D01*
X207812500Y-73250000D02*
X207812500Y-72500000D01*
X245812500Y-73287500D02*
X245531099Y-73568901D01*
X245812500Y-72500000D02*
X245812500Y-73287500D01*
X245531099Y-73568901D02*
X227131401Y-73568901D01*
X227131401Y-73568901D02*
X226812500Y-73250000D01*
X226812500Y-73250000D02*
X226812500Y-72500000D01*
X267187500Y-73212500D02*
X266831099Y-73568901D01*
X267187500Y-72500000D02*
X267187500Y-73212500D01*
X266831099Y-73568901D02*
X246131401Y-73568901D01*
X246131401Y-73568901D02*
X245812500Y-73250000D01*
X245812500Y-73250000D02*
X245812500Y-72500000D01*
X48687500Y-73250000D02*
X48687500Y-72500000D01*
X53737500Y-78300000D02*
X48687500Y-73250000D01*
X137700000Y-81900000D02*
X137000000Y-81200000D01*
X134650000Y-78300000D02*
X53737500Y-78300000D01*
X137000000Y-81200000D02*
X137000000Y-80650000D01*
X138800000Y-81900000D02*
X137700000Y-81900000D01*
X137000000Y-80650000D02*
X134650000Y-78300000D01*
X130525000Y-72600000D02*
X126800000Y-72600000D01*
X112812500Y-73250000D02*
X112812500Y-72500000D01*
X113131401Y-73568901D02*
X112812500Y-73250000D01*
X131812500Y-71312500D02*
X130525000Y-72600000D01*
X126800000Y-72600000D02*
X125831099Y-73568901D01*
X125831099Y-73568901D02*
X113131401Y-73568901D01*
X58468901Y-73568901D02*
X49768901Y-73568901D01*
X49768901Y-73568901D02*
X48700000Y-72500000D01*
X74812500Y-72500000D02*
X74812500Y-73237500D01*
X74481099Y-73568901D02*
X58468901Y-73568901D01*
X74812500Y-73237500D02*
X74481099Y-73568901D01*
X48700000Y-72500000D02*
X48687500Y-72500000D01*
X133300000Y-70425000D02*
X133300000Y-68009315D01*
X134187500Y-71312500D02*
X133300000Y-70425000D01*
X135996815Y-65312500D02*
X140718750Y-65312500D01*
X133300000Y-68009315D02*
X135996815Y-65312500D01*
X69040000Y-66170000D02*
X71732500Y-66170000D01*
X71732500Y-66170000D02*
X74812500Y-69250000D01*
X74812500Y-69250000D02*
X74812500Y-70000000D01*
X88040000Y-66170000D02*
X90732500Y-66170000D01*
X90732500Y-66170000D02*
X93812500Y-69250000D01*
X93812500Y-69250000D02*
X93812500Y-70000000D01*
X107040000Y-66170000D02*
X109732500Y-66170000D01*
X109732500Y-66170000D02*
X112812500Y-69250000D01*
X112812500Y-69250000D02*
X112812500Y-70000000D01*
X126040000Y-66170000D02*
X129920000Y-66170000D01*
X129920000Y-66170000D02*
X131812500Y-68062500D01*
X131812500Y-68062500D02*
X131812500Y-68812500D01*
X136080000Y-66170000D02*
X134187500Y-68062500D01*
X145040000Y-66170000D02*
X136080000Y-66170000D01*
X134187500Y-68062500D02*
X134187500Y-68812500D01*
X164040000Y-66170000D02*
X166732500Y-66170000D01*
X166732500Y-66170000D02*
X169812500Y-69250000D01*
X169812500Y-69250000D02*
X169812500Y-70000000D01*
X183040000Y-66170000D02*
X185732500Y-66170000D01*
X185732500Y-66170000D02*
X188812500Y-69250000D01*
X188812500Y-69250000D02*
X188812500Y-70000000D01*
X202040000Y-66170000D02*
X204732500Y-66170000D01*
X204732500Y-66170000D02*
X207812500Y-69250000D01*
X207812500Y-69250000D02*
X207812500Y-70000000D01*
X221040000Y-66170000D02*
X223732500Y-66170000D01*
X223732500Y-66170000D02*
X226812500Y-69250000D01*
X226812500Y-69250000D02*
X226812500Y-70000000D01*
X240040000Y-66170000D02*
X242732500Y-66170000D01*
X242732500Y-66170000D02*
X245812500Y-69250000D01*
X245812500Y-69250000D02*
X245812500Y-70000000D01*
X261415000Y-66170000D02*
X264107500Y-66170000D01*
X264107500Y-66170000D02*
X267187500Y-69250000D01*
X267187500Y-69250000D02*
X267187500Y-70000000D01*
X40540000Y-85170000D02*
X43232500Y-85170000D01*
X43232500Y-85170000D02*
X46312500Y-88250000D01*
X46312500Y-88250000D02*
X46312500Y-89000000D01*
X38165000Y-85170000D02*
X40540000Y-85170000D01*
X113406250Y-91500000D02*
X113406250Y-92250000D01*
X120231240Y-99074990D02*
X129134309Y-99074990D01*
X113406250Y-92250000D02*
X120231240Y-99074990D01*
X129134309Y-99074990D02*
X129134315Y-99074984D01*
X129134315Y-99074984D02*
X129700000Y-99074984D01*
X140500000Y-89550000D02*
X140500000Y-87600000D01*
X245812500Y-92212500D02*
X246168901Y-92568901D01*
X245812500Y-91500000D02*
X245812500Y-92212500D01*
X246168901Y-92568901D02*
X266868599Y-92568901D01*
X266868599Y-92568901D02*
X267187500Y-92250000D01*
X267187500Y-92250000D02*
X267187500Y-91500000D01*
X224437500Y-92237500D02*
X224768901Y-92568901D01*
X224437500Y-91500000D02*
X224437500Y-92237500D01*
X224768901Y-92568901D02*
X245493599Y-92568901D01*
X245493599Y-92568901D02*
X245812500Y-92250000D01*
X245812500Y-92250000D02*
X245812500Y-91500000D01*
X200687500Y-92237500D02*
X201018901Y-92568901D01*
X200687500Y-91500000D02*
X200687500Y-92237500D01*
X201018901Y-92568901D02*
X224118599Y-92568901D01*
X224118599Y-92568901D02*
X224437500Y-92250000D01*
X224437500Y-92250000D02*
X224437500Y-91500000D01*
X178850000Y-91500000D02*
X179918901Y-92568901D01*
X176937500Y-91500000D02*
X178850000Y-91500000D01*
X179918901Y-92568901D02*
X200368599Y-92568901D01*
X200368599Y-92568901D02*
X200687500Y-92250000D01*
X200687500Y-92250000D02*
X200687500Y-91500000D01*
X176350000Y-99075000D02*
X176937500Y-98487500D01*
X176937500Y-98487500D02*
X176937500Y-91500000D01*
X110437500Y-91500000D02*
X113406250Y-91500000D01*
X93218750Y-91500000D02*
X93218750Y-92250000D01*
X93218750Y-92250000D02*
X93537651Y-92568901D01*
X93537651Y-92568901D02*
X110118599Y-92568901D01*
X110118599Y-92568901D02*
X110437500Y-92250000D01*
X110437500Y-92250000D02*
X110437500Y-91500000D01*
X65312500Y-92212500D02*
X65668901Y-92568901D01*
X65312500Y-91500000D02*
X65312500Y-92212500D01*
X65668901Y-92568901D02*
X92899849Y-92568901D01*
X92899849Y-92568901D02*
X93218750Y-92250000D01*
X46312500Y-91500000D02*
X46312500Y-92250000D01*
X46312500Y-92250000D02*
X46631401Y-92568901D01*
X46631401Y-92568901D02*
X64993599Y-92568901D01*
X64993599Y-92568901D02*
X65312500Y-92250000D01*
X65312500Y-92250000D02*
X65312500Y-91500000D01*
X129700000Y-98509299D02*
X129700000Y-99074984D01*
X138000000Y-90115685D02*
X136515685Y-91600000D01*
X138000000Y-89550000D02*
X138000000Y-90115685D01*
X136515685Y-91600000D02*
X133150000Y-91600000D01*
X133150000Y-91600000D02*
X129700000Y-95050000D01*
X129700000Y-95050000D02*
X129700000Y-98509299D01*
X59540000Y-85170000D02*
X62232500Y-85170000D01*
X62232500Y-85170000D02*
X65312500Y-88250000D01*
X65312500Y-88250000D02*
X65312500Y-89000000D01*
X90170000Y-85170000D02*
X93218750Y-88218750D01*
X88040000Y-85170000D02*
X90170000Y-85170000D01*
X93218750Y-88218750D02*
X93218750Y-89000000D01*
X80915000Y-85170000D02*
X82505990Y-85170000D01*
X82505990Y-85170000D02*
X88040000Y-85170000D01*
X104665000Y-85170000D02*
X107357500Y-85170000D01*
X107357500Y-85170000D02*
X110437500Y-88250000D01*
X110437500Y-88250000D02*
X110437500Y-89000000D01*
X123665000Y-85170000D02*
X125255990Y-85170000D01*
X125255990Y-85170000D02*
X133165000Y-85170000D01*
X123665000Y-85170000D02*
X116486250Y-85170000D01*
X116486250Y-85170000D02*
X113406250Y-88250000D01*
X113406250Y-88250000D02*
X113406250Y-89000000D01*
X176937500Y-88187500D02*
X175850000Y-87100000D01*
X176937500Y-89000000D02*
X176937500Y-88187500D01*
X161480000Y-85170000D02*
X162050000Y-84600000D01*
X159315000Y-85170000D02*
X161480000Y-85170000D01*
X194915000Y-85170000D02*
X197607500Y-85170000D01*
X197607500Y-85170000D02*
X200687500Y-88250000D01*
X200687500Y-88250000D02*
X200687500Y-89000000D01*
X218665000Y-85170000D02*
X221357500Y-85170000D01*
X221357500Y-85170000D02*
X224437500Y-88250000D01*
X224437500Y-88250000D02*
X224437500Y-89000000D01*
X211540000Y-85170000D02*
X213130990Y-85170000D01*
X213130990Y-85170000D02*
X218665000Y-85170000D01*
X240040000Y-85170000D02*
X242732500Y-85170000D01*
X242732500Y-85170000D02*
X245812500Y-88250000D01*
X245812500Y-88250000D02*
X245812500Y-89000000D01*
X261415000Y-85170000D02*
X264107500Y-85170000D01*
X264107500Y-85170000D02*
X267187500Y-88250000D01*
X267187500Y-88250000D02*
X267187500Y-89000000D01*
X259040000Y-85170000D02*
X261415000Y-85170000D01*
D28*
X154300000Y-24680702D02*
X154988213Y-23992489D01*
X154300000Y-26007500D02*
X154300000Y-24680702D01*
X154988213Y-23992489D02*
X158542489Y-23992489D01*
X158542489Y-23992489D02*
X159200000Y-24650000D01*
X159200000Y-24650000D02*
X159200000Y-26007500D01*
D26*
X159200000Y-26007500D02*
X159200000Y-28675000D01*
X159200000Y-28675000D02*
X159225000Y-28700000D01*
X154325000Y-26032500D02*
X154300000Y-26007500D01*
X157787500Y-31850000D02*
X157750000Y-31812500D01*
X159200000Y-31850000D02*
X157787500Y-31850000D01*
X159200000Y-34312500D02*
X159200000Y-31850000D01*
X159000000Y-34512500D02*
X159200000Y-34312500D01*
D27*
X173400000Y-80770000D02*
X173840001Y-80329999D01*
X171200000Y-92650000D02*
X171200000Y-87950000D01*
X173400000Y-85750000D02*
X173400000Y-80770000D01*
X171200000Y-87950000D02*
X173400000Y-85750000D01*
X173840001Y-80329999D02*
X174690000Y-79480000D01*
X168450000Y-94250000D02*
X168450000Y-97950000D01*
X164000000Y-94262500D02*
X168437500Y-94262500D01*
X168437500Y-94262500D02*
X168450000Y-94250000D01*
X147700000Y-88600000D02*
X148050000Y-88950000D01*
X147700000Y-87600000D02*
X147700000Y-88600000D01*
X148050000Y-88950000D02*
X152171002Y-88950000D01*
X152171002Y-88950000D02*
X157483502Y-94262500D01*
X157483502Y-94262500D02*
X164000000Y-94262500D01*
X169600000Y-94250000D02*
X171200000Y-92650000D01*
X168450000Y-94250000D02*
X169600000Y-94250000D01*
X161168997Y-89160001D02*
X162300000Y-88028998D01*
X159368999Y-89160001D02*
X161168997Y-89160001D01*
X170470000Y-83700000D02*
X172150000Y-82020000D01*
X158200000Y-87991002D02*
X159368999Y-89160001D01*
X162300000Y-88028998D02*
X162300000Y-85550000D01*
X158200000Y-87376998D02*
X158200000Y-87991002D01*
X150200000Y-85100000D02*
X155923002Y-85100000D01*
X155923002Y-85100000D02*
X158200000Y-87376998D01*
X162300000Y-85550000D02*
X164150000Y-83700000D01*
X164150000Y-83700000D02*
X170470000Y-83700000D01*
X151200000Y-84300000D02*
X150200000Y-84300000D01*
X151213901Y-84313901D02*
X151200000Y-84300000D01*
X158544499Y-83600000D02*
X157830598Y-84313901D01*
X172150000Y-79480000D02*
X170974999Y-80655001D01*
X170974999Y-82394003D02*
X170119013Y-83249989D01*
X170119013Y-83249989D02*
X163963600Y-83249989D01*
X163963600Y-83249989D02*
X163613589Y-83600000D01*
X157830598Y-84313901D02*
X151213901Y-84313901D01*
X170974999Y-80655001D02*
X170974999Y-82394003D01*
X163613589Y-83600000D02*
X158544499Y-83600000D01*
X159915685Y-82750000D02*
X159350000Y-82750000D01*
X166340000Y-82750000D02*
X159915685Y-82750000D01*
X169610000Y-79480000D02*
X166340000Y-82750000D01*
X150200000Y-85900000D02*
X155650000Y-85900000D01*
X137550000Y-77900000D02*
X138800000Y-77900000D01*
X135699990Y-76049990D02*
X137550000Y-77900000D01*
X128624990Y-76049990D02*
X135699990Y-76049990D01*
X127225000Y-74650000D02*
X128624990Y-76049990D01*
D29*
X151500001Y-79675000D02*
X151325001Y-79500000D01*
X151756800Y-79675000D02*
X151500001Y-79675000D01*
X151100000Y-71550000D02*
X152113250Y-72563250D01*
X152113250Y-79318550D02*
X151756800Y-79675000D01*
X152113250Y-72563250D02*
X152113250Y-79318550D01*
X150895250Y-71550000D02*
X151100000Y-71550000D01*
X151325001Y-79500000D02*
X150200000Y-79500000D01*
X151500001Y-80125000D02*
X151325001Y-80300000D01*
X151943200Y-80125000D02*
X151500001Y-80125000D01*
X152563250Y-79504950D02*
X151943200Y-80125000D01*
X152563250Y-72536750D02*
X152563250Y-79504950D01*
X153781250Y-71550000D02*
X153550000Y-71550000D01*
X153550000Y-71550000D02*
X152563250Y-72536750D01*
X151325001Y-80300000D02*
X150200000Y-80300000D01*
D27*
X162512500Y-27187500D02*
X162512500Y-27050000D01*
X160150000Y-29550000D02*
X162512500Y-27187500D01*
X158800000Y-29550000D02*
X160150000Y-29550000D01*
X158500000Y-26007500D02*
X158500000Y-29250000D01*
X158500000Y-29250000D02*
X158800000Y-29550000D01*
X155500000Y-28750000D02*
X155500000Y-26007500D01*
X154800000Y-29450000D02*
X155500000Y-28750000D01*
X154800000Y-32556002D02*
X154800000Y-29450000D01*
X150400000Y-34837500D02*
X152518502Y-34837500D01*
X152518502Y-34837500D02*
X154800000Y-32556002D01*
X137850000Y-82700000D02*
X136550000Y-81400000D01*
X53500000Y-78750000D02*
X51635000Y-76885000D01*
X134450000Y-78750000D02*
X53500000Y-78750000D01*
X138800000Y-82700000D02*
X137850000Y-82700000D01*
X136550000Y-81400000D02*
X136550000Y-80850000D01*
X51635000Y-76885000D02*
X36565000Y-76885000D01*
X136550000Y-80850000D02*
X134450000Y-78750000D01*
X63099999Y-75049999D02*
X62700000Y-74650000D01*
X65900000Y-77850000D02*
X63099999Y-75049999D01*
X134850000Y-77850000D02*
X65900000Y-77850000D01*
X138800000Y-81100000D02*
X138100000Y-81100000D01*
X138100000Y-81100000D02*
X134850000Y-77850000D01*
X83380684Y-74335001D02*
X82814999Y-74335001D01*
X138800000Y-80300000D02*
X137950000Y-80300000D01*
X86700000Y-77400000D02*
X83635001Y-74335001D01*
X137950000Y-80300000D02*
X135050000Y-77400000D01*
X135050000Y-77400000D02*
X86700000Y-77400000D01*
X83635001Y-74335001D02*
X83380684Y-74335001D01*
X137800000Y-79500000D02*
X135250000Y-76950000D01*
X138800000Y-79500000D02*
X137800000Y-79500000D01*
X135250000Y-76950000D02*
X105400000Y-76950000D01*
X101950000Y-74300000D02*
X101943901Y-74306099D01*
X105400000Y-76950000D02*
X102750000Y-74300000D01*
X102750000Y-74300000D02*
X101950000Y-74300000D01*
X122800000Y-76500000D02*
X120593901Y-74293901D01*
X135450000Y-76500000D02*
X122800000Y-76500000D01*
X120593901Y-74293901D02*
X119690000Y-74293901D01*
X138800000Y-78700000D02*
X137650000Y-78700000D01*
X137650000Y-78700000D02*
X135450000Y-76500000D01*
X142100000Y-76200000D02*
X142100000Y-74918384D01*
X142100000Y-74918384D02*
X138690000Y-71508384D01*
X138690000Y-71508384D02*
X138690000Y-70300990D01*
X138690000Y-70300990D02*
X138690000Y-68710000D01*
X157700000Y-61775000D02*
X157700000Y-56400000D01*
X157700000Y-56400000D02*
X156850000Y-55550000D01*
X152965000Y-87710000D02*
X148610000Y-87710000D01*
X148610000Y-87710000D02*
X148500000Y-87600000D01*
X155940000Y-87710000D02*
X156300000Y-87350000D01*
X152965000Y-87710000D02*
X155940000Y-87710000D01*
X159800000Y-76650000D02*
X159800000Y-74975010D01*
X157690000Y-72865010D02*
X157690000Y-72459996D01*
X159800000Y-74975010D02*
X157690000Y-72865010D01*
X150200000Y-76950000D02*
X150750000Y-76400000D01*
X150200000Y-77900000D02*
X150200000Y-76950000D01*
X161500000Y-56349994D02*
X186180006Y-56349994D01*
X186180006Y-56349994D02*
X186190000Y-56340000D01*
X155875012Y-56324988D02*
X156125000Y-56324988D01*
X150100000Y-62100000D02*
X155875012Y-56324988D01*
X146574945Y-66036939D02*
X150100000Y-62511884D01*
X146574945Y-66781057D02*
X146574945Y-66036939D01*
X145656002Y-67700000D02*
X146574945Y-66781057D01*
X140000000Y-70184013D02*
X142484013Y-67700000D01*
X142900000Y-75081974D02*
X140000000Y-72181974D01*
X142900000Y-76200000D02*
X142900000Y-75081974D01*
X140000000Y-72181974D02*
X140000000Y-70184013D01*
X150100000Y-62511884D02*
X150100000Y-62100000D01*
X142484013Y-67700000D02*
X145656002Y-67700000D01*
X205179997Y-57349997D02*
X205190000Y-57360000D01*
X161500000Y-57349997D02*
X205179997Y-57349997D01*
X147024956Y-68165811D02*
X147024956Y-66223338D01*
X143700000Y-76200000D02*
X143700000Y-75200000D01*
X143700000Y-75200000D02*
X144899967Y-74000033D01*
X155923303Y-57324991D02*
X156125000Y-57324991D01*
X144899967Y-74000033D02*
X144899967Y-70290800D01*
X147024956Y-66223338D02*
X155923303Y-57324991D01*
X144899967Y-70290800D02*
X147024956Y-68165811D01*
X161500000Y-58350000D02*
X224080000Y-58350000D01*
X224080000Y-58350000D02*
X224190000Y-58460000D01*
X145349978Y-74350022D02*
X145349978Y-70477200D01*
X147474967Y-66409737D02*
X155559710Y-58324994D01*
X144500000Y-75200000D02*
X145349978Y-74350022D01*
X145349978Y-70477200D02*
X147474967Y-68352211D01*
X147474967Y-68352211D02*
X147474967Y-66409737D01*
X144500000Y-76200000D02*
X144500000Y-75200000D01*
X155559710Y-58324994D02*
X156125000Y-58324994D01*
X250300000Y-59350000D02*
X250315000Y-59335000D01*
X161500000Y-59350000D02*
X250300000Y-59350000D01*
X155196117Y-59324997D02*
X156125000Y-59324997D01*
X147924978Y-68538611D02*
X147924978Y-66596136D01*
X145799989Y-70663600D02*
X147924978Y-68538611D01*
X145799989Y-74700011D02*
X145799989Y-70663600D01*
X145300000Y-75200000D02*
X145799989Y-74700011D01*
X147924978Y-66596136D02*
X155196117Y-59324997D01*
X145300000Y-76200000D02*
X145300000Y-75200000D01*
X257450000Y-37100000D02*
X263750000Y-43400000D01*
X258450000Y-60400000D02*
X162065685Y-60400000D01*
X263750000Y-43400000D02*
X263750000Y-55100000D01*
X162065685Y-60400000D02*
X161500000Y-60400000D01*
X263750000Y-55100000D02*
X258450000Y-60400000D01*
X146100000Y-76200000D02*
X146250000Y-76050000D01*
X146250000Y-70850000D02*
X148374989Y-68725011D01*
X148374989Y-66782535D02*
X154832524Y-60325000D01*
X154832524Y-60325000D02*
X156125000Y-60325000D01*
X146250000Y-76050000D02*
X146250000Y-70850000D01*
X148374989Y-68725011D02*
X148374989Y-66782535D01*
D29*
X159500000Y-62000000D02*
X159500000Y-45718200D01*
X158250000Y-63250000D02*
X159500000Y-62000000D01*
X152113250Y-67357000D02*
X152113250Y-66036750D01*
X154900000Y-63250000D02*
X158250000Y-63250000D01*
X155750000Y-30112500D02*
X155750000Y-29912500D01*
X152113250Y-66036750D02*
X154900000Y-63250000D01*
X150895250Y-68575000D02*
X152113250Y-67357000D01*
X159500000Y-45718200D02*
X156525000Y-42743200D01*
X156525000Y-42743200D02*
X156525000Y-30637500D01*
X156525000Y-30637500D02*
X156000000Y-30112500D01*
X156000000Y-30112500D02*
X155750000Y-30112500D01*
X156525000Y-28256800D02*
X156525000Y-29187500D01*
X156525000Y-29187500D02*
X155800000Y-29912500D01*
X155800000Y-29912500D02*
X155750000Y-29912500D01*
X156000000Y-27750000D02*
X156506800Y-28256800D01*
X156000000Y-26007500D02*
X156000000Y-27750000D01*
X156506800Y-28256800D02*
X156525000Y-28256800D01*
X157025000Y-27756800D02*
X156525000Y-28256800D01*
X157000000Y-26007500D02*
X157000000Y-27082500D01*
X157000000Y-27082500D02*
X157025000Y-27107500D01*
X157025000Y-27107500D02*
X157025000Y-27756800D01*
X159943750Y-62156250D02*
X159943750Y-45525550D01*
X153781250Y-68575000D02*
X152563250Y-67357000D01*
X158450000Y-63650000D02*
X159943750Y-62156250D01*
X155100000Y-63650000D02*
X158450000Y-63650000D01*
X152563250Y-66186750D02*
X155100000Y-63650000D01*
X152563250Y-67357000D02*
X152563250Y-66186750D01*
X159943750Y-45525550D02*
X156975000Y-42556800D01*
X156975000Y-42556800D02*
X156975000Y-30637500D01*
X156975000Y-30637500D02*
X157700000Y-29912500D01*
X156975000Y-28443200D02*
X156975000Y-29187500D01*
X156975000Y-29187500D02*
X157700000Y-29912500D01*
X157475000Y-27943200D02*
X156975000Y-28443200D01*
X157475000Y-27107500D02*
X157475000Y-27943200D01*
X157500000Y-26007500D02*
X157500000Y-27082500D01*
X157500000Y-27082500D02*
X157475000Y-27107500D01*
X157700000Y-29912500D02*
X157750000Y-29912500D01*
X156500000Y-26007500D02*
X156500000Y-24592498D01*
X156500000Y-24592498D02*
X156609999Y-24482499D01*
X156609999Y-24482499D02*
X157399999Y-24482499D01*
X157399999Y-24482499D02*
X157500000Y-24582500D01*
X157500000Y-24582500D02*
X157500000Y-26007500D01*
D30*
G36*
X140695248Y-92729951D02*
G01*
X140666250Y-92753749D01*
X140642452Y-92782747D01*
X140642451Y-92782748D01*
X140571276Y-92869474D01*
X140551924Y-92905678D01*
X140156250Y-92905678D01*
X140031768Y-92917938D01*
X139912070Y-92954248D01*
X139801756Y-93013213D01*
X139705065Y-93092565D01*
X139625713Y-93189256D01*
X139566748Y-93299570D01*
X139552588Y-93346250D01*
X138770819Y-93346250D01*
X138757972Y-93303900D01*
X138675905Y-93150364D01*
X138565462Y-93015788D01*
X138430886Y-92905345D01*
X138277350Y-92823278D01*
X138110754Y-92772742D01*
X137937500Y-92755678D01*
X136687500Y-92755678D01*
X136514246Y-92772742D01*
X136347650Y-92823278D01*
X136194114Y-92905345D01*
X136059538Y-93015788D01*
X135949095Y-93150364D01*
X135867028Y-93303900D01*
X135816492Y-93470496D01*
X135799428Y-93643750D01*
X135799428Y-94568750D01*
X135816492Y-94742004D01*
X135867028Y-94908600D01*
X135949095Y-95062136D01*
X136059538Y-95196712D01*
X136194114Y-95307155D01*
X136347650Y-95389222D01*
X136514246Y-95439758D01*
X136687500Y-95456822D01*
X137937500Y-95456822D01*
X138110754Y-95439758D01*
X138277350Y-95389222D01*
X138430886Y-95307155D01*
X138565462Y-95196712D01*
X138675905Y-95062136D01*
X138757972Y-94908600D01*
X138770819Y-94866250D01*
X139518178Y-94866250D01*
X139518178Y-95343750D01*
X139530438Y-95468232D01*
X139566748Y-95587930D01*
X139569859Y-95593750D01*
X139566748Y-95599570D01*
X139530438Y-95719268D01*
X139518178Y-95843750D01*
X139521250Y-96458000D01*
X139680000Y-96616750D01*
X141079250Y-96616750D01*
X141079250Y-96596750D01*
X141333250Y-96596750D01*
X141333250Y-96616750D01*
X141353250Y-96616750D01*
X141353250Y-96870750D01*
X141333250Y-96870750D01*
X141333250Y-98120000D01*
X141492000Y-98278750D01*
X142256250Y-98281822D01*
X142380732Y-98269562D01*
X142500430Y-98233252D01*
X142610744Y-98174287D01*
X142656250Y-98136941D01*
X142701756Y-98174287D01*
X142812070Y-98233252D01*
X142931768Y-98269562D01*
X143056250Y-98281822D01*
X145156250Y-98281822D01*
X145280732Y-98269562D01*
X145400430Y-98233252D01*
X145510744Y-98174287D01*
X145607435Y-98094935D01*
X145686787Y-97998244D01*
X145745752Y-97887930D01*
X145782062Y-97768232D01*
X145794322Y-97643750D01*
X145794322Y-96769123D01*
X146486928Y-97461730D01*
X146486928Y-97543750D01*
X146503992Y-97717004D01*
X146554528Y-97883600D01*
X146636595Y-98037136D01*
X146747038Y-98171712D01*
X146881614Y-98282155D01*
X147035150Y-98364222D01*
X147201746Y-98414758D01*
X147375000Y-98431822D01*
X148625000Y-98431822D01*
X148798254Y-98414758D01*
X148964850Y-98364222D01*
X149118386Y-98282155D01*
X149252962Y-98171712D01*
X149363405Y-98037136D01*
X149445472Y-97883600D01*
X149496008Y-97717004D01*
X149513072Y-97543750D01*
X149513072Y-96618750D01*
X149496008Y-96445496D01*
X149445472Y-96278900D01*
X149363405Y-96125364D01*
X149252962Y-95990788D01*
X149118386Y-95880345D01*
X148964850Y-95798278D01*
X148798254Y-95747742D01*
X148625000Y-95730678D01*
X147375000Y-95730678D01*
X147201746Y-95747742D01*
X147035150Y-95798278D01*
X146994700Y-95819899D01*
X146310000Y-95135199D01*
X146310000Y-94818750D01*
X146486928Y-94818750D01*
X146499188Y-94943232D01*
X146535498Y-95062930D01*
X146594463Y-95173244D01*
X146673815Y-95269935D01*
X146770506Y-95349287D01*
X146880820Y-95408252D01*
X147000518Y-95444562D01*
X147125000Y-95456822D01*
X147714250Y-95453750D01*
X147873000Y-95295000D01*
X147873000Y-94233250D01*
X148127000Y-94233250D01*
X148127000Y-95295000D01*
X148285750Y-95453750D01*
X148875000Y-95456822D01*
X148999482Y-95444562D01*
X149119180Y-95408252D01*
X149229494Y-95349287D01*
X149326185Y-95269935D01*
X149405537Y-95173244D01*
X149464502Y-95062930D01*
X149500812Y-94943232D01*
X149513072Y-94818750D01*
X149510000Y-94392000D01*
X149351250Y-94233250D01*
X148127000Y-94233250D01*
X147873000Y-94233250D01*
X146648750Y-94233250D01*
X146490000Y-94392000D01*
X146486928Y-94818750D01*
X146310000Y-94818750D01*
X146310000Y-93393750D01*
X146486928Y-93393750D01*
X146490000Y-93820500D01*
X146648750Y-93979250D01*
X147873000Y-93979250D01*
X147873000Y-92917500D01*
X148127000Y-92917500D01*
X148127000Y-93979250D01*
X149351250Y-93979250D01*
X149510000Y-93820500D01*
X149513072Y-93393750D01*
X149500812Y-93269268D01*
X149464502Y-93149570D01*
X149405537Y-93039256D01*
X149326185Y-92942565D01*
X149229494Y-92863213D01*
X149119180Y-92804248D01*
X148999482Y-92767938D01*
X148875000Y-92755678D01*
X148285750Y-92758750D01*
X148127000Y-92917500D01*
X147873000Y-92917500D01*
X147714250Y-92758750D01*
X147125000Y-92755678D01*
X147000518Y-92767938D01*
X146880820Y-92804248D01*
X146770506Y-92863213D01*
X146673815Y-92942565D01*
X146594463Y-93039256D01*
X146535498Y-93149570D01*
X146499188Y-93269268D01*
X146486928Y-93393750D01*
X146310000Y-93393750D01*
X146310000Y-91564500D01*
X148483632Y-91564500D01*
X150685500Y-93766369D01*
X150685500Y-99040000D01*
X134908250Y-99040000D01*
X134908250Y-98311968D01*
X134944531Y-98257670D01*
X135107280Y-97864757D01*
X135121404Y-97793750D01*
X135799428Y-97793750D01*
X135811688Y-97918232D01*
X135847998Y-98037930D01*
X135906963Y-98148244D01*
X135986315Y-98244935D01*
X136083006Y-98324287D01*
X136193320Y-98383252D01*
X136313018Y-98419562D01*
X136437500Y-98431822D01*
X137026750Y-98428750D01*
X137185500Y-98270000D01*
X137185500Y-97208250D01*
X137439500Y-97208250D01*
X137439500Y-98270000D01*
X137598250Y-98428750D01*
X138187500Y-98431822D01*
X138311982Y-98419562D01*
X138431680Y-98383252D01*
X138541994Y-98324287D01*
X138638685Y-98244935D01*
X138718037Y-98148244D01*
X138777002Y-98037930D01*
X138813312Y-97918232D01*
X138825572Y-97793750D01*
X138824493Y-97643750D01*
X139518178Y-97643750D01*
X139530438Y-97768232D01*
X139566748Y-97887930D01*
X139625713Y-97998244D01*
X139705065Y-98094935D01*
X139801756Y-98174287D01*
X139912070Y-98233252D01*
X140031768Y-98269562D01*
X140156250Y-98281822D01*
X140920500Y-98278750D01*
X141079250Y-98120000D01*
X141079250Y-96870750D01*
X139680000Y-96870750D01*
X139521250Y-97029500D01*
X139518178Y-97643750D01*
X138824493Y-97643750D01*
X138822500Y-97367000D01*
X138663750Y-97208250D01*
X137439500Y-97208250D01*
X137185500Y-97208250D01*
X135961250Y-97208250D01*
X135802500Y-97367000D01*
X135799428Y-97793750D01*
X135121404Y-97793750D01*
X135190250Y-97447643D01*
X135190250Y-97022357D01*
X135107280Y-96605243D01*
X135009322Y-96368750D01*
X135799428Y-96368750D01*
X135802500Y-96795500D01*
X135961250Y-96954250D01*
X137185500Y-96954250D01*
X137185500Y-95892500D01*
X137439500Y-95892500D01*
X137439500Y-96954250D01*
X138663750Y-96954250D01*
X138822500Y-96795500D01*
X138825572Y-96368750D01*
X138813312Y-96244268D01*
X138777002Y-96124570D01*
X138718037Y-96014256D01*
X138638685Y-95917565D01*
X138541994Y-95838213D01*
X138431680Y-95779248D01*
X138311982Y-95742938D01*
X138187500Y-95730678D01*
X137598250Y-95733750D01*
X137439500Y-95892500D01*
X137185500Y-95892500D01*
X137026750Y-95733750D01*
X136437500Y-95730678D01*
X136313018Y-95742938D01*
X136193320Y-95779248D01*
X136083006Y-95838213D01*
X135986315Y-95917565D01*
X135906963Y-96014256D01*
X135847998Y-96124570D01*
X135811688Y-96244268D01*
X135799428Y-96368750D01*
X135009322Y-96368750D01*
X134944531Y-96212330D01*
X134908250Y-96158032D01*
X134908250Y-92360000D01*
X136478363Y-92360000D01*
X136515685Y-92363676D01*
X136553007Y-92360000D01*
X136553018Y-92360000D01*
X136664671Y-92349003D01*
X136807932Y-92305546D01*
X136939961Y-92234974D01*
X137055686Y-92140001D01*
X137079488Y-92110998D01*
X137625987Y-91564500D01*
X141860699Y-91564500D01*
X140695248Y-92729951D01*
G37*
X140695248Y-92729951D02*
X140666250Y-92753749D01*
X140642452Y-92782747D01*
X140642451Y-92782748D01*
X140571276Y-92869474D01*
X140551924Y-92905678D01*
X140156250Y-92905678D01*
X140031768Y-92917938D01*
X139912070Y-92954248D01*
X139801756Y-93013213D01*
X139705065Y-93092565D01*
X139625713Y-93189256D01*
X139566748Y-93299570D01*
X139552588Y-93346250D01*
X138770819Y-93346250D01*
X138757972Y-93303900D01*
X138675905Y-93150364D01*
X138565462Y-93015788D01*
X138430886Y-92905345D01*
X138277350Y-92823278D01*
X138110754Y-92772742D01*
X137937500Y-92755678D01*
X136687500Y-92755678D01*
X136514246Y-92772742D01*
X136347650Y-92823278D01*
X136194114Y-92905345D01*
X136059538Y-93015788D01*
X135949095Y-93150364D01*
X135867028Y-93303900D01*
X135816492Y-93470496D01*
X135799428Y-93643750D01*
X135799428Y-94568750D01*
X135816492Y-94742004D01*
X135867028Y-94908600D01*
X135949095Y-95062136D01*
X136059538Y-95196712D01*
X136194114Y-95307155D01*
X136347650Y-95389222D01*
X136514246Y-95439758D01*
X136687500Y-95456822D01*
X137937500Y-95456822D01*
X138110754Y-95439758D01*
X138277350Y-95389222D01*
X138430886Y-95307155D01*
X138565462Y-95196712D01*
X138675905Y-95062136D01*
X138757972Y-94908600D01*
X138770819Y-94866250D01*
X139518178Y-94866250D01*
X139518178Y-95343750D01*
X139530438Y-95468232D01*
X139566748Y-95587930D01*
X139569859Y-95593750D01*
X139566748Y-95599570D01*
X139530438Y-95719268D01*
X139518178Y-95843750D01*
X139521250Y-96458000D01*
X139680000Y-96616750D01*
X141079250Y-96616750D01*
X141079250Y-96596750D01*
X141333250Y-96596750D01*
X141333250Y-96616750D01*
X141353250Y-96616750D01*
X141353250Y-96870750D01*
X141333250Y-96870750D01*
X141333250Y-98120000D01*
X141492000Y-98278750D01*
X142256250Y-98281822D01*
X142380732Y-98269562D01*
X142500430Y-98233252D01*
X142610744Y-98174287D01*
X142656250Y-98136941D01*
X142701756Y-98174287D01*
X142812070Y-98233252D01*
X142931768Y-98269562D01*
X143056250Y-98281822D01*
X145156250Y-98281822D01*
X145280732Y-98269562D01*
X145400430Y-98233252D01*
X145510744Y-98174287D01*
X145607435Y-98094935D01*
X145686787Y-97998244D01*
X145745752Y-97887930D01*
X145782062Y-97768232D01*
X145794322Y-97643750D01*
X145794322Y-96769123D01*
X146486928Y-97461730D01*
X146486928Y-97543750D01*
X146503992Y-97717004D01*
X146554528Y-97883600D01*
X146636595Y-98037136D01*
X146747038Y-98171712D01*
X146881614Y-98282155D01*
X147035150Y-98364222D01*
X147201746Y-98414758D01*
X147375000Y-98431822D01*
X148625000Y-98431822D01*
X148798254Y-98414758D01*
X148964850Y-98364222D01*
X149118386Y-98282155D01*
X149252962Y-98171712D01*
X149363405Y-98037136D01*
X149445472Y-97883600D01*
X149496008Y-97717004D01*
X149513072Y-97543750D01*
X149513072Y-96618750D01*
X149496008Y-96445496D01*
X149445472Y-96278900D01*
X149363405Y-96125364D01*
X149252962Y-95990788D01*
X149118386Y-95880345D01*
X148964850Y-95798278D01*
X148798254Y-95747742D01*
X148625000Y-95730678D01*
X147375000Y-95730678D01*
X147201746Y-95747742D01*
X147035150Y-95798278D01*
X146994700Y-95819899D01*
X146310000Y-95135199D01*
X146310000Y-94818750D01*
X146486928Y-94818750D01*
X146499188Y-94943232D01*
X146535498Y-95062930D01*
X146594463Y-95173244D01*
X146673815Y-95269935D01*
X146770506Y-95349287D01*
X146880820Y-95408252D01*
X147000518Y-95444562D01*
X147125000Y-95456822D01*
X147714250Y-95453750D01*
X147873000Y-95295000D01*
X147873000Y-94233250D01*
X148127000Y-94233250D01*
X148127000Y-95295000D01*
X148285750Y-95453750D01*
X148875000Y-95456822D01*
X148999482Y-95444562D01*
X149119180Y-95408252D01*
X149229494Y-95349287D01*
X149326185Y-95269935D01*
X149405537Y-95173244D01*
X149464502Y-95062930D01*
X149500812Y-94943232D01*
X149513072Y-94818750D01*
X149510000Y-94392000D01*
X149351250Y-94233250D01*
X148127000Y-94233250D01*
X147873000Y-94233250D01*
X146648750Y-94233250D01*
X146490000Y-94392000D01*
X146486928Y-94818750D01*
X146310000Y-94818750D01*
X146310000Y-93393750D01*
X146486928Y-93393750D01*
X146490000Y-93820500D01*
X146648750Y-93979250D01*
X147873000Y-93979250D01*
X147873000Y-92917500D01*
X148127000Y-92917500D01*
X148127000Y-93979250D01*
X149351250Y-93979250D01*
X149510000Y-93820500D01*
X149513072Y-93393750D01*
X149500812Y-93269268D01*
X149464502Y-93149570D01*
X149405537Y-93039256D01*
X149326185Y-92942565D01*
X149229494Y-92863213D01*
X149119180Y-92804248D01*
X148999482Y-92767938D01*
X148875000Y-92755678D01*
X148285750Y-92758750D01*
X148127000Y-92917500D01*
X147873000Y-92917500D01*
X147714250Y-92758750D01*
X147125000Y-92755678D01*
X147000518Y-92767938D01*
X146880820Y-92804248D01*
X146770506Y-92863213D01*
X146673815Y-92942565D01*
X146594463Y-93039256D01*
X146535498Y-93149570D01*
X146499188Y-93269268D01*
X146486928Y-93393750D01*
X146310000Y-93393750D01*
X146310000Y-91564500D01*
X148483632Y-91564500D01*
X150685500Y-93766369D01*
X150685500Y-99040000D01*
X134908250Y-99040000D01*
X134908250Y-98311968D01*
X134944531Y-98257670D01*
X135107280Y-97864757D01*
X135121404Y-97793750D01*
X135799428Y-97793750D01*
X135811688Y-97918232D01*
X135847998Y-98037930D01*
X135906963Y-98148244D01*
X135986315Y-98244935D01*
X136083006Y-98324287D01*
X136193320Y-98383252D01*
X136313018Y-98419562D01*
X136437500Y-98431822D01*
X137026750Y-98428750D01*
X137185500Y-98270000D01*
X137185500Y-97208250D01*
X137439500Y-97208250D01*
X137439500Y-98270000D01*
X137598250Y-98428750D01*
X138187500Y-98431822D01*
X138311982Y-98419562D01*
X138431680Y-98383252D01*
X138541994Y-98324287D01*
X138638685Y-98244935D01*
X138718037Y-98148244D01*
X138777002Y-98037930D01*
X138813312Y-97918232D01*
X138825572Y-97793750D01*
X138824493Y-97643750D01*
X139518178Y-97643750D01*
X139530438Y-97768232D01*
X139566748Y-97887930D01*
X139625713Y-97998244D01*
X139705065Y-98094935D01*
X139801756Y-98174287D01*
X139912070Y-98233252D01*
X140031768Y-98269562D01*
X140156250Y-98281822D01*
X140920500Y-98278750D01*
X141079250Y-98120000D01*
X141079250Y-96870750D01*
X139680000Y-96870750D01*
X139521250Y-97029500D01*
X139518178Y-97643750D01*
X138824493Y-97643750D01*
X138822500Y-97367000D01*
X138663750Y-97208250D01*
X137439500Y-97208250D01*
X137185500Y-97208250D01*
X135961250Y-97208250D01*
X135802500Y-97367000D01*
X135799428Y-97793750D01*
X135121404Y-97793750D01*
X135190250Y-97447643D01*
X135190250Y-97022357D01*
X135107280Y-96605243D01*
X135009322Y-96368750D01*
X135799428Y-96368750D01*
X135802500Y-96795500D01*
X135961250Y-96954250D01*
X137185500Y-96954250D01*
X137185500Y-95892500D01*
X137439500Y-95892500D01*
X137439500Y-96954250D01*
X138663750Y-96954250D01*
X138822500Y-96795500D01*
X138825572Y-96368750D01*
X138813312Y-96244268D01*
X138777002Y-96124570D01*
X138718037Y-96014256D01*
X138638685Y-95917565D01*
X138541994Y-95838213D01*
X138431680Y-95779248D01*
X138311982Y-95742938D01*
X138187500Y-95730678D01*
X137598250Y-95733750D01*
X137439500Y-95892500D01*
X137185500Y-95892500D01*
X137026750Y-95733750D01*
X136437500Y-95730678D01*
X136313018Y-95742938D01*
X136193320Y-95779248D01*
X136083006Y-95838213D01*
X135986315Y-95917565D01*
X135906963Y-96014256D01*
X135847998Y-96124570D01*
X135811688Y-96244268D01*
X135799428Y-96368750D01*
X135009322Y-96368750D01*
X134944531Y-96212330D01*
X134908250Y-96158032D01*
X134908250Y-92360000D01*
X136478363Y-92360000D01*
X136515685Y-92363676D01*
X136553007Y-92360000D01*
X136553018Y-92360000D01*
X136664671Y-92349003D01*
X136807932Y-92305546D01*
X136939961Y-92234974D01*
X137055686Y-92140001D01*
X137079488Y-92110998D01*
X137625987Y-91564500D01*
X141860699Y-91564500D01*
X140695248Y-92729951D01*
G36*
X144790001Y-92907150D02*
G01*
X144392000Y-92908750D01*
X144233250Y-93067500D01*
X144233250Y-94316750D01*
X144253250Y-94316750D01*
X144253250Y-94570750D01*
X144233250Y-94570750D01*
X144233250Y-94590750D01*
X143979250Y-94590750D01*
X143979250Y-94570750D01*
X143959250Y-94570750D01*
X143959250Y-94316750D01*
X143979250Y-94316750D01*
X143979250Y-93067500D01*
X143820500Y-92908750D01*
X143056250Y-92905678D01*
X142931768Y-92917938D01*
X142812070Y-92954248D01*
X142701756Y-93013213D01*
X142656250Y-93050559D01*
X142610744Y-93013213D01*
X142578711Y-92996091D01*
X144010302Y-91564500D01*
X144790000Y-91564500D01*
X144790001Y-92907150D01*
G37*
X144790001Y-92907150D02*
X144392000Y-92908750D01*
X144233250Y-93067500D01*
X144233250Y-94316750D01*
X144253250Y-94316750D01*
X144253250Y-94570750D01*
X144233250Y-94570750D01*
X144233250Y-94590750D01*
X143979250Y-94590750D01*
X143979250Y-94570750D01*
X143959250Y-94570750D01*
X143959250Y-94316750D01*
X143979250Y-94316750D01*
X143979250Y-93067500D01*
X143820500Y-92908750D01*
X143056250Y-92905678D01*
X142931768Y-92917938D01*
X142812070Y-92954248D01*
X142701756Y-93013213D01*
X142656250Y-93050559D01*
X142610744Y-93013213D01*
X142578711Y-92996091D01*
X144010302Y-91564500D01*
X144790000Y-91564500D01*
X144790001Y-92907150D01*
G36*
X147773815Y-77401185D02*
G01*
X147870506Y-77480537D01*
X147893667Y-77492917D01*
X147985750Y-77585000D01*
X148099337Y-77575454D01*
X148100518Y-77575812D01*
X148225000Y-77588072D01*
X148775000Y-77588072D01*
X148815962Y-77584038D01*
X148811928Y-77625000D01*
X148811928Y-78175000D01*
X148824188Y-78299482D01*
X148824345Y-78300000D01*
X148824188Y-78300518D01*
X148811928Y-78425000D01*
X148811928Y-78975000D01*
X148824188Y-79099482D01*
X148824345Y-79100000D01*
X148824188Y-79100518D01*
X148811928Y-79225000D01*
X148811928Y-79775000D01*
X148824188Y-79899482D01*
X148824345Y-79900000D01*
X148824188Y-79900518D01*
X148811928Y-80025000D01*
X148811928Y-80575000D01*
X148824188Y-80699482D01*
X148824546Y-80700663D01*
X148815000Y-80814250D01*
X148907083Y-80906333D01*
X148919463Y-80929494D01*
X148998815Y-81026185D01*
X149088759Y-81100000D01*
X148998815Y-81173815D01*
X148919463Y-81270506D01*
X148907083Y-81293667D01*
X148815000Y-81385750D01*
X148824546Y-81499337D01*
X148824188Y-81500518D01*
X148811928Y-81625000D01*
X148811928Y-82175000D01*
X148824188Y-82299482D01*
X148824345Y-82300000D01*
X148824188Y-82300518D01*
X148811928Y-82425000D01*
X148811928Y-82975000D01*
X148824188Y-83099482D01*
X148824345Y-83100000D01*
X148824188Y-83100518D01*
X148811928Y-83225000D01*
X148811928Y-83775000D01*
X148824188Y-83899482D01*
X148824345Y-83900000D01*
X148824188Y-83900518D01*
X148811928Y-84025000D01*
X148811928Y-84575000D01*
X148824188Y-84699482D01*
X148824345Y-84700000D01*
X148824188Y-84700518D01*
X148811928Y-84825000D01*
X148811928Y-85375000D01*
X148824188Y-85499482D01*
X148824345Y-85500000D01*
X148824188Y-85500518D01*
X148811928Y-85625000D01*
X148811928Y-86175000D01*
X148815962Y-86215962D01*
X148775000Y-86211928D01*
X148225000Y-86211928D01*
X148100518Y-86224188D01*
X148100000Y-86224345D01*
X148099482Y-86224188D01*
X147975000Y-86211928D01*
X147425000Y-86211928D01*
X147300518Y-86224188D01*
X147300000Y-86224345D01*
X147299482Y-86224188D01*
X147175000Y-86211928D01*
X146625000Y-86211928D01*
X146500518Y-86224188D01*
X146499337Y-86224546D01*
X146385750Y-86215000D01*
X146293667Y-86307083D01*
X146270506Y-86319463D01*
X146173815Y-86398815D01*
X146100000Y-86488759D01*
X146026185Y-86398815D01*
X145929494Y-86319463D01*
X145906333Y-86307083D01*
X145814250Y-86215000D01*
X145700663Y-86224546D01*
X145699482Y-86224188D01*
X145575000Y-86211928D01*
X145025000Y-86211928D01*
X144900518Y-86224188D01*
X144900000Y-86224345D01*
X144899482Y-86224188D01*
X144775000Y-86211928D01*
X144225000Y-86211928D01*
X144100518Y-86224188D01*
X144100000Y-86224345D01*
X144099482Y-86224188D01*
X143975000Y-86211928D01*
X143425000Y-86211928D01*
X143300518Y-86224188D01*
X143300000Y-86224345D01*
X143299482Y-86224188D01*
X143175000Y-86211928D01*
X142625000Y-86211928D01*
X142500518Y-86224188D01*
X142500000Y-86224345D01*
X142499482Y-86224188D01*
X142375000Y-86211928D01*
X141825000Y-86211928D01*
X141700518Y-86224188D01*
X141700000Y-86224345D01*
X141699482Y-86224188D01*
X141575000Y-86211928D01*
X141025000Y-86211928D01*
X140900518Y-86224188D01*
X140900000Y-86224345D01*
X140899482Y-86224188D01*
X140775000Y-86211928D01*
X140225000Y-86211928D01*
X140182448Y-86216119D01*
X140185000Y-86185750D01*
X140026250Y-86027000D01*
X139627000Y-86027000D01*
X139627000Y-86005488D01*
X139674482Y-86000812D01*
X139794180Y-85964502D01*
X139904494Y-85905537D01*
X140001185Y-85826185D01*
X140080537Y-85729494D01*
X140092917Y-85706333D01*
X140185000Y-85614250D01*
X140175454Y-85500663D01*
X140175812Y-85499482D01*
X140188072Y-85375000D01*
X140188072Y-84825000D01*
X140175812Y-84700518D01*
X140175655Y-84700000D01*
X140175812Y-84699482D01*
X140188072Y-84575000D01*
X140188072Y-84025000D01*
X140175812Y-83900518D01*
X140175655Y-83900000D01*
X140175812Y-83899482D01*
X140188072Y-83775000D01*
X140188072Y-83225000D01*
X140175812Y-83100518D01*
X140175655Y-83100000D01*
X140175812Y-83099482D01*
X140188072Y-82975000D01*
X140188072Y-82425000D01*
X140175812Y-82300518D01*
X140175655Y-82300000D01*
X140175812Y-82299482D01*
X140188072Y-82175000D01*
X140188072Y-81625000D01*
X140175812Y-81500518D01*
X140175655Y-81500000D01*
X140175812Y-81499482D01*
X140188072Y-81375000D01*
X140188072Y-80825000D01*
X140175812Y-80700518D01*
X140175655Y-80700000D01*
X140175812Y-80699482D01*
X140188072Y-80575000D01*
X140188072Y-80025000D01*
X140175812Y-79900518D01*
X140175655Y-79900000D01*
X140175812Y-79899482D01*
X140188072Y-79775000D01*
X140188072Y-79225000D01*
X140175812Y-79100518D01*
X140175655Y-79100000D01*
X140175812Y-79099482D01*
X140188072Y-78975000D01*
X140188072Y-78425000D01*
X140175812Y-78300518D01*
X140175655Y-78300000D01*
X140175812Y-78299482D01*
X140188072Y-78175000D01*
X140188072Y-77625000D01*
X140184038Y-77584038D01*
X140225000Y-77588072D01*
X140775000Y-77588072D01*
X140899482Y-77575812D01*
X140900663Y-77575454D01*
X141014250Y-77585000D01*
X141106333Y-77492917D01*
X141129494Y-77480537D01*
X141226185Y-77401185D01*
X141300000Y-77311241D01*
X141373815Y-77401185D01*
X141470506Y-77480537D01*
X141493667Y-77492917D01*
X141585750Y-77585000D01*
X141699337Y-77575454D01*
X141700518Y-77575812D01*
X141825000Y-77588072D01*
X142375000Y-77588072D01*
X142499482Y-77575812D01*
X142500000Y-77575655D01*
X142500518Y-77575812D01*
X142625000Y-77588072D01*
X143175000Y-77588072D01*
X143299482Y-77575812D01*
X143300000Y-77575655D01*
X143300518Y-77575812D01*
X143425000Y-77588072D01*
X143975000Y-77588072D01*
X144099482Y-77575812D01*
X144100000Y-77575655D01*
X144100518Y-77575812D01*
X144225000Y-77588072D01*
X144775000Y-77588072D01*
X144899482Y-77575812D01*
X144900000Y-77575655D01*
X144900518Y-77575812D01*
X145025000Y-77588072D01*
X145575000Y-77588072D01*
X145699482Y-77575812D01*
X145700000Y-77575655D01*
X145700518Y-77575812D01*
X145825000Y-77588072D01*
X146375000Y-77588072D01*
X146499482Y-77575812D01*
X146500000Y-77575655D01*
X146500518Y-77575812D01*
X146625000Y-77588072D01*
X147175000Y-77588072D01*
X147299482Y-77575812D01*
X147300663Y-77575454D01*
X147414250Y-77585000D01*
X147506333Y-77492917D01*
X147529494Y-77480537D01*
X147626185Y-77401185D01*
X147700000Y-77311241D01*
X147773815Y-77401185D01*
G37*
X147773815Y-77401185D02*
X147870506Y-77480537D01*
X147893667Y-77492917D01*
X147985750Y-77585000D01*
X148099337Y-77575454D01*
X148100518Y-77575812D01*
X148225000Y-77588072D01*
X148775000Y-77588072D01*
X148815962Y-77584038D01*
X148811928Y-77625000D01*
X148811928Y-78175000D01*
X148824188Y-78299482D01*
X148824345Y-78300000D01*
X148824188Y-78300518D01*
X148811928Y-78425000D01*
X148811928Y-78975000D01*
X148824188Y-79099482D01*
X148824345Y-79100000D01*
X148824188Y-79100518D01*
X148811928Y-79225000D01*
X148811928Y-79775000D01*
X148824188Y-79899482D01*
X148824345Y-79900000D01*
X148824188Y-79900518D01*
X148811928Y-80025000D01*
X148811928Y-80575000D01*
X148824188Y-80699482D01*
X148824546Y-80700663D01*
X148815000Y-80814250D01*
X148907083Y-80906333D01*
X148919463Y-80929494D01*
X148998815Y-81026185D01*
X149088759Y-81100000D01*
X148998815Y-81173815D01*
X148919463Y-81270506D01*
X148907083Y-81293667D01*
X148815000Y-81385750D01*
X148824546Y-81499337D01*
X148824188Y-81500518D01*
X148811928Y-81625000D01*
X148811928Y-82175000D01*
X148824188Y-82299482D01*
X148824345Y-82300000D01*
X148824188Y-82300518D01*
X148811928Y-82425000D01*
X148811928Y-82975000D01*
X148824188Y-83099482D01*
X148824345Y-83100000D01*
X148824188Y-83100518D01*
X148811928Y-83225000D01*
X148811928Y-83775000D01*
X148824188Y-83899482D01*
X148824345Y-83900000D01*
X148824188Y-83900518D01*
X148811928Y-84025000D01*
X148811928Y-84575000D01*
X148824188Y-84699482D01*
X148824345Y-84700000D01*
X148824188Y-84700518D01*
X148811928Y-84825000D01*
X148811928Y-85375000D01*
X148824188Y-85499482D01*
X148824345Y-85500000D01*
X148824188Y-85500518D01*
X148811928Y-85625000D01*
X148811928Y-86175000D01*
X148815962Y-86215962D01*
X148775000Y-86211928D01*
X148225000Y-86211928D01*
X148100518Y-86224188D01*
X148100000Y-86224345D01*
X148099482Y-86224188D01*
X147975000Y-86211928D01*
X147425000Y-86211928D01*
X147300518Y-86224188D01*
X147300000Y-86224345D01*
X147299482Y-86224188D01*
X147175000Y-86211928D01*
X146625000Y-86211928D01*
X146500518Y-86224188D01*
X146499337Y-86224546D01*
X146385750Y-86215000D01*
X146293667Y-86307083D01*
X146270506Y-86319463D01*
X146173815Y-86398815D01*
X146100000Y-86488759D01*
X146026185Y-86398815D01*
X145929494Y-86319463D01*
X145906333Y-86307083D01*
X145814250Y-86215000D01*
X145700663Y-86224546D01*
X145699482Y-86224188D01*
X145575000Y-86211928D01*
X145025000Y-86211928D01*
X144900518Y-86224188D01*
X144900000Y-86224345D01*
X144899482Y-86224188D01*
X144775000Y-86211928D01*
X144225000Y-86211928D01*
X144100518Y-86224188D01*
X144100000Y-86224345D01*
X144099482Y-86224188D01*
X143975000Y-86211928D01*
X143425000Y-86211928D01*
X143300518Y-86224188D01*
X143300000Y-86224345D01*
X143299482Y-86224188D01*
X143175000Y-86211928D01*
X142625000Y-86211928D01*
X142500518Y-86224188D01*
X142500000Y-86224345D01*
X142499482Y-86224188D01*
X142375000Y-86211928D01*
X141825000Y-86211928D01*
X141700518Y-86224188D01*
X141700000Y-86224345D01*
X141699482Y-86224188D01*
X141575000Y-86211928D01*
X141025000Y-86211928D01*
X140900518Y-86224188D01*
X140900000Y-86224345D01*
X140899482Y-86224188D01*
X140775000Y-86211928D01*
X140225000Y-86211928D01*
X140182448Y-86216119D01*
X140185000Y-86185750D01*
X140026250Y-86027000D01*
X139627000Y-86027000D01*
X139627000Y-86005488D01*
X139674482Y-86000812D01*
X139794180Y-85964502D01*
X139904494Y-85905537D01*
X140001185Y-85826185D01*
X140080537Y-85729494D01*
X140092917Y-85706333D01*
X140185000Y-85614250D01*
X140175454Y-85500663D01*
X140175812Y-85499482D01*
X140188072Y-85375000D01*
X140188072Y-84825000D01*
X140175812Y-84700518D01*
X140175655Y-84700000D01*
X140175812Y-84699482D01*
X140188072Y-84575000D01*
X140188072Y-84025000D01*
X140175812Y-83900518D01*
X140175655Y-83900000D01*
X140175812Y-83899482D01*
X140188072Y-83775000D01*
X140188072Y-83225000D01*
X140175812Y-83100518D01*
X140175655Y-83100000D01*
X140175812Y-83099482D01*
X140188072Y-82975000D01*
X140188072Y-82425000D01*
X140175812Y-82300518D01*
X140175655Y-82300000D01*
X140175812Y-82299482D01*
X140188072Y-82175000D01*
X140188072Y-81625000D01*
X140175812Y-81500518D01*
X140175655Y-81500000D01*
X140175812Y-81499482D01*
X140188072Y-81375000D01*
X140188072Y-80825000D01*
X140175812Y-80700518D01*
X140175655Y-80700000D01*
X140175812Y-80699482D01*
X140188072Y-80575000D01*
X140188072Y-80025000D01*
X140175812Y-79900518D01*
X140175655Y-79900000D01*
X140175812Y-79899482D01*
X140188072Y-79775000D01*
X140188072Y-79225000D01*
X140175812Y-79100518D01*
X140175655Y-79100000D01*
X140175812Y-79099482D01*
X140188072Y-78975000D01*
X140188072Y-78425000D01*
X140175812Y-78300518D01*
X140175655Y-78300000D01*
X140175812Y-78299482D01*
X140188072Y-78175000D01*
X140188072Y-77625000D01*
X140184038Y-77584038D01*
X140225000Y-77588072D01*
X140775000Y-77588072D01*
X140899482Y-77575812D01*
X140900663Y-77575454D01*
X141014250Y-77585000D01*
X141106333Y-77492917D01*
X141129494Y-77480537D01*
X141226185Y-77401185D01*
X141300000Y-77311241D01*
X141373815Y-77401185D01*
X141470506Y-77480537D01*
X141493667Y-77492917D01*
X141585750Y-77585000D01*
X141699337Y-77575454D01*
X141700518Y-77575812D01*
X141825000Y-77588072D01*
X142375000Y-77588072D01*
X142499482Y-77575812D01*
X142500000Y-77575655D01*
X142500518Y-77575812D01*
X142625000Y-77588072D01*
X143175000Y-77588072D01*
X143299482Y-77575812D01*
X143300000Y-77575655D01*
X143300518Y-77575812D01*
X143425000Y-77588072D01*
X143975000Y-77588072D01*
X144099482Y-77575812D01*
X144100000Y-77575655D01*
X144100518Y-77575812D01*
X144225000Y-77588072D01*
X144775000Y-77588072D01*
X144899482Y-77575812D01*
X144900000Y-77575655D01*
X144900518Y-77575812D01*
X145025000Y-77588072D01*
X145575000Y-77588072D01*
X145699482Y-77575812D01*
X145700000Y-77575655D01*
X145700518Y-77575812D01*
X145825000Y-77588072D01*
X146375000Y-77588072D01*
X146499482Y-77575812D01*
X146500000Y-77575655D01*
X146500518Y-77575812D01*
X146625000Y-77588072D01*
X147175000Y-77588072D01*
X147299482Y-77575812D01*
X147300663Y-77575454D01*
X147414250Y-77585000D01*
X147506333Y-77492917D01*
X147529494Y-77480537D01*
X147626185Y-77401185D01*
X147700000Y-77311241D01*
X147773815Y-77401185D01*
G36*
X159935000Y-20285500D02*
G01*
X160943000Y-20285500D01*
X160943000Y-20265500D01*
X161173000Y-20265500D01*
X161173000Y-24673000D01*
X160923000Y-24673000D01*
X160923000Y-24465500D01*
X160943000Y-24465500D01*
X160943000Y-23074546D01*
X160768126Y-22948381D01*
X160545024Y-23028224D01*
X160357236Y-23150131D01*
X160212884Y-23290706D01*
X160094731Y-23211759D01*
X159920022Y-23139392D01*
X159734552Y-23102500D01*
X159545448Y-23102500D01*
X159359978Y-23139392D01*
X159185269Y-23211759D01*
X159028036Y-23316819D01*
X159024250Y-23320605D01*
X159003052Y-23303208D01*
X158859730Y-23226601D01*
X158704217Y-23179427D01*
X158583010Y-23167489D01*
X158583002Y-23167489D01*
X158542489Y-23163499D01*
X158501976Y-23167489D01*
X155028725Y-23167489D01*
X154988212Y-23163499D01*
X154947699Y-23167489D01*
X154947692Y-23167489D01*
X154842083Y-23177891D01*
X154826484Y-23179427D01*
X154779310Y-23193737D01*
X154670972Y-23226601D01*
X154527650Y-23303208D01*
X154489589Y-23334444D01*
X154471964Y-23316819D01*
X154314731Y-23211759D01*
X154140022Y-23139392D01*
X153954552Y-23102500D01*
X153765448Y-23102500D01*
X153579978Y-23139392D01*
X153405269Y-23211759D01*
X153287116Y-23290706D01*
X153142764Y-23150131D01*
X152954976Y-23028224D01*
X152731874Y-22948381D01*
X152557000Y-23074546D01*
X152557000Y-24465500D01*
X152577000Y-24465500D01*
X152577000Y-24673000D01*
X152327000Y-24673000D01*
X152327000Y-20539500D01*
X152557000Y-20539500D01*
X152557000Y-21680454D01*
X152731874Y-21806619D01*
X152954976Y-21726776D01*
X153142764Y-21604869D01*
X153303161Y-21448669D01*
X153430003Y-21264178D01*
X153518415Y-21058487D01*
X153565000Y-20839500D01*
X153565000Y-20539500D01*
X159935000Y-20539500D01*
X159935000Y-20839500D01*
X159981585Y-21058487D01*
X160069997Y-21264178D01*
X160196839Y-21448669D01*
X160357236Y-21604869D01*
X160545024Y-21726776D01*
X160768126Y-21806619D01*
X160943000Y-21680454D01*
X160943000Y-20539500D01*
X159935000Y-20539500D01*
X153565000Y-20539500D01*
X152557000Y-20539500D01*
X152327000Y-20539500D01*
X152327000Y-20265500D01*
X152557000Y-20265500D01*
X152557000Y-20285500D01*
X153565000Y-20285500D01*
X153565000Y-20227000D01*
X159935000Y-20227000D01*
X159935000Y-20285500D01*
G37*
X159935000Y-20285500D02*
X160943000Y-20285500D01*
X160943000Y-20265500D01*
X161173000Y-20265500D01*
X161173000Y-24673000D01*
X160923000Y-24673000D01*
X160923000Y-24465500D01*
X160943000Y-24465500D01*
X160943000Y-23074546D01*
X160768126Y-22948381D01*
X160545024Y-23028224D01*
X160357236Y-23150131D01*
X160212884Y-23290706D01*
X160094731Y-23211759D01*
X159920022Y-23139392D01*
X159734552Y-23102500D01*
X159545448Y-23102500D01*
X159359978Y-23139392D01*
X159185269Y-23211759D01*
X159028036Y-23316819D01*
X159024250Y-23320605D01*
X159003052Y-23303208D01*
X158859730Y-23226601D01*
X158704217Y-23179427D01*
X158583010Y-23167489D01*
X158583002Y-23167489D01*
X158542489Y-23163499D01*
X158501976Y-23167489D01*
X155028725Y-23167489D01*
X154988212Y-23163499D01*
X154947699Y-23167489D01*
X154947692Y-23167489D01*
X154842083Y-23177891D01*
X154826484Y-23179427D01*
X154779310Y-23193737D01*
X154670972Y-23226601D01*
X154527650Y-23303208D01*
X154489589Y-23334444D01*
X154471964Y-23316819D01*
X154314731Y-23211759D01*
X154140022Y-23139392D01*
X153954552Y-23102500D01*
X153765448Y-23102500D01*
X153579978Y-23139392D01*
X153405269Y-23211759D01*
X153287116Y-23290706D01*
X153142764Y-23150131D01*
X152954976Y-23028224D01*
X152731874Y-22948381D01*
X152557000Y-23074546D01*
X152557000Y-24465500D01*
X152577000Y-24465500D01*
X152577000Y-24673000D01*
X152327000Y-24673000D01*
X152327000Y-20539500D01*
X152557000Y-20539500D01*
X152557000Y-21680454D01*
X152731874Y-21806619D01*
X152954976Y-21726776D01*
X153142764Y-21604869D01*
X153303161Y-21448669D01*
X153430003Y-21264178D01*
X153518415Y-21058487D01*
X153565000Y-20839500D01*
X153565000Y-20539500D01*
X159935000Y-20539500D01*
X159935000Y-20839500D01*
X159981585Y-21058487D01*
X160069997Y-21264178D01*
X160196839Y-21448669D01*
X160357236Y-21604869D01*
X160545024Y-21726776D01*
X160768126Y-21806619D01*
X160943000Y-21680454D01*
X160943000Y-20539500D01*
X159935000Y-20539500D01*
X153565000Y-20539500D01*
X152557000Y-20539500D01*
X152327000Y-20539500D01*
X152327000Y-20265500D01*
X152557000Y-20265500D01*
X152557000Y-20285500D01*
X153565000Y-20285500D01*
X153565000Y-20227000D01*
X159935000Y-20227000D01*
X159935000Y-20285500D01*
M02*
