G04 #@! TF.GenerationSoftware,KiCad,Pcbnew,(5.1.6)-1*
G04 #@! TF.CreationDate,2020-06-21T19:34:39+02:00*
G04 #@! TF.ProjectId,CC45,43433435-2e6b-4696-9361-645f70636258,rev?*
G04 #@! TF.SameCoordinates,Original*
G04 #@! TF.FileFunction,Paste,Bot*
G04 #@! TF.FilePolarity,Positive*
%FSLAX46Y46*%
G04 Gerber Fmt 4.6, Leading zero omitted, Abs format (unit mm)*
G04 Created by KiCad (PCBNEW (5.1.6)-1) date 2020-06-21 19:34:39*
%MOMM*%
%LPD*%
G01*
G04 APERTURE LIST*
%ADD10R,1.000000X1.000000*%
%ADD11R,0.700000X1.000000*%
%ADD12R,0.700000X0.600000*%
%ADD13R,2.100000X1.800000*%
%ADD14R,0.600000X2.450000*%
%ADD15R,0.300000X2.450000*%
%ADD16R,0.550000X1.500000*%
%ADD17R,1.500000X0.550000*%
%ADD18R,1.800000X1.100000*%
G04 APERTURE END LIST*
G36*
G01*
X136537500Y-73175000D02*
X136537500Y-74425000D01*
G75*
G02*
X136287500Y-74675000I-250000J0D01*
G01*
X135362500Y-74675000D01*
G75*
G02*
X135112500Y-74425000I0J250000D01*
G01*
X135112500Y-73175000D01*
G75*
G02*
X135362500Y-72925000I250000J0D01*
G01*
X136287500Y-72925000D01*
G75*
G02*
X136537500Y-73175000I0J-250000D01*
G01*
G37*
G36*
G01*
X133562500Y-73175000D02*
X133562500Y-74425000D01*
G75*
G02*
X133312500Y-74675000I-250000J0D01*
G01*
X132387500Y-74675000D01*
G75*
G02*
X132137500Y-74425000I0J250000D01*
G01*
X132137500Y-73175000D01*
G75*
G02*
X132387500Y-72925000I250000J0D01*
G01*
X133312500Y-72925000D01*
G75*
G02*
X133562500Y-73175000I0J-250000D01*
G01*
G37*
G36*
G01*
X148625000Y-97793750D02*
X147375000Y-97793750D01*
G75*
G02*
X147125000Y-97543750I0J250000D01*
G01*
X147125000Y-96618750D01*
G75*
G02*
X147375000Y-96368750I250000J0D01*
G01*
X148625000Y-96368750D01*
G75*
G02*
X148875000Y-96618750I0J-250000D01*
G01*
X148875000Y-97543750D01*
G75*
G02*
X148625000Y-97793750I-250000J0D01*
G01*
G37*
G36*
G01*
X148625000Y-94818750D02*
X147375000Y-94818750D01*
G75*
G02*
X147125000Y-94568750I0J250000D01*
G01*
X147125000Y-93643750D01*
G75*
G02*
X147375000Y-93393750I250000J0D01*
G01*
X148625000Y-93393750D01*
G75*
G02*
X148875000Y-93643750I0J-250000D01*
G01*
X148875000Y-94568750D01*
G75*
G02*
X148625000Y-94818750I-250000J0D01*
G01*
G37*
G36*
G01*
X136687500Y-93393750D02*
X137937500Y-93393750D01*
G75*
G02*
X138187500Y-93643750I0J-250000D01*
G01*
X138187500Y-94568750D01*
G75*
G02*
X137937500Y-94818750I-250000J0D01*
G01*
X136687500Y-94818750D01*
G75*
G02*
X136437500Y-94568750I0J250000D01*
G01*
X136437500Y-93643750D01*
G75*
G02*
X136687500Y-93393750I250000J0D01*
G01*
G37*
G36*
G01*
X136687500Y-96368750D02*
X137937500Y-96368750D01*
G75*
G02*
X138187500Y-96618750I0J-250000D01*
G01*
X138187500Y-97543750D01*
G75*
G02*
X137937500Y-97793750I-250000J0D01*
G01*
X136687500Y-97793750D01*
G75*
G02*
X136437500Y-97543750I0J250000D01*
G01*
X136437500Y-96618750D01*
G75*
G02*
X136687500Y-96368750I250000J0D01*
G01*
G37*
G36*
G01*
X154275000Y-74000000D02*
X155525000Y-74000000D01*
G75*
G02*
X155775000Y-74250000I0J-250000D01*
G01*
X155775000Y-75175000D01*
G75*
G02*
X155525000Y-75425000I-250000J0D01*
G01*
X154275000Y-75425000D01*
G75*
G02*
X154025000Y-75175000I0J250000D01*
G01*
X154025000Y-74250000D01*
G75*
G02*
X154275000Y-74000000I250000J0D01*
G01*
G37*
G36*
G01*
X154275000Y-76975000D02*
X155525000Y-76975000D01*
G75*
G02*
X155775000Y-77225000I0J-250000D01*
G01*
X155775000Y-78150000D01*
G75*
G02*
X155525000Y-78400000I-250000J0D01*
G01*
X154275000Y-78400000D01*
G75*
G02*
X154025000Y-78150000I0J250000D01*
G01*
X154025000Y-77225000D01*
G75*
G02*
X154275000Y-76975000I250000J0D01*
G01*
G37*
G36*
G01*
X151387500Y-73225000D02*
X151387500Y-74475000D01*
G75*
G02*
X151137500Y-74725000I-250000J0D01*
G01*
X150212500Y-74725000D01*
G75*
G02*
X149962500Y-74475000I0J250000D01*
G01*
X149962500Y-73225000D01*
G75*
G02*
X150212500Y-72975000I250000J0D01*
G01*
X151137500Y-72975000D01*
G75*
G02*
X151387500Y-73225000I0J-250000D01*
G01*
G37*
G36*
G01*
X148412500Y-73225000D02*
X148412500Y-74475000D01*
G75*
G02*
X148162500Y-74725000I-250000J0D01*
G01*
X147237500Y-74725000D01*
G75*
G02*
X146987500Y-74475000I0J250000D01*
G01*
X146987500Y-73225000D01*
G75*
G02*
X147237500Y-72975000I250000J0D01*
G01*
X148162500Y-72975000D01*
G75*
G02*
X148412500Y-73225000I0J-250000D01*
G01*
G37*
G36*
G01*
X152675000Y-93350000D02*
X153925000Y-93350000D01*
G75*
G02*
X154175000Y-93600000I0J-250000D01*
G01*
X154175000Y-94525000D01*
G75*
G02*
X153925000Y-94775000I-250000J0D01*
G01*
X152675000Y-94775000D01*
G75*
G02*
X152425000Y-94525000I0J250000D01*
G01*
X152425000Y-93600000D01*
G75*
G02*
X152675000Y-93350000I250000J0D01*
G01*
G37*
G36*
G01*
X152675000Y-96325000D02*
X153925000Y-96325000D01*
G75*
G02*
X154175000Y-96575000I0J-250000D01*
G01*
X154175000Y-97500000D01*
G75*
G02*
X153925000Y-97750000I-250000J0D01*
G01*
X152675000Y-97750000D01*
G75*
G02*
X152425000Y-97500000I0J250000D01*
G01*
X152425000Y-96575000D01*
G75*
G02*
X152675000Y-96325000I250000J0D01*
G01*
G37*
G36*
G01*
X135575000Y-84400000D02*
X136825000Y-84400000D01*
G75*
G02*
X137075000Y-84650000I0J-250000D01*
G01*
X137075000Y-85575000D01*
G75*
G02*
X136825000Y-85825000I-250000J0D01*
G01*
X135575000Y-85825000D01*
G75*
G02*
X135325000Y-85575000I0J250000D01*
G01*
X135325000Y-84650000D01*
G75*
G02*
X135575000Y-84400000I250000J0D01*
G01*
G37*
G36*
G01*
X135575000Y-87375000D02*
X136825000Y-87375000D01*
G75*
G02*
X137075000Y-87625000I0J-250000D01*
G01*
X137075000Y-88550000D01*
G75*
G02*
X136825000Y-88800000I-250000J0D01*
G01*
X135575000Y-88800000D01*
G75*
G02*
X135325000Y-88550000I0J250000D01*
G01*
X135325000Y-87625000D01*
G75*
G02*
X135575000Y-87375000I250000J0D01*
G01*
G37*
G36*
G01*
X162875000Y-82150000D02*
X161625000Y-82150000D01*
G75*
G02*
X161375000Y-81900000I0J250000D01*
G01*
X161375000Y-80975000D01*
G75*
G02*
X161625000Y-80725000I250000J0D01*
G01*
X162875000Y-80725000D01*
G75*
G02*
X163125000Y-80975000I0J-250000D01*
G01*
X163125000Y-81900000D01*
G75*
G02*
X162875000Y-82150000I-250000J0D01*
G01*
G37*
G36*
G01*
X162875000Y-79175000D02*
X161625000Y-79175000D01*
G75*
G02*
X161375000Y-78925000I0J250000D01*
G01*
X161375000Y-78000000D01*
G75*
G02*
X161625000Y-77750000I250000J0D01*
G01*
X162875000Y-77750000D01*
G75*
G02*
X163125000Y-78000000I0J-250000D01*
G01*
X163125000Y-78925000D01*
G75*
G02*
X162875000Y-79175000I-250000J0D01*
G01*
G37*
D10*
X41562500Y-34500000D03*
X41562500Y-32000000D03*
X267187500Y-91500000D03*
X267187500Y-89000000D03*
X245812500Y-91500000D03*
X245812500Y-89000000D03*
X224437500Y-91500000D03*
X224437500Y-89000000D03*
X200687500Y-91500000D03*
X200687500Y-89000000D03*
X176937500Y-91500000D03*
X176937500Y-89000000D03*
X113406250Y-91500000D03*
X113406250Y-89000000D03*
X110437500Y-91500000D03*
X110437500Y-89000000D03*
X93218750Y-91500000D03*
X93218750Y-89000000D03*
X65312500Y-91500000D03*
X65312500Y-89000000D03*
X46312500Y-91500000D03*
X46312500Y-89000000D03*
X267187500Y-72500000D03*
X267187500Y-70000000D03*
X245812500Y-72500000D03*
X245812500Y-70000000D03*
X226812500Y-72500000D03*
X226812500Y-70000000D03*
X207812500Y-72500000D03*
X207812500Y-70000000D03*
X188812500Y-72500000D03*
X188812500Y-70000000D03*
X169812500Y-72500000D03*
X169812500Y-70000000D03*
X134187500Y-71312500D03*
X134187500Y-68812500D03*
X131812500Y-71312500D03*
X131812500Y-68812500D03*
X112812500Y-72500000D03*
X112812500Y-70000000D03*
X93812500Y-72500000D03*
X93812500Y-70000000D03*
X74812500Y-72500000D03*
X74812500Y-70000000D03*
X48687500Y-72500000D03*
X48687500Y-70000000D03*
X262437500Y-53500000D03*
X262437500Y-51000000D03*
X236312500Y-53500000D03*
X236312500Y-51000000D03*
X217312500Y-53500000D03*
X217312500Y-51000000D03*
X198312500Y-53500000D03*
X198312500Y-51000000D03*
X179312500Y-53500000D03*
X179312500Y-51000000D03*
X143687500Y-53500000D03*
X143687500Y-51000000D03*
X141312500Y-53500000D03*
X141312500Y-51000000D03*
X122312500Y-53500000D03*
X122312500Y-51000000D03*
X103312500Y-53500000D03*
X103312500Y-51000000D03*
X84312500Y-53500000D03*
X84312500Y-51000000D03*
X65312500Y-53500000D03*
X65312500Y-51000000D03*
X43937500Y-53500000D03*
X43937500Y-51000000D03*
X269562500Y-34500000D03*
X269562500Y-32000000D03*
X250562500Y-34500000D03*
X250562500Y-32000000D03*
X231562500Y-34500000D03*
X231562500Y-32000000D03*
X212562500Y-34500000D03*
X212562500Y-32000000D03*
X193562500Y-34500000D03*
X193562500Y-32000000D03*
X174562500Y-34500000D03*
X174562500Y-32000000D03*
X138937500Y-34500000D03*
X138937500Y-32000000D03*
X136562500Y-34500000D03*
X136562500Y-32000000D03*
X117562500Y-34500000D03*
X117562500Y-32000000D03*
X98562500Y-34500000D03*
X98562500Y-32000000D03*
X79562500Y-34500000D03*
X79562500Y-32000000D03*
X60562500Y-34500000D03*
X60562500Y-32000000D03*
G36*
G01*
X149775000Y-31150000D02*
X151025000Y-31150000D01*
G75*
G02*
X151275000Y-31400000I0J-250000D01*
G01*
X151275000Y-32325000D01*
G75*
G02*
X151025000Y-32575000I-250000J0D01*
G01*
X149775000Y-32575000D01*
G75*
G02*
X149525000Y-32325000I0J250000D01*
G01*
X149525000Y-31400000D01*
G75*
G02*
X149775000Y-31150000I250000J0D01*
G01*
G37*
G36*
G01*
X149775000Y-34125000D02*
X151025000Y-34125000D01*
G75*
G02*
X151275000Y-34375000I0J-250000D01*
G01*
X151275000Y-35300000D01*
G75*
G02*
X151025000Y-35550000I-250000J0D01*
G01*
X149775000Y-35550000D01*
G75*
G02*
X149525000Y-35300000I0J250000D01*
G01*
X149525000Y-34375000D01*
G75*
G02*
X149775000Y-34125000I250000J0D01*
G01*
G37*
G36*
G01*
X166200000Y-26425000D02*
X166200000Y-27675000D01*
G75*
G02*
X165950000Y-27925000I-250000J0D01*
G01*
X165025000Y-27925000D01*
G75*
G02*
X164775000Y-27675000I0J250000D01*
G01*
X164775000Y-26425000D01*
G75*
G02*
X165025000Y-26175000I250000J0D01*
G01*
X165950000Y-26175000D01*
G75*
G02*
X166200000Y-26425000I0J-250000D01*
G01*
G37*
G36*
G01*
X163225000Y-26425000D02*
X163225000Y-27675000D01*
G75*
G02*
X162975000Y-27925000I-250000J0D01*
G01*
X162050000Y-27925000D01*
G75*
G02*
X161800000Y-27675000I0J250000D01*
G01*
X161800000Y-26425000D01*
G75*
G02*
X162050000Y-26175000I250000J0D01*
G01*
X162975000Y-26175000D01*
G75*
G02*
X163225000Y-26425000I0J-250000D01*
G01*
G37*
G36*
G01*
X163375000Y-93550000D02*
X164625000Y-93550000D01*
G75*
G02*
X164875000Y-93800000I0J-250000D01*
G01*
X164875000Y-94725000D01*
G75*
G02*
X164625000Y-94975000I-250000J0D01*
G01*
X163375000Y-94975000D01*
G75*
G02*
X163125000Y-94725000I0J250000D01*
G01*
X163125000Y-93800000D01*
G75*
G02*
X163375000Y-93550000I250000J0D01*
G01*
G37*
G36*
G01*
X163375000Y-96525000D02*
X164625000Y-96525000D01*
G75*
G02*
X164875000Y-96775000I0J-250000D01*
G01*
X164875000Y-97700000D01*
G75*
G02*
X164625000Y-97950000I-250000J0D01*
G01*
X163375000Y-97950000D01*
G75*
G02*
X163125000Y-97700000I0J250000D01*
G01*
X163125000Y-96775000D01*
G75*
G02*
X163375000Y-96525000I250000J0D01*
G01*
G37*
G36*
G01*
X154406250Y-72262500D02*
X153156250Y-72262500D01*
G75*
G02*
X152906250Y-72012500I0J250000D01*
G01*
X152906250Y-71087500D01*
G75*
G02*
X153156250Y-70837500I250000J0D01*
G01*
X154406250Y-70837500D01*
G75*
G02*
X154656250Y-71087500I0J-250000D01*
G01*
X154656250Y-72012500D01*
G75*
G02*
X154406250Y-72262500I-250000J0D01*
G01*
G37*
G36*
G01*
X154406250Y-69287500D02*
X153156250Y-69287500D01*
G75*
G02*
X152906250Y-69037500I0J250000D01*
G01*
X152906250Y-68112500D01*
G75*
G02*
X153156250Y-67862500I250000J0D01*
G01*
X154406250Y-67862500D01*
G75*
G02*
X154656250Y-68112500I0J-250000D01*
G01*
X154656250Y-69037500D01*
G75*
G02*
X154406250Y-69287500I-250000J0D01*
G01*
G37*
G36*
G01*
X151520250Y-72262500D02*
X150270250Y-72262500D01*
G75*
G02*
X150020250Y-72012500I0J250000D01*
G01*
X150020250Y-71087500D01*
G75*
G02*
X150270250Y-70837500I250000J0D01*
G01*
X151520250Y-70837500D01*
G75*
G02*
X151770250Y-71087500I0J-250000D01*
G01*
X151770250Y-72012500D01*
G75*
G02*
X151520250Y-72262500I-250000J0D01*
G01*
G37*
G36*
G01*
X151520250Y-69287500D02*
X150270250Y-69287500D01*
G75*
G02*
X150020250Y-69037500I0J250000D01*
G01*
X150020250Y-68112500D01*
G75*
G02*
X150270250Y-67862500I250000J0D01*
G01*
X151520250Y-67862500D01*
G75*
G02*
X151770250Y-68112500I0J-250000D01*
G01*
X151770250Y-69037500D01*
G75*
G02*
X151520250Y-69287500I-250000J0D01*
G01*
G37*
G36*
G01*
X130912500Y-74025000D02*
X130912500Y-75275000D01*
G75*
G02*
X130662500Y-75525000I-250000J0D01*
G01*
X129737500Y-75525000D01*
G75*
G02*
X129487500Y-75275000I0J250000D01*
G01*
X129487500Y-74025000D01*
G75*
G02*
X129737500Y-73775000I250000J0D01*
G01*
X130662500Y-73775000D01*
G75*
G02*
X130912500Y-74025000I0J-250000D01*
G01*
G37*
G36*
G01*
X127937500Y-74025000D02*
X127937500Y-75275000D01*
G75*
G02*
X127687500Y-75525000I-250000J0D01*
G01*
X126762500Y-75525000D01*
G75*
G02*
X126512500Y-75275000I0J250000D01*
G01*
X126512500Y-74025000D01*
G75*
G02*
X126762500Y-73775000I250000J0D01*
G01*
X127687500Y-73775000D01*
G75*
G02*
X127937500Y-74025000I0J-250000D01*
G01*
G37*
D11*
X155750000Y-31612500D03*
D12*
X157750000Y-31812500D03*
X155750000Y-29912500D03*
X157750000Y-29912500D03*
D13*
X141206250Y-96743750D03*
X144106250Y-96743750D03*
X144106250Y-94443750D03*
X141206250Y-94443750D03*
D14*
X159975000Y-26007500D03*
X153525000Y-26007500D03*
X159200000Y-26007500D03*
X154300000Y-26007500D03*
D15*
X155000000Y-26007500D03*
X158500000Y-26007500D03*
X155500000Y-26007500D03*
X158000000Y-26007500D03*
X156000000Y-26007500D03*
X157500000Y-26007500D03*
X157000000Y-26007500D03*
X156500000Y-26007500D03*
D16*
X148500000Y-76200000D03*
X147700000Y-76200000D03*
X146900000Y-76200000D03*
X146100000Y-76200000D03*
X145300000Y-76200000D03*
X144500000Y-76200000D03*
X143700000Y-76200000D03*
X142900000Y-76200000D03*
X142100000Y-76200000D03*
X141300000Y-76200000D03*
X140500000Y-76200000D03*
D17*
X138800000Y-77900000D03*
X138800000Y-78700000D03*
X138800000Y-79500000D03*
X138800000Y-80300000D03*
X138800000Y-81100000D03*
X138800000Y-81900000D03*
X138800000Y-82700000D03*
X138800000Y-83500000D03*
X138800000Y-84300000D03*
X138800000Y-85100000D03*
X138800000Y-85900000D03*
D16*
X140500000Y-87600000D03*
X141300000Y-87600000D03*
X142100000Y-87600000D03*
X142900000Y-87600000D03*
X143700000Y-87600000D03*
X144500000Y-87600000D03*
X145300000Y-87600000D03*
X146100000Y-87600000D03*
X146900000Y-87600000D03*
X147700000Y-87600000D03*
X148500000Y-87600000D03*
D17*
X150200000Y-85900000D03*
X150200000Y-85100000D03*
X150200000Y-84300000D03*
X150200000Y-83500000D03*
X150200000Y-82700000D03*
X150200000Y-81900000D03*
X150200000Y-81100000D03*
X150200000Y-80300000D03*
X150200000Y-79500000D03*
X150200000Y-78700000D03*
X150200000Y-77900000D03*
D18*
X168450000Y-94250000D03*
X174650000Y-97950000D03*
X168450000Y-97950000D03*
X174650000Y-94250000D03*
G36*
G01*
X159625000Y-35225000D02*
X158375000Y-35225000D01*
G75*
G02*
X158125000Y-34975000I0J250000D01*
G01*
X158125000Y-34050000D01*
G75*
G02*
X158375000Y-33800000I250000J0D01*
G01*
X159625000Y-33800000D01*
G75*
G02*
X159875000Y-34050000I0J-250000D01*
G01*
X159875000Y-34975000D01*
G75*
G02*
X159625000Y-35225000I-250000J0D01*
G01*
G37*
G36*
G01*
X159625000Y-38200000D02*
X158375000Y-38200000D01*
G75*
G02*
X158125000Y-37950000I0J250000D01*
G01*
X158125000Y-37025000D01*
G75*
G02*
X158375000Y-36775000I250000J0D01*
G01*
X159625000Y-36775000D01*
G75*
G02*
X159875000Y-37025000I0J-250000D01*
G01*
X159875000Y-37950000D01*
G75*
G02*
X159625000Y-38200000I-250000J0D01*
G01*
G37*
M02*
