G04 #@! TF.GenerationSoftware,KiCad,Pcbnew,(5.1.6)-1*
G04 #@! TF.CreationDate,2020-06-21T19:34:39+02:00*
G04 #@! TF.ProjectId,CC45,43433435-2e6b-4696-9361-645f70636258,rev?*
G04 #@! TF.SameCoordinates,Original*
G04 #@! TF.FileFunction,Soldermask,Top*
G04 #@! TF.FilePolarity,Negative*
%FSLAX46Y46*%
G04 Gerber Fmt 4.6, Leading zero omitted, Abs format (unit mm)*
G04 Created by KiCad (PCBNEW (5.1.6)-1) date 2020-06-21 19:34:39*
%MOMM*%
%LPD*%
G01*
G04 APERTURE LIST*
%ADD10C,0.125000*%
%ADD11C,0.100000*%
G04 APERTURE END LIST*
D10*
X139521428Y-79878571D02*
X139497619Y-79902380D01*
X139426190Y-79926190D01*
X139378571Y-79926190D01*
X139307142Y-79902380D01*
X139259523Y-79854761D01*
X139235714Y-79807142D01*
X139211904Y-79711904D01*
X139211904Y-79640476D01*
X139235714Y-79545238D01*
X139259523Y-79497619D01*
X139307142Y-79450000D01*
X139378571Y-79426190D01*
X139426190Y-79426190D01*
X139497619Y-79450000D01*
X139521428Y-79473809D01*
X140021428Y-79878571D02*
X139997619Y-79902380D01*
X139926190Y-79926190D01*
X139878571Y-79926190D01*
X139807142Y-79902380D01*
X139759523Y-79854761D01*
X139735714Y-79807142D01*
X139711904Y-79711904D01*
X139711904Y-79640476D01*
X139735714Y-79545238D01*
X139759523Y-79497619D01*
X139807142Y-79450000D01*
X139878571Y-79426190D01*
X139926190Y-79426190D01*
X139997619Y-79450000D01*
X140021428Y-79473809D01*
X140450000Y-79592857D02*
X140450000Y-79926190D01*
X140330952Y-79402380D02*
X140211904Y-79759523D01*
X140521428Y-79759523D01*
X140950000Y-79426190D02*
X140711904Y-79426190D01*
X140688095Y-79664285D01*
X140711904Y-79640476D01*
X140759523Y-79616666D01*
X140878571Y-79616666D01*
X140926190Y-79640476D01*
X140950000Y-79664285D01*
X140973809Y-79711904D01*
X140973809Y-79830952D01*
X140950000Y-79878571D01*
X140926190Y-79902380D01*
X140878571Y-79926190D01*
X140759523Y-79926190D01*
X140711904Y-79902380D01*
X140688095Y-79878571D01*
X141521428Y-79592857D02*
X141640476Y-79926190D01*
X141759523Y-79592857D01*
X142211904Y-79926190D02*
X141926190Y-79926190D01*
X142069047Y-79926190D02*
X142069047Y-79426190D01*
X142021428Y-79497619D01*
X141973809Y-79545238D01*
X141926190Y-79569047D01*
X142426190Y-79878571D02*
X142450000Y-79902380D01*
X142426190Y-79926190D01*
X142402380Y-79902380D01*
X142426190Y-79878571D01*
X142426190Y-79926190D01*
X142759523Y-79426190D02*
X142807142Y-79426190D01*
X142854761Y-79450000D01*
X142878571Y-79473809D01*
X142902380Y-79521428D01*
X142926190Y-79616666D01*
X142926190Y-79735714D01*
X142902380Y-79830952D01*
X142878571Y-79878571D01*
X142854761Y-79902380D01*
X142807142Y-79926190D01*
X142759523Y-79926190D01*
X142711904Y-79902380D01*
X142688095Y-79878571D01*
X142664285Y-79830952D01*
X142640476Y-79735714D01*
X142640476Y-79616666D01*
X142664285Y-79521428D01*
X142688095Y-79473809D01*
X142711904Y-79450000D01*
X142759523Y-79426190D01*
X143521428Y-79926190D02*
X143521428Y-79426190D01*
X143521428Y-79616666D02*
X143569047Y-79592857D01*
X143664285Y-79592857D01*
X143711904Y-79616666D01*
X143735714Y-79640476D01*
X143759523Y-79688095D01*
X143759523Y-79830952D01*
X143735714Y-79878571D01*
X143711904Y-79902380D01*
X143664285Y-79926190D01*
X143569047Y-79926190D01*
X143521428Y-79902380D01*
X143926190Y-79592857D02*
X144045238Y-79926190D01*
X144164285Y-79592857D02*
X144045238Y-79926190D01*
X143997619Y-80045238D01*
X143973809Y-80069047D01*
X143926190Y-80092857D01*
X144735714Y-79926190D02*
X144735714Y-79426190D01*
X144854761Y-79426190D01*
X144926190Y-79450000D01*
X144973809Y-79497619D01*
X144997619Y-79545238D01*
X145021428Y-79640476D01*
X145021428Y-79711904D01*
X144997619Y-79807142D01*
X144973809Y-79854761D01*
X144926190Y-79902380D01*
X144854761Y-79926190D01*
X144735714Y-79926190D01*
X145235714Y-79926190D02*
X145235714Y-79592857D01*
X145235714Y-79688095D02*
X145259523Y-79640476D01*
X145283333Y-79616666D01*
X145330952Y-79592857D01*
X145378571Y-79592857D01*
X145759523Y-79592857D02*
X145759523Y-79926190D01*
X145545238Y-79592857D02*
X145545238Y-79854761D01*
X145569047Y-79902380D01*
X145616666Y-79926190D01*
X145688095Y-79926190D01*
X145735714Y-79902380D01*
X145759523Y-79878571D01*
X145950000Y-79592857D02*
X146211904Y-79592857D01*
X145950000Y-79926190D01*
X146211904Y-79926190D01*
D11*
G36*
X195182267Y-95690263D02*
G01*
X195334411Y-95720526D01*
X195453137Y-95769704D01*
X195621041Y-95839252D01*
X195621042Y-95839253D01*
X195879004Y-96011617D01*
X196098383Y-96230996D01*
X196213553Y-96403361D01*
X196270748Y-96488959D01*
X196389474Y-96775590D01*
X196450000Y-97079875D01*
X196450000Y-97390125D01*
X196389474Y-97694410D01*
X196270748Y-97981041D01*
X196270747Y-97981042D01*
X196098383Y-98239004D01*
X195879004Y-98458383D01*
X195706639Y-98573553D01*
X195621041Y-98630748D01*
X195453137Y-98700296D01*
X195334411Y-98749474D01*
X195182267Y-98779737D01*
X195030125Y-98810000D01*
X194719875Y-98810000D01*
X194567733Y-98779737D01*
X194415589Y-98749474D01*
X194296863Y-98700296D01*
X194128959Y-98630748D01*
X194043361Y-98573553D01*
X193870996Y-98458383D01*
X193651617Y-98239004D01*
X193479253Y-97981042D01*
X193479252Y-97981041D01*
X193360526Y-97694410D01*
X193300000Y-97390125D01*
X193300000Y-97079875D01*
X193360526Y-96775590D01*
X193479252Y-96488959D01*
X193536447Y-96403361D01*
X193651617Y-96230996D01*
X193870996Y-96011617D01*
X194128958Y-95839253D01*
X194128959Y-95839252D01*
X194296863Y-95769704D01*
X194415589Y-95720526D01*
X194719875Y-95660000D01*
X195030125Y-95660000D01*
X195182267Y-95690263D01*
G37*
G36*
X99932267Y-95690263D02*
G01*
X100084411Y-95720526D01*
X100203137Y-95769704D01*
X100371041Y-95839252D01*
X100371042Y-95839253D01*
X100629004Y-96011617D01*
X100848383Y-96230996D01*
X100963553Y-96403361D01*
X101020748Y-96488959D01*
X101139474Y-96775590D01*
X101200000Y-97079875D01*
X101200000Y-97390125D01*
X101139474Y-97694410D01*
X101020748Y-97981041D01*
X101020747Y-97981042D01*
X100848383Y-98239004D01*
X100629004Y-98458383D01*
X100456639Y-98573553D01*
X100371041Y-98630748D01*
X100203137Y-98700296D01*
X100084411Y-98749474D01*
X99932267Y-98779737D01*
X99780125Y-98810000D01*
X99469875Y-98810000D01*
X99317733Y-98779737D01*
X99165589Y-98749474D01*
X99046863Y-98700296D01*
X98878959Y-98630748D01*
X98793361Y-98573553D01*
X98620996Y-98458383D01*
X98401617Y-98239004D01*
X98229253Y-97981042D01*
X98229252Y-97981041D01*
X98110526Y-97694410D01*
X98050000Y-97390125D01*
X98050000Y-97079875D01*
X98110526Y-96775590D01*
X98229252Y-96488959D01*
X98286447Y-96403361D01*
X98401617Y-96230996D01*
X98620996Y-96011617D01*
X98878958Y-95839253D01*
X98878959Y-95839252D01*
X99046863Y-95769704D01*
X99165589Y-95720526D01*
X99469875Y-95660000D01*
X99780125Y-95660000D01*
X99932267Y-95690263D01*
G37*
G36*
X157026017Y-95690263D02*
G01*
X157178161Y-95720526D01*
X157296887Y-95769704D01*
X157464791Y-95839252D01*
X157464792Y-95839253D01*
X157722754Y-96011617D01*
X157942133Y-96230996D01*
X158057303Y-96403361D01*
X158114498Y-96488959D01*
X158233224Y-96775590D01*
X158293750Y-97079875D01*
X158293750Y-97390125D01*
X158233224Y-97694410D01*
X158114498Y-97981041D01*
X158114497Y-97981042D01*
X157942133Y-98239004D01*
X157722754Y-98458383D01*
X157550389Y-98573553D01*
X157464791Y-98630748D01*
X157296887Y-98700296D01*
X157178161Y-98749474D01*
X157026017Y-98779737D01*
X156873875Y-98810000D01*
X156563625Y-98810000D01*
X156411483Y-98779737D01*
X156259339Y-98749474D01*
X156140613Y-98700296D01*
X155972709Y-98630748D01*
X155887111Y-98573553D01*
X155714746Y-98458383D01*
X155495367Y-98239004D01*
X155323003Y-97981042D01*
X155323002Y-97981041D01*
X155204276Y-97694410D01*
X155143750Y-97390125D01*
X155143750Y-97079875D01*
X155204276Y-96775590D01*
X155323002Y-96488959D01*
X155380197Y-96403361D01*
X155495367Y-96230996D01*
X155714746Y-96011617D01*
X155972708Y-95839253D01*
X155972709Y-95839252D01*
X156140613Y-95769704D01*
X156259339Y-95720526D01*
X156563625Y-95660000D01*
X156873875Y-95660000D01*
X157026017Y-95690263D01*
G37*
G36*
X109526017Y-95690263D02*
G01*
X109678161Y-95720526D01*
X109796887Y-95769704D01*
X109964791Y-95839252D01*
X109964792Y-95839253D01*
X110222754Y-96011617D01*
X110442133Y-96230996D01*
X110557303Y-96403361D01*
X110614498Y-96488959D01*
X110733224Y-96775590D01*
X110793750Y-97079875D01*
X110793750Y-97390125D01*
X110733224Y-97694410D01*
X110614498Y-97981041D01*
X110614497Y-97981042D01*
X110442133Y-98239004D01*
X110222754Y-98458383D01*
X110050389Y-98573553D01*
X109964791Y-98630748D01*
X109796887Y-98700296D01*
X109678161Y-98749474D01*
X109526017Y-98779737D01*
X109373875Y-98810000D01*
X109063625Y-98810000D01*
X108911483Y-98779737D01*
X108759339Y-98749474D01*
X108640613Y-98700296D01*
X108472709Y-98630748D01*
X108387111Y-98573553D01*
X108214746Y-98458383D01*
X107995367Y-98239004D01*
X107823003Y-97981042D01*
X107823002Y-97981041D01*
X107704276Y-97694410D01*
X107643750Y-97390125D01*
X107643750Y-97079875D01*
X107704276Y-96775590D01*
X107823002Y-96488959D01*
X107880197Y-96403361D01*
X107995367Y-96230996D01*
X108214746Y-96011617D01*
X108472708Y-95839253D01*
X108472709Y-95839252D01*
X108640613Y-95769704D01*
X108759339Y-95720526D01*
X109063625Y-95660000D01*
X109373875Y-95660000D01*
X109526017Y-95690263D01*
G37*
G36*
X133338517Y-95690263D02*
G01*
X133490661Y-95720526D01*
X133609387Y-95769704D01*
X133777291Y-95839252D01*
X133777292Y-95839253D01*
X134035254Y-96011617D01*
X134254633Y-96230996D01*
X134369803Y-96403361D01*
X134426998Y-96488959D01*
X134545724Y-96775590D01*
X134606250Y-97079875D01*
X134606250Y-97390125D01*
X134545724Y-97694410D01*
X134426998Y-97981041D01*
X134426997Y-97981042D01*
X134254633Y-98239004D01*
X134035254Y-98458383D01*
X133862889Y-98573553D01*
X133777291Y-98630748D01*
X133609387Y-98700296D01*
X133490661Y-98749474D01*
X133338517Y-98779737D01*
X133186375Y-98810000D01*
X132876125Y-98810000D01*
X132723983Y-98779737D01*
X132571839Y-98749474D01*
X132453113Y-98700296D01*
X132285209Y-98630748D01*
X132199611Y-98573553D01*
X132027246Y-98458383D01*
X131807867Y-98239004D01*
X131635503Y-97981042D01*
X131635502Y-97981041D01*
X131516776Y-97694410D01*
X131456250Y-97390125D01*
X131456250Y-97079875D01*
X131516776Y-96775590D01*
X131635502Y-96488959D01*
X131692697Y-96403361D01*
X131807867Y-96230996D01*
X132027246Y-96011617D01*
X132285208Y-95839253D01*
X132285209Y-95839252D01*
X132453113Y-95769704D01*
X132571839Y-95720526D01*
X132876125Y-95660000D01*
X133186375Y-95660000D01*
X133338517Y-95690263D01*
G37*
G36*
X180838517Y-95690263D02*
G01*
X180990661Y-95720526D01*
X181109387Y-95769704D01*
X181277291Y-95839252D01*
X181277292Y-95839253D01*
X181535254Y-96011617D01*
X181754633Y-96230996D01*
X181869803Y-96403361D01*
X181926998Y-96488959D01*
X182045724Y-96775590D01*
X182106250Y-97079875D01*
X182106250Y-97390125D01*
X182045724Y-97694410D01*
X181926998Y-97981041D01*
X181926997Y-97981042D01*
X181754633Y-98239004D01*
X181535254Y-98458383D01*
X181362889Y-98573553D01*
X181277291Y-98630748D01*
X181109387Y-98700296D01*
X180990661Y-98749474D01*
X180838517Y-98779737D01*
X180686375Y-98810000D01*
X180376125Y-98810000D01*
X180223983Y-98779737D01*
X180071839Y-98749474D01*
X179953113Y-98700296D01*
X179785209Y-98630748D01*
X179699611Y-98573553D01*
X179527246Y-98458383D01*
X179307867Y-98239004D01*
X179135503Y-97981042D01*
X179135502Y-97981041D01*
X179016776Y-97694410D01*
X178956250Y-97390125D01*
X178956250Y-97079875D01*
X179016776Y-96775590D01*
X179135502Y-96488959D01*
X179192697Y-96403361D01*
X179307867Y-96230996D01*
X179527246Y-96011617D01*
X179785208Y-95839253D01*
X179785209Y-95839252D01*
X179953113Y-95769704D01*
X180071839Y-95720526D01*
X180376125Y-95660000D01*
X180686375Y-95660000D01*
X180838517Y-95690263D01*
G37*
G36*
X164471474Y-88283684D02*
G01*
X164689474Y-88373983D01*
X164843623Y-88437833D01*
X165178548Y-88661623D01*
X165463377Y-88946452D01*
X165687167Y-89281377D01*
X165719562Y-89359586D01*
X165841316Y-89653526D01*
X165919900Y-90048594D01*
X165919900Y-90451406D01*
X165841316Y-90846474D01*
X165751017Y-91064474D01*
X165687167Y-91218623D01*
X165463377Y-91553548D01*
X165178548Y-91838377D01*
X164843623Y-92062167D01*
X164689474Y-92126017D01*
X164471474Y-92216316D01*
X164076406Y-92294900D01*
X163673594Y-92294900D01*
X163278526Y-92216316D01*
X163060526Y-92126017D01*
X162906377Y-92062167D01*
X162571452Y-91838377D01*
X162286623Y-91553548D01*
X162070411Y-91229965D01*
X162054869Y-91211026D01*
X162035927Y-91195481D01*
X162014316Y-91183930D01*
X161990867Y-91176817D01*
X161966481Y-91174415D01*
X161950394Y-91176000D01*
X161763797Y-91176000D01*
X161584896Y-91140415D01*
X161416374Y-91070611D01*
X161264709Y-90969272D01*
X161135728Y-90840291D01*
X161034389Y-90688626D01*
X160964585Y-90520104D01*
X160929000Y-90341203D01*
X160929000Y-90158797D01*
X160964585Y-89979896D01*
X161034389Y-89811374D01*
X161135728Y-89659709D01*
X161264709Y-89530728D01*
X161416374Y-89429389D01*
X161584896Y-89359585D01*
X161763797Y-89324000D01*
X161950392Y-89324000D01*
X161966477Y-89325585D01*
X161990863Y-89323184D01*
X162014312Y-89316072D01*
X162035923Y-89304521D01*
X162054866Y-89288976D01*
X162070411Y-89270035D01*
X162286623Y-88946452D01*
X162571452Y-88661623D01*
X162906377Y-88437833D01*
X163060526Y-88373983D01*
X163278526Y-88283684D01*
X163673594Y-88205100D01*
X164076406Y-88205100D01*
X164471474Y-88283684D01*
G37*
G36*
X86096474Y-88283684D02*
G01*
X86314474Y-88373983D01*
X86468623Y-88437833D01*
X86803548Y-88661623D01*
X87088377Y-88946452D01*
X87312167Y-89281377D01*
X87344562Y-89359586D01*
X87466316Y-89653526D01*
X87544900Y-90048594D01*
X87544900Y-90451406D01*
X87466316Y-90846474D01*
X87376017Y-91064474D01*
X87312167Y-91218623D01*
X87088377Y-91553548D01*
X86803548Y-91838377D01*
X86468623Y-92062167D01*
X86314474Y-92126017D01*
X86096474Y-92216316D01*
X85701406Y-92294900D01*
X85298594Y-92294900D01*
X84903526Y-92216316D01*
X84685526Y-92126017D01*
X84531377Y-92062167D01*
X84196452Y-91838377D01*
X83911623Y-91553548D01*
X83692480Y-91225578D01*
X83676936Y-91206637D01*
X83657994Y-91191092D01*
X83636383Y-91179541D01*
X83612934Y-91172428D01*
X83588548Y-91170026D01*
X83564162Y-91172428D01*
X83546204Y-91176000D01*
X83363797Y-91176000D01*
X83184896Y-91140415D01*
X83016374Y-91070611D01*
X82864709Y-90969272D01*
X82735728Y-90840291D01*
X82634389Y-90688626D01*
X82564585Y-90520104D01*
X82529000Y-90341203D01*
X82529000Y-90158797D01*
X82564585Y-89979896D01*
X82634389Y-89811374D01*
X82735728Y-89659709D01*
X82864709Y-89530728D01*
X83016374Y-89429389D01*
X83184896Y-89359585D01*
X83363797Y-89324000D01*
X83546204Y-89324000D01*
X83564162Y-89327572D01*
X83588549Y-89329974D01*
X83612935Y-89327572D01*
X83636384Y-89320459D01*
X83657994Y-89308908D01*
X83676936Y-89293362D01*
X83692481Y-89274421D01*
X83911623Y-88946452D01*
X84196452Y-88661623D01*
X84531377Y-88437833D01*
X84685526Y-88373983D01*
X84903526Y-88283684D01*
X85298594Y-88205100D01*
X85701406Y-88205100D01*
X86096474Y-88283684D01*
G37*
G36*
X36221474Y-88283684D02*
G01*
X36439474Y-88373983D01*
X36593623Y-88437833D01*
X36743054Y-88537680D01*
X36764665Y-88549231D01*
X36788114Y-88556344D01*
X36812500Y-88558746D01*
X36836886Y-88556344D01*
X36860335Y-88549231D01*
X36881946Y-88537680D01*
X37031377Y-88437833D01*
X37185526Y-88373983D01*
X37403526Y-88283684D01*
X37798594Y-88205100D01*
X38201406Y-88205100D01*
X38596474Y-88283684D01*
X38814474Y-88373983D01*
X38968623Y-88437833D01*
X39303548Y-88661623D01*
X39588377Y-88946452D01*
X39812167Y-89281377D01*
X39832296Y-89329974D01*
X39902223Y-89498791D01*
X39913774Y-89520402D01*
X39929320Y-89539344D01*
X39948261Y-89554889D01*
X39969872Y-89566440D01*
X39993321Y-89573553D01*
X40017707Y-89575955D01*
X40042093Y-89573553D01*
X40065542Y-89566440D01*
X40087153Y-89554889D01*
X40106084Y-89539353D01*
X40114709Y-89530728D01*
X40266374Y-89429389D01*
X40434896Y-89359585D01*
X40613797Y-89324000D01*
X40796203Y-89324000D01*
X40975104Y-89359585D01*
X41143626Y-89429389D01*
X41295291Y-89530728D01*
X41424272Y-89659709D01*
X41525611Y-89811374D01*
X41595415Y-89979896D01*
X41631000Y-90158797D01*
X41631000Y-90341203D01*
X41595415Y-90520104D01*
X41525611Y-90688626D01*
X41424272Y-90840291D01*
X41295291Y-90969272D01*
X41143626Y-91070611D01*
X40975104Y-91140415D01*
X40796203Y-91176000D01*
X40613797Y-91176000D01*
X40434896Y-91140415D01*
X40266374Y-91070611D01*
X40114709Y-90969272D01*
X40106084Y-90960647D01*
X40087153Y-90945111D01*
X40065542Y-90933560D01*
X40042093Y-90926447D01*
X40017707Y-90924045D01*
X39993321Y-90926447D01*
X39969872Y-90933560D01*
X39948261Y-90945111D01*
X39929319Y-90960656D01*
X39913774Y-90979598D01*
X39902223Y-91001209D01*
X39850573Y-91125903D01*
X39812167Y-91218623D01*
X39588377Y-91553548D01*
X39303548Y-91838377D01*
X38968623Y-92062167D01*
X38814474Y-92126017D01*
X38596474Y-92216316D01*
X38201406Y-92294900D01*
X37798594Y-92294900D01*
X37403526Y-92216316D01*
X37185526Y-92126017D01*
X37031377Y-92062167D01*
X36881944Y-91962319D01*
X36860335Y-91950769D01*
X36836886Y-91943656D01*
X36812500Y-91941254D01*
X36788114Y-91943656D01*
X36764665Y-91950769D01*
X36743056Y-91962319D01*
X36593623Y-92062167D01*
X36439474Y-92126017D01*
X36221474Y-92216316D01*
X35826406Y-92294900D01*
X35423594Y-92294900D01*
X35028526Y-92216316D01*
X34810526Y-92126017D01*
X34656377Y-92062167D01*
X34321452Y-91838377D01*
X34036623Y-91553548D01*
X33812833Y-91218623D01*
X33774427Y-91125903D01*
X33722777Y-91001209D01*
X33711226Y-90979598D01*
X33695680Y-90960656D01*
X33676739Y-90945111D01*
X33655128Y-90933560D01*
X33631679Y-90926447D01*
X33607293Y-90924045D01*
X33582907Y-90926447D01*
X33559458Y-90933560D01*
X33537847Y-90945111D01*
X33518916Y-90960647D01*
X33510291Y-90969272D01*
X33358626Y-91070611D01*
X33190104Y-91140415D01*
X33011203Y-91176000D01*
X32828797Y-91176000D01*
X32649896Y-91140415D01*
X32481374Y-91070611D01*
X32329709Y-90969272D01*
X32200728Y-90840291D01*
X32099389Y-90688626D01*
X32029585Y-90520104D01*
X31994000Y-90341203D01*
X31994000Y-90158797D01*
X32029585Y-89979896D01*
X32099389Y-89811374D01*
X32200728Y-89659709D01*
X32329709Y-89530728D01*
X32481374Y-89429389D01*
X32649896Y-89359585D01*
X32828797Y-89324000D01*
X33011203Y-89324000D01*
X33190104Y-89359585D01*
X33358626Y-89429389D01*
X33510291Y-89530728D01*
X33518916Y-89539353D01*
X33537847Y-89554889D01*
X33559458Y-89566440D01*
X33582907Y-89573553D01*
X33607293Y-89575955D01*
X33631679Y-89573553D01*
X33655128Y-89566440D01*
X33676739Y-89554889D01*
X33695681Y-89539344D01*
X33711226Y-89520402D01*
X33722777Y-89498791D01*
X33792704Y-89329974D01*
X33812833Y-89281377D01*
X34036623Y-88946452D01*
X34321452Y-88661623D01*
X34656377Y-88437833D01*
X34810526Y-88373983D01*
X35028526Y-88283684D01*
X35423594Y-88205100D01*
X35826406Y-88205100D01*
X36221474Y-88283684D01*
G37*
G36*
X131221474Y-88283684D02*
G01*
X131439474Y-88373983D01*
X131593623Y-88437833D01*
X131928548Y-88661623D01*
X132213377Y-88946452D01*
X132437167Y-89281377D01*
X132469562Y-89359586D01*
X132591316Y-89653526D01*
X132669900Y-90048594D01*
X132669900Y-90451406D01*
X132591316Y-90846474D01*
X132501017Y-91064474D01*
X132437167Y-91218623D01*
X132213377Y-91553548D01*
X131928548Y-91838377D01*
X131593623Y-92062167D01*
X131439474Y-92126017D01*
X131221474Y-92216316D01*
X130826406Y-92294900D01*
X130423594Y-92294900D01*
X130028526Y-92216316D01*
X129810526Y-92126017D01*
X129656377Y-92062167D01*
X129321452Y-91838377D01*
X129036623Y-91553548D01*
X128812833Y-91218623D01*
X128748983Y-91064474D01*
X128658684Y-90846474D01*
X128580100Y-90451406D01*
X128580100Y-90048594D01*
X128658684Y-89653526D01*
X128780438Y-89359586D01*
X128812833Y-89281377D01*
X129036623Y-88946452D01*
X129321452Y-88661623D01*
X129656377Y-88437833D01*
X129810526Y-88373983D01*
X130028526Y-88283684D01*
X130423594Y-88205100D01*
X130826406Y-88205100D01*
X131221474Y-88283684D01*
G37*
G36*
X121721474Y-88283684D02*
G01*
X121939474Y-88373983D01*
X122093623Y-88437833D01*
X122428548Y-88661623D01*
X122713377Y-88946452D01*
X122937167Y-89281377D01*
X122969562Y-89359586D01*
X123091316Y-89653526D01*
X123169900Y-90048594D01*
X123169900Y-90451406D01*
X123091316Y-90846474D01*
X123001017Y-91064474D01*
X122937167Y-91218623D01*
X122713377Y-91553548D01*
X122428548Y-91838377D01*
X122093623Y-92062167D01*
X121939474Y-92126017D01*
X121721474Y-92216316D01*
X121326406Y-92294900D01*
X120923594Y-92294900D01*
X120528526Y-92216316D01*
X120310526Y-92126017D01*
X120156377Y-92062167D01*
X119821452Y-91838377D01*
X119536623Y-91553548D01*
X119312833Y-91218623D01*
X119248983Y-91064474D01*
X119158684Y-90846474D01*
X119080100Y-90451406D01*
X119080100Y-90048594D01*
X119158684Y-89653526D01*
X119280438Y-89359586D01*
X119312833Y-89281377D01*
X119536623Y-88946452D01*
X119821452Y-88661623D01*
X120156377Y-88437833D01*
X120310526Y-88373983D01*
X120528526Y-88283684D01*
X120923594Y-88205100D01*
X121326406Y-88205100D01*
X121721474Y-88283684D01*
G37*
G36*
X169221474Y-88283684D02*
G01*
X169439474Y-88373983D01*
X169593623Y-88437833D01*
X169928548Y-88661623D01*
X170213377Y-88946452D01*
X170437167Y-89281377D01*
X170469562Y-89359586D01*
X170591316Y-89653526D01*
X170669900Y-90048594D01*
X170669900Y-90451406D01*
X170591316Y-90846474D01*
X170501017Y-91064474D01*
X170437167Y-91218623D01*
X170213377Y-91553548D01*
X169928548Y-91838377D01*
X169593623Y-92062167D01*
X169439474Y-92126017D01*
X169221474Y-92216316D01*
X168826406Y-92294900D01*
X168423594Y-92294900D01*
X168028526Y-92216316D01*
X167810526Y-92126017D01*
X167656377Y-92062167D01*
X167321452Y-91838377D01*
X167036623Y-91553548D01*
X166812833Y-91218623D01*
X166748983Y-91064474D01*
X166658684Y-90846474D01*
X166580100Y-90451406D01*
X166580100Y-90048594D01*
X166658684Y-89653526D01*
X166780438Y-89359586D01*
X166812833Y-89281377D01*
X167036623Y-88946452D01*
X167321452Y-88661623D01*
X167656377Y-88437833D01*
X167810526Y-88373983D01*
X168028526Y-88283684D01*
X168423594Y-88205100D01*
X168826406Y-88205100D01*
X169221474Y-88283684D01*
G37*
G36*
X157371474Y-88283684D02*
G01*
X157589474Y-88373983D01*
X157743623Y-88437833D01*
X158078548Y-88661623D01*
X158363377Y-88946452D01*
X158579589Y-89270035D01*
X158595131Y-89288974D01*
X158614073Y-89304519D01*
X158635684Y-89316070D01*
X158659133Y-89323183D01*
X158683519Y-89325585D01*
X158699606Y-89324000D01*
X158886203Y-89324000D01*
X159065104Y-89359585D01*
X159233626Y-89429389D01*
X159385291Y-89530728D01*
X159514272Y-89659709D01*
X159615611Y-89811374D01*
X159685415Y-89979896D01*
X159721000Y-90158797D01*
X159721000Y-90341203D01*
X159685415Y-90520104D01*
X159615611Y-90688626D01*
X159514272Y-90840291D01*
X159385291Y-90969272D01*
X159233626Y-91070611D01*
X159065104Y-91140415D01*
X158886203Y-91176000D01*
X158699608Y-91176000D01*
X158683523Y-91174415D01*
X158659137Y-91176816D01*
X158635688Y-91183928D01*
X158614077Y-91195479D01*
X158595134Y-91211024D01*
X158579589Y-91229965D01*
X158363377Y-91553548D01*
X158078548Y-91838377D01*
X157743623Y-92062167D01*
X157589474Y-92126017D01*
X157371474Y-92216316D01*
X156976406Y-92294900D01*
X156573594Y-92294900D01*
X156178526Y-92216316D01*
X155960526Y-92126017D01*
X155806377Y-92062167D01*
X155471452Y-91838377D01*
X155186623Y-91553548D01*
X154962833Y-91218623D01*
X154898983Y-91064474D01*
X154808684Y-90846474D01*
X154730100Y-90451406D01*
X154730100Y-90048594D01*
X154808684Y-89653526D01*
X154930438Y-89359586D01*
X154962833Y-89281377D01*
X155186623Y-88946452D01*
X155471452Y-88661623D01*
X155806377Y-88437833D01*
X155960526Y-88373983D01*
X156178526Y-88283684D01*
X156573594Y-88205100D01*
X156976406Y-88205100D01*
X157371474Y-88283684D01*
G37*
G36*
X102721474Y-88283684D02*
G01*
X102939474Y-88373983D01*
X103093623Y-88437833D01*
X103428548Y-88661623D01*
X103713377Y-88946452D01*
X103937167Y-89281377D01*
X103969562Y-89359586D01*
X104091316Y-89653526D01*
X104169900Y-90048594D01*
X104169900Y-90451406D01*
X104091316Y-90846474D01*
X104001017Y-91064474D01*
X103937167Y-91218623D01*
X103713377Y-91553548D01*
X103428548Y-91838377D01*
X103093623Y-92062167D01*
X102939474Y-92126017D01*
X102721474Y-92216316D01*
X102326406Y-92294900D01*
X101923594Y-92294900D01*
X101528526Y-92216316D01*
X101310526Y-92126017D01*
X101156377Y-92062167D01*
X100821452Y-91838377D01*
X100536623Y-91553548D01*
X100312833Y-91218623D01*
X100248983Y-91064474D01*
X100158684Y-90846474D01*
X100080100Y-90451406D01*
X100080100Y-90048594D01*
X100158684Y-89653526D01*
X100280438Y-89359586D01*
X100312833Y-89281377D01*
X100536623Y-88946452D01*
X100821452Y-88661623D01*
X101156377Y-88437833D01*
X101310526Y-88373983D01*
X101528526Y-88283684D01*
X101923594Y-88205100D01*
X102326406Y-88205100D01*
X102721474Y-88283684D01*
G37*
G36*
X192971474Y-88283684D02*
G01*
X193189474Y-88373983D01*
X193343623Y-88437833D01*
X193678548Y-88661623D01*
X193963377Y-88946452D01*
X194187167Y-89281377D01*
X194219562Y-89359586D01*
X194341316Y-89653526D01*
X194419900Y-90048594D01*
X194419900Y-90451406D01*
X194341316Y-90846474D01*
X194251017Y-91064474D01*
X194187167Y-91218623D01*
X193963377Y-91553548D01*
X193678548Y-91838377D01*
X193343623Y-92062167D01*
X193189474Y-92126017D01*
X192971474Y-92216316D01*
X192576406Y-92294900D01*
X192173594Y-92294900D01*
X191778526Y-92216316D01*
X191560526Y-92126017D01*
X191406377Y-92062167D01*
X191071452Y-91838377D01*
X190786623Y-91553548D01*
X190562833Y-91218623D01*
X190498983Y-91064474D01*
X190408684Y-90846474D01*
X190330100Y-90451406D01*
X190330100Y-90048594D01*
X190408684Y-89653526D01*
X190530438Y-89359586D01*
X190562833Y-89281377D01*
X190786623Y-88946452D01*
X191071452Y-88661623D01*
X191406377Y-88437833D01*
X191560526Y-88373983D01*
X191778526Y-88283684D01*
X192173594Y-88205100D01*
X192576406Y-88205100D01*
X192971474Y-88283684D01*
G37*
G36*
X216721474Y-88283684D02*
G01*
X216939474Y-88373983D01*
X217093623Y-88437833D01*
X217428548Y-88661623D01*
X217713377Y-88946452D01*
X217937167Y-89281377D01*
X217969562Y-89359586D01*
X218091316Y-89653526D01*
X218169900Y-90048594D01*
X218169900Y-90451406D01*
X218091316Y-90846474D01*
X218001017Y-91064474D01*
X217937167Y-91218623D01*
X217713377Y-91553548D01*
X217428548Y-91838377D01*
X217093623Y-92062167D01*
X216939474Y-92126017D01*
X216721474Y-92216316D01*
X216326406Y-92294900D01*
X215923594Y-92294900D01*
X215528526Y-92216316D01*
X215310526Y-92126017D01*
X215156377Y-92062167D01*
X214821452Y-91838377D01*
X214536623Y-91553548D01*
X214317480Y-91225578D01*
X214301936Y-91206637D01*
X214282994Y-91191092D01*
X214261383Y-91179541D01*
X214237934Y-91172428D01*
X214213548Y-91170026D01*
X214189162Y-91172428D01*
X214171204Y-91176000D01*
X213988797Y-91176000D01*
X213809896Y-91140415D01*
X213641374Y-91070611D01*
X213489709Y-90969272D01*
X213360728Y-90840291D01*
X213259389Y-90688626D01*
X213189585Y-90520104D01*
X213154000Y-90341203D01*
X213154000Y-90158797D01*
X213189585Y-89979896D01*
X213259389Y-89811374D01*
X213360728Y-89659709D01*
X213489709Y-89530728D01*
X213641374Y-89429389D01*
X213809896Y-89359585D01*
X213988797Y-89324000D01*
X214171204Y-89324000D01*
X214189162Y-89327572D01*
X214213549Y-89329974D01*
X214237935Y-89327572D01*
X214261384Y-89320459D01*
X214282994Y-89308908D01*
X214301936Y-89293362D01*
X214317481Y-89274421D01*
X214536623Y-88946452D01*
X214821452Y-88661623D01*
X215156377Y-88437833D01*
X215310526Y-88373983D01*
X215528526Y-88283684D01*
X215923594Y-88205100D01*
X216326406Y-88205100D01*
X216721474Y-88283684D01*
G37*
G36*
X209596474Y-88283684D02*
G01*
X209814474Y-88373983D01*
X209968623Y-88437833D01*
X210303548Y-88661623D01*
X210588377Y-88946452D01*
X210807519Y-89274421D01*
X210823064Y-89293363D01*
X210842006Y-89308908D01*
X210863617Y-89320459D01*
X210887066Y-89327572D01*
X210911452Y-89329974D01*
X210935838Y-89327572D01*
X210953796Y-89324000D01*
X211136203Y-89324000D01*
X211315104Y-89359585D01*
X211483626Y-89429389D01*
X211635291Y-89530728D01*
X211764272Y-89659709D01*
X211865611Y-89811374D01*
X211935415Y-89979896D01*
X211971000Y-90158797D01*
X211971000Y-90341203D01*
X211935415Y-90520104D01*
X211865611Y-90688626D01*
X211764272Y-90840291D01*
X211635291Y-90969272D01*
X211483626Y-91070611D01*
X211315104Y-91140415D01*
X211136203Y-91176000D01*
X210953796Y-91176000D01*
X210935838Y-91172428D01*
X210911451Y-91170026D01*
X210887065Y-91172428D01*
X210863616Y-91179541D01*
X210842006Y-91191092D01*
X210823064Y-91206638D01*
X210807520Y-91225578D01*
X210588377Y-91553548D01*
X210303548Y-91838377D01*
X209968623Y-92062167D01*
X209814474Y-92126017D01*
X209596474Y-92216316D01*
X209201406Y-92294900D01*
X208798594Y-92294900D01*
X208403526Y-92216316D01*
X208185526Y-92126017D01*
X208031377Y-92062167D01*
X207696452Y-91838377D01*
X207411623Y-91553548D01*
X207187833Y-91218623D01*
X207123983Y-91064474D01*
X207033684Y-90846474D01*
X206955100Y-90451406D01*
X206955100Y-90048594D01*
X207033684Y-89653526D01*
X207155438Y-89359586D01*
X207187833Y-89281377D01*
X207411623Y-88946452D01*
X207696452Y-88661623D01*
X208031377Y-88437833D01*
X208185526Y-88373983D01*
X208403526Y-88283684D01*
X208798594Y-88205100D01*
X209201406Y-88205100D01*
X209596474Y-88283684D01*
G37*
G36*
X57596474Y-88283684D02*
G01*
X57814474Y-88373983D01*
X57968623Y-88437833D01*
X58303548Y-88661623D01*
X58588377Y-88946452D01*
X58812167Y-89281377D01*
X58844562Y-89359586D01*
X58966316Y-89653526D01*
X59044900Y-90048594D01*
X59044900Y-90451406D01*
X58966316Y-90846474D01*
X58876017Y-91064474D01*
X58812167Y-91218623D01*
X58588377Y-91553548D01*
X58303548Y-91838377D01*
X57968623Y-92062167D01*
X57814474Y-92126017D01*
X57596474Y-92216316D01*
X57201406Y-92294900D01*
X56798594Y-92294900D01*
X56403526Y-92216316D01*
X56185526Y-92126017D01*
X56031377Y-92062167D01*
X55696452Y-91838377D01*
X55411623Y-91553548D01*
X55187833Y-91218623D01*
X55123983Y-91064474D01*
X55033684Y-90846474D01*
X54955100Y-90451406D01*
X54955100Y-90048594D01*
X55033684Y-89653526D01*
X55155438Y-89359586D01*
X55187833Y-89281377D01*
X55411623Y-88946452D01*
X55696452Y-88661623D01*
X56031377Y-88437833D01*
X56185526Y-88373983D01*
X56403526Y-88283684D01*
X56798594Y-88205100D01*
X57201406Y-88205100D01*
X57596474Y-88283684D01*
G37*
G36*
X257096474Y-88283684D02*
G01*
X257314474Y-88373983D01*
X257468623Y-88437833D01*
X257618054Y-88537680D01*
X257639665Y-88549231D01*
X257663114Y-88556344D01*
X257687500Y-88558746D01*
X257711886Y-88556344D01*
X257735335Y-88549231D01*
X257756946Y-88537680D01*
X257906377Y-88437833D01*
X258060526Y-88373983D01*
X258278526Y-88283684D01*
X258673594Y-88205100D01*
X259076406Y-88205100D01*
X259471474Y-88283684D01*
X259689474Y-88373983D01*
X259843623Y-88437833D01*
X260178548Y-88661623D01*
X260463377Y-88946452D01*
X260687167Y-89281377D01*
X260707296Y-89329974D01*
X260777223Y-89498791D01*
X260788774Y-89520402D01*
X260804320Y-89539344D01*
X260823261Y-89554889D01*
X260844872Y-89566440D01*
X260868321Y-89573553D01*
X260892707Y-89575955D01*
X260917093Y-89573553D01*
X260940542Y-89566440D01*
X260962153Y-89554889D01*
X260981084Y-89539353D01*
X260989709Y-89530728D01*
X261141374Y-89429389D01*
X261309896Y-89359585D01*
X261488797Y-89324000D01*
X261671203Y-89324000D01*
X261850104Y-89359585D01*
X262018626Y-89429389D01*
X262170291Y-89530728D01*
X262299272Y-89659709D01*
X262400611Y-89811374D01*
X262470415Y-89979896D01*
X262506000Y-90158797D01*
X262506000Y-90341203D01*
X262470415Y-90520104D01*
X262400611Y-90688626D01*
X262299272Y-90840291D01*
X262170291Y-90969272D01*
X262018626Y-91070611D01*
X261850104Y-91140415D01*
X261671203Y-91176000D01*
X261488797Y-91176000D01*
X261309896Y-91140415D01*
X261141374Y-91070611D01*
X260989709Y-90969272D01*
X260981084Y-90960647D01*
X260962153Y-90945111D01*
X260940542Y-90933560D01*
X260917093Y-90926447D01*
X260892707Y-90924045D01*
X260868321Y-90926447D01*
X260844872Y-90933560D01*
X260823261Y-90945111D01*
X260804319Y-90960656D01*
X260788774Y-90979598D01*
X260777223Y-91001209D01*
X260725573Y-91125903D01*
X260687167Y-91218623D01*
X260463377Y-91553548D01*
X260178548Y-91838377D01*
X259843623Y-92062167D01*
X259689474Y-92126017D01*
X259471474Y-92216316D01*
X259076406Y-92294900D01*
X258673594Y-92294900D01*
X258278526Y-92216316D01*
X258060526Y-92126017D01*
X257906377Y-92062167D01*
X257756944Y-91962319D01*
X257735335Y-91950769D01*
X257711886Y-91943656D01*
X257687500Y-91941254D01*
X257663114Y-91943656D01*
X257639665Y-91950769D01*
X257618056Y-91962319D01*
X257468623Y-92062167D01*
X257314474Y-92126017D01*
X257096474Y-92216316D01*
X256701406Y-92294900D01*
X256298594Y-92294900D01*
X255903526Y-92216316D01*
X255685526Y-92126017D01*
X255531377Y-92062167D01*
X255196452Y-91838377D01*
X254911623Y-91553548D01*
X254687833Y-91218623D01*
X254649427Y-91125903D01*
X254597777Y-91001209D01*
X254586226Y-90979598D01*
X254570680Y-90960656D01*
X254551739Y-90945111D01*
X254530128Y-90933560D01*
X254506679Y-90926447D01*
X254482293Y-90924045D01*
X254457907Y-90926447D01*
X254434458Y-90933560D01*
X254412847Y-90945111D01*
X254393916Y-90960647D01*
X254385291Y-90969272D01*
X254233626Y-91070611D01*
X254065104Y-91140415D01*
X253886203Y-91176000D01*
X253703797Y-91176000D01*
X253524896Y-91140415D01*
X253356374Y-91070611D01*
X253204709Y-90969272D01*
X253075728Y-90840291D01*
X252974389Y-90688626D01*
X252904585Y-90520104D01*
X252869000Y-90341203D01*
X252869000Y-90158797D01*
X252904585Y-89979896D01*
X252974389Y-89811374D01*
X253075728Y-89659709D01*
X253204709Y-89530728D01*
X253356374Y-89429389D01*
X253524896Y-89359585D01*
X253703797Y-89324000D01*
X253886203Y-89324000D01*
X254065104Y-89359585D01*
X254233626Y-89429389D01*
X254385291Y-89530728D01*
X254393916Y-89539353D01*
X254412847Y-89554889D01*
X254434458Y-89566440D01*
X254457907Y-89573553D01*
X254482293Y-89575955D01*
X254506679Y-89573553D01*
X254530128Y-89566440D01*
X254551739Y-89554889D01*
X254570681Y-89539344D01*
X254586226Y-89520402D01*
X254597777Y-89498791D01*
X254667704Y-89329974D01*
X254687833Y-89281377D01*
X254911623Y-88946452D01*
X255196452Y-88661623D01*
X255531377Y-88437833D01*
X255685526Y-88373983D01*
X255903526Y-88283684D01*
X256298594Y-88205100D01*
X256701406Y-88205100D01*
X257096474Y-88283684D01*
G37*
G36*
X78971474Y-88283684D02*
G01*
X79189474Y-88373983D01*
X79343623Y-88437833D01*
X79678548Y-88661623D01*
X79963377Y-88946452D01*
X80182519Y-89274421D01*
X80198064Y-89293363D01*
X80217006Y-89308908D01*
X80238617Y-89320459D01*
X80262066Y-89327572D01*
X80286452Y-89329974D01*
X80310838Y-89327572D01*
X80328796Y-89324000D01*
X80511203Y-89324000D01*
X80690104Y-89359585D01*
X80858626Y-89429389D01*
X81010291Y-89530728D01*
X81139272Y-89659709D01*
X81240611Y-89811374D01*
X81310415Y-89979896D01*
X81346000Y-90158797D01*
X81346000Y-90341203D01*
X81310415Y-90520104D01*
X81240611Y-90688626D01*
X81139272Y-90840291D01*
X81010291Y-90969272D01*
X80858626Y-91070611D01*
X80690104Y-91140415D01*
X80511203Y-91176000D01*
X80328796Y-91176000D01*
X80310838Y-91172428D01*
X80286451Y-91170026D01*
X80262065Y-91172428D01*
X80238616Y-91179541D01*
X80217006Y-91191092D01*
X80198064Y-91206638D01*
X80182520Y-91225578D01*
X79963377Y-91553548D01*
X79678548Y-91838377D01*
X79343623Y-92062167D01*
X79189474Y-92126017D01*
X78971474Y-92216316D01*
X78576406Y-92294900D01*
X78173594Y-92294900D01*
X77778526Y-92216316D01*
X77560526Y-92126017D01*
X77406377Y-92062167D01*
X77071452Y-91838377D01*
X76786623Y-91553548D01*
X76562833Y-91218623D01*
X76498983Y-91064474D01*
X76408684Y-90846474D01*
X76330100Y-90451406D01*
X76330100Y-90048594D01*
X76408684Y-89653526D01*
X76530438Y-89359586D01*
X76562833Y-89281377D01*
X76786623Y-88946452D01*
X77071452Y-88661623D01*
X77406377Y-88437833D01*
X77560526Y-88373983D01*
X77778526Y-88283684D01*
X78173594Y-88205100D01*
X78576406Y-88205100D01*
X78971474Y-88283684D01*
G37*
G36*
X238096474Y-88283684D02*
G01*
X238314474Y-88373983D01*
X238468623Y-88437833D01*
X238803548Y-88661623D01*
X239088377Y-88946452D01*
X239312167Y-89281377D01*
X239344562Y-89359586D01*
X239466316Y-89653526D01*
X239544900Y-90048594D01*
X239544900Y-90451406D01*
X239466316Y-90846474D01*
X239376017Y-91064474D01*
X239312167Y-91218623D01*
X239088377Y-91553548D01*
X238803548Y-91838377D01*
X238468623Y-92062167D01*
X238314474Y-92126017D01*
X238096474Y-92216316D01*
X237701406Y-92294900D01*
X237298594Y-92294900D01*
X236903526Y-92216316D01*
X236685526Y-92126017D01*
X236531377Y-92062167D01*
X236196452Y-91838377D01*
X235911623Y-91553548D01*
X235687833Y-91218623D01*
X235623983Y-91064474D01*
X235533684Y-90846474D01*
X235455100Y-90451406D01*
X235455100Y-90048594D01*
X235533684Y-89653526D01*
X235655438Y-89359586D01*
X235687833Y-89281377D01*
X235911623Y-88946452D01*
X236196452Y-88661623D01*
X236531377Y-88437833D01*
X236685526Y-88373983D01*
X236903526Y-88283684D01*
X237298594Y-88205100D01*
X237701406Y-88205100D01*
X238096474Y-88283684D01*
G37*
G36*
X125815104Y-89359585D02*
G01*
X125827176Y-89364585D01*
X125850614Y-89371695D01*
X125875000Y-89374097D01*
X125899387Y-89371695D01*
X125922824Y-89364585D01*
X125934896Y-89359585D01*
X126113797Y-89324000D01*
X126296203Y-89324000D01*
X126475104Y-89359585D01*
X126643626Y-89429389D01*
X126795291Y-89530728D01*
X126924272Y-89659709D01*
X127025611Y-89811374D01*
X127095415Y-89979896D01*
X127131000Y-90158797D01*
X127131000Y-90341203D01*
X127095415Y-90520104D01*
X127025611Y-90688626D01*
X126924272Y-90840291D01*
X126795291Y-90969272D01*
X126643626Y-91070611D01*
X126475104Y-91140415D01*
X126296203Y-91176000D01*
X126113797Y-91176000D01*
X125934896Y-91140415D01*
X125922824Y-91135415D01*
X125899386Y-91128305D01*
X125875000Y-91125903D01*
X125850613Y-91128305D01*
X125827176Y-91135415D01*
X125815104Y-91140415D01*
X125636203Y-91176000D01*
X125453797Y-91176000D01*
X125274896Y-91140415D01*
X125106374Y-91070611D01*
X124954709Y-90969272D01*
X124825728Y-90840291D01*
X124724389Y-90688626D01*
X124654585Y-90520104D01*
X124619000Y-90341203D01*
X124619000Y-90158797D01*
X124654585Y-89979896D01*
X124724389Y-89811374D01*
X124825728Y-89659709D01*
X124954709Y-89530728D01*
X125106374Y-89429389D01*
X125274896Y-89359585D01*
X125453797Y-89324000D01*
X125636203Y-89324000D01*
X125815104Y-89359585D01*
G37*
G36*
X97315104Y-89359585D02*
G01*
X97483626Y-89429389D01*
X97635291Y-89530728D01*
X97764272Y-89659709D01*
X97865611Y-89811374D01*
X97935415Y-89979896D01*
X97971000Y-90158797D01*
X97971000Y-90341203D01*
X97935415Y-90520104D01*
X97865611Y-90688626D01*
X97764272Y-90840291D01*
X97635291Y-90969272D01*
X97483626Y-91070611D01*
X97315104Y-91140415D01*
X97136203Y-91176000D01*
X96953797Y-91176000D01*
X96774896Y-91140415D01*
X96606374Y-91070611D01*
X96454709Y-90969272D01*
X96325728Y-90840291D01*
X96224389Y-90688626D01*
X96154585Y-90520104D01*
X96119000Y-90341203D01*
X96119000Y-90158797D01*
X96154585Y-89979896D01*
X96224389Y-89811374D01*
X96325728Y-89659709D01*
X96454709Y-89530728D01*
X96606374Y-89429389D01*
X96774896Y-89359585D01*
X96953797Y-89324000D01*
X97136203Y-89324000D01*
X97315104Y-89359585D01*
G37*
G36*
X30815104Y-89359585D02*
G01*
X30983626Y-89429389D01*
X31135291Y-89530728D01*
X31264272Y-89659709D01*
X31365611Y-89811374D01*
X31435415Y-89979896D01*
X31471000Y-90158797D01*
X31471000Y-90341203D01*
X31435415Y-90520104D01*
X31365611Y-90688626D01*
X31264272Y-90840291D01*
X31135291Y-90969272D01*
X30983626Y-91070611D01*
X30815104Y-91140415D01*
X30636203Y-91176000D01*
X30453797Y-91176000D01*
X30274896Y-91140415D01*
X30106374Y-91070611D01*
X29954709Y-90969272D01*
X29825728Y-90840291D01*
X29724389Y-90688626D01*
X29654585Y-90520104D01*
X29619000Y-90341203D01*
X29619000Y-90158797D01*
X29654585Y-89979896D01*
X29724389Y-89811374D01*
X29825728Y-89659709D01*
X29954709Y-89530728D01*
X30106374Y-89429389D01*
X30274896Y-89359585D01*
X30453797Y-89324000D01*
X30636203Y-89324000D01*
X30815104Y-89359585D01*
G37*
G36*
X73565104Y-89359585D02*
G01*
X73733626Y-89429389D01*
X73885291Y-89530728D01*
X74014272Y-89659709D01*
X74115611Y-89811374D01*
X74185415Y-89979896D01*
X74221000Y-90158797D01*
X74221000Y-90341203D01*
X74185415Y-90520104D01*
X74115611Y-90688626D01*
X74014272Y-90840291D01*
X73885291Y-90969272D01*
X73733626Y-91070611D01*
X73565104Y-91140415D01*
X73386203Y-91176000D01*
X73203797Y-91176000D01*
X73024896Y-91140415D01*
X72856374Y-91070611D01*
X72704709Y-90969272D01*
X72575728Y-90840291D01*
X72474389Y-90688626D01*
X72404585Y-90520104D01*
X72369000Y-90341203D01*
X72369000Y-90158797D01*
X72404585Y-89979896D01*
X72474389Y-89811374D01*
X72575728Y-89659709D01*
X72704709Y-89530728D01*
X72856374Y-89429389D01*
X73024896Y-89359585D01*
X73203797Y-89324000D01*
X73386203Y-89324000D01*
X73565104Y-89359585D01*
G37*
G36*
X107475104Y-89359585D02*
G01*
X107643626Y-89429389D01*
X107795291Y-89530728D01*
X107924272Y-89659709D01*
X108025611Y-89811374D01*
X108095415Y-89979896D01*
X108131000Y-90158797D01*
X108131000Y-90341203D01*
X108095415Y-90520104D01*
X108025611Y-90688626D01*
X107924272Y-90840291D01*
X107795291Y-90969272D01*
X107643626Y-91070611D01*
X107475104Y-91140415D01*
X107296203Y-91176000D01*
X107113797Y-91176000D01*
X106934896Y-91140415D01*
X106766374Y-91070611D01*
X106614709Y-90969272D01*
X106485728Y-90840291D01*
X106384389Y-90688626D01*
X106314585Y-90520104D01*
X106279000Y-90341203D01*
X106279000Y-90158797D01*
X106314585Y-89979896D01*
X106384389Y-89811374D01*
X106485728Y-89659709D01*
X106614709Y-89530728D01*
X106766374Y-89429389D01*
X106934896Y-89359585D01*
X107113797Y-89324000D01*
X107296203Y-89324000D01*
X107475104Y-89359585D01*
G37*
G36*
X197725104Y-89359585D02*
G01*
X197893626Y-89429389D01*
X198045291Y-89530728D01*
X198174272Y-89659709D01*
X198275611Y-89811374D01*
X198345415Y-89979896D01*
X198381000Y-90158797D01*
X198381000Y-90341203D01*
X198345415Y-90520104D01*
X198275611Y-90688626D01*
X198174272Y-90840291D01*
X198045291Y-90969272D01*
X197893626Y-91070611D01*
X197725104Y-91140415D01*
X197546203Y-91176000D01*
X197363797Y-91176000D01*
X197184896Y-91140415D01*
X197016374Y-91070611D01*
X196864709Y-90969272D01*
X196735728Y-90840291D01*
X196634389Y-90688626D01*
X196564585Y-90520104D01*
X196529000Y-90341203D01*
X196529000Y-90158797D01*
X196564585Y-89979896D01*
X196634389Y-89811374D01*
X196735728Y-89659709D01*
X196864709Y-89530728D01*
X197016374Y-89429389D01*
X197184896Y-89359585D01*
X197363797Y-89324000D01*
X197546203Y-89324000D01*
X197725104Y-89359585D01*
G37*
G36*
X187565104Y-89359585D02*
G01*
X187733626Y-89429389D01*
X187885291Y-89530728D01*
X188014272Y-89659709D01*
X188115611Y-89811374D01*
X188185415Y-89979896D01*
X188221000Y-90158797D01*
X188221000Y-90341203D01*
X188185415Y-90520104D01*
X188115611Y-90688626D01*
X188014272Y-90840291D01*
X187885291Y-90969272D01*
X187733626Y-91070611D01*
X187565104Y-91140415D01*
X187386203Y-91176000D01*
X187203797Y-91176000D01*
X187024896Y-91140415D01*
X186856374Y-91070611D01*
X186704709Y-90969272D01*
X186575728Y-90840291D01*
X186474389Y-90688626D01*
X186404585Y-90520104D01*
X186369000Y-90341203D01*
X186369000Y-90158797D01*
X186404585Y-89979896D01*
X186474389Y-89811374D01*
X186575728Y-89659709D01*
X186704709Y-89530728D01*
X186856374Y-89429389D01*
X187024896Y-89359585D01*
X187203797Y-89324000D01*
X187386203Y-89324000D01*
X187565104Y-89359585D01*
G37*
G36*
X264225104Y-89359585D02*
G01*
X264393626Y-89429389D01*
X264545291Y-89530728D01*
X264674272Y-89659709D01*
X264775611Y-89811374D01*
X264845415Y-89979896D01*
X264881000Y-90158797D01*
X264881000Y-90341203D01*
X264845415Y-90520104D01*
X264775611Y-90688626D01*
X264674272Y-90840291D01*
X264545291Y-90969272D01*
X264393626Y-91070611D01*
X264225104Y-91140415D01*
X264046203Y-91176000D01*
X263863797Y-91176000D01*
X263684896Y-91140415D01*
X263516374Y-91070611D01*
X263364709Y-90969272D01*
X263235728Y-90840291D01*
X263134389Y-90688626D01*
X263064585Y-90520104D01*
X263029000Y-90341203D01*
X263029000Y-90158797D01*
X263064585Y-89979896D01*
X263134389Y-89811374D01*
X263235728Y-89659709D01*
X263364709Y-89530728D01*
X263516374Y-89429389D01*
X263684896Y-89359585D01*
X263863797Y-89324000D01*
X264046203Y-89324000D01*
X264225104Y-89359585D01*
G37*
G36*
X151965104Y-89359585D02*
G01*
X152133626Y-89429389D01*
X152285291Y-89530728D01*
X152414272Y-89659709D01*
X152515611Y-89811374D01*
X152585415Y-89979896D01*
X152621000Y-90158797D01*
X152621000Y-90341203D01*
X152585415Y-90520104D01*
X152515611Y-90688626D01*
X152414272Y-90840291D01*
X152285291Y-90969272D01*
X152133626Y-91070611D01*
X151965104Y-91140415D01*
X151786203Y-91176000D01*
X151603797Y-91176000D01*
X151424896Y-91140415D01*
X151256374Y-91070611D01*
X151104709Y-90969272D01*
X150975728Y-90840291D01*
X150874389Y-90688626D01*
X150804585Y-90520104D01*
X150769000Y-90341203D01*
X150769000Y-90158797D01*
X150804585Y-89979896D01*
X150874389Y-89811374D01*
X150975728Y-89659709D01*
X151104709Y-89530728D01*
X151256374Y-89429389D01*
X151424896Y-89359585D01*
X151603797Y-89324000D01*
X151786203Y-89324000D01*
X151965104Y-89359585D01*
G37*
G36*
X221475104Y-89359585D02*
G01*
X221643626Y-89429389D01*
X221795291Y-89530728D01*
X221924272Y-89659709D01*
X222025611Y-89811374D01*
X222095415Y-89979896D01*
X222131000Y-90158797D01*
X222131000Y-90341203D01*
X222095415Y-90520104D01*
X222025611Y-90688626D01*
X221924272Y-90840291D01*
X221795291Y-90969272D01*
X221643626Y-91070611D01*
X221475104Y-91140415D01*
X221296203Y-91176000D01*
X221113797Y-91176000D01*
X220934896Y-91140415D01*
X220766374Y-91070611D01*
X220614709Y-90969272D01*
X220485728Y-90840291D01*
X220384389Y-90688626D01*
X220314585Y-90520104D01*
X220279000Y-90341203D01*
X220279000Y-90158797D01*
X220314585Y-89979896D01*
X220384389Y-89811374D01*
X220485728Y-89659709D01*
X220614709Y-89530728D01*
X220766374Y-89429389D01*
X220934896Y-89359585D01*
X221113797Y-89324000D01*
X221296203Y-89324000D01*
X221475104Y-89359585D01*
G37*
G36*
X173975104Y-89359585D02*
G01*
X174143626Y-89429389D01*
X174295291Y-89530728D01*
X174424272Y-89659709D01*
X174525611Y-89811374D01*
X174595415Y-89979896D01*
X174631000Y-90158797D01*
X174631000Y-90341203D01*
X174595415Y-90520104D01*
X174525611Y-90688626D01*
X174424272Y-90840291D01*
X174295291Y-90969272D01*
X174143626Y-91070611D01*
X173975104Y-91140415D01*
X173796203Y-91176000D01*
X173613797Y-91176000D01*
X173434896Y-91140415D01*
X173266374Y-91070611D01*
X173114709Y-90969272D01*
X172985728Y-90840291D01*
X172884389Y-90688626D01*
X172814585Y-90520104D01*
X172779000Y-90341203D01*
X172779000Y-90158797D01*
X172814585Y-89979896D01*
X172884389Y-89811374D01*
X172985728Y-89659709D01*
X173114709Y-89530728D01*
X173266374Y-89429389D01*
X173434896Y-89359585D01*
X173613797Y-89324000D01*
X173796203Y-89324000D01*
X173975104Y-89359585D01*
G37*
G36*
X135975104Y-89359585D02*
G01*
X136143626Y-89429389D01*
X136295291Y-89530728D01*
X136424272Y-89659709D01*
X136525611Y-89811374D01*
X136595415Y-89979896D01*
X136631000Y-90158797D01*
X136631000Y-90341203D01*
X136595415Y-90520104D01*
X136525611Y-90688626D01*
X136424272Y-90840291D01*
X136295291Y-90969272D01*
X136143626Y-91070611D01*
X135975104Y-91140415D01*
X135796203Y-91176000D01*
X135613797Y-91176000D01*
X135434896Y-91140415D01*
X135266374Y-91070611D01*
X135114709Y-90969272D01*
X134985728Y-90840291D01*
X134884389Y-90688626D01*
X134814585Y-90520104D01*
X134779000Y-90341203D01*
X134779000Y-90158797D01*
X134814585Y-89979896D01*
X134884389Y-89811374D01*
X134985728Y-89659709D01*
X135114709Y-89530728D01*
X135266374Y-89429389D01*
X135434896Y-89359585D01*
X135613797Y-89324000D01*
X135796203Y-89324000D01*
X135975104Y-89359585D01*
G37*
G36*
X62350104Y-89359585D02*
G01*
X62518626Y-89429389D01*
X62670291Y-89530728D01*
X62799272Y-89659709D01*
X62900611Y-89811374D01*
X62970415Y-89979896D01*
X63006000Y-90158797D01*
X63006000Y-90341203D01*
X62970415Y-90520104D01*
X62900611Y-90688626D01*
X62799272Y-90840291D01*
X62670291Y-90969272D01*
X62518626Y-91070611D01*
X62350104Y-91140415D01*
X62171203Y-91176000D01*
X61988797Y-91176000D01*
X61809896Y-91140415D01*
X61641374Y-91070611D01*
X61489709Y-90969272D01*
X61360728Y-90840291D01*
X61259389Y-90688626D01*
X61189585Y-90520104D01*
X61154000Y-90341203D01*
X61154000Y-90158797D01*
X61189585Y-89979896D01*
X61259389Y-89811374D01*
X61360728Y-89659709D01*
X61489709Y-89530728D01*
X61641374Y-89429389D01*
X61809896Y-89359585D01*
X61988797Y-89324000D01*
X62171203Y-89324000D01*
X62350104Y-89359585D01*
G37*
G36*
X52190104Y-89359585D02*
G01*
X52358626Y-89429389D01*
X52510291Y-89530728D01*
X52639272Y-89659709D01*
X52740611Y-89811374D01*
X52810415Y-89979896D01*
X52846000Y-90158797D01*
X52846000Y-90341203D01*
X52810415Y-90520104D01*
X52740611Y-90688626D01*
X52639272Y-90840291D01*
X52510291Y-90969272D01*
X52358626Y-91070611D01*
X52190104Y-91140415D01*
X52011203Y-91176000D01*
X51828797Y-91176000D01*
X51649896Y-91140415D01*
X51481374Y-91070611D01*
X51329709Y-90969272D01*
X51200728Y-90840291D01*
X51099389Y-90688626D01*
X51029585Y-90520104D01*
X50994000Y-90341203D01*
X50994000Y-90158797D01*
X51029585Y-89979896D01*
X51099389Y-89811374D01*
X51200728Y-89659709D01*
X51329709Y-89530728D01*
X51481374Y-89429389D01*
X51649896Y-89359585D01*
X51828797Y-89324000D01*
X52011203Y-89324000D01*
X52190104Y-89359585D01*
G37*
G36*
X116315104Y-89359585D02*
G01*
X116483626Y-89429389D01*
X116635291Y-89530728D01*
X116764272Y-89659709D01*
X116865611Y-89811374D01*
X116935415Y-89979896D01*
X116971000Y-90158797D01*
X116971000Y-90341203D01*
X116935415Y-90520104D01*
X116865611Y-90688626D01*
X116764272Y-90840291D01*
X116635291Y-90969272D01*
X116483626Y-91070611D01*
X116315104Y-91140415D01*
X116136203Y-91176000D01*
X115953797Y-91176000D01*
X115774896Y-91140415D01*
X115606374Y-91070611D01*
X115454709Y-90969272D01*
X115325728Y-90840291D01*
X115224389Y-90688626D01*
X115154585Y-90520104D01*
X115119000Y-90341203D01*
X115119000Y-90158797D01*
X115154585Y-89979896D01*
X115224389Y-89811374D01*
X115325728Y-89659709D01*
X115454709Y-89530728D01*
X115606374Y-89429389D01*
X115774896Y-89359585D01*
X115953797Y-89324000D01*
X116136203Y-89324000D01*
X116315104Y-89359585D01*
G37*
G36*
X251690104Y-89359585D02*
G01*
X251858626Y-89429389D01*
X252010291Y-89530728D01*
X252139272Y-89659709D01*
X252240611Y-89811374D01*
X252310415Y-89979896D01*
X252346000Y-90158797D01*
X252346000Y-90341203D01*
X252310415Y-90520104D01*
X252240611Y-90688626D01*
X252139272Y-90840291D01*
X252010291Y-90969272D01*
X251858626Y-91070611D01*
X251690104Y-91140415D01*
X251511203Y-91176000D01*
X251328797Y-91176000D01*
X251149896Y-91140415D01*
X250981374Y-91070611D01*
X250829709Y-90969272D01*
X250700728Y-90840291D01*
X250599389Y-90688626D01*
X250529585Y-90520104D01*
X250494000Y-90341203D01*
X250494000Y-90158797D01*
X250529585Y-89979896D01*
X250599389Y-89811374D01*
X250700728Y-89659709D01*
X250829709Y-89530728D01*
X250981374Y-89429389D01*
X251149896Y-89359585D01*
X251328797Y-89324000D01*
X251511203Y-89324000D01*
X251690104Y-89359585D01*
G37*
G36*
X232690104Y-89359585D02*
G01*
X232858626Y-89429389D01*
X233010291Y-89530728D01*
X233139272Y-89659709D01*
X233240611Y-89811374D01*
X233310415Y-89979896D01*
X233346000Y-90158797D01*
X233346000Y-90341203D01*
X233310415Y-90520104D01*
X233240611Y-90688626D01*
X233139272Y-90840291D01*
X233010291Y-90969272D01*
X232858626Y-91070611D01*
X232690104Y-91140415D01*
X232511203Y-91176000D01*
X232328797Y-91176000D01*
X232149896Y-91140415D01*
X231981374Y-91070611D01*
X231829709Y-90969272D01*
X231700728Y-90840291D01*
X231599389Y-90688626D01*
X231529585Y-90520104D01*
X231494000Y-90341203D01*
X231494000Y-90158797D01*
X231529585Y-89979896D01*
X231599389Y-89811374D01*
X231700728Y-89659709D01*
X231829709Y-89530728D01*
X231981374Y-89429389D01*
X232149896Y-89359585D01*
X232328797Y-89324000D01*
X232511203Y-89324000D01*
X232690104Y-89359585D01*
G37*
G36*
X242850104Y-89359585D02*
G01*
X243018626Y-89429389D01*
X243170291Y-89530728D01*
X243299272Y-89659709D01*
X243400611Y-89811374D01*
X243470415Y-89979896D01*
X243506000Y-90158797D01*
X243506000Y-90341203D01*
X243470415Y-90520104D01*
X243400611Y-90688626D01*
X243299272Y-90840291D01*
X243170291Y-90969272D01*
X243018626Y-91070611D01*
X242850104Y-91140415D01*
X242671203Y-91176000D01*
X242488797Y-91176000D01*
X242309896Y-91140415D01*
X242141374Y-91070611D01*
X241989709Y-90969272D01*
X241860728Y-90840291D01*
X241759389Y-90688626D01*
X241689585Y-90520104D01*
X241654000Y-90341203D01*
X241654000Y-90158797D01*
X241689585Y-89979896D01*
X241759389Y-89811374D01*
X241860728Y-89659709D01*
X241989709Y-89530728D01*
X242141374Y-89429389D01*
X242309896Y-89359585D01*
X242488797Y-89324000D01*
X242671203Y-89324000D01*
X242850104Y-89359585D01*
G37*
G36*
X204190104Y-89359585D02*
G01*
X204358626Y-89429389D01*
X204510291Y-89530728D01*
X204639272Y-89659709D01*
X204740611Y-89811374D01*
X204810415Y-89979896D01*
X204846000Y-90158797D01*
X204846000Y-90341203D01*
X204810415Y-90520104D01*
X204740611Y-90688626D01*
X204639272Y-90840291D01*
X204510291Y-90969272D01*
X204358626Y-91070611D01*
X204190104Y-91140415D01*
X204011203Y-91176000D01*
X203828797Y-91176000D01*
X203649896Y-91140415D01*
X203481374Y-91070611D01*
X203329709Y-90969272D01*
X203200728Y-90840291D01*
X203099389Y-90688626D01*
X203029585Y-90520104D01*
X202994000Y-90341203D01*
X202994000Y-90158797D01*
X203029585Y-89979896D01*
X203099389Y-89811374D01*
X203200728Y-89659709D01*
X203329709Y-89530728D01*
X203481374Y-89429389D01*
X203649896Y-89359585D01*
X203828797Y-89324000D01*
X204011203Y-89324000D01*
X204190104Y-89359585D01*
G37*
G36*
X90850104Y-89359585D02*
G01*
X91018626Y-89429389D01*
X91170291Y-89530728D01*
X91299272Y-89659709D01*
X91400611Y-89811374D01*
X91470415Y-89979896D01*
X91506000Y-90158797D01*
X91506000Y-90341203D01*
X91470415Y-90520104D01*
X91400611Y-90688626D01*
X91299272Y-90840291D01*
X91170291Y-90969272D01*
X91018626Y-91070611D01*
X90850104Y-91140415D01*
X90671203Y-91176000D01*
X90488797Y-91176000D01*
X90309896Y-91140415D01*
X90141374Y-91070611D01*
X89989709Y-90969272D01*
X89860728Y-90840291D01*
X89759389Y-90688626D01*
X89689585Y-90520104D01*
X89654000Y-90341203D01*
X89654000Y-90158797D01*
X89689585Y-89979896D01*
X89759389Y-89811374D01*
X89860728Y-89659709D01*
X89989709Y-89530728D01*
X90141374Y-89429389D01*
X90309896Y-89359585D01*
X90488797Y-89324000D01*
X90671203Y-89324000D01*
X90850104Y-89359585D01*
G37*
G36*
X43350104Y-89359585D02*
G01*
X43518626Y-89429389D01*
X43670291Y-89530728D01*
X43799272Y-89659709D01*
X43900611Y-89811374D01*
X43970415Y-89979896D01*
X44006000Y-90158797D01*
X44006000Y-90341203D01*
X43970415Y-90520104D01*
X43900611Y-90688626D01*
X43799272Y-90840291D01*
X43670291Y-90969272D01*
X43518626Y-91070611D01*
X43350104Y-91140415D01*
X43171203Y-91176000D01*
X42988797Y-91176000D01*
X42809896Y-91140415D01*
X42641374Y-91070611D01*
X42489709Y-90969272D01*
X42360728Y-90840291D01*
X42259389Y-90688626D01*
X42189585Y-90520104D01*
X42154000Y-90341203D01*
X42154000Y-90158797D01*
X42189585Y-89979896D01*
X42259389Y-89811374D01*
X42360728Y-89659709D01*
X42489709Y-89530728D01*
X42641374Y-89429389D01*
X42809896Y-89359585D01*
X42988797Y-89324000D01*
X43171203Y-89324000D01*
X43350104Y-89359585D01*
G37*
G36*
X109815224Y-80028684D02*
G01*
X110033224Y-80118983D01*
X110187373Y-80182833D01*
X110522298Y-80406623D01*
X110807127Y-80691452D01*
X111030917Y-81026377D01*
X111083624Y-81153624D01*
X111185066Y-81398526D01*
X111263650Y-81793594D01*
X111263650Y-82196406D01*
X111185066Y-82591474D01*
X111094767Y-82809474D01*
X111030917Y-82963623D01*
X110807127Y-83298548D01*
X110522298Y-83583377D01*
X110187373Y-83807167D01*
X110033224Y-83871017D01*
X109815224Y-83961316D01*
X109420156Y-84039900D01*
X109017344Y-84039900D01*
X108622276Y-83961316D01*
X108404276Y-83871017D01*
X108250127Y-83807167D01*
X107915202Y-83583377D01*
X107630373Y-83298548D01*
X107406583Y-82963623D01*
X107342733Y-82809474D01*
X107252434Y-82591474D01*
X107173850Y-82196406D01*
X107173850Y-81793594D01*
X107252434Y-81398526D01*
X107353876Y-81153624D01*
X107406583Y-81026377D01*
X107630373Y-80691452D01*
X107915202Y-80406623D01*
X108250127Y-80182833D01*
X108404276Y-80118983D01*
X108622276Y-80028684D01*
X109017344Y-79950100D01*
X109420156Y-79950100D01*
X109815224Y-80028684D01*
G37*
G36*
X133627724Y-80028684D02*
G01*
X133845724Y-80118983D01*
X133999873Y-80182833D01*
X134334798Y-80406623D01*
X134619627Y-80691452D01*
X134843417Y-81026377D01*
X134896124Y-81153624D01*
X134997566Y-81398526D01*
X135076150Y-81793594D01*
X135076150Y-82196406D01*
X134997566Y-82591474D01*
X134907267Y-82809474D01*
X134843417Y-82963623D01*
X134619627Y-83298548D01*
X134334798Y-83583377D01*
X133999873Y-83807167D01*
X133845724Y-83871017D01*
X133627724Y-83961316D01*
X133232656Y-84039900D01*
X132829844Y-84039900D01*
X132434776Y-83961316D01*
X132216776Y-83871017D01*
X132062627Y-83807167D01*
X131727702Y-83583377D01*
X131442873Y-83298548D01*
X131219083Y-82963623D01*
X131155233Y-82809474D01*
X131064934Y-82591474D01*
X130986350Y-82196406D01*
X130986350Y-81793594D01*
X131064934Y-81398526D01*
X131166376Y-81153624D01*
X131219083Y-81026377D01*
X131442873Y-80691452D01*
X131727702Y-80406623D01*
X132062627Y-80182833D01*
X132216776Y-80118983D01*
X132434776Y-80028684D01*
X132829844Y-79950100D01*
X133232656Y-79950100D01*
X133627724Y-80028684D01*
G37*
G36*
X181127724Y-80028684D02*
G01*
X181345724Y-80118983D01*
X181499873Y-80182833D01*
X181834798Y-80406623D01*
X182119627Y-80691452D01*
X182343417Y-81026377D01*
X182396124Y-81153624D01*
X182497566Y-81398526D01*
X182576150Y-81793594D01*
X182576150Y-82196406D01*
X182497566Y-82591474D01*
X182407267Y-82809474D01*
X182343417Y-82963623D01*
X182119627Y-83298548D01*
X181834798Y-83583377D01*
X181499873Y-83807167D01*
X181345724Y-83871017D01*
X181127724Y-83961316D01*
X180732656Y-84039900D01*
X180329844Y-84039900D01*
X179934776Y-83961316D01*
X179716776Y-83871017D01*
X179562627Y-83807167D01*
X179227702Y-83583377D01*
X178942873Y-83298548D01*
X178719083Y-82963623D01*
X178655233Y-82809474D01*
X178564934Y-82591474D01*
X178486350Y-82196406D01*
X178486350Y-81793594D01*
X178564934Y-81398526D01*
X178666376Y-81153624D01*
X178719083Y-81026377D01*
X178942873Y-80691452D01*
X179227702Y-80406623D01*
X179562627Y-80182833D01*
X179716776Y-80118983D01*
X179934776Y-80028684D01*
X180329844Y-79950100D01*
X180732656Y-79950100D01*
X181127724Y-80028684D01*
G37*
G36*
X157315224Y-80028684D02*
G01*
X157533224Y-80118983D01*
X157687373Y-80182833D01*
X158022298Y-80406623D01*
X158307127Y-80691452D01*
X158530917Y-81026377D01*
X158583624Y-81153624D01*
X158685066Y-81398526D01*
X158763650Y-81793594D01*
X158763650Y-82196406D01*
X158685066Y-82591474D01*
X158594767Y-82809474D01*
X158530917Y-82963623D01*
X158307127Y-83298548D01*
X158022298Y-83583377D01*
X157687373Y-83807167D01*
X157533224Y-83871017D01*
X157315224Y-83961316D01*
X156920156Y-84039900D01*
X156517344Y-84039900D01*
X156122276Y-83961316D01*
X155904276Y-83871017D01*
X155750127Y-83807167D01*
X155415202Y-83583377D01*
X155130373Y-83298548D01*
X154906583Y-82963623D01*
X154842733Y-82809474D01*
X154752434Y-82591474D01*
X154673850Y-82196406D01*
X154673850Y-81793594D01*
X154752434Y-81398526D01*
X154853876Y-81153624D01*
X154906583Y-81026377D01*
X155130373Y-80691452D01*
X155415202Y-80406623D01*
X155750127Y-80182833D01*
X155904276Y-80118983D01*
X156122276Y-80028684D01*
X156517344Y-79950100D01*
X156920156Y-79950100D01*
X157315224Y-80028684D01*
G37*
G36*
X195471474Y-80028684D02*
G01*
X195689474Y-80118983D01*
X195843623Y-80182833D01*
X196178548Y-80406623D01*
X196463377Y-80691452D01*
X196687167Y-81026377D01*
X196739874Y-81153624D01*
X196841316Y-81398526D01*
X196919900Y-81793594D01*
X196919900Y-82196406D01*
X196841316Y-82591474D01*
X196751017Y-82809474D01*
X196687167Y-82963623D01*
X196463377Y-83298548D01*
X196178548Y-83583377D01*
X195843623Y-83807167D01*
X195689474Y-83871017D01*
X195471474Y-83961316D01*
X195076406Y-84039900D01*
X194673594Y-84039900D01*
X194278526Y-83961316D01*
X194060526Y-83871017D01*
X193906377Y-83807167D01*
X193571452Y-83583377D01*
X193286623Y-83298548D01*
X193062833Y-82963623D01*
X192998983Y-82809474D01*
X192908684Y-82591474D01*
X192830100Y-82196406D01*
X192830100Y-81793594D01*
X192908684Y-81398526D01*
X193010126Y-81153624D01*
X193062833Y-81026377D01*
X193286623Y-80691452D01*
X193571452Y-80406623D01*
X193906377Y-80182833D01*
X194060526Y-80118983D01*
X194278526Y-80028684D01*
X194673594Y-79950100D01*
X195076406Y-79950100D01*
X195471474Y-80028684D01*
G37*
G36*
X100221474Y-80028684D02*
G01*
X100439474Y-80118983D01*
X100593623Y-80182833D01*
X100928548Y-80406623D01*
X101213377Y-80691452D01*
X101437167Y-81026377D01*
X101489874Y-81153624D01*
X101591316Y-81398526D01*
X101669900Y-81793594D01*
X101669900Y-82196406D01*
X101591316Y-82591474D01*
X101501017Y-82809474D01*
X101437167Y-82963623D01*
X101213377Y-83298548D01*
X100928548Y-83583377D01*
X100593623Y-83807167D01*
X100439474Y-83871017D01*
X100221474Y-83961316D01*
X99826406Y-84039900D01*
X99423594Y-84039900D01*
X99028526Y-83961316D01*
X98810526Y-83871017D01*
X98656377Y-83807167D01*
X98321452Y-83583377D01*
X98036623Y-83298548D01*
X97812833Y-82963623D01*
X97748983Y-82809474D01*
X97658684Y-82591474D01*
X97580100Y-82196406D01*
X97580100Y-81793594D01*
X97658684Y-81398526D01*
X97760126Y-81153624D01*
X97812833Y-81026377D01*
X98036623Y-80691452D01*
X98321452Y-80406623D01*
X98656377Y-80182833D01*
X98810526Y-80118983D01*
X99028526Y-80028684D01*
X99423594Y-79950100D01*
X99826406Y-79950100D01*
X100221474Y-80028684D01*
G37*
G36*
X247275880Y-78509776D02*
G01*
X247656593Y-78585504D01*
X248066249Y-78755189D01*
X248434929Y-79001534D01*
X248748466Y-79315071D01*
X248994811Y-79683751D01*
X249164496Y-80093407D01*
X249251000Y-80528296D01*
X249251000Y-80971704D01*
X249164496Y-81406593D01*
X248994811Y-81816249D01*
X248748466Y-82184929D01*
X248434929Y-82498466D01*
X248066249Y-82744811D01*
X247656593Y-82914496D01*
X247275880Y-82990224D01*
X247221705Y-83001000D01*
X246778295Y-83001000D01*
X246724120Y-82990224D01*
X246343407Y-82914496D01*
X245933751Y-82744811D01*
X245565071Y-82498466D01*
X245251534Y-82184929D01*
X245005189Y-81816249D01*
X244835504Y-81406593D01*
X244749000Y-80971704D01*
X244749000Y-80528296D01*
X244835504Y-80093407D01*
X245005189Y-79683751D01*
X245251534Y-79315071D01*
X245565071Y-79001534D01*
X245933751Y-78755189D01*
X246343407Y-78585504D01*
X246724120Y-78509776D01*
X246778295Y-78499000D01*
X247221705Y-78499000D01*
X247275880Y-78509776D01*
G37*
G36*
X47775880Y-78509776D02*
G01*
X48156593Y-78585504D01*
X48566249Y-78755189D01*
X48934929Y-79001534D01*
X49248466Y-79315071D01*
X49494811Y-79683751D01*
X49664496Y-80093407D01*
X49751000Y-80528296D01*
X49751000Y-80971704D01*
X49664496Y-81406593D01*
X49494811Y-81816249D01*
X49248466Y-82184929D01*
X48934929Y-82498466D01*
X48566249Y-82744811D01*
X48156593Y-82914496D01*
X47775880Y-82990224D01*
X47721705Y-83001000D01*
X47278295Y-83001000D01*
X47224120Y-82990224D01*
X46843407Y-82914496D01*
X46433751Y-82744811D01*
X46065071Y-82498466D01*
X45751534Y-82184929D01*
X45505189Y-81816249D01*
X45335504Y-81406593D01*
X45249000Y-80971704D01*
X45249000Y-80528296D01*
X45335504Y-80093407D01*
X45505189Y-79683751D01*
X45751534Y-79315071D01*
X46065071Y-79001534D01*
X46433751Y-78755189D01*
X46843407Y-78585504D01*
X47224120Y-78509776D01*
X47278295Y-78499000D01*
X47721705Y-78499000D01*
X47775880Y-78509776D01*
G37*
G36*
X172263512Y-81123927D02*
G01*
X172412812Y-81153624D01*
X172576784Y-81221544D01*
X172724354Y-81320147D01*
X172849853Y-81445646D01*
X172948456Y-81593216D01*
X173016376Y-81757188D01*
X173051000Y-81931259D01*
X173051000Y-82108741D01*
X173016376Y-82282812D01*
X172948456Y-82446784D01*
X172849853Y-82594354D01*
X172724354Y-82719853D01*
X172576784Y-82818456D01*
X172412812Y-82886376D01*
X172263512Y-82916073D01*
X172238742Y-82921000D01*
X172061258Y-82921000D01*
X172036488Y-82916073D01*
X171887188Y-82886376D01*
X171723216Y-82818456D01*
X171575646Y-82719853D01*
X171450147Y-82594354D01*
X171351544Y-82446784D01*
X171283624Y-82282812D01*
X171249000Y-82108741D01*
X171249000Y-81931259D01*
X171283624Y-81757188D01*
X171351544Y-81593216D01*
X171450147Y-81445646D01*
X171575646Y-81320147D01*
X171723216Y-81221544D01*
X171887188Y-81153624D01*
X172036488Y-81123927D01*
X172061258Y-81119000D01*
X172238742Y-81119000D01*
X172263512Y-81123927D01*
G37*
G36*
X169723512Y-81123927D02*
G01*
X169872812Y-81153624D01*
X170036784Y-81221544D01*
X170184354Y-81320147D01*
X170309853Y-81445646D01*
X170408456Y-81593216D01*
X170476376Y-81757188D01*
X170511000Y-81931259D01*
X170511000Y-82108741D01*
X170476376Y-82282812D01*
X170408456Y-82446784D01*
X170309853Y-82594354D01*
X170184354Y-82719853D01*
X170036784Y-82818456D01*
X169872812Y-82886376D01*
X169723512Y-82916073D01*
X169698742Y-82921000D01*
X169521258Y-82921000D01*
X169496488Y-82916073D01*
X169347188Y-82886376D01*
X169183216Y-82818456D01*
X169035646Y-82719853D01*
X168910147Y-82594354D01*
X168811544Y-82446784D01*
X168743624Y-82282812D01*
X168709000Y-82108741D01*
X168709000Y-81931259D01*
X168743624Y-81757188D01*
X168811544Y-81593216D01*
X168910147Y-81445646D01*
X169035646Y-81320147D01*
X169183216Y-81221544D01*
X169347188Y-81153624D01*
X169496488Y-81123927D01*
X169521258Y-81119000D01*
X169698742Y-81119000D01*
X169723512Y-81123927D01*
G37*
G36*
X175591000Y-82921000D02*
G01*
X173789000Y-82921000D01*
X173789000Y-81119000D01*
X175591000Y-81119000D01*
X175591000Y-82921000D01*
G37*
G36*
X174803512Y-78583927D02*
G01*
X174952812Y-78613624D01*
X175116784Y-78681544D01*
X175264354Y-78780147D01*
X175389853Y-78905646D01*
X175488456Y-79053216D01*
X175556376Y-79217188D01*
X175591000Y-79391259D01*
X175591000Y-79568741D01*
X175556376Y-79742812D01*
X175488456Y-79906784D01*
X175389853Y-80054354D01*
X175264354Y-80179853D01*
X175116784Y-80278456D01*
X174952812Y-80346376D01*
X174803512Y-80376073D01*
X174778742Y-80381000D01*
X174601258Y-80381000D01*
X174576488Y-80376073D01*
X174427188Y-80346376D01*
X174263216Y-80278456D01*
X174115646Y-80179853D01*
X173990147Y-80054354D01*
X173891544Y-79906784D01*
X173823624Y-79742812D01*
X173789000Y-79568741D01*
X173789000Y-79391259D01*
X173823624Y-79217188D01*
X173891544Y-79053216D01*
X173990147Y-78905646D01*
X174115646Y-78780147D01*
X174263216Y-78681544D01*
X174427188Y-78613624D01*
X174576488Y-78583927D01*
X174601258Y-78579000D01*
X174778742Y-78579000D01*
X174803512Y-78583927D01*
G37*
G36*
X169723512Y-78583927D02*
G01*
X169872812Y-78613624D01*
X170036784Y-78681544D01*
X170184354Y-78780147D01*
X170309853Y-78905646D01*
X170408456Y-79053216D01*
X170476376Y-79217188D01*
X170511000Y-79391259D01*
X170511000Y-79568741D01*
X170476376Y-79742812D01*
X170408456Y-79906784D01*
X170309853Y-80054354D01*
X170184354Y-80179853D01*
X170036784Y-80278456D01*
X169872812Y-80346376D01*
X169723512Y-80376073D01*
X169698742Y-80381000D01*
X169521258Y-80381000D01*
X169496488Y-80376073D01*
X169347188Y-80346376D01*
X169183216Y-80278456D01*
X169035646Y-80179853D01*
X168910147Y-80054354D01*
X168811544Y-79906784D01*
X168743624Y-79742812D01*
X168709000Y-79568741D01*
X168709000Y-79391259D01*
X168743624Y-79217188D01*
X168811544Y-79053216D01*
X168910147Y-78905646D01*
X169035646Y-78780147D01*
X169183216Y-78681544D01*
X169347188Y-78613624D01*
X169496488Y-78583927D01*
X169521258Y-78579000D01*
X169698742Y-78579000D01*
X169723512Y-78583927D01*
G37*
G36*
X172263512Y-78583927D02*
G01*
X172412812Y-78613624D01*
X172576784Y-78681544D01*
X172724354Y-78780147D01*
X172849853Y-78905646D01*
X172948456Y-79053216D01*
X173016376Y-79217188D01*
X173051000Y-79391259D01*
X173051000Y-79568741D01*
X173016376Y-79742812D01*
X172948456Y-79906784D01*
X172849853Y-80054354D01*
X172724354Y-80179853D01*
X172576784Y-80278456D01*
X172412812Y-80346376D01*
X172263512Y-80376073D01*
X172238742Y-80381000D01*
X172061258Y-80381000D01*
X172036488Y-80376073D01*
X171887188Y-80346376D01*
X171723216Y-80278456D01*
X171575646Y-80179853D01*
X171450147Y-80054354D01*
X171351544Y-79906784D01*
X171283624Y-79742812D01*
X171249000Y-79568741D01*
X171249000Y-79391259D01*
X171283624Y-79217188D01*
X171351544Y-79053216D01*
X171450147Y-78905646D01*
X171575646Y-78780147D01*
X171723216Y-78681544D01*
X171887188Y-78613624D01*
X172036488Y-78583927D01*
X172061258Y-78579000D01*
X172238742Y-78579000D01*
X172263512Y-78583927D01*
G37*
G36*
X238096474Y-69283684D02*
G01*
X238314474Y-69373983D01*
X238468623Y-69437833D01*
X238803548Y-69661623D01*
X239088377Y-69946452D01*
X239312167Y-70281377D01*
X239344562Y-70359586D01*
X239466316Y-70653526D01*
X239544900Y-71048594D01*
X239544900Y-71451406D01*
X239466316Y-71846474D01*
X239415451Y-71969272D01*
X239312167Y-72218623D01*
X239088377Y-72553548D01*
X238803548Y-72838377D01*
X238468623Y-73062167D01*
X238314474Y-73126017D01*
X238096474Y-73216316D01*
X237701406Y-73294900D01*
X237298594Y-73294900D01*
X236903526Y-73216316D01*
X236685526Y-73126017D01*
X236531377Y-73062167D01*
X236196452Y-72838377D01*
X235911623Y-72553548D01*
X235687833Y-72218623D01*
X235584549Y-71969272D01*
X235533684Y-71846474D01*
X235455100Y-71451406D01*
X235455100Y-71048594D01*
X235533684Y-70653526D01*
X235655438Y-70359586D01*
X235687833Y-70281377D01*
X235911623Y-69946452D01*
X236196452Y-69661623D01*
X236531377Y-69437833D01*
X236685526Y-69373983D01*
X236903526Y-69283684D01*
X237298594Y-69205100D01*
X237701406Y-69205100D01*
X238096474Y-69283684D01*
G37*
G36*
X86096474Y-69283684D02*
G01*
X86314474Y-69373983D01*
X86468623Y-69437833D01*
X86803548Y-69661623D01*
X87088377Y-69946452D01*
X87312167Y-70281377D01*
X87344562Y-70359586D01*
X87466316Y-70653526D01*
X87544900Y-71048594D01*
X87544900Y-71451406D01*
X87466316Y-71846474D01*
X87415451Y-71969272D01*
X87312167Y-72218623D01*
X87088377Y-72553548D01*
X86803548Y-72838377D01*
X86468623Y-73062167D01*
X86314474Y-73126017D01*
X86096474Y-73216316D01*
X85701406Y-73294900D01*
X85298594Y-73294900D01*
X84903526Y-73216316D01*
X84685526Y-73126017D01*
X84531377Y-73062167D01*
X84196452Y-72838377D01*
X83911623Y-72553548D01*
X83687833Y-72218623D01*
X83584549Y-71969272D01*
X83533684Y-71846474D01*
X83455100Y-71451406D01*
X83455100Y-71048594D01*
X83533684Y-70653526D01*
X83655438Y-70359586D01*
X83687833Y-70281377D01*
X83911623Y-69946452D01*
X84196452Y-69661623D01*
X84531377Y-69437833D01*
X84685526Y-69373983D01*
X84903526Y-69283684D01*
X85298594Y-69205100D01*
X85701406Y-69205100D01*
X86096474Y-69283684D01*
G37*
G36*
X40971474Y-69283684D02*
G01*
X41189474Y-69373983D01*
X41343623Y-69437833D01*
X41678548Y-69661623D01*
X41963377Y-69946452D01*
X42187167Y-70281377D01*
X42219562Y-70359586D01*
X42341316Y-70653526D01*
X42419900Y-71048594D01*
X42419900Y-71451406D01*
X42341316Y-71846474D01*
X42290451Y-71969272D01*
X42187167Y-72218623D01*
X41963377Y-72553548D01*
X41678548Y-72838377D01*
X41343623Y-73062167D01*
X41189474Y-73126017D01*
X40971474Y-73216316D01*
X40576406Y-73294900D01*
X40173594Y-73294900D01*
X39778526Y-73216316D01*
X39560526Y-73126017D01*
X39406377Y-73062167D01*
X39071452Y-72838377D01*
X38786623Y-72553548D01*
X38562833Y-72218623D01*
X38459549Y-71969272D01*
X38408684Y-71846474D01*
X38330100Y-71451406D01*
X38330100Y-71048594D01*
X38408684Y-70653526D01*
X38530438Y-70359586D01*
X38562833Y-70281377D01*
X38786623Y-69946452D01*
X39071452Y-69661623D01*
X39406377Y-69437833D01*
X39560526Y-69373983D01*
X39778526Y-69283684D01*
X40173594Y-69205100D01*
X40576406Y-69205100D01*
X40971474Y-69283684D01*
G37*
G36*
X259471474Y-69283684D02*
G01*
X259689474Y-69373983D01*
X259843623Y-69437833D01*
X260178548Y-69661623D01*
X260463377Y-69946452D01*
X260687167Y-70281377D01*
X260719562Y-70359586D01*
X260841316Y-70653526D01*
X260919900Y-71048594D01*
X260919900Y-71451406D01*
X260841316Y-71846474D01*
X260790451Y-71969272D01*
X260687167Y-72218623D01*
X260463377Y-72553548D01*
X260178548Y-72838377D01*
X259843623Y-73062167D01*
X259689474Y-73126017D01*
X259471474Y-73216316D01*
X259076406Y-73294900D01*
X258673594Y-73294900D01*
X258278526Y-73216316D01*
X258060526Y-73126017D01*
X257906377Y-73062167D01*
X257571452Y-72838377D01*
X257286623Y-72553548D01*
X257062833Y-72218623D01*
X256959549Y-71969272D01*
X256908684Y-71846474D01*
X256830100Y-71451406D01*
X256830100Y-71048594D01*
X256908684Y-70653526D01*
X257030438Y-70359586D01*
X257062833Y-70281377D01*
X257286623Y-69946452D01*
X257571452Y-69661623D01*
X257906377Y-69437833D01*
X258060526Y-69373983D01*
X258278526Y-69283684D01*
X258673594Y-69205100D01*
X259076406Y-69205100D01*
X259471474Y-69283684D01*
G37*
G36*
X219096474Y-69283684D02*
G01*
X219314474Y-69373983D01*
X219468623Y-69437833D01*
X219803548Y-69661623D01*
X220088377Y-69946452D01*
X220312167Y-70281377D01*
X220344562Y-70359586D01*
X220466316Y-70653526D01*
X220544900Y-71048594D01*
X220544900Y-71451406D01*
X220466316Y-71846474D01*
X220415451Y-71969272D01*
X220312167Y-72218623D01*
X220088377Y-72553548D01*
X219803548Y-72838377D01*
X219468623Y-73062167D01*
X219314474Y-73126017D01*
X219096474Y-73216316D01*
X218701406Y-73294900D01*
X218298594Y-73294900D01*
X217903526Y-73216316D01*
X217685526Y-73126017D01*
X217531377Y-73062167D01*
X217196452Y-72838377D01*
X216911623Y-72553548D01*
X216687833Y-72218623D01*
X216584549Y-71969272D01*
X216533684Y-71846474D01*
X216455100Y-71451406D01*
X216455100Y-71048594D01*
X216533684Y-70653526D01*
X216655438Y-70359586D01*
X216687833Y-70281377D01*
X216911623Y-69946452D01*
X217196452Y-69661623D01*
X217531377Y-69437833D01*
X217685526Y-69373983D01*
X217903526Y-69283684D01*
X218298594Y-69205100D01*
X218701406Y-69205100D01*
X219096474Y-69283684D01*
G37*
G36*
X200096474Y-69283684D02*
G01*
X200314474Y-69373983D01*
X200468623Y-69437833D01*
X200803548Y-69661623D01*
X201088377Y-69946452D01*
X201312167Y-70281377D01*
X201344562Y-70359586D01*
X201466316Y-70653526D01*
X201544900Y-71048594D01*
X201544900Y-71451406D01*
X201466316Y-71846474D01*
X201415451Y-71969272D01*
X201312167Y-72218623D01*
X201088377Y-72553548D01*
X200803548Y-72838377D01*
X200468623Y-73062167D01*
X200314474Y-73126017D01*
X200096474Y-73216316D01*
X199701406Y-73294900D01*
X199298594Y-73294900D01*
X198903526Y-73216316D01*
X198685526Y-73126017D01*
X198531377Y-73062167D01*
X198196452Y-72838377D01*
X197911623Y-72553548D01*
X197687833Y-72218623D01*
X197584549Y-71969272D01*
X197533684Y-71846474D01*
X197455100Y-71451406D01*
X197455100Y-71048594D01*
X197533684Y-70653526D01*
X197655438Y-70359586D01*
X197687833Y-70281377D01*
X197911623Y-69946452D01*
X198196452Y-69661623D01*
X198531377Y-69437833D01*
X198685526Y-69373983D01*
X198903526Y-69283684D01*
X199298594Y-69205100D01*
X199701406Y-69205100D01*
X200096474Y-69283684D01*
G37*
G36*
X162096474Y-69283684D02*
G01*
X162314474Y-69373983D01*
X162468623Y-69437833D01*
X162803548Y-69661623D01*
X163088377Y-69946452D01*
X163312167Y-70281377D01*
X163344562Y-70359586D01*
X163466316Y-70653526D01*
X163544900Y-71048594D01*
X163544900Y-71451406D01*
X163466316Y-71846474D01*
X163415451Y-71969272D01*
X163312167Y-72218623D01*
X163088377Y-72553548D01*
X162803548Y-72838377D01*
X162468623Y-73062167D01*
X162314474Y-73126017D01*
X162096474Y-73216316D01*
X161701406Y-73294900D01*
X161298594Y-73294900D01*
X160903526Y-73216316D01*
X160685526Y-73126017D01*
X160531377Y-73062167D01*
X160196452Y-72838377D01*
X159911623Y-72553548D01*
X159687833Y-72218623D01*
X159584549Y-71969272D01*
X159533684Y-71846474D01*
X159455100Y-71451406D01*
X159455100Y-71048594D01*
X159533684Y-70653526D01*
X159655438Y-70359586D01*
X159687833Y-70281377D01*
X159911623Y-69946452D01*
X160196452Y-69661623D01*
X160531377Y-69437833D01*
X160685526Y-69373983D01*
X160903526Y-69283684D01*
X161298594Y-69205100D01*
X161701406Y-69205100D01*
X162096474Y-69283684D01*
G37*
G36*
X143096474Y-69283684D02*
G01*
X143314474Y-69373983D01*
X143468623Y-69437833D01*
X143803548Y-69661623D01*
X144088377Y-69946452D01*
X144312167Y-70281377D01*
X144344562Y-70359586D01*
X144466316Y-70653526D01*
X144544900Y-71048594D01*
X144544900Y-71451406D01*
X144466316Y-71846474D01*
X144415451Y-71969272D01*
X144312167Y-72218623D01*
X144088377Y-72553548D01*
X143803548Y-72838377D01*
X143468623Y-73062167D01*
X143314474Y-73126017D01*
X143096474Y-73216316D01*
X142701406Y-73294900D01*
X142298594Y-73294900D01*
X141903526Y-73216316D01*
X141685526Y-73126017D01*
X141531377Y-73062167D01*
X141196452Y-72838377D01*
X140911623Y-72553548D01*
X140687833Y-72218623D01*
X140584549Y-71969272D01*
X140533684Y-71846474D01*
X140455100Y-71451406D01*
X140455100Y-71048594D01*
X140533684Y-70653526D01*
X140655438Y-70359586D01*
X140687833Y-70281377D01*
X140911623Y-69946452D01*
X141196452Y-69661623D01*
X141531377Y-69437833D01*
X141685526Y-69373983D01*
X141903526Y-69283684D01*
X142298594Y-69205100D01*
X142701406Y-69205100D01*
X143096474Y-69283684D01*
G37*
G36*
X124096474Y-69283684D02*
G01*
X124314474Y-69373983D01*
X124468623Y-69437833D01*
X124803548Y-69661623D01*
X125088377Y-69946452D01*
X125312167Y-70281377D01*
X125344562Y-70359586D01*
X125466316Y-70653526D01*
X125544900Y-71048594D01*
X125544900Y-71451406D01*
X125466316Y-71846474D01*
X125415451Y-71969272D01*
X125312167Y-72218623D01*
X125088377Y-72553548D01*
X124803548Y-72838377D01*
X124468623Y-73062167D01*
X124314474Y-73126017D01*
X124096474Y-73216316D01*
X123701406Y-73294900D01*
X123298594Y-73294900D01*
X122903526Y-73216316D01*
X122685526Y-73126017D01*
X122531377Y-73062167D01*
X122196452Y-72838377D01*
X121911623Y-72553548D01*
X121687833Y-72218623D01*
X121584549Y-71969272D01*
X121533684Y-71846474D01*
X121455100Y-71451406D01*
X121455100Y-71048594D01*
X121533684Y-70653526D01*
X121655438Y-70359586D01*
X121687833Y-70281377D01*
X121911623Y-69946452D01*
X122196452Y-69661623D01*
X122531377Y-69437833D01*
X122685526Y-69373983D01*
X122903526Y-69283684D01*
X123298594Y-69205100D01*
X123701406Y-69205100D01*
X124096474Y-69283684D01*
G37*
G36*
X67096474Y-69283684D02*
G01*
X67314474Y-69373983D01*
X67468623Y-69437833D01*
X67803548Y-69661623D01*
X68088377Y-69946452D01*
X68312167Y-70281377D01*
X68344562Y-70359586D01*
X68466316Y-70653526D01*
X68544900Y-71048594D01*
X68544900Y-71451406D01*
X68466316Y-71846474D01*
X68415451Y-71969272D01*
X68312167Y-72218623D01*
X68088377Y-72553548D01*
X67803548Y-72838377D01*
X67468623Y-73062167D01*
X67314474Y-73126017D01*
X67096474Y-73216316D01*
X66701406Y-73294900D01*
X66298594Y-73294900D01*
X65903526Y-73216316D01*
X65685526Y-73126017D01*
X65531377Y-73062167D01*
X65196452Y-72838377D01*
X64911623Y-72553548D01*
X64687833Y-72218623D01*
X64584549Y-71969272D01*
X64533684Y-71846474D01*
X64455100Y-71451406D01*
X64455100Y-71048594D01*
X64533684Y-70653526D01*
X64655438Y-70359586D01*
X64687833Y-70281377D01*
X64911623Y-69946452D01*
X65196452Y-69661623D01*
X65531377Y-69437833D01*
X65685526Y-69373983D01*
X65903526Y-69283684D01*
X66298594Y-69205100D01*
X66701406Y-69205100D01*
X67096474Y-69283684D01*
G37*
G36*
X105096474Y-69283684D02*
G01*
X105314474Y-69373983D01*
X105468623Y-69437833D01*
X105803548Y-69661623D01*
X106088377Y-69946452D01*
X106312167Y-70281377D01*
X106344562Y-70359586D01*
X106466316Y-70653526D01*
X106544900Y-71048594D01*
X106544900Y-71451406D01*
X106466316Y-71846474D01*
X106415451Y-71969272D01*
X106312167Y-72218623D01*
X106088377Y-72553548D01*
X105803548Y-72838377D01*
X105468623Y-73062167D01*
X105314474Y-73126017D01*
X105096474Y-73216316D01*
X104701406Y-73294900D01*
X104298594Y-73294900D01*
X103903526Y-73216316D01*
X103685526Y-73126017D01*
X103531377Y-73062167D01*
X103196452Y-72838377D01*
X102911623Y-72553548D01*
X102687833Y-72218623D01*
X102584549Y-71969272D01*
X102533684Y-71846474D01*
X102455100Y-71451406D01*
X102455100Y-71048594D01*
X102533684Y-70653526D01*
X102655438Y-70359586D01*
X102687833Y-70281377D01*
X102911623Y-69946452D01*
X103196452Y-69661623D01*
X103531377Y-69437833D01*
X103685526Y-69373983D01*
X103903526Y-69283684D01*
X104298594Y-69205100D01*
X104701406Y-69205100D01*
X105096474Y-69283684D01*
G37*
G36*
X181096474Y-69283684D02*
G01*
X181314474Y-69373983D01*
X181468623Y-69437833D01*
X181803548Y-69661623D01*
X182088377Y-69946452D01*
X182312167Y-70281377D01*
X182344562Y-70359586D01*
X182466316Y-70653526D01*
X182544900Y-71048594D01*
X182544900Y-71451406D01*
X182466316Y-71846474D01*
X182415451Y-71969272D01*
X182312167Y-72218623D01*
X182088377Y-72553548D01*
X181803548Y-72838377D01*
X181468623Y-73062167D01*
X181314474Y-73126017D01*
X181096474Y-73216316D01*
X180701406Y-73294900D01*
X180298594Y-73294900D01*
X179903526Y-73216316D01*
X179685526Y-73126017D01*
X179531377Y-73062167D01*
X179196452Y-72838377D01*
X178911623Y-72553548D01*
X178687833Y-72218623D01*
X178584549Y-71969272D01*
X178533684Y-71846474D01*
X178455100Y-71451406D01*
X178455100Y-71048594D01*
X178533684Y-70653526D01*
X178655438Y-70359586D01*
X178687833Y-70281377D01*
X178911623Y-69946452D01*
X179196452Y-69661623D01*
X179531377Y-69437833D01*
X179685526Y-69373983D01*
X179903526Y-69283684D01*
X180298594Y-69205100D01*
X180701406Y-69205100D01*
X181096474Y-69283684D01*
G37*
G36*
X204850104Y-70359585D02*
G01*
X205018626Y-70429389D01*
X205170291Y-70530728D01*
X205299272Y-70659709D01*
X205400611Y-70811374D01*
X205470415Y-70979896D01*
X205506000Y-71158797D01*
X205506000Y-71341203D01*
X205470415Y-71520104D01*
X205400611Y-71688626D01*
X205299272Y-71840291D01*
X205170291Y-71969272D01*
X205018626Y-72070611D01*
X204850104Y-72140415D01*
X204671203Y-72176000D01*
X204488797Y-72176000D01*
X204309896Y-72140415D01*
X204141374Y-72070611D01*
X203989709Y-71969272D01*
X203860728Y-71840291D01*
X203759389Y-71688626D01*
X203689585Y-71520104D01*
X203654000Y-71341203D01*
X203654000Y-71158797D01*
X203689585Y-70979896D01*
X203759389Y-70811374D01*
X203860728Y-70659709D01*
X203989709Y-70530728D01*
X204141374Y-70429389D01*
X204309896Y-70359585D01*
X204488797Y-70324000D01*
X204671203Y-70324000D01*
X204850104Y-70359585D01*
G37*
G36*
X175690104Y-70359585D02*
G01*
X175858626Y-70429389D01*
X176010291Y-70530728D01*
X176139272Y-70659709D01*
X176240611Y-70811374D01*
X176310415Y-70979896D01*
X176346000Y-71158797D01*
X176346000Y-71341203D01*
X176310415Y-71520104D01*
X176240611Y-71688626D01*
X176139272Y-71840291D01*
X176010291Y-71969272D01*
X175858626Y-72070611D01*
X175690104Y-72140415D01*
X175511203Y-72176000D01*
X175328797Y-72176000D01*
X175149896Y-72140415D01*
X174981374Y-72070611D01*
X174829709Y-71969272D01*
X174700728Y-71840291D01*
X174599389Y-71688626D01*
X174529585Y-71520104D01*
X174494000Y-71341203D01*
X174494000Y-71158797D01*
X174529585Y-70979896D01*
X174599389Y-70811374D01*
X174700728Y-70659709D01*
X174829709Y-70530728D01*
X174981374Y-70429389D01*
X175149896Y-70359585D01*
X175328797Y-70324000D01*
X175511203Y-70324000D01*
X175690104Y-70359585D01*
G37*
G36*
X185850104Y-70359585D02*
G01*
X186018626Y-70429389D01*
X186170291Y-70530728D01*
X186299272Y-70659709D01*
X186400611Y-70811374D01*
X186470415Y-70979896D01*
X186506000Y-71158797D01*
X186506000Y-71341203D01*
X186470415Y-71520104D01*
X186400611Y-71688626D01*
X186299272Y-71840291D01*
X186170291Y-71969272D01*
X186018626Y-72070611D01*
X185850104Y-72140415D01*
X185671203Y-72176000D01*
X185488797Y-72176000D01*
X185309896Y-72140415D01*
X185141374Y-72070611D01*
X184989709Y-71969272D01*
X184860728Y-71840291D01*
X184759389Y-71688626D01*
X184689585Y-71520104D01*
X184654000Y-71341203D01*
X184654000Y-71158797D01*
X184689585Y-70979896D01*
X184759389Y-70811374D01*
X184860728Y-70659709D01*
X184989709Y-70530728D01*
X185141374Y-70429389D01*
X185309896Y-70359585D01*
X185488797Y-70324000D01*
X185671203Y-70324000D01*
X185850104Y-70359585D01*
G37*
G36*
X156690104Y-70359585D02*
G01*
X156858626Y-70429389D01*
X157010291Y-70530728D01*
X157139272Y-70659709D01*
X157240611Y-70811374D01*
X157310415Y-70979896D01*
X157346000Y-71158797D01*
X157346000Y-71341203D01*
X157310415Y-71520104D01*
X157240611Y-71688626D01*
X157139272Y-71840291D01*
X157010291Y-71969272D01*
X156858626Y-72070611D01*
X156690104Y-72140415D01*
X156511203Y-72176000D01*
X156328797Y-72176000D01*
X156149896Y-72140415D01*
X155981374Y-72070611D01*
X155829709Y-71969272D01*
X155700728Y-71840291D01*
X155599389Y-71688626D01*
X155529585Y-71520104D01*
X155494000Y-71341203D01*
X155494000Y-71158797D01*
X155529585Y-70979896D01*
X155599389Y-70811374D01*
X155700728Y-70659709D01*
X155829709Y-70530728D01*
X155981374Y-70429389D01*
X156149896Y-70359585D01*
X156328797Y-70324000D01*
X156511203Y-70324000D01*
X156690104Y-70359585D01*
G37*
G36*
X45725104Y-70359585D02*
G01*
X45893626Y-70429389D01*
X46045291Y-70530728D01*
X46174272Y-70659709D01*
X46275611Y-70811374D01*
X46345415Y-70979896D01*
X46381000Y-71158797D01*
X46381000Y-71341203D01*
X46345415Y-71520104D01*
X46275611Y-71688626D01*
X46174272Y-71840291D01*
X46045291Y-71969272D01*
X45893626Y-72070611D01*
X45725104Y-72140415D01*
X45546203Y-72176000D01*
X45363797Y-72176000D01*
X45184896Y-72140415D01*
X45016374Y-72070611D01*
X44864709Y-71969272D01*
X44735728Y-71840291D01*
X44634389Y-71688626D01*
X44564585Y-71520104D01*
X44529000Y-71341203D01*
X44529000Y-71158797D01*
X44564585Y-70979896D01*
X44634389Y-70811374D01*
X44735728Y-70659709D01*
X44864709Y-70530728D01*
X45016374Y-70429389D01*
X45184896Y-70359585D01*
X45363797Y-70324000D01*
X45546203Y-70324000D01*
X45725104Y-70359585D01*
G37*
G36*
X166850104Y-70359585D02*
G01*
X167018626Y-70429389D01*
X167170291Y-70530728D01*
X167299272Y-70659709D01*
X167400611Y-70811374D01*
X167470415Y-70979896D01*
X167506000Y-71158797D01*
X167506000Y-71341203D01*
X167470415Y-71520104D01*
X167400611Y-71688626D01*
X167299272Y-71840291D01*
X167170291Y-71969272D01*
X167018626Y-72070611D01*
X166850104Y-72140415D01*
X166671203Y-72176000D01*
X166488797Y-72176000D01*
X166309896Y-72140415D01*
X166141374Y-72070611D01*
X165989709Y-71969272D01*
X165860728Y-71840291D01*
X165759389Y-71688626D01*
X165689585Y-71520104D01*
X165654000Y-71341203D01*
X165654000Y-71158797D01*
X165689585Y-70979896D01*
X165759389Y-70811374D01*
X165860728Y-70659709D01*
X165989709Y-70530728D01*
X166141374Y-70429389D01*
X166309896Y-70359585D01*
X166488797Y-70324000D01*
X166671203Y-70324000D01*
X166850104Y-70359585D01*
G37*
G36*
X109850104Y-70359585D02*
G01*
X110018626Y-70429389D01*
X110170291Y-70530728D01*
X110299272Y-70659709D01*
X110400611Y-70811374D01*
X110470415Y-70979896D01*
X110506000Y-71158797D01*
X110506000Y-71341203D01*
X110470415Y-71520104D01*
X110400611Y-71688626D01*
X110299272Y-71840291D01*
X110170291Y-71969272D01*
X110018626Y-72070611D01*
X109850104Y-72140415D01*
X109671203Y-72176000D01*
X109488797Y-72176000D01*
X109309896Y-72140415D01*
X109141374Y-72070611D01*
X108989709Y-71969272D01*
X108860728Y-71840291D01*
X108759389Y-71688626D01*
X108689585Y-71520104D01*
X108654000Y-71341203D01*
X108654000Y-71158797D01*
X108689585Y-70979896D01*
X108759389Y-70811374D01*
X108860728Y-70659709D01*
X108989709Y-70530728D01*
X109141374Y-70429389D01*
X109309896Y-70359585D01*
X109488797Y-70324000D01*
X109671203Y-70324000D01*
X109850104Y-70359585D01*
G37*
G36*
X99690104Y-70359585D02*
G01*
X99858626Y-70429389D01*
X100010291Y-70530728D01*
X100139272Y-70659709D01*
X100240611Y-70811374D01*
X100310415Y-70979896D01*
X100346000Y-71158797D01*
X100346000Y-71341203D01*
X100310415Y-71520104D01*
X100240611Y-71688626D01*
X100139272Y-71840291D01*
X100010291Y-71969272D01*
X99858626Y-72070611D01*
X99690104Y-72140415D01*
X99511203Y-72176000D01*
X99328797Y-72176000D01*
X99149896Y-72140415D01*
X98981374Y-72070611D01*
X98829709Y-71969272D01*
X98700728Y-71840291D01*
X98599389Y-71688626D01*
X98529585Y-71520104D01*
X98494000Y-71341203D01*
X98494000Y-71158797D01*
X98529585Y-70979896D01*
X98599389Y-70811374D01*
X98700728Y-70659709D01*
X98829709Y-70530728D01*
X98981374Y-70429389D01*
X99149896Y-70359585D01*
X99328797Y-70324000D01*
X99511203Y-70324000D01*
X99690104Y-70359585D01*
G37*
G36*
X90850104Y-70359585D02*
G01*
X91018626Y-70429389D01*
X91170291Y-70530728D01*
X91299272Y-70659709D01*
X91400611Y-70811374D01*
X91470415Y-70979896D01*
X91506000Y-71158797D01*
X91506000Y-71341203D01*
X91470415Y-71520104D01*
X91400611Y-71688626D01*
X91299272Y-71840291D01*
X91170291Y-71969272D01*
X91018626Y-72070611D01*
X90850104Y-72140415D01*
X90671203Y-72176000D01*
X90488797Y-72176000D01*
X90309896Y-72140415D01*
X90141374Y-72070611D01*
X89989709Y-71969272D01*
X89860728Y-71840291D01*
X89759389Y-71688626D01*
X89689585Y-71520104D01*
X89654000Y-71341203D01*
X89654000Y-71158797D01*
X89689585Y-70979896D01*
X89759389Y-70811374D01*
X89860728Y-70659709D01*
X89989709Y-70530728D01*
X90141374Y-70429389D01*
X90309896Y-70359585D01*
X90488797Y-70324000D01*
X90671203Y-70324000D01*
X90850104Y-70359585D01*
G37*
G36*
X80690104Y-70359585D02*
G01*
X80858626Y-70429389D01*
X81010291Y-70530728D01*
X81139272Y-70659709D01*
X81240611Y-70811374D01*
X81310415Y-70979896D01*
X81346000Y-71158797D01*
X81346000Y-71341203D01*
X81310415Y-71520104D01*
X81240611Y-71688626D01*
X81139272Y-71840291D01*
X81010291Y-71969272D01*
X80858626Y-72070611D01*
X80690104Y-72140415D01*
X80511203Y-72176000D01*
X80328797Y-72176000D01*
X80149896Y-72140415D01*
X79981374Y-72070611D01*
X79829709Y-71969272D01*
X79700728Y-71840291D01*
X79599389Y-71688626D01*
X79529585Y-71520104D01*
X79494000Y-71341203D01*
X79494000Y-71158797D01*
X79529585Y-70979896D01*
X79599389Y-70811374D01*
X79700728Y-70659709D01*
X79829709Y-70530728D01*
X79981374Y-70429389D01*
X80149896Y-70359585D01*
X80328797Y-70324000D01*
X80511203Y-70324000D01*
X80690104Y-70359585D01*
G37*
G36*
X71850104Y-70359585D02*
G01*
X72018626Y-70429389D01*
X72170291Y-70530728D01*
X72299272Y-70659709D01*
X72400611Y-70811374D01*
X72470415Y-70979896D01*
X72506000Y-71158797D01*
X72506000Y-71341203D01*
X72470415Y-71520104D01*
X72400611Y-71688626D01*
X72299272Y-71840291D01*
X72170291Y-71969272D01*
X72018626Y-72070611D01*
X71850104Y-72140415D01*
X71671203Y-72176000D01*
X71488797Y-72176000D01*
X71309896Y-72140415D01*
X71141374Y-72070611D01*
X70989709Y-71969272D01*
X70860728Y-71840291D01*
X70759389Y-71688626D01*
X70689585Y-71520104D01*
X70654000Y-71341203D01*
X70654000Y-71158797D01*
X70689585Y-70979896D01*
X70759389Y-70811374D01*
X70860728Y-70659709D01*
X70989709Y-70530728D01*
X71141374Y-70429389D01*
X71309896Y-70359585D01*
X71488797Y-70324000D01*
X71671203Y-70324000D01*
X71850104Y-70359585D01*
G37*
G36*
X61690104Y-70359585D02*
G01*
X61858626Y-70429389D01*
X62010291Y-70530728D01*
X62139272Y-70659709D01*
X62240611Y-70811374D01*
X62310415Y-70979896D01*
X62346000Y-71158797D01*
X62346000Y-71341203D01*
X62310415Y-71520104D01*
X62240611Y-71688626D01*
X62139272Y-71840291D01*
X62010291Y-71969272D01*
X61858626Y-72070611D01*
X61690104Y-72140415D01*
X61511203Y-72176000D01*
X61328797Y-72176000D01*
X61149896Y-72140415D01*
X60981374Y-72070611D01*
X60829709Y-71969272D01*
X60700728Y-71840291D01*
X60599389Y-71688626D01*
X60529585Y-71520104D01*
X60494000Y-71341203D01*
X60494000Y-71158797D01*
X60529585Y-70979896D01*
X60599389Y-70811374D01*
X60700728Y-70659709D01*
X60829709Y-70530728D01*
X60981374Y-70429389D01*
X61149896Y-70359585D01*
X61328797Y-70324000D01*
X61511203Y-70324000D01*
X61690104Y-70359585D01*
G37*
G36*
X223850104Y-70359585D02*
G01*
X224018626Y-70429389D01*
X224170291Y-70530728D01*
X224299272Y-70659709D01*
X224400611Y-70811374D01*
X224470415Y-70979896D01*
X224506000Y-71158797D01*
X224506000Y-71341203D01*
X224470415Y-71520104D01*
X224400611Y-71688626D01*
X224299272Y-71840291D01*
X224170291Y-71969272D01*
X224018626Y-72070611D01*
X223850104Y-72140415D01*
X223671203Y-72176000D01*
X223488797Y-72176000D01*
X223309896Y-72140415D01*
X223141374Y-72070611D01*
X222989709Y-71969272D01*
X222860728Y-71840291D01*
X222759389Y-71688626D01*
X222689585Y-71520104D01*
X222654000Y-71341203D01*
X222654000Y-71158797D01*
X222689585Y-70979896D01*
X222759389Y-70811374D01*
X222860728Y-70659709D01*
X222989709Y-70530728D01*
X223141374Y-70429389D01*
X223309896Y-70359585D01*
X223488797Y-70324000D01*
X223671203Y-70324000D01*
X223850104Y-70359585D01*
G37*
G36*
X194690104Y-70359585D02*
G01*
X194858626Y-70429389D01*
X195010291Y-70530728D01*
X195139272Y-70659709D01*
X195240611Y-70811374D01*
X195310415Y-70979896D01*
X195346000Y-71158797D01*
X195346000Y-71341203D01*
X195310415Y-71520104D01*
X195240611Y-71688626D01*
X195139272Y-71840291D01*
X195010291Y-71969272D01*
X194858626Y-72070611D01*
X194690104Y-72140415D01*
X194511203Y-72176000D01*
X194328797Y-72176000D01*
X194149896Y-72140415D01*
X193981374Y-72070611D01*
X193829709Y-71969272D01*
X193700728Y-71840291D01*
X193599389Y-71688626D01*
X193529585Y-71520104D01*
X193494000Y-71341203D01*
X193494000Y-71158797D01*
X193529585Y-70979896D01*
X193599389Y-70811374D01*
X193700728Y-70659709D01*
X193829709Y-70530728D01*
X193981374Y-70429389D01*
X194149896Y-70359585D01*
X194328797Y-70324000D01*
X194511203Y-70324000D01*
X194690104Y-70359585D01*
G37*
G36*
X128850104Y-70359585D02*
G01*
X129018626Y-70429389D01*
X129170291Y-70530728D01*
X129299272Y-70659709D01*
X129400611Y-70811374D01*
X129470415Y-70979896D01*
X129506000Y-71158797D01*
X129506000Y-71341203D01*
X129470415Y-71520104D01*
X129400611Y-71688626D01*
X129299272Y-71840291D01*
X129170291Y-71969272D01*
X129018626Y-72070611D01*
X128850104Y-72140415D01*
X128671203Y-72176000D01*
X128488797Y-72176000D01*
X128309896Y-72140415D01*
X128141374Y-72070611D01*
X127989709Y-71969272D01*
X127860728Y-71840291D01*
X127759389Y-71688626D01*
X127689585Y-71520104D01*
X127654000Y-71341203D01*
X127654000Y-71158797D01*
X127689585Y-70979896D01*
X127759389Y-70811374D01*
X127860728Y-70659709D01*
X127989709Y-70530728D01*
X128141374Y-70429389D01*
X128309896Y-70359585D01*
X128488797Y-70324000D01*
X128671203Y-70324000D01*
X128850104Y-70359585D01*
G37*
G36*
X118690104Y-70359585D02*
G01*
X118858626Y-70429389D01*
X119010291Y-70530728D01*
X119139272Y-70659709D01*
X119240611Y-70811374D01*
X119310415Y-70979896D01*
X119346000Y-71158797D01*
X119346000Y-71341203D01*
X119310415Y-71520104D01*
X119240611Y-71688626D01*
X119139272Y-71840291D01*
X119010291Y-71969272D01*
X118858626Y-72070611D01*
X118690104Y-72140415D01*
X118511203Y-72176000D01*
X118328797Y-72176000D01*
X118149896Y-72140415D01*
X117981374Y-72070611D01*
X117829709Y-71969272D01*
X117700728Y-71840291D01*
X117599389Y-71688626D01*
X117529585Y-71520104D01*
X117494000Y-71341203D01*
X117494000Y-71158797D01*
X117529585Y-70979896D01*
X117599389Y-70811374D01*
X117700728Y-70659709D01*
X117829709Y-70530728D01*
X117981374Y-70429389D01*
X118149896Y-70359585D01*
X118328797Y-70324000D01*
X118511203Y-70324000D01*
X118690104Y-70359585D01*
G37*
G36*
X147850104Y-70359585D02*
G01*
X148018626Y-70429389D01*
X148170291Y-70530728D01*
X148299272Y-70659709D01*
X148400611Y-70811374D01*
X148470415Y-70979896D01*
X148506000Y-71158797D01*
X148506000Y-71341203D01*
X148470415Y-71520104D01*
X148400611Y-71688626D01*
X148299272Y-71840291D01*
X148170291Y-71969272D01*
X148018626Y-72070611D01*
X147850104Y-72140415D01*
X147671203Y-72176000D01*
X147488797Y-72176000D01*
X147309896Y-72140415D01*
X147141374Y-72070611D01*
X146989709Y-71969272D01*
X146860728Y-71840291D01*
X146759389Y-71688626D01*
X146689585Y-71520104D01*
X146654000Y-71341203D01*
X146654000Y-71158797D01*
X146689585Y-70979896D01*
X146759389Y-70811374D01*
X146860728Y-70659709D01*
X146989709Y-70530728D01*
X147141374Y-70429389D01*
X147309896Y-70359585D01*
X147488797Y-70324000D01*
X147671203Y-70324000D01*
X147850104Y-70359585D01*
G37*
G36*
X137690104Y-70359585D02*
G01*
X137858626Y-70429389D01*
X138010291Y-70530728D01*
X138139272Y-70659709D01*
X138240611Y-70811374D01*
X138310415Y-70979896D01*
X138346000Y-71158797D01*
X138346000Y-71341203D01*
X138310415Y-71520104D01*
X138240611Y-71688626D01*
X138139272Y-71840291D01*
X138010291Y-71969272D01*
X137858626Y-72070611D01*
X137690104Y-72140415D01*
X137511203Y-72176000D01*
X137328797Y-72176000D01*
X137149896Y-72140415D01*
X136981374Y-72070611D01*
X136829709Y-71969272D01*
X136700728Y-71840291D01*
X136599389Y-71688626D01*
X136529585Y-71520104D01*
X136494000Y-71341203D01*
X136494000Y-71158797D01*
X136529585Y-70979896D01*
X136599389Y-70811374D01*
X136700728Y-70659709D01*
X136829709Y-70530728D01*
X136981374Y-70429389D01*
X137149896Y-70359585D01*
X137328797Y-70324000D01*
X137511203Y-70324000D01*
X137690104Y-70359585D01*
G37*
G36*
X254065104Y-70359585D02*
G01*
X254233626Y-70429389D01*
X254385291Y-70530728D01*
X254514272Y-70659709D01*
X254615611Y-70811374D01*
X254685415Y-70979896D01*
X254721000Y-71158797D01*
X254721000Y-71341203D01*
X254685415Y-71520104D01*
X254615611Y-71688626D01*
X254514272Y-71840291D01*
X254385291Y-71969272D01*
X254233626Y-72070611D01*
X254065104Y-72140415D01*
X253886203Y-72176000D01*
X253703797Y-72176000D01*
X253524896Y-72140415D01*
X253356374Y-72070611D01*
X253204709Y-71969272D01*
X253075728Y-71840291D01*
X252974389Y-71688626D01*
X252904585Y-71520104D01*
X252869000Y-71341203D01*
X252869000Y-71158797D01*
X252904585Y-70979896D01*
X252974389Y-70811374D01*
X253075728Y-70659709D01*
X253204709Y-70530728D01*
X253356374Y-70429389D01*
X253524896Y-70359585D01*
X253703797Y-70324000D01*
X253886203Y-70324000D01*
X254065104Y-70359585D01*
G37*
G36*
X264225104Y-70359585D02*
G01*
X264393626Y-70429389D01*
X264545291Y-70530728D01*
X264674272Y-70659709D01*
X264775611Y-70811374D01*
X264845415Y-70979896D01*
X264881000Y-71158797D01*
X264881000Y-71341203D01*
X264845415Y-71520104D01*
X264775611Y-71688626D01*
X264674272Y-71840291D01*
X264545291Y-71969272D01*
X264393626Y-72070611D01*
X264225104Y-72140415D01*
X264046203Y-72176000D01*
X263863797Y-72176000D01*
X263684896Y-72140415D01*
X263516374Y-72070611D01*
X263364709Y-71969272D01*
X263235728Y-71840291D01*
X263134389Y-71688626D01*
X263064585Y-71520104D01*
X263029000Y-71341203D01*
X263029000Y-71158797D01*
X263064585Y-70979896D01*
X263134389Y-70811374D01*
X263235728Y-70659709D01*
X263364709Y-70530728D01*
X263516374Y-70429389D01*
X263684896Y-70359585D01*
X263863797Y-70324000D01*
X264046203Y-70324000D01*
X264225104Y-70359585D01*
G37*
G36*
X35565104Y-70359585D02*
G01*
X35733626Y-70429389D01*
X35885291Y-70530728D01*
X36014272Y-70659709D01*
X36115611Y-70811374D01*
X36185415Y-70979896D01*
X36221000Y-71158797D01*
X36221000Y-71341203D01*
X36185415Y-71520104D01*
X36115611Y-71688626D01*
X36014272Y-71840291D01*
X35885291Y-71969272D01*
X35733626Y-72070611D01*
X35565104Y-72140415D01*
X35386203Y-72176000D01*
X35203797Y-72176000D01*
X35024896Y-72140415D01*
X34856374Y-72070611D01*
X34704709Y-71969272D01*
X34575728Y-71840291D01*
X34474389Y-71688626D01*
X34404585Y-71520104D01*
X34369000Y-71341203D01*
X34369000Y-71158797D01*
X34404585Y-70979896D01*
X34474389Y-70811374D01*
X34575728Y-70659709D01*
X34704709Y-70530728D01*
X34856374Y-70429389D01*
X35024896Y-70359585D01*
X35203797Y-70324000D01*
X35386203Y-70324000D01*
X35565104Y-70359585D01*
G37*
G36*
X232690104Y-70359585D02*
G01*
X232858626Y-70429389D01*
X233010291Y-70530728D01*
X233139272Y-70659709D01*
X233240611Y-70811374D01*
X233310415Y-70979896D01*
X233346000Y-71158797D01*
X233346000Y-71341203D01*
X233310415Y-71520104D01*
X233240611Y-71688626D01*
X233139272Y-71840291D01*
X233010291Y-71969272D01*
X232858626Y-72070611D01*
X232690104Y-72140415D01*
X232511203Y-72176000D01*
X232328797Y-72176000D01*
X232149896Y-72140415D01*
X231981374Y-72070611D01*
X231829709Y-71969272D01*
X231700728Y-71840291D01*
X231599389Y-71688626D01*
X231529585Y-71520104D01*
X231494000Y-71341203D01*
X231494000Y-71158797D01*
X231529585Y-70979896D01*
X231599389Y-70811374D01*
X231700728Y-70659709D01*
X231829709Y-70530728D01*
X231981374Y-70429389D01*
X232149896Y-70359585D01*
X232328797Y-70324000D01*
X232511203Y-70324000D01*
X232690104Y-70359585D01*
G37*
G36*
X242850104Y-70359585D02*
G01*
X243018626Y-70429389D01*
X243170291Y-70530728D01*
X243299272Y-70659709D01*
X243400611Y-70811374D01*
X243470415Y-70979896D01*
X243506000Y-71158797D01*
X243506000Y-71341203D01*
X243470415Y-71520104D01*
X243400611Y-71688626D01*
X243299272Y-71840291D01*
X243170291Y-71969272D01*
X243018626Y-72070611D01*
X242850104Y-72140415D01*
X242671203Y-72176000D01*
X242488797Y-72176000D01*
X242309896Y-72140415D01*
X242141374Y-72070611D01*
X241989709Y-71969272D01*
X241860728Y-71840291D01*
X241759389Y-71688626D01*
X241689585Y-71520104D01*
X241654000Y-71341203D01*
X241654000Y-71158797D01*
X241689585Y-70979896D01*
X241759389Y-70811374D01*
X241860728Y-70659709D01*
X241989709Y-70530728D01*
X242141374Y-70429389D01*
X242309896Y-70359585D01*
X242488797Y-70324000D01*
X242671203Y-70324000D01*
X242850104Y-70359585D01*
G37*
G36*
X213690104Y-70359585D02*
G01*
X213858626Y-70429389D01*
X214010291Y-70530728D01*
X214139272Y-70659709D01*
X214240611Y-70811374D01*
X214310415Y-70979896D01*
X214346000Y-71158797D01*
X214346000Y-71341203D01*
X214310415Y-71520104D01*
X214240611Y-71688626D01*
X214139272Y-71840291D01*
X214010291Y-71969272D01*
X213858626Y-72070611D01*
X213690104Y-72140415D01*
X213511203Y-72176000D01*
X213328797Y-72176000D01*
X213149896Y-72140415D01*
X212981374Y-72070611D01*
X212829709Y-71969272D01*
X212700728Y-71840291D01*
X212599389Y-71688626D01*
X212529585Y-71520104D01*
X212494000Y-71341203D01*
X212494000Y-71158797D01*
X212529585Y-70979896D01*
X212599389Y-70811374D01*
X212700728Y-70659709D01*
X212829709Y-70530728D01*
X212981374Y-70429389D01*
X213149896Y-70359585D01*
X213328797Y-70324000D01*
X213511203Y-70324000D01*
X213690104Y-70359585D01*
G37*
G36*
X147525880Y-59509776D02*
G01*
X147906593Y-59585504D01*
X148316249Y-59755189D01*
X148684929Y-60001534D01*
X148998466Y-60315071D01*
X149244811Y-60683751D01*
X149414496Y-61093407D01*
X149501000Y-61528296D01*
X149501000Y-61971704D01*
X149414496Y-62406593D01*
X149244811Y-62816249D01*
X148998466Y-63184929D01*
X148684929Y-63498466D01*
X148316249Y-63744811D01*
X147906593Y-63914496D01*
X147525880Y-63990224D01*
X147471705Y-64001000D01*
X147028295Y-64001000D01*
X146974120Y-63990224D01*
X146593407Y-63914496D01*
X146183751Y-63744811D01*
X145815071Y-63498466D01*
X145501534Y-63184929D01*
X145255189Y-62816249D01*
X145085504Y-62406593D01*
X144999000Y-61971704D01*
X144999000Y-61528296D01*
X145085504Y-61093407D01*
X145255189Y-60683751D01*
X145501534Y-60315071D01*
X145815071Y-60001534D01*
X146183751Y-59755189D01*
X146593407Y-59585504D01*
X146974120Y-59509776D01*
X147028295Y-59499000D01*
X147471705Y-59499000D01*
X147525880Y-59509776D01*
G37*
G36*
X114596474Y-50283684D02*
G01*
X114814474Y-50373983D01*
X114968623Y-50437833D01*
X115303548Y-50661623D01*
X115588377Y-50946452D01*
X115812167Y-51281377D01*
X115844562Y-51359586D01*
X115966316Y-51653526D01*
X116044900Y-52048594D01*
X116044900Y-52451406D01*
X115966316Y-52846474D01*
X115915451Y-52969272D01*
X115812167Y-53218623D01*
X115588377Y-53553548D01*
X115303548Y-53838377D01*
X114968623Y-54062167D01*
X114814474Y-54126017D01*
X114596474Y-54216316D01*
X114201406Y-54294900D01*
X113798594Y-54294900D01*
X113403526Y-54216316D01*
X113185526Y-54126017D01*
X113031377Y-54062167D01*
X112696452Y-53838377D01*
X112411623Y-53553548D01*
X112187833Y-53218623D01*
X112084549Y-52969272D01*
X112033684Y-52846474D01*
X111955100Y-52451406D01*
X111955100Y-52048594D01*
X112033684Y-51653526D01*
X112155438Y-51359586D01*
X112187833Y-51281377D01*
X112411623Y-50946452D01*
X112696452Y-50661623D01*
X113031377Y-50437833D01*
X113185526Y-50373983D01*
X113403526Y-50283684D01*
X113798594Y-50205100D01*
X114201406Y-50205100D01*
X114596474Y-50283684D01*
G37*
G36*
X133596474Y-50283684D02*
G01*
X133814474Y-50373983D01*
X133968623Y-50437833D01*
X134303548Y-50661623D01*
X134588377Y-50946452D01*
X134812167Y-51281377D01*
X134844562Y-51359586D01*
X134966316Y-51653526D01*
X135044900Y-52048594D01*
X135044900Y-52451406D01*
X134966316Y-52846474D01*
X134915451Y-52969272D01*
X134812167Y-53218623D01*
X134588377Y-53553548D01*
X134303548Y-53838377D01*
X133968623Y-54062167D01*
X133814474Y-54126017D01*
X133596474Y-54216316D01*
X133201406Y-54294900D01*
X132798594Y-54294900D01*
X132403526Y-54216316D01*
X132185526Y-54126017D01*
X132031377Y-54062167D01*
X131696452Y-53838377D01*
X131411623Y-53553548D01*
X131187833Y-53218623D01*
X131084549Y-52969272D01*
X131033684Y-52846474D01*
X130955100Y-52451406D01*
X130955100Y-52048594D01*
X131033684Y-51653526D01*
X131155438Y-51359586D01*
X131187833Y-51281377D01*
X131411623Y-50946452D01*
X131696452Y-50661623D01*
X132031377Y-50437833D01*
X132185526Y-50373983D01*
X132403526Y-50283684D01*
X132798594Y-50205100D01*
X133201406Y-50205100D01*
X133596474Y-50283684D01*
G37*
G36*
X76596474Y-50283684D02*
G01*
X76814474Y-50373983D01*
X76968623Y-50437833D01*
X77303548Y-50661623D01*
X77588377Y-50946452D01*
X77812167Y-51281377D01*
X77844562Y-51359586D01*
X77966316Y-51653526D01*
X78044900Y-52048594D01*
X78044900Y-52451406D01*
X77966316Y-52846474D01*
X77915451Y-52969272D01*
X77812167Y-53218623D01*
X77588377Y-53553548D01*
X77303548Y-53838377D01*
X76968623Y-54062167D01*
X76814474Y-54126017D01*
X76596474Y-54216316D01*
X76201406Y-54294900D01*
X75798594Y-54294900D01*
X75403526Y-54216316D01*
X75185526Y-54126017D01*
X75031377Y-54062167D01*
X74696452Y-53838377D01*
X74411623Y-53553548D01*
X74187833Y-53218623D01*
X74084549Y-52969272D01*
X74033684Y-52846474D01*
X73955100Y-52451406D01*
X73955100Y-52048594D01*
X74033684Y-51653526D01*
X74155438Y-51359586D01*
X74187833Y-51281377D01*
X74411623Y-50946452D01*
X74696452Y-50661623D01*
X75031377Y-50437833D01*
X75185526Y-50373983D01*
X75403526Y-50283684D01*
X75798594Y-50205100D01*
X76201406Y-50205100D01*
X76596474Y-50283684D01*
G37*
G36*
X57596474Y-50283684D02*
G01*
X57814474Y-50373983D01*
X57968623Y-50437833D01*
X58303548Y-50661623D01*
X58588377Y-50946452D01*
X58812167Y-51281377D01*
X58844562Y-51359586D01*
X58966316Y-51653526D01*
X59044900Y-52048594D01*
X59044900Y-52451406D01*
X58966316Y-52846474D01*
X58915451Y-52969272D01*
X58812167Y-53218623D01*
X58588377Y-53553548D01*
X58303548Y-53838377D01*
X57968623Y-54062167D01*
X57814474Y-54126017D01*
X57596474Y-54216316D01*
X57201406Y-54294900D01*
X56798594Y-54294900D01*
X56403526Y-54216316D01*
X56185526Y-54126017D01*
X56031377Y-54062167D01*
X55696452Y-53838377D01*
X55411623Y-53553548D01*
X55187833Y-53218623D01*
X55084549Y-52969272D01*
X55033684Y-52846474D01*
X54955100Y-52451406D01*
X54955100Y-52048594D01*
X55033684Y-51653526D01*
X55155438Y-51359586D01*
X55187833Y-51281377D01*
X55411623Y-50946452D01*
X55696452Y-50661623D01*
X56031377Y-50437833D01*
X56185526Y-50373983D01*
X56403526Y-50283684D01*
X56798594Y-50205100D01*
X57201406Y-50205100D01*
X57596474Y-50283684D01*
G37*
G36*
X95596474Y-50283684D02*
G01*
X95814474Y-50373983D01*
X95968623Y-50437833D01*
X96303548Y-50661623D01*
X96588377Y-50946452D01*
X96812167Y-51281377D01*
X96844562Y-51359586D01*
X96966316Y-51653526D01*
X97044900Y-52048594D01*
X97044900Y-52451406D01*
X96966316Y-52846474D01*
X96915451Y-52969272D01*
X96812167Y-53218623D01*
X96588377Y-53553548D01*
X96303548Y-53838377D01*
X95968623Y-54062167D01*
X95814474Y-54126017D01*
X95596474Y-54216316D01*
X95201406Y-54294900D01*
X94798594Y-54294900D01*
X94403526Y-54216316D01*
X94185526Y-54126017D01*
X94031377Y-54062167D01*
X93696452Y-53838377D01*
X93411623Y-53553548D01*
X93187833Y-53218623D01*
X93084549Y-52969272D01*
X93033684Y-52846474D01*
X92955100Y-52451406D01*
X92955100Y-52048594D01*
X93033684Y-51653526D01*
X93155438Y-51359586D01*
X93187833Y-51281377D01*
X93411623Y-50946452D01*
X93696452Y-50661623D01*
X94031377Y-50437833D01*
X94185526Y-50373983D01*
X94403526Y-50283684D01*
X94798594Y-50205100D01*
X95201406Y-50205100D01*
X95596474Y-50283684D01*
G37*
G36*
X36221474Y-50283684D02*
G01*
X36439474Y-50373983D01*
X36593623Y-50437833D01*
X36928548Y-50661623D01*
X37213377Y-50946452D01*
X37437167Y-51281377D01*
X37469562Y-51359586D01*
X37591316Y-51653526D01*
X37669900Y-52048594D01*
X37669900Y-52451406D01*
X37591316Y-52846474D01*
X37540451Y-52969272D01*
X37437167Y-53218623D01*
X37213377Y-53553548D01*
X36928548Y-53838377D01*
X36593623Y-54062167D01*
X36439474Y-54126017D01*
X36221474Y-54216316D01*
X35826406Y-54294900D01*
X35423594Y-54294900D01*
X35028526Y-54216316D01*
X34810526Y-54126017D01*
X34656377Y-54062167D01*
X34321452Y-53838377D01*
X34036623Y-53553548D01*
X33812833Y-53218623D01*
X33709549Y-52969272D01*
X33658684Y-52846474D01*
X33580100Y-52451406D01*
X33580100Y-52048594D01*
X33658684Y-51653526D01*
X33780438Y-51359586D01*
X33812833Y-51281377D01*
X34036623Y-50946452D01*
X34321452Y-50661623D01*
X34656377Y-50437833D01*
X34810526Y-50373983D01*
X35028526Y-50283684D01*
X35423594Y-50205100D01*
X35826406Y-50205100D01*
X36221474Y-50283684D01*
G37*
G36*
X228596474Y-50283684D02*
G01*
X228814474Y-50373983D01*
X228968623Y-50437833D01*
X229303548Y-50661623D01*
X229588377Y-50946452D01*
X229812167Y-51281377D01*
X229844562Y-51359586D01*
X229966316Y-51653526D01*
X230044900Y-52048594D01*
X230044900Y-52451406D01*
X229966316Y-52846474D01*
X229915451Y-52969272D01*
X229812167Y-53218623D01*
X229588377Y-53553548D01*
X229303548Y-53838377D01*
X228968623Y-54062167D01*
X228814474Y-54126017D01*
X228596474Y-54216316D01*
X228201406Y-54294900D01*
X227798594Y-54294900D01*
X227403526Y-54216316D01*
X227185526Y-54126017D01*
X227031377Y-54062167D01*
X226696452Y-53838377D01*
X226411623Y-53553548D01*
X226187833Y-53218623D01*
X226084549Y-52969272D01*
X226033684Y-52846474D01*
X225955100Y-52451406D01*
X225955100Y-52048594D01*
X226033684Y-51653526D01*
X226155438Y-51359586D01*
X226187833Y-51281377D01*
X226411623Y-50946452D01*
X226696452Y-50661623D01*
X227031377Y-50437833D01*
X227185526Y-50373983D01*
X227403526Y-50283684D01*
X227798594Y-50205100D01*
X228201406Y-50205100D01*
X228596474Y-50283684D01*
G37*
G36*
X209596474Y-50283684D02*
G01*
X209814474Y-50373983D01*
X209968623Y-50437833D01*
X210303548Y-50661623D01*
X210588377Y-50946452D01*
X210812167Y-51281377D01*
X210844562Y-51359586D01*
X210966316Y-51653526D01*
X211044900Y-52048594D01*
X211044900Y-52451406D01*
X210966316Y-52846474D01*
X210915451Y-52969272D01*
X210812167Y-53218623D01*
X210588377Y-53553548D01*
X210303548Y-53838377D01*
X209968623Y-54062167D01*
X209814474Y-54126017D01*
X209596474Y-54216316D01*
X209201406Y-54294900D01*
X208798594Y-54294900D01*
X208403526Y-54216316D01*
X208185526Y-54126017D01*
X208031377Y-54062167D01*
X207696452Y-53838377D01*
X207411623Y-53553548D01*
X207187833Y-53218623D01*
X207084549Y-52969272D01*
X207033684Y-52846474D01*
X206955100Y-52451406D01*
X206955100Y-52048594D01*
X207033684Y-51653526D01*
X207155438Y-51359586D01*
X207187833Y-51281377D01*
X207411623Y-50946452D01*
X207696452Y-50661623D01*
X208031377Y-50437833D01*
X208185526Y-50373983D01*
X208403526Y-50283684D01*
X208798594Y-50205100D01*
X209201406Y-50205100D01*
X209596474Y-50283684D01*
G37*
G36*
X190596474Y-50283684D02*
G01*
X190814474Y-50373983D01*
X190968623Y-50437833D01*
X191303548Y-50661623D01*
X191588377Y-50946452D01*
X191812167Y-51281377D01*
X191844562Y-51359586D01*
X191966316Y-51653526D01*
X192044900Y-52048594D01*
X192044900Y-52451406D01*
X191966316Y-52846474D01*
X191915451Y-52969272D01*
X191812167Y-53218623D01*
X191588377Y-53553548D01*
X191303548Y-53838377D01*
X190968623Y-54062167D01*
X190814474Y-54126017D01*
X190596474Y-54216316D01*
X190201406Y-54294900D01*
X189798594Y-54294900D01*
X189403526Y-54216316D01*
X189185526Y-54126017D01*
X189031377Y-54062167D01*
X188696452Y-53838377D01*
X188411623Y-53553548D01*
X188187833Y-53218623D01*
X188084549Y-52969272D01*
X188033684Y-52846474D01*
X187955100Y-52451406D01*
X187955100Y-52048594D01*
X188033684Y-51653526D01*
X188155438Y-51359586D01*
X188187833Y-51281377D01*
X188411623Y-50946452D01*
X188696452Y-50661623D01*
X189031377Y-50437833D01*
X189185526Y-50373983D01*
X189403526Y-50283684D01*
X189798594Y-50205100D01*
X190201406Y-50205100D01*
X190596474Y-50283684D01*
G37*
G36*
X171596474Y-50283684D02*
G01*
X171814474Y-50373983D01*
X171968623Y-50437833D01*
X172303548Y-50661623D01*
X172588377Y-50946452D01*
X172812167Y-51281377D01*
X172844562Y-51359586D01*
X172966316Y-51653526D01*
X173044900Y-52048594D01*
X173044900Y-52451406D01*
X172966316Y-52846474D01*
X172915451Y-52969272D01*
X172812167Y-53218623D01*
X172588377Y-53553548D01*
X172303548Y-53838377D01*
X171968623Y-54062167D01*
X171814474Y-54126017D01*
X171596474Y-54216316D01*
X171201406Y-54294900D01*
X170798594Y-54294900D01*
X170403526Y-54216316D01*
X170185526Y-54126017D01*
X170031377Y-54062167D01*
X169696452Y-53838377D01*
X169411623Y-53553548D01*
X169187833Y-53218623D01*
X169084549Y-52969272D01*
X169033684Y-52846474D01*
X168955100Y-52451406D01*
X168955100Y-52048594D01*
X169033684Y-51653526D01*
X169155438Y-51359586D01*
X169187833Y-51281377D01*
X169411623Y-50946452D01*
X169696452Y-50661623D01*
X170031377Y-50437833D01*
X170185526Y-50373983D01*
X170403526Y-50283684D01*
X170798594Y-50205100D01*
X171201406Y-50205100D01*
X171596474Y-50283684D01*
G37*
G36*
X152596474Y-50283684D02*
G01*
X152814474Y-50373983D01*
X152968623Y-50437833D01*
X153303548Y-50661623D01*
X153588377Y-50946452D01*
X153812167Y-51281377D01*
X153844562Y-51359586D01*
X153966316Y-51653526D01*
X154044900Y-52048594D01*
X154044900Y-52451406D01*
X153966316Y-52846474D01*
X153915451Y-52969272D01*
X153812167Y-53218623D01*
X153588377Y-53553548D01*
X153303548Y-53838377D01*
X152968623Y-54062167D01*
X152814474Y-54126017D01*
X152596474Y-54216316D01*
X152201406Y-54294900D01*
X151798594Y-54294900D01*
X151403526Y-54216316D01*
X151185526Y-54126017D01*
X151031377Y-54062167D01*
X150696452Y-53838377D01*
X150411623Y-53553548D01*
X150187833Y-53218623D01*
X150084549Y-52969272D01*
X150033684Y-52846474D01*
X149955100Y-52451406D01*
X149955100Y-52048594D01*
X150033684Y-51653526D01*
X150155438Y-51359586D01*
X150187833Y-51281377D01*
X150411623Y-50946452D01*
X150696452Y-50661623D01*
X151031377Y-50437833D01*
X151185526Y-50373983D01*
X151403526Y-50283684D01*
X151798594Y-50205100D01*
X152201406Y-50205100D01*
X152596474Y-50283684D01*
G37*
G36*
X254721474Y-50283684D02*
G01*
X254939474Y-50373983D01*
X255093623Y-50437833D01*
X255428548Y-50661623D01*
X255713377Y-50946452D01*
X255937167Y-51281377D01*
X255969562Y-51359586D01*
X256091316Y-51653526D01*
X256169900Y-52048594D01*
X256169900Y-52451406D01*
X256091316Y-52846474D01*
X256040451Y-52969272D01*
X255937167Y-53218623D01*
X255713377Y-53553548D01*
X255428548Y-53838377D01*
X255093623Y-54062167D01*
X254939474Y-54126017D01*
X254721474Y-54216316D01*
X254326406Y-54294900D01*
X253923594Y-54294900D01*
X253528526Y-54216316D01*
X253310526Y-54126017D01*
X253156377Y-54062167D01*
X252821452Y-53838377D01*
X252536623Y-53553548D01*
X252312833Y-53218623D01*
X252209549Y-52969272D01*
X252158684Y-52846474D01*
X252080100Y-52451406D01*
X252080100Y-52048594D01*
X252158684Y-51653526D01*
X252280438Y-51359586D01*
X252312833Y-51281377D01*
X252536623Y-50946452D01*
X252821452Y-50661623D01*
X253156377Y-50437833D01*
X253310526Y-50373983D01*
X253528526Y-50283684D01*
X253923594Y-50205100D01*
X254326406Y-50205100D01*
X254721474Y-50283684D01*
G37*
G36*
X166190104Y-51359585D02*
G01*
X166358626Y-51429389D01*
X166510291Y-51530728D01*
X166639272Y-51659709D01*
X166740611Y-51811374D01*
X166810415Y-51979896D01*
X166846000Y-52158797D01*
X166846000Y-52341203D01*
X166810415Y-52520104D01*
X166740611Y-52688626D01*
X166639272Y-52840291D01*
X166510291Y-52969272D01*
X166358626Y-53070611D01*
X166190104Y-53140415D01*
X166011203Y-53176000D01*
X165828797Y-53176000D01*
X165649896Y-53140415D01*
X165481374Y-53070611D01*
X165329709Y-52969272D01*
X165200728Y-52840291D01*
X165099389Y-52688626D01*
X165029585Y-52520104D01*
X164994000Y-52341203D01*
X164994000Y-52158797D01*
X165029585Y-51979896D01*
X165099389Y-51811374D01*
X165200728Y-51659709D01*
X165329709Y-51530728D01*
X165481374Y-51429389D01*
X165649896Y-51359585D01*
X165828797Y-51324000D01*
X166011203Y-51324000D01*
X166190104Y-51359585D01*
G37*
G36*
X90190104Y-51359585D02*
G01*
X90358626Y-51429389D01*
X90510291Y-51530728D01*
X90639272Y-51659709D01*
X90740611Y-51811374D01*
X90810415Y-51979896D01*
X90846000Y-52158797D01*
X90846000Y-52341203D01*
X90810415Y-52520104D01*
X90740611Y-52688626D01*
X90639272Y-52840291D01*
X90510291Y-52969272D01*
X90358626Y-53070611D01*
X90190104Y-53140415D01*
X90011203Y-53176000D01*
X89828797Y-53176000D01*
X89649896Y-53140415D01*
X89481374Y-53070611D01*
X89329709Y-52969272D01*
X89200728Y-52840291D01*
X89099389Y-52688626D01*
X89029585Y-52520104D01*
X88994000Y-52341203D01*
X88994000Y-52158797D01*
X89029585Y-51979896D01*
X89099389Y-51811374D01*
X89200728Y-51659709D01*
X89329709Y-51530728D01*
X89481374Y-51429389D01*
X89649896Y-51359585D01*
X89828797Y-51324000D01*
X90011203Y-51324000D01*
X90190104Y-51359585D01*
G37*
G36*
X119350104Y-51359585D02*
G01*
X119518626Y-51429389D01*
X119670291Y-51530728D01*
X119799272Y-51659709D01*
X119900611Y-51811374D01*
X119970415Y-51979896D01*
X120006000Y-52158797D01*
X120006000Y-52341203D01*
X119970415Y-52520104D01*
X119900611Y-52688626D01*
X119799272Y-52840291D01*
X119670291Y-52969272D01*
X119518626Y-53070611D01*
X119350104Y-53140415D01*
X119171203Y-53176000D01*
X118988797Y-53176000D01*
X118809896Y-53140415D01*
X118641374Y-53070611D01*
X118489709Y-52969272D01*
X118360728Y-52840291D01*
X118259389Y-52688626D01*
X118189585Y-52520104D01*
X118154000Y-52341203D01*
X118154000Y-52158797D01*
X118189585Y-51979896D01*
X118259389Y-51811374D01*
X118360728Y-51659709D01*
X118489709Y-51530728D01*
X118641374Y-51429389D01*
X118809896Y-51359585D01*
X118988797Y-51324000D01*
X119171203Y-51324000D01*
X119350104Y-51359585D01*
G37*
G36*
X109190104Y-51359585D02*
G01*
X109358626Y-51429389D01*
X109510291Y-51530728D01*
X109639272Y-51659709D01*
X109740611Y-51811374D01*
X109810415Y-51979896D01*
X109846000Y-52158797D01*
X109846000Y-52341203D01*
X109810415Y-52520104D01*
X109740611Y-52688626D01*
X109639272Y-52840291D01*
X109510291Y-52969272D01*
X109358626Y-53070611D01*
X109190104Y-53140415D01*
X109011203Y-53176000D01*
X108828797Y-53176000D01*
X108649896Y-53140415D01*
X108481374Y-53070611D01*
X108329709Y-52969272D01*
X108200728Y-52840291D01*
X108099389Y-52688626D01*
X108029585Y-52520104D01*
X107994000Y-52341203D01*
X107994000Y-52158797D01*
X108029585Y-51979896D01*
X108099389Y-51811374D01*
X108200728Y-51659709D01*
X108329709Y-51530728D01*
X108481374Y-51429389D01*
X108649896Y-51359585D01*
X108828797Y-51324000D01*
X109011203Y-51324000D01*
X109190104Y-51359585D01*
G37*
G36*
X138350104Y-51359585D02*
G01*
X138518626Y-51429389D01*
X138670291Y-51530728D01*
X138799272Y-51659709D01*
X138900611Y-51811374D01*
X138970415Y-51979896D01*
X139006000Y-52158797D01*
X139006000Y-52341203D01*
X138970415Y-52520104D01*
X138900611Y-52688626D01*
X138799272Y-52840291D01*
X138670291Y-52969272D01*
X138518626Y-53070611D01*
X138350104Y-53140415D01*
X138171203Y-53176000D01*
X137988797Y-53176000D01*
X137809896Y-53140415D01*
X137641374Y-53070611D01*
X137489709Y-52969272D01*
X137360728Y-52840291D01*
X137259389Y-52688626D01*
X137189585Y-52520104D01*
X137154000Y-52341203D01*
X137154000Y-52158797D01*
X137189585Y-51979896D01*
X137259389Y-51811374D01*
X137360728Y-51659709D01*
X137489709Y-51530728D01*
X137641374Y-51429389D01*
X137809896Y-51359585D01*
X137988797Y-51324000D01*
X138171203Y-51324000D01*
X138350104Y-51359585D01*
G37*
G36*
X195350104Y-51359585D02*
G01*
X195518626Y-51429389D01*
X195670291Y-51530728D01*
X195799272Y-51659709D01*
X195900611Y-51811374D01*
X195970415Y-51979896D01*
X196006000Y-52158797D01*
X196006000Y-52341203D01*
X195970415Y-52520104D01*
X195900611Y-52688626D01*
X195799272Y-52840291D01*
X195670291Y-52969272D01*
X195518626Y-53070611D01*
X195350104Y-53140415D01*
X195171203Y-53176000D01*
X194988797Y-53176000D01*
X194809896Y-53140415D01*
X194641374Y-53070611D01*
X194489709Y-52969272D01*
X194360728Y-52840291D01*
X194259389Y-52688626D01*
X194189585Y-52520104D01*
X194154000Y-52341203D01*
X194154000Y-52158797D01*
X194189585Y-51979896D01*
X194259389Y-51811374D01*
X194360728Y-51659709D01*
X194489709Y-51530728D01*
X194641374Y-51429389D01*
X194809896Y-51359585D01*
X194988797Y-51324000D01*
X195171203Y-51324000D01*
X195350104Y-51359585D01*
G37*
G36*
X157350104Y-51359585D02*
G01*
X157518626Y-51429389D01*
X157670291Y-51530728D01*
X157799272Y-51659709D01*
X157900611Y-51811374D01*
X157970415Y-51979896D01*
X158006000Y-52158797D01*
X158006000Y-52341203D01*
X157970415Y-52520104D01*
X157900611Y-52688626D01*
X157799272Y-52840291D01*
X157670291Y-52969272D01*
X157518626Y-53070611D01*
X157350104Y-53140415D01*
X157171203Y-53176000D01*
X156988797Y-53176000D01*
X156809896Y-53140415D01*
X156641374Y-53070611D01*
X156489709Y-52969272D01*
X156360728Y-52840291D01*
X156259389Y-52688626D01*
X156189585Y-52520104D01*
X156154000Y-52341203D01*
X156154000Y-52158797D01*
X156189585Y-51979896D01*
X156259389Y-51811374D01*
X156360728Y-51659709D01*
X156489709Y-51530728D01*
X156641374Y-51429389D01*
X156809896Y-51359585D01*
X156988797Y-51324000D01*
X157171203Y-51324000D01*
X157350104Y-51359585D01*
G37*
G36*
X147190104Y-51359585D02*
G01*
X147358626Y-51429389D01*
X147510291Y-51530728D01*
X147639272Y-51659709D01*
X147740611Y-51811374D01*
X147810415Y-51979896D01*
X147846000Y-52158797D01*
X147846000Y-52341203D01*
X147810415Y-52520104D01*
X147740611Y-52688626D01*
X147639272Y-52840291D01*
X147510291Y-52969272D01*
X147358626Y-53070611D01*
X147190104Y-53140415D01*
X147011203Y-53176000D01*
X146828797Y-53176000D01*
X146649896Y-53140415D01*
X146481374Y-53070611D01*
X146329709Y-52969272D01*
X146200728Y-52840291D01*
X146099389Y-52688626D01*
X146029585Y-52520104D01*
X145994000Y-52341203D01*
X145994000Y-52158797D01*
X146029585Y-51979896D01*
X146099389Y-51811374D01*
X146200728Y-51659709D01*
X146329709Y-51530728D01*
X146481374Y-51429389D01*
X146649896Y-51359585D01*
X146828797Y-51324000D01*
X147011203Y-51324000D01*
X147190104Y-51359585D01*
G37*
G36*
X176350104Y-51359585D02*
G01*
X176518626Y-51429389D01*
X176670291Y-51530728D01*
X176799272Y-51659709D01*
X176900611Y-51811374D01*
X176970415Y-51979896D01*
X177006000Y-52158797D01*
X177006000Y-52341203D01*
X176970415Y-52520104D01*
X176900611Y-52688626D01*
X176799272Y-52840291D01*
X176670291Y-52969272D01*
X176518626Y-53070611D01*
X176350104Y-53140415D01*
X176171203Y-53176000D01*
X175988797Y-53176000D01*
X175809896Y-53140415D01*
X175641374Y-53070611D01*
X175489709Y-52969272D01*
X175360728Y-52840291D01*
X175259389Y-52688626D01*
X175189585Y-52520104D01*
X175154000Y-52341203D01*
X175154000Y-52158797D01*
X175189585Y-51979896D01*
X175259389Y-51811374D01*
X175360728Y-51659709D01*
X175489709Y-51530728D01*
X175641374Y-51429389D01*
X175809896Y-51359585D01*
X175988797Y-51324000D01*
X176171203Y-51324000D01*
X176350104Y-51359585D01*
G37*
G36*
X185190104Y-51359585D02*
G01*
X185358626Y-51429389D01*
X185510291Y-51530728D01*
X185639272Y-51659709D01*
X185740611Y-51811374D01*
X185810415Y-51979896D01*
X185846000Y-52158797D01*
X185846000Y-52341203D01*
X185810415Y-52520104D01*
X185740611Y-52688626D01*
X185639272Y-52840291D01*
X185510291Y-52969272D01*
X185358626Y-53070611D01*
X185190104Y-53140415D01*
X185011203Y-53176000D01*
X184828797Y-53176000D01*
X184649896Y-53140415D01*
X184481374Y-53070611D01*
X184329709Y-52969272D01*
X184200728Y-52840291D01*
X184099389Y-52688626D01*
X184029585Y-52520104D01*
X183994000Y-52341203D01*
X183994000Y-52158797D01*
X184029585Y-51979896D01*
X184099389Y-51811374D01*
X184200728Y-51659709D01*
X184329709Y-51530728D01*
X184481374Y-51429389D01*
X184649896Y-51359585D01*
X184828797Y-51324000D01*
X185011203Y-51324000D01*
X185190104Y-51359585D01*
G37*
G36*
X204190104Y-51359585D02*
G01*
X204358626Y-51429389D01*
X204510291Y-51530728D01*
X204639272Y-51659709D01*
X204740611Y-51811374D01*
X204810415Y-51979896D01*
X204846000Y-52158797D01*
X204846000Y-52341203D01*
X204810415Y-52520104D01*
X204740611Y-52688626D01*
X204639272Y-52840291D01*
X204510291Y-52969272D01*
X204358626Y-53070611D01*
X204190104Y-53140415D01*
X204011203Y-53176000D01*
X203828797Y-53176000D01*
X203649896Y-53140415D01*
X203481374Y-53070611D01*
X203329709Y-52969272D01*
X203200728Y-52840291D01*
X203099389Y-52688626D01*
X203029585Y-52520104D01*
X202994000Y-52341203D01*
X202994000Y-52158797D01*
X203029585Y-51979896D01*
X203099389Y-51811374D01*
X203200728Y-51659709D01*
X203329709Y-51530728D01*
X203481374Y-51429389D01*
X203649896Y-51359585D01*
X203828797Y-51324000D01*
X204011203Y-51324000D01*
X204190104Y-51359585D01*
G37*
G36*
X40975104Y-51359585D02*
G01*
X41143626Y-51429389D01*
X41295291Y-51530728D01*
X41424272Y-51659709D01*
X41525611Y-51811374D01*
X41595415Y-51979896D01*
X41631000Y-52158797D01*
X41631000Y-52341203D01*
X41595415Y-52520104D01*
X41525611Y-52688626D01*
X41424272Y-52840291D01*
X41295291Y-52969272D01*
X41143626Y-53070611D01*
X40975104Y-53140415D01*
X40796203Y-53176000D01*
X40613797Y-53176000D01*
X40434896Y-53140415D01*
X40266374Y-53070611D01*
X40114709Y-52969272D01*
X39985728Y-52840291D01*
X39884389Y-52688626D01*
X39814585Y-52520104D01*
X39779000Y-52341203D01*
X39779000Y-52158797D01*
X39814585Y-51979896D01*
X39884389Y-51811374D01*
X39985728Y-51659709D01*
X40114709Y-51530728D01*
X40266374Y-51429389D01*
X40434896Y-51359585D01*
X40613797Y-51324000D01*
X40796203Y-51324000D01*
X40975104Y-51359585D01*
G37*
G36*
X71190104Y-51359585D02*
G01*
X71358626Y-51429389D01*
X71510291Y-51530728D01*
X71639272Y-51659709D01*
X71740611Y-51811374D01*
X71810415Y-51979896D01*
X71846000Y-52158797D01*
X71846000Y-52341203D01*
X71810415Y-52520104D01*
X71740611Y-52688626D01*
X71639272Y-52840291D01*
X71510291Y-52969272D01*
X71358626Y-53070611D01*
X71190104Y-53140415D01*
X71011203Y-53176000D01*
X70828797Y-53176000D01*
X70649896Y-53140415D01*
X70481374Y-53070611D01*
X70329709Y-52969272D01*
X70200728Y-52840291D01*
X70099389Y-52688626D01*
X70029585Y-52520104D01*
X69994000Y-52341203D01*
X69994000Y-52158797D01*
X70029585Y-51979896D01*
X70099389Y-51811374D01*
X70200728Y-51659709D01*
X70329709Y-51530728D01*
X70481374Y-51429389D01*
X70649896Y-51359585D01*
X70828797Y-51324000D01*
X71011203Y-51324000D01*
X71190104Y-51359585D01*
G37*
G36*
X100350104Y-51359585D02*
G01*
X100518626Y-51429389D01*
X100670291Y-51530728D01*
X100799272Y-51659709D01*
X100900611Y-51811374D01*
X100970415Y-51979896D01*
X101006000Y-52158797D01*
X101006000Y-52341203D01*
X100970415Y-52520104D01*
X100900611Y-52688626D01*
X100799272Y-52840291D01*
X100670291Y-52969272D01*
X100518626Y-53070611D01*
X100350104Y-53140415D01*
X100171203Y-53176000D01*
X99988797Y-53176000D01*
X99809896Y-53140415D01*
X99641374Y-53070611D01*
X99489709Y-52969272D01*
X99360728Y-52840291D01*
X99259389Y-52688626D01*
X99189585Y-52520104D01*
X99154000Y-52341203D01*
X99154000Y-52158797D01*
X99189585Y-51979896D01*
X99259389Y-51811374D01*
X99360728Y-51659709D01*
X99489709Y-51530728D01*
X99641374Y-51429389D01*
X99809896Y-51359585D01*
X99988797Y-51324000D01*
X100171203Y-51324000D01*
X100350104Y-51359585D01*
G37*
G36*
X223190104Y-51359585D02*
G01*
X223358626Y-51429389D01*
X223510291Y-51530728D01*
X223639272Y-51659709D01*
X223740611Y-51811374D01*
X223810415Y-51979896D01*
X223846000Y-52158797D01*
X223846000Y-52341203D01*
X223810415Y-52520104D01*
X223740611Y-52688626D01*
X223639272Y-52840291D01*
X223510291Y-52969272D01*
X223358626Y-53070611D01*
X223190104Y-53140415D01*
X223011203Y-53176000D01*
X222828797Y-53176000D01*
X222649896Y-53140415D01*
X222481374Y-53070611D01*
X222329709Y-52969272D01*
X222200728Y-52840291D01*
X222099389Y-52688626D01*
X222029585Y-52520104D01*
X221994000Y-52341203D01*
X221994000Y-52158797D01*
X222029585Y-51979896D01*
X222099389Y-51811374D01*
X222200728Y-51659709D01*
X222329709Y-51530728D01*
X222481374Y-51429389D01*
X222649896Y-51359585D01*
X222828797Y-51324000D01*
X223011203Y-51324000D01*
X223190104Y-51359585D01*
G37*
G36*
X128190104Y-51359585D02*
G01*
X128358626Y-51429389D01*
X128510291Y-51530728D01*
X128639272Y-51659709D01*
X128740611Y-51811374D01*
X128810415Y-51979896D01*
X128846000Y-52158797D01*
X128846000Y-52341203D01*
X128810415Y-52520104D01*
X128740611Y-52688626D01*
X128639272Y-52840291D01*
X128510291Y-52969272D01*
X128358626Y-53070611D01*
X128190104Y-53140415D01*
X128011203Y-53176000D01*
X127828797Y-53176000D01*
X127649896Y-53140415D01*
X127481374Y-53070611D01*
X127329709Y-52969272D01*
X127200728Y-52840291D01*
X127099389Y-52688626D01*
X127029585Y-52520104D01*
X126994000Y-52341203D01*
X126994000Y-52158797D01*
X127029585Y-51979896D01*
X127099389Y-51811374D01*
X127200728Y-51659709D01*
X127329709Y-51530728D01*
X127481374Y-51429389D01*
X127649896Y-51359585D01*
X127828797Y-51324000D01*
X128011203Y-51324000D01*
X128190104Y-51359585D01*
G37*
G36*
X214350104Y-51359585D02*
G01*
X214518626Y-51429389D01*
X214670291Y-51530728D01*
X214799272Y-51659709D01*
X214900611Y-51811374D01*
X214970415Y-51979896D01*
X215006000Y-52158797D01*
X215006000Y-52341203D01*
X214970415Y-52520104D01*
X214900611Y-52688626D01*
X214799272Y-52840291D01*
X214670291Y-52969272D01*
X214518626Y-53070611D01*
X214350104Y-53140415D01*
X214171203Y-53176000D01*
X213988797Y-53176000D01*
X213809896Y-53140415D01*
X213641374Y-53070611D01*
X213489709Y-52969272D01*
X213360728Y-52840291D01*
X213259389Y-52688626D01*
X213189585Y-52520104D01*
X213154000Y-52341203D01*
X213154000Y-52158797D01*
X213189585Y-51979896D01*
X213259389Y-51811374D01*
X213360728Y-51659709D01*
X213489709Y-51530728D01*
X213641374Y-51429389D01*
X213809896Y-51359585D01*
X213988797Y-51324000D01*
X214171203Y-51324000D01*
X214350104Y-51359585D01*
G37*
G36*
X233350104Y-51359585D02*
G01*
X233518626Y-51429389D01*
X233670291Y-51530728D01*
X233799272Y-51659709D01*
X233900611Y-51811374D01*
X233970415Y-51979896D01*
X234006000Y-52158797D01*
X234006000Y-52341203D01*
X233970415Y-52520104D01*
X233900611Y-52688626D01*
X233799272Y-52840291D01*
X233670291Y-52969272D01*
X233518626Y-53070611D01*
X233350104Y-53140415D01*
X233171203Y-53176000D01*
X232988797Y-53176000D01*
X232809896Y-53140415D01*
X232641374Y-53070611D01*
X232489709Y-52969272D01*
X232360728Y-52840291D01*
X232259389Y-52688626D01*
X232189585Y-52520104D01*
X232154000Y-52341203D01*
X232154000Y-52158797D01*
X232189585Y-51979896D01*
X232259389Y-51811374D01*
X232360728Y-51659709D01*
X232489709Y-51530728D01*
X232641374Y-51429389D01*
X232809896Y-51359585D01*
X232988797Y-51324000D01*
X233171203Y-51324000D01*
X233350104Y-51359585D01*
G37*
G36*
X249315104Y-51359585D02*
G01*
X249483626Y-51429389D01*
X249635291Y-51530728D01*
X249764272Y-51659709D01*
X249865611Y-51811374D01*
X249935415Y-51979896D01*
X249971000Y-52158797D01*
X249971000Y-52341203D01*
X249935415Y-52520104D01*
X249865611Y-52688626D01*
X249764272Y-52840291D01*
X249635291Y-52969272D01*
X249483626Y-53070611D01*
X249315104Y-53140415D01*
X249136203Y-53176000D01*
X248953797Y-53176000D01*
X248774896Y-53140415D01*
X248606374Y-53070611D01*
X248454709Y-52969272D01*
X248325728Y-52840291D01*
X248224389Y-52688626D01*
X248154585Y-52520104D01*
X248119000Y-52341203D01*
X248119000Y-52158797D01*
X248154585Y-51979896D01*
X248224389Y-51811374D01*
X248325728Y-51659709D01*
X248454709Y-51530728D01*
X248606374Y-51429389D01*
X248774896Y-51359585D01*
X248953797Y-51324000D01*
X249136203Y-51324000D01*
X249315104Y-51359585D01*
G37*
G36*
X259475104Y-51359585D02*
G01*
X259643626Y-51429389D01*
X259795291Y-51530728D01*
X259924272Y-51659709D01*
X260025611Y-51811374D01*
X260095415Y-51979896D01*
X260131000Y-52158797D01*
X260131000Y-52341203D01*
X260095415Y-52520104D01*
X260025611Y-52688626D01*
X259924272Y-52840291D01*
X259795291Y-52969272D01*
X259643626Y-53070611D01*
X259475104Y-53140415D01*
X259296203Y-53176000D01*
X259113797Y-53176000D01*
X258934896Y-53140415D01*
X258766374Y-53070611D01*
X258614709Y-52969272D01*
X258485728Y-52840291D01*
X258384389Y-52688626D01*
X258314585Y-52520104D01*
X258279000Y-52341203D01*
X258279000Y-52158797D01*
X258314585Y-51979896D01*
X258384389Y-51811374D01*
X258485728Y-51659709D01*
X258614709Y-51530728D01*
X258766374Y-51429389D01*
X258934896Y-51359585D01*
X259113797Y-51324000D01*
X259296203Y-51324000D01*
X259475104Y-51359585D01*
G37*
G36*
X30815104Y-51359585D02*
G01*
X30983626Y-51429389D01*
X31135291Y-51530728D01*
X31264272Y-51659709D01*
X31365611Y-51811374D01*
X31435415Y-51979896D01*
X31471000Y-52158797D01*
X31471000Y-52341203D01*
X31435415Y-52520104D01*
X31365611Y-52688626D01*
X31264272Y-52840291D01*
X31135291Y-52969272D01*
X30983626Y-53070611D01*
X30815104Y-53140415D01*
X30636203Y-53176000D01*
X30453797Y-53176000D01*
X30274896Y-53140415D01*
X30106374Y-53070611D01*
X29954709Y-52969272D01*
X29825728Y-52840291D01*
X29724389Y-52688626D01*
X29654585Y-52520104D01*
X29619000Y-52341203D01*
X29619000Y-52158797D01*
X29654585Y-51979896D01*
X29724389Y-51811374D01*
X29825728Y-51659709D01*
X29954709Y-51530728D01*
X30106374Y-51429389D01*
X30274896Y-51359585D01*
X30453797Y-51324000D01*
X30636203Y-51324000D01*
X30815104Y-51359585D01*
G37*
G36*
X62350104Y-51359585D02*
G01*
X62518626Y-51429389D01*
X62670291Y-51530728D01*
X62799272Y-51659709D01*
X62900611Y-51811374D01*
X62970415Y-51979896D01*
X63006000Y-52158797D01*
X63006000Y-52341203D01*
X62970415Y-52520104D01*
X62900611Y-52688626D01*
X62799272Y-52840291D01*
X62670291Y-52969272D01*
X62518626Y-53070611D01*
X62350104Y-53140415D01*
X62171203Y-53176000D01*
X61988797Y-53176000D01*
X61809896Y-53140415D01*
X61641374Y-53070611D01*
X61489709Y-52969272D01*
X61360728Y-52840291D01*
X61259389Y-52688626D01*
X61189585Y-52520104D01*
X61154000Y-52341203D01*
X61154000Y-52158797D01*
X61189585Y-51979896D01*
X61259389Y-51811374D01*
X61360728Y-51659709D01*
X61489709Y-51530728D01*
X61641374Y-51429389D01*
X61809896Y-51359585D01*
X61988797Y-51324000D01*
X62171203Y-51324000D01*
X62350104Y-51359585D01*
G37*
G36*
X52190104Y-51359585D02*
G01*
X52358626Y-51429389D01*
X52510291Y-51530728D01*
X52639272Y-51659709D01*
X52740611Y-51811374D01*
X52810415Y-51979896D01*
X52846000Y-52158797D01*
X52846000Y-52341203D01*
X52810415Y-52520104D01*
X52740611Y-52688626D01*
X52639272Y-52840291D01*
X52510291Y-52969272D01*
X52358626Y-53070611D01*
X52190104Y-53140415D01*
X52011203Y-53176000D01*
X51828797Y-53176000D01*
X51649896Y-53140415D01*
X51481374Y-53070611D01*
X51329709Y-52969272D01*
X51200728Y-52840291D01*
X51099389Y-52688626D01*
X51029585Y-52520104D01*
X50994000Y-52341203D01*
X50994000Y-52158797D01*
X51029585Y-51979896D01*
X51099389Y-51811374D01*
X51200728Y-51659709D01*
X51329709Y-51530728D01*
X51481374Y-51429389D01*
X51649896Y-51359585D01*
X51828797Y-51324000D01*
X52011203Y-51324000D01*
X52190104Y-51359585D01*
G37*
G36*
X81350104Y-51359585D02*
G01*
X81518626Y-51429389D01*
X81670291Y-51530728D01*
X81799272Y-51659709D01*
X81900611Y-51811374D01*
X81970415Y-51979896D01*
X82006000Y-52158797D01*
X82006000Y-52341203D01*
X81970415Y-52520104D01*
X81900611Y-52688626D01*
X81799272Y-52840291D01*
X81670291Y-52969272D01*
X81518626Y-53070611D01*
X81350104Y-53140415D01*
X81171203Y-53176000D01*
X80988797Y-53176000D01*
X80809896Y-53140415D01*
X80641374Y-53070611D01*
X80489709Y-52969272D01*
X80360728Y-52840291D01*
X80259389Y-52688626D01*
X80189585Y-52520104D01*
X80154000Y-52341203D01*
X80154000Y-52158797D01*
X80189585Y-51979896D01*
X80259389Y-51811374D01*
X80360728Y-51659709D01*
X80489709Y-51530728D01*
X80641374Y-51429389D01*
X80809896Y-51359585D01*
X80988797Y-51324000D01*
X81171203Y-51324000D01*
X81350104Y-51359585D01*
G37*
G36*
X247275880Y-40509776D02*
G01*
X247656593Y-40585504D01*
X248066249Y-40755189D01*
X248434929Y-41001534D01*
X248748466Y-41315071D01*
X248994811Y-41683751D01*
X249164496Y-42093407D01*
X249251000Y-42528296D01*
X249251000Y-42971704D01*
X249164496Y-43406593D01*
X248994811Y-43816249D01*
X248748466Y-44184929D01*
X248434929Y-44498466D01*
X248066249Y-44744811D01*
X247656593Y-44914496D01*
X247275880Y-44990224D01*
X247221705Y-45001000D01*
X246778295Y-45001000D01*
X246724120Y-44990224D01*
X246343407Y-44914496D01*
X245933751Y-44744811D01*
X245565071Y-44498466D01*
X245251534Y-44184929D01*
X245005189Y-43816249D01*
X244835504Y-43406593D01*
X244749000Y-42971704D01*
X244749000Y-42528296D01*
X244835504Y-42093407D01*
X245005189Y-41683751D01*
X245251534Y-41315071D01*
X245565071Y-41001534D01*
X245933751Y-40755189D01*
X246343407Y-40585504D01*
X246724120Y-40509776D01*
X246778295Y-40499000D01*
X247221705Y-40499000D01*
X247275880Y-40509776D01*
G37*
G36*
X47775880Y-40509776D02*
G01*
X48156593Y-40585504D01*
X48566249Y-40755189D01*
X48934929Y-41001534D01*
X49248466Y-41315071D01*
X49494811Y-41683751D01*
X49664496Y-42093407D01*
X49751000Y-42528296D01*
X49751000Y-42971704D01*
X49664496Y-43406593D01*
X49494811Y-43816249D01*
X49248466Y-44184929D01*
X48934929Y-44498466D01*
X48566249Y-44744811D01*
X48156593Y-44914496D01*
X47775880Y-44990224D01*
X47721705Y-45001000D01*
X47278295Y-45001000D01*
X47224120Y-44990224D01*
X46843407Y-44914496D01*
X46433751Y-44744811D01*
X46065071Y-44498466D01*
X45751534Y-44184929D01*
X45505189Y-43816249D01*
X45335504Y-43406593D01*
X45249000Y-42971704D01*
X45249000Y-42528296D01*
X45335504Y-42093407D01*
X45505189Y-41683751D01*
X45751534Y-41315071D01*
X46065071Y-41001534D01*
X46433751Y-40755189D01*
X46843407Y-40585504D01*
X47224120Y-40509776D01*
X47278295Y-40499000D01*
X47721705Y-40499000D01*
X47775880Y-40509776D01*
G37*
G36*
X109846474Y-31283684D02*
G01*
X110064474Y-31373983D01*
X110218623Y-31437833D01*
X110553548Y-31661623D01*
X110838377Y-31946452D01*
X111062167Y-32281377D01*
X111094562Y-32359586D01*
X111216316Y-32653526D01*
X111294900Y-33048594D01*
X111294900Y-33451406D01*
X111216316Y-33846474D01*
X111165451Y-33969272D01*
X111062167Y-34218623D01*
X110838377Y-34553548D01*
X110553548Y-34838377D01*
X110218623Y-35062167D01*
X110064474Y-35126017D01*
X109846474Y-35216316D01*
X109451406Y-35294900D01*
X109048594Y-35294900D01*
X108653526Y-35216316D01*
X108435526Y-35126017D01*
X108281377Y-35062167D01*
X107946452Y-34838377D01*
X107661623Y-34553548D01*
X107437833Y-34218623D01*
X107334549Y-33969272D01*
X107283684Y-33846474D01*
X107205100Y-33451406D01*
X107205100Y-33048594D01*
X107283684Y-32653526D01*
X107405438Y-32359586D01*
X107437833Y-32281377D01*
X107661623Y-31946452D01*
X107946452Y-31661623D01*
X108281377Y-31437833D01*
X108435526Y-31373983D01*
X108653526Y-31283684D01*
X109048594Y-31205100D01*
X109451406Y-31205100D01*
X109846474Y-31283684D01*
G37*
G36*
X223846474Y-31283684D02*
G01*
X224064474Y-31373983D01*
X224218623Y-31437833D01*
X224553548Y-31661623D01*
X224838377Y-31946452D01*
X225062167Y-32281377D01*
X225094562Y-32359586D01*
X225216316Y-32653526D01*
X225294900Y-33048594D01*
X225294900Y-33451406D01*
X225216316Y-33846474D01*
X225165451Y-33969272D01*
X225062167Y-34218623D01*
X224838377Y-34553548D01*
X224553548Y-34838377D01*
X224218623Y-35062167D01*
X224064474Y-35126017D01*
X223846474Y-35216316D01*
X223451406Y-35294900D01*
X223048594Y-35294900D01*
X222653526Y-35216316D01*
X222435526Y-35126017D01*
X222281377Y-35062167D01*
X221946452Y-34838377D01*
X221661623Y-34553548D01*
X221437833Y-34218623D01*
X221334549Y-33969272D01*
X221283684Y-33846474D01*
X221205100Y-33451406D01*
X221205100Y-33048594D01*
X221283684Y-32653526D01*
X221405438Y-32359586D01*
X221437833Y-32281377D01*
X221661623Y-31946452D01*
X221946452Y-31661623D01*
X222281377Y-31437833D01*
X222435526Y-31373983D01*
X222653526Y-31283684D01*
X223048594Y-31205100D01*
X223451406Y-31205100D01*
X223846474Y-31283684D01*
G37*
G36*
X204846474Y-31283684D02*
G01*
X205064474Y-31373983D01*
X205218623Y-31437833D01*
X205553548Y-31661623D01*
X205838377Y-31946452D01*
X206062167Y-32281377D01*
X206094562Y-32359586D01*
X206216316Y-32653526D01*
X206294900Y-33048594D01*
X206294900Y-33451406D01*
X206216316Y-33846474D01*
X206165451Y-33969272D01*
X206062167Y-34218623D01*
X205838377Y-34553548D01*
X205553548Y-34838377D01*
X205218623Y-35062167D01*
X205064474Y-35126017D01*
X204846474Y-35216316D01*
X204451406Y-35294900D01*
X204048594Y-35294900D01*
X203653526Y-35216316D01*
X203435526Y-35126017D01*
X203281377Y-35062167D01*
X202946452Y-34838377D01*
X202661623Y-34553548D01*
X202437833Y-34218623D01*
X202334549Y-33969272D01*
X202283684Y-33846474D01*
X202205100Y-33451406D01*
X202205100Y-33048594D01*
X202283684Y-32653526D01*
X202405438Y-32359586D01*
X202437833Y-32281377D01*
X202661623Y-31946452D01*
X202946452Y-31661623D01*
X203281377Y-31437833D01*
X203435526Y-31373983D01*
X203653526Y-31283684D01*
X204048594Y-31205100D01*
X204451406Y-31205100D01*
X204846474Y-31283684D01*
G37*
G36*
X185846474Y-31283684D02*
G01*
X186064474Y-31373983D01*
X186218623Y-31437833D01*
X186553548Y-31661623D01*
X186838377Y-31946452D01*
X187062167Y-32281377D01*
X187094562Y-32359586D01*
X187216316Y-32653526D01*
X187294900Y-33048594D01*
X187294900Y-33451406D01*
X187216316Y-33846474D01*
X187165451Y-33969272D01*
X187062167Y-34218623D01*
X186838377Y-34553548D01*
X186553548Y-34838377D01*
X186218623Y-35062167D01*
X186064474Y-35126017D01*
X185846474Y-35216316D01*
X185451406Y-35294900D01*
X185048594Y-35294900D01*
X184653526Y-35216316D01*
X184435526Y-35126017D01*
X184281377Y-35062167D01*
X183946452Y-34838377D01*
X183661623Y-34553548D01*
X183437833Y-34218623D01*
X183334549Y-33969272D01*
X183283684Y-33846474D01*
X183205100Y-33451406D01*
X183205100Y-33048594D01*
X183283684Y-32653526D01*
X183405438Y-32359586D01*
X183437833Y-32281377D01*
X183661623Y-31946452D01*
X183946452Y-31661623D01*
X184281377Y-31437833D01*
X184435526Y-31373983D01*
X184653526Y-31283684D01*
X185048594Y-31205100D01*
X185451406Y-31205100D01*
X185846474Y-31283684D01*
G37*
G36*
X166846474Y-31283684D02*
G01*
X167064474Y-31373983D01*
X167218623Y-31437833D01*
X167553548Y-31661623D01*
X167838377Y-31946452D01*
X168062167Y-32281377D01*
X168094562Y-32359586D01*
X168216316Y-32653526D01*
X168294900Y-33048594D01*
X168294900Y-33451406D01*
X168216316Y-33846474D01*
X168165451Y-33969272D01*
X168062167Y-34218623D01*
X167838377Y-34553548D01*
X167553548Y-34838377D01*
X167218623Y-35062167D01*
X167064474Y-35126017D01*
X166846474Y-35216316D01*
X166451406Y-35294900D01*
X166048594Y-35294900D01*
X165653526Y-35216316D01*
X165435526Y-35126017D01*
X165281377Y-35062167D01*
X164946452Y-34838377D01*
X164661623Y-34553548D01*
X164437833Y-34218623D01*
X164334549Y-33969272D01*
X164283684Y-33846474D01*
X164205100Y-33451406D01*
X164205100Y-33048594D01*
X164283684Y-32653526D01*
X164405438Y-32359586D01*
X164437833Y-32281377D01*
X164661623Y-31946452D01*
X164946452Y-31661623D01*
X165281377Y-31437833D01*
X165435526Y-31373983D01*
X165653526Y-31283684D01*
X166048594Y-31205100D01*
X166451406Y-31205100D01*
X166846474Y-31283684D01*
G37*
G36*
X147846474Y-31283684D02*
G01*
X148064474Y-31373983D01*
X148218623Y-31437833D01*
X148553548Y-31661623D01*
X148838377Y-31946452D01*
X149062167Y-32281377D01*
X149094562Y-32359586D01*
X149216316Y-32653526D01*
X149294900Y-33048594D01*
X149294900Y-33451406D01*
X149216316Y-33846474D01*
X149165451Y-33969272D01*
X149062167Y-34218623D01*
X148838377Y-34553548D01*
X148553548Y-34838377D01*
X148218623Y-35062167D01*
X148064474Y-35126017D01*
X147846474Y-35216316D01*
X147451406Y-35294900D01*
X147048594Y-35294900D01*
X146653526Y-35216316D01*
X146435526Y-35126017D01*
X146281377Y-35062167D01*
X145946452Y-34838377D01*
X145661623Y-34553548D01*
X145437833Y-34218623D01*
X145334549Y-33969272D01*
X145283684Y-33846474D01*
X145205100Y-33451406D01*
X145205100Y-33048594D01*
X145283684Y-32653526D01*
X145405438Y-32359586D01*
X145437833Y-32281377D01*
X145661623Y-31946452D01*
X145946452Y-31661623D01*
X146281377Y-31437833D01*
X146435526Y-31373983D01*
X146653526Y-31283684D01*
X147048594Y-31205100D01*
X147451406Y-31205100D01*
X147846474Y-31283684D01*
G37*
G36*
X128846474Y-31283684D02*
G01*
X129064474Y-31373983D01*
X129218623Y-31437833D01*
X129553548Y-31661623D01*
X129838377Y-31946452D01*
X130062167Y-32281377D01*
X130094562Y-32359586D01*
X130216316Y-32653526D01*
X130294900Y-33048594D01*
X130294900Y-33451406D01*
X130216316Y-33846474D01*
X130165451Y-33969272D01*
X130062167Y-34218623D01*
X129838377Y-34553548D01*
X129553548Y-34838377D01*
X129218623Y-35062167D01*
X129064474Y-35126017D01*
X128846474Y-35216316D01*
X128451406Y-35294900D01*
X128048594Y-35294900D01*
X127653526Y-35216316D01*
X127435526Y-35126017D01*
X127281377Y-35062167D01*
X126946452Y-34838377D01*
X126661623Y-34553548D01*
X126437833Y-34218623D01*
X126334549Y-33969272D01*
X126283684Y-33846474D01*
X126205100Y-33451406D01*
X126205100Y-33048594D01*
X126283684Y-32653526D01*
X126405438Y-32359586D01*
X126437833Y-32281377D01*
X126661623Y-31946452D01*
X126946452Y-31661623D01*
X127281377Y-31437833D01*
X127435526Y-31373983D01*
X127653526Y-31283684D01*
X128048594Y-31205100D01*
X128451406Y-31205100D01*
X128846474Y-31283684D01*
G37*
G36*
X90846474Y-31283684D02*
G01*
X91064474Y-31373983D01*
X91218623Y-31437833D01*
X91553548Y-31661623D01*
X91838377Y-31946452D01*
X92062167Y-32281377D01*
X92094562Y-32359586D01*
X92216316Y-32653526D01*
X92294900Y-33048594D01*
X92294900Y-33451406D01*
X92216316Y-33846474D01*
X92165451Y-33969272D01*
X92062167Y-34218623D01*
X91838377Y-34553548D01*
X91553548Y-34838377D01*
X91218623Y-35062167D01*
X91064474Y-35126017D01*
X90846474Y-35216316D01*
X90451406Y-35294900D01*
X90048594Y-35294900D01*
X89653526Y-35216316D01*
X89435526Y-35126017D01*
X89281377Y-35062167D01*
X88946452Y-34838377D01*
X88661623Y-34553548D01*
X88437833Y-34218623D01*
X88334549Y-33969272D01*
X88283684Y-33846474D01*
X88205100Y-33451406D01*
X88205100Y-33048594D01*
X88283684Y-32653526D01*
X88405438Y-32359586D01*
X88437833Y-32281377D01*
X88661623Y-31946452D01*
X88946452Y-31661623D01*
X89281377Y-31437833D01*
X89435526Y-31373983D01*
X89653526Y-31283684D01*
X90048594Y-31205100D01*
X90451406Y-31205100D01*
X90846474Y-31283684D01*
G37*
G36*
X52846474Y-31283684D02*
G01*
X53064474Y-31373983D01*
X53218623Y-31437833D01*
X53553548Y-31661623D01*
X53838377Y-31946452D01*
X54062167Y-32281377D01*
X54094562Y-32359586D01*
X54216316Y-32653526D01*
X54294900Y-33048594D01*
X54294900Y-33451406D01*
X54216316Y-33846474D01*
X54165451Y-33969272D01*
X54062167Y-34218623D01*
X53838377Y-34553548D01*
X53553548Y-34838377D01*
X53218623Y-35062167D01*
X53064474Y-35126017D01*
X52846474Y-35216316D01*
X52451406Y-35294900D01*
X52048594Y-35294900D01*
X51653526Y-35216316D01*
X51435526Y-35126017D01*
X51281377Y-35062167D01*
X50946452Y-34838377D01*
X50661623Y-34553548D01*
X50437833Y-34218623D01*
X50334549Y-33969272D01*
X50283684Y-33846474D01*
X50205100Y-33451406D01*
X50205100Y-33048594D01*
X50283684Y-32653526D01*
X50405438Y-32359586D01*
X50437833Y-32281377D01*
X50661623Y-31946452D01*
X50946452Y-31661623D01*
X51281377Y-31437833D01*
X51435526Y-31373983D01*
X51653526Y-31283684D01*
X52048594Y-31205100D01*
X52451406Y-31205100D01*
X52846474Y-31283684D01*
G37*
G36*
X71846474Y-31283684D02*
G01*
X72064474Y-31373983D01*
X72218623Y-31437833D01*
X72553548Y-31661623D01*
X72838377Y-31946452D01*
X73062167Y-32281377D01*
X73094562Y-32359586D01*
X73216316Y-32653526D01*
X73294900Y-33048594D01*
X73294900Y-33451406D01*
X73216316Y-33846474D01*
X73165451Y-33969272D01*
X73062167Y-34218623D01*
X72838377Y-34553548D01*
X72553548Y-34838377D01*
X72218623Y-35062167D01*
X72064474Y-35126017D01*
X71846474Y-35216316D01*
X71451406Y-35294900D01*
X71048594Y-35294900D01*
X70653526Y-35216316D01*
X70435526Y-35126017D01*
X70281377Y-35062167D01*
X69946452Y-34838377D01*
X69661623Y-34553548D01*
X69437833Y-34218623D01*
X69334549Y-33969272D01*
X69283684Y-33846474D01*
X69205100Y-33451406D01*
X69205100Y-33048594D01*
X69283684Y-32653526D01*
X69405438Y-32359586D01*
X69437833Y-32281377D01*
X69661623Y-31946452D01*
X69946452Y-31661623D01*
X70281377Y-31437833D01*
X70435526Y-31373983D01*
X70653526Y-31283684D01*
X71048594Y-31205100D01*
X71451406Y-31205100D01*
X71846474Y-31283684D01*
G37*
G36*
X33846474Y-31283684D02*
G01*
X34064474Y-31373983D01*
X34218623Y-31437833D01*
X34553548Y-31661623D01*
X34838377Y-31946452D01*
X35062167Y-32281377D01*
X35094562Y-32359586D01*
X35216316Y-32653526D01*
X35294900Y-33048594D01*
X35294900Y-33451406D01*
X35216316Y-33846474D01*
X35165451Y-33969272D01*
X35062167Y-34218623D01*
X34838377Y-34553548D01*
X34553548Y-34838377D01*
X34218623Y-35062167D01*
X34064474Y-35126017D01*
X33846474Y-35216316D01*
X33451406Y-35294900D01*
X33048594Y-35294900D01*
X32653526Y-35216316D01*
X32435526Y-35126017D01*
X32281377Y-35062167D01*
X31946452Y-34838377D01*
X31661623Y-34553548D01*
X31437833Y-34218623D01*
X31334549Y-33969272D01*
X31283684Y-33846474D01*
X31205100Y-33451406D01*
X31205100Y-33048594D01*
X31283684Y-32653526D01*
X31405438Y-32359586D01*
X31437833Y-32281377D01*
X31661623Y-31946452D01*
X31946452Y-31661623D01*
X32281377Y-31437833D01*
X32435526Y-31373983D01*
X32653526Y-31283684D01*
X33048594Y-31205100D01*
X33451406Y-31205100D01*
X33846474Y-31283684D01*
G37*
G36*
X261846474Y-31283684D02*
G01*
X262064474Y-31373983D01*
X262218623Y-31437833D01*
X262553548Y-31661623D01*
X262838377Y-31946452D01*
X263062167Y-32281377D01*
X263094562Y-32359586D01*
X263216316Y-32653526D01*
X263294900Y-33048594D01*
X263294900Y-33451406D01*
X263216316Y-33846474D01*
X263165451Y-33969272D01*
X263062167Y-34218623D01*
X262838377Y-34553548D01*
X262553548Y-34838377D01*
X262218623Y-35062167D01*
X262064474Y-35126017D01*
X261846474Y-35216316D01*
X261451406Y-35294900D01*
X261048594Y-35294900D01*
X260653526Y-35216316D01*
X260435526Y-35126017D01*
X260281377Y-35062167D01*
X259946452Y-34838377D01*
X259661623Y-34553548D01*
X259437833Y-34218623D01*
X259334549Y-33969272D01*
X259283684Y-33846474D01*
X259205100Y-33451406D01*
X259205100Y-33048594D01*
X259283684Y-32653526D01*
X259405438Y-32359586D01*
X259437833Y-32281377D01*
X259661623Y-31946452D01*
X259946452Y-31661623D01*
X260281377Y-31437833D01*
X260435526Y-31373983D01*
X260653526Y-31283684D01*
X261048594Y-31205100D01*
X261451406Y-31205100D01*
X261846474Y-31283684D01*
G37*
G36*
X242846474Y-31283684D02*
G01*
X243064474Y-31373983D01*
X243218623Y-31437833D01*
X243553548Y-31661623D01*
X243838377Y-31946452D01*
X244062167Y-32281377D01*
X244094562Y-32359586D01*
X244216316Y-32653526D01*
X244294900Y-33048594D01*
X244294900Y-33451406D01*
X244216316Y-33846474D01*
X244165451Y-33969272D01*
X244062167Y-34218623D01*
X243838377Y-34553548D01*
X243553548Y-34838377D01*
X243218623Y-35062167D01*
X243064474Y-35126017D01*
X242846474Y-35216316D01*
X242451406Y-35294900D01*
X242048594Y-35294900D01*
X241653526Y-35216316D01*
X241435526Y-35126017D01*
X241281377Y-35062167D01*
X240946452Y-34838377D01*
X240661623Y-34553548D01*
X240437833Y-34218623D01*
X240334549Y-33969272D01*
X240283684Y-33846474D01*
X240205100Y-33451406D01*
X240205100Y-33048594D01*
X240283684Y-32653526D01*
X240405438Y-32359586D01*
X240437833Y-32281377D01*
X240661623Y-31946452D01*
X240946452Y-31661623D01*
X241281377Y-31437833D01*
X241435526Y-31373983D01*
X241653526Y-31283684D01*
X242048594Y-31205100D01*
X242451406Y-31205100D01*
X242846474Y-31283684D01*
G37*
G36*
X142440104Y-32359585D02*
G01*
X142608626Y-32429389D01*
X142760291Y-32530728D01*
X142889272Y-32659709D01*
X142990611Y-32811374D01*
X143060415Y-32979896D01*
X143096000Y-33158797D01*
X143096000Y-33341203D01*
X143060415Y-33520104D01*
X142990611Y-33688626D01*
X142889272Y-33840291D01*
X142760291Y-33969272D01*
X142608626Y-34070611D01*
X142440104Y-34140415D01*
X142261203Y-34176000D01*
X142078797Y-34176000D01*
X141899896Y-34140415D01*
X141731374Y-34070611D01*
X141579709Y-33969272D01*
X141450728Y-33840291D01*
X141349389Y-33688626D01*
X141279585Y-33520104D01*
X141244000Y-33341203D01*
X141244000Y-33158797D01*
X141279585Y-32979896D01*
X141349389Y-32811374D01*
X141450728Y-32659709D01*
X141579709Y-32530728D01*
X141731374Y-32429389D01*
X141899896Y-32359585D01*
X142078797Y-32324000D01*
X142261203Y-32324000D01*
X142440104Y-32359585D01*
G37*
G36*
X57600104Y-32359585D02*
G01*
X57768626Y-32429389D01*
X57920291Y-32530728D01*
X58049272Y-32659709D01*
X58150611Y-32811374D01*
X58220415Y-32979896D01*
X58256000Y-33158797D01*
X58256000Y-33341203D01*
X58220415Y-33520104D01*
X58150611Y-33688626D01*
X58049272Y-33840291D01*
X57920291Y-33969272D01*
X57768626Y-34070611D01*
X57600104Y-34140415D01*
X57421203Y-34176000D01*
X57238797Y-34176000D01*
X57059896Y-34140415D01*
X56891374Y-34070611D01*
X56739709Y-33969272D01*
X56610728Y-33840291D01*
X56509389Y-33688626D01*
X56439585Y-33520104D01*
X56404000Y-33341203D01*
X56404000Y-33158797D01*
X56439585Y-32979896D01*
X56509389Y-32811374D01*
X56610728Y-32659709D01*
X56739709Y-32530728D01*
X56891374Y-32429389D01*
X57059896Y-32359585D01*
X57238797Y-32324000D01*
X57421203Y-32324000D01*
X57600104Y-32359585D01*
G37*
G36*
X152600104Y-32359585D02*
G01*
X152768626Y-32429389D01*
X152920291Y-32530728D01*
X153049272Y-32659709D01*
X153150611Y-32811374D01*
X153220415Y-32979896D01*
X153256000Y-33158797D01*
X153256000Y-33341203D01*
X153220415Y-33520104D01*
X153150611Y-33688626D01*
X153049272Y-33840291D01*
X152920291Y-33969272D01*
X152768626Y-34070611D01*
X152600104Y-34140415D01*
X152421203Y-34176000D01*
X152238797Y-34176000D01*
X152059896Y-34140415D01*
X151891374Y-34070611D01*
X151739709Y-33969272D01*
X151610728Y-33840291D01*
X151509389Y-33688626D01*
X151439585Y-33520104D01*
X151404000Y-33341203D01*
X151404000Y-33158797D01*
X151439585Y-32979896D01*
X151509389Y-32811374D01*
X151610728Y-32659709D01*
X151739709Y-32530728D01*
X151891374Y-32429389D01*
X152059896Y-32359585D01*
X152238797Y-32324000D01*
X152421203Y-32324000D01*
X152600104Y-32359585D01*
G37*
G36*
X123440104Y-32359585D02*
G01*
X123608626Y-32429389D01*
X123760291Y-32530728D01*
X123889272Y-32659709D01*
X123990611Y-32811374D01*
X124060415Y-32979896D01*
X124096000Y-33158797D01*
X124096000Y-33341203D01*
X124060415Y-33520104D01*
X123990611Y-33688626D01*
X123889272Y-33840291D01*
X123760291Y-33969272D01*
X123608626Y-34070611D01*
X123440104Y-34140415D01*
X123261203Y-34176000D01*
X123078797Y-34176000D01*
X122899896Y-34140415D01*
X122731374Y-34070611D01*
X122579709Y-33969272D01*
X122450728Y-33840291D01*
X122349389Y-33688626D01*
X122279585Y-33520104D01*
X122244000Y-33341203D01*
X122244000Y-33158797D01*
X122279585Y-32979896D01*
X122349389Y-32811374D01*
X122450728Y-32659709D01*
X122579709Y-32530728D01*
X122731374Y-32429389D01*
X122899896Y-32359585D01*
X123078797Y-32324000D01*
X123261203Y-32324000D01*
X123440104Y-32359585D01*
G37*
G36*
X133600104Y-32359585D02*
G01*
X133768626Y-32429389D01*
X133920291Y-32530728D01*
X134049272Y-32659709D01*
X134150611Y-32811374D01*
X134220415Y-32979896D01*
X134256000Y-33158797D01*
X134256000Y-33341203D01*
X134220415Y-33520104D01*
X134150611Y-33688626D01*
X134049272Y-33840291D01*
X133920291Y-33969272D01*
X133768626Y-34070611D01*
X133600104Y-34140415D01*
X133421203Y-34176000D01*
X133238797Y-34176000D01*
X133059896Y-34140415D01*
X132891374Y-34070611D01*
X132739709Y-33969272D01*
X132610728Y-33840291D01*
X132509389Y-33688626D01*
X132439585Y-33520104D01*
X132404000Y-33341203D01*
X132404000Y-33158797D01*
X132439585Y-32979896D01*
X132509389Y-32811374D01*
X132610728Y-32659709D01*
X132739709Y-32530728D01*
X132891374Y-32429389D01*
X133059896Y-32359585D01*
X133238797Y-32324000D01*
X133421203Y-32324000D01*
X133600104Y-32359585D01*
G37*
G36*
X104440104Y-32359585D02*
G01*
X104608626Y-32429389D01*
X104760291Y-32530728D01*
X104889272Y-32659709D01*
X104990611Y-32811374D01*
X105060415Y-32979896D01*
X105096000Y-33158797D01*
X105096000Y-33341203D01*
X105060415Y-33520104D01*
X104990611Y-33688626D01*
X104889272Y-33840291D01*
X104760291Y-33969272D01*
X104608626Y-34070611D01*
X104440104Y-34140415D01*
X104261203Y-34176000D01*
X104078797Y-34176000D01*
X103899896Y-34140415D01*
X103731374Y-34070611D01*
X103579709Y-33969272D01*
X103450728Y-33840291D01*
X103349389Y-33688626D01*
X103279585Y-33520104D01*
X103244000Y-33341203D01*
X103244000Y-33158797D01*
X103279585Y-32979896D01*
X103349389Y-32811374D01*
X103450728Y-32659709D01*
X103579709Y-32530728D01*
X103731374Y-32429389D01*
X103899896Y-32359585D01*
X104078797Y-32324000D01*
X104261203Y-32324000D01*
X104440104Y-32359585D01*
G37*
G36*
X114600104Y-32359585D02*
G01*
X114768626Y-32429389D01*
X114920291Y-32530728D01*
X115049272Y-32659709D01*
X115150611Y-32811374D01*
X115220415Y-32979896D01*
X115256000Y-33158797D01*
X115256000Y-33341203D01*
X115220415Y-33520104D01*
X115150611Y-33688626D01*
X115049272Y-33840291D01*
X114920291Y-33969272D01*
X114768626Y-34070611D01*
X114600104Y-34140415D01*
X114421203Y-34176000D01*
X114238797Y-34176000D01*
X114059896Y-34140415D01*
X113891374Y-34070611D01*
X113739709Y-33969272D01*
X113610728Y-33840291D01*
X113509389Y-33688626D01*
X113439585Y-33520104D01*
X113404000Y-33341203D01*
X113404000Y-33158797D01*
X113439585Y-32979896D01*
X113509389Y-32811374D01*
X113610728Y-32659709D01*
X113739709Y-32530728D01*
X113891374Y-32429389D01*
X114059896Y-32359585D01*
X114238797Y-32324000D01*
X114421203Y-32324000D01*
X114600104Y-32359585D01*
G37*
G36*
X85440104Y-32359585D02*
G01*
X85608626Y-32429389D01*
X85760291Y-32530728D01*
X85889272Y-32659709D01*
X85990611Y-32811374D01*
X86060415Y-32979896D01*
X86096000Y-33158797D01*
X86096000Y-33341203D01*
X86060415Y-33520104D01*
X85990611Y-33688626D01*
X85889272Y-33840291D01*
X85760291Y-33969272D01*
X85608626Y-34070611D01*
X85440104Y-34140415D01*
X85261203Y-34176000D01*
X85078797Y-34176000D01*
X84899896Y-34140415D01*
X84731374Y-34070611D01*
X84579709Y-33969272D01*
X84450728Y-33840291D01*
X84349389Y-33688626D01*
X84279585Y-33520104D01*
X84244000Y-33341203D01*
X84244000Y-33158797D01*
X84279585Y-32979896D01*
X84349389Y-32811374D01*
X84450728Y-32659709D01*
X84579709Y-32530728D01*
X84731374Y-32429389D01*
X84899896Y-32359585D01*
X85078797Y-32324000D01*
X85261203Y-32324000D01*
X85440104Y-32359585D01*
G37*
G36*
X95600104Y-32359585D02*
G01*
X95768626Y-32429389D01*
X95920291Y-32530728D01*
X96049272Y-32659709D01*
X96150611Y-32811374D01*
X96220415Y-32979896D01*
X96256000Y-33158797D01*
X96256000Y-33341203D01*
X96220415Y-33520104D01*
X96150611Y-33688626D01*
X96049272Y-33840291D01*
X95920291Y-33969272D01*
X95768626Y-34070611D01*
X95600104Y-34140415D01*
X95421203Y-34176000D01*
X95238797Y-34176000D01*
X95059896Y-34140415D01*
X94891374Y-34070611D01*
X94739709Y-33969272D01*
X94610728Y-33840291D01*
X94509389Y-33688626D01*
X94439585Y-33520104D01*
X94404000Y-33341203D01*
X94404000Y-33158797D01*
X94439585Y-32979896D01*
X94509389Y-32811374D01*
X94610728Y-32659709D01*
X94739709Y-32530728D01*
X94891374Y-32429389D01*
X95059896Y-32359585D01*
X95238797Y-32324000D01*
X95421203Y-32324000D01*
X95600104Y-32359585D01*
G37*
G36*
X256440104Y-32359585D02*
G01*
X256608626Y-32429389D01*
X256760291Y-32530728D01*
X256889272Y-32659709D01*
X256990611Y-32811374D01*
X257060415Y-32979896D01*
X257096000Y-33158797D01*
X257096000Y-33341203D01*
X257060415Y-33520104D01*
X256990611Y-33688626D01*
X256889272Y-33840291D01*
X256760291Y-33969272D01*
X256608626Y-34070611D01*
X256440104Y-34140415D01*
X256261203Y-34176000D01*
X256078797Y-34176000D01*
X255899896Y-34140415D01*
X255731374Y-34070611D01*
X255579709Y-33969272D01*
X255450728Y-33840291D01*
X255349389Y-33688626D01*
X255279585Y-33520104D01*
X255244000Y-33341203D01*
X255244000Y-33158797D01*
X255279585Y-32979896D01*
X255349389Y-32811374D01*
X255450728Y-32659709D01*
X255579709Y-32530728D01*
X255731374Y-32429389D01*
X255899896Y-32359585D01*
X256078797Y-32324000D01*
X256261203Y-32324000D01*
X256440104Y-32359585D01*
G37*
G36*
X266600104Y-32359585D02*
G01*
X266768626Y-32429389D01*
X266920291Y-32530728D01*
X267049272Y-32659709D01*
X267150611Y-32811374D01*
X267220415Y-32979896D01*
X267256000Y-33158797D01*
X267256000Y-33341203D01*
X267220415Y-33520104D01*
X267150611Y-33688626D01*
X267049272Y-33840291D01*
X266920291Y-33969272D01*
X266768626Y-34070611D01*
X266600104Y-34140415D01*
X266421203Y-34176000D01*
X266238797Y-34176000D01*
X266059896Y-34140415D01*
X265891374Y-34070611D01*
X265739709Y-33969272D01*
X265610728Y-33840291D01*
X265509389Y-33688626D01*
X265439585Y-33520104D01*
X265404000Y-33341203D01*
X265404000Y-33158797D01*
X265439585Y-32979896D01*
X265509389Y-32811374D01*
X265610728Y-32659709D01*
X265739709Y-32530728D01*
X265891374Y-32429389D01*
X266059896Y-32359585D01*
X266238797Y-32324000D01*
X266421203Y-32324000D01*
X266600104Y-32359585D01*
G37*
G36*
X28440104Y-32359585D02*
G01*
X28608626Y-32429389D01*
X28760291Y-32530728D01*
X28889272Y-32659709D01*
X28990611Y-32811374D01*
X29060415Y-32979896D01*
X29096000Y-33158797D01*
X29096000Y-33341203D01*
X29060415Y-33520104D01*
X28990611Y-33688626D01*
X28889272Y-33840291D01*
X28760291Y-33969272D01*
X28608626Y-34070611D01*
X28440104Y-34140415D01*
X28261203Y-34176000D01*
X28078797Y-34176000D01*
X27899896Y-34140415D01*
X27731374Y-34070611D01*
X27579709Y-33969272D01*
X27450728Y-33840291D01*
X27349389Y-33688626D01*
X27279585Y-33520104D01*
X27244000Y-33341203D01*
X27244000Y-33158797D01*
X27279585Y-32979896D01*
X27349389Y-32811374D01*
X27450728Y-32659709D01*
X27579709Y-32530728D01*
X27731374Y-32429389D01*
X27899896Y-32359585D01*
X28078797Y-32324000D01*
X28261203Y-32324000D01*
X28440104Y-32359585D01*
G37*
G36*
X38600104Y-32359585D02*
G01*
X38768626Y-32429389D01*
X38920291Y-32530728D01*
X39049272Y-32659709D01*
X39150611Y-32811374D01*
X39220415Y-32979896D01*
X39256000Y-33158797D01*
X39256000Y-33341203D01*
X39220415Y-33520104D01*
X39150611Y-33688626D01*
X39049272Y-33840291D01*
X38920291Y-33969272D01*
X38768626Y-34070611D01*
X38600104Y-34140415D01*
X38421203Y-34176000D01*
X38238797Y-34176000D01*
X38059896Y-34140415D01*
X37891374Y-34070611D01*
X37739709Y-33969272D01*
X37610728Y-33840291D01*
X37509389Y-33688626D01*
X37439585Y-33520104D01*
X37404000Y-33341203D01*
X37404000Y-33158797D01*
X37439585Y-32979896D01*
X37509389Y-32811374D01*
X37610728Y-32659709D01*
X37739709Y-32530728D01*
X37891374Y-32429389D01*
X38059896Y-32359585D01*
X38238797Y-32324000D01*
X38421203Y-32324000D01*
X38600104Y-32359585D01*
G37*
G36*
X161440104Y-32359585D02*
G01*
X161608626Y-32429389D01*
X161760291Y-32530728D01*
X161889272Y-32659709D01*
X161990611Y-32811374D01*
X162060415Y-32979896D01*
X162096000Y-33158797D01*
X162096000Y-33341203D01*
X162060415Y-33520104D01*
X161990611Y-33688626D01*
X161889272Y-33840291D01*
X161760291Y-33969272D01*
X161608626Y-34070611D01*
X161440104Y-34140415D01*
X161261203Y-34176000D01*
X161078797Y-34176000D01*
X160899896Y-34140415D01*
X160731374Y-34070611D01*
X160579709Y-33969272D01*
X160450728Y-33840291D01*
X160349389Y-33688626D01*
X160279585Y-33520104D01*
X160244000Y-33341203D01*
X160244000Y-33158797D01*
X160279585Y-32979896D01*
X160349389Y-32811374D01*
X160450728Y-32659709D01*
X160579709Y-32530728D01*
X160731374Y-32429389D01*
X160899896Y-32359585D01*
X161078797Y-32324000D01*
X161261203Y-32324000D01*
X161440104Y-32359585D01*
G37*
G36*
X237440104Y-32359585D02*
G01*
X237608626Y-32429389D01*
X237760291Y-32530728D01*
X237889272Y-32659709D01*
X237990611Y-32811374D01*
X238060415Y-32979896D01*
X238096000Y-33158797D01*
X238096000Y-33341203D01*
X238060415Y-33520104D01*
X237990611Y-33688626D01*
X237889272Y-33840291D01*
X237760291Y-33969272D01*
X237608626Y-34070611D01*
X237440104Y-34140415D01*
X237261203Y-34176000D01*
X237078797Y-34176000D01*
X236899896Y-34140415D01*
X236731374Y-34070611D01*
X236579709Y-33969272D01*
X236450728Y-33840291D01*
X236349389Y-33688626D01*
X236279585Y-33520104D01*
X236244000Y-33341203D01*
X236244000Y-33158797D01*
X236279585Y-32979896D01*
X236349389Y-32811374D01*
X236450728Y-32659709D01*
X236579709Y-32530728D01*
X236731374Y-32429389D01*
X236899896Y-32359585D01*
X237078797Y-32324000D01*
X237261203Y-32324000D01*
X237440104Y-32359585D01*
G37*
G36*
X47440104Y-32359585D02*
G01*
X47608626Y-32429389D01*
X47760291Y-32530728D01*
X47889272Y-32659709D01*
X47990611Y-32811374D01*
X48060415Y-32979896D01*
X48096000Y-33158797D01*
X48096000Y-33341203D01*
X48060415Y-33520104D01*
X47990611Y-33688626D01*
X47889272Y-33840291D01*
X47760291Y-33969272D01*
X47608626Y-34070611D01*
X47440104Y-34140415D01*
X47261203Y-34176000D01*
X47078797Y-34176000D01*
X46899896Y-34140415D01*
X46731374Y-34070611D01*
X46579709Y-33969272D01*
X46450728Y-33840291D01*
X46349389Y-33688626D01*
X46279585Y-33520104D01*
X46244000Y-33341203D01*
X46244000Y-33158797D01*
X46279585Y-32979896D01*
X46349389Y-32811374D01*
X46450728Y-32659709D01*
X46579709Y-32530728D01*
X46731374Y-32429389D01*
X46899896Y-32359585D01*
X47078797Y-32324000D01*
X47261203Y-32324000D01*
X47440104Y-32359585D01*
G37*
G36*
X76600104Y-32359585D02*
G01*
X76768626Y-32429389D01*
X76920291Y-32530728D01*
X77049272Y-32659709D01*
X77150611Y-32811374D01*
X77220415Y-32979896D01*
X77256000Y-33158797D01*
X77256000Y-33341203D01*
X77220415Y-33520104D01*
X77150611Y-33688626D01*
X77049272Y-33840291D01*
X76920291Y-33969272D01*
X76768626Y-34070611D01*
X76600104Y-34140415D01*
X76421203Y-34176000D01*
X76238797Y-34176000D01*
X76059896Y-34140415D01*
X75891374Y-34070611D01*
X75739709Y-33969272D01*
X75610728Y-33840291D01*
X75509389Y-33688626D01*
X75439585Y-33520104D01*
X75404000Y-33341203D01*
X75404000Y-33158797D01*
X75439585Y-32979896D01*
X75509389Y-32811374D01*
X75610728Y-32659709D01*
X75739709Y-32530728D01*
X75891374Y-32429389D01*
X76059896Y-32359585D01*
X76238797Y-32324000D01*
X76421203Y-32324000D01*
X76600104Y-32359585D01*
G37*
G36*
X171600104Y-32359585D02*
G01*
X171768626Y-32429389D01*
X171920291Y-32530728D01*
X172049272Y-32659709D01*
X172150611Y-32811374D01*
X172220415Y-32979896D01*
X172256000Y-33158797D01*
X172256000Y-33341203D01*
X172220415Y-33520104D01*
X172150611Y-33688626D01*
X172049272Y-33840291D01*
X171920291Y-33969272D01*
X171768626Y-34070611D01*
X171600104Y-34140415D01*
X171421203Y-34176000D01*
X171238797Y-34176000D01*
X171059896Y-34140415D01*
X170891374Y-34070611D01*
X170739709Y-33969272D01*
X170610728Y-33840291D01*
X170509389Y-33688626D01*
X170439585Y-33520104D01*
X170404000Y-33341203D01*
X170404000Y-33158797D01*
X170439585Y-32979896D01*
X170509389Y-32811374D01*
X170610728Y-32659709D01*
X170739709Y-32530728D01*
X170891374Y-32429389D01*
X171059896Y-32359585D01*
X171238797Y-32324000D01*
X171421203Y-32324000D01*
X171600104Y-32359585D01*
G37*
G36*
X247600104Y-32359585D02*
G01*
X247768626Y-32429389D01*
X247920291Y-32530728D01*
X248049272Y-32659709D01*
X248150611Y-32811374D01*
X248220415Y-32979896D01*
X248256000Y-33158797D01*
X248256000Y-33341203D01*
X248220415Y-33520104D01*
X248150611Y-33688626D01*
X248049272Y-33840291D01*
X247920291Y-33969272D01*
X247768626Y-34070611D01*
X247600104Y-34140415D01*
X247421203Y-34176000D01*
X247238797Y-34176000D01*
X247059896Y-34140415D01*
X246891374Y-34070611D01*
X246739709Y-33969272D01*
X246610728Y-33840291D01*
X246509389Y-33688626D01*
X246439585Y-33520104D01*
X246404000Y-33341203D01*
X246404000Y-33158797D01*
X246439585Y-32979896D01*
X246509389Y-32811374D01*
X246610728Y-32659709D01*
X246739709Y-32530728D01*
X246891374Y-32429389D01*
X247059896Y-32359585D01*
X247238797Y-32324000D01*
X247421203Y-32324000D01*
X247600104Y-32359585D01*
G37*
G36*
X218440104Y-32359585D02*
G01*
X218608626Y-32429389D01*
X218760291Y-32530728D01*
X218889272Y-32659709D01*
X218990611Y-32811374D01*
X219060415Y-32979896D01*
X219096000Y-33158797D01*
X219096000Y-33341203D01*
X219060415Y-33520104D01*
X218990611Y-33688626D01*
X218889272Y-33840291D01*
X218760291Y-33969272D01*
X218608626Y-34070611D01*
X218440104Y-34140415D01*
X218261203Y-34176000D01*
X218078797Y-34176000D01*
X217899896Y-34140415D01*
X217731374Y-34070611D01*
X217579709Y-33969272D01*
X217450728Y-33840291D01*
X217349389Y-33688626D01*
X217279585Y-33520104D01*
X217244000Y-33341203D01*
X217244000Y-33158797D01*
X217279585Y-32979896D01*
X217349389Y-32811374D01*
X217450728Y-32659709D01*
X217579709Y-32530728D01*
X217731374Y-32429389D01*
X217899896Y-32359585D01*
X218078797Y-32324000D01*
X218261203Y-32324000D01*
X218440104Y-32359585D01*
G37*
G36*
X228600104Y-32359585D02*
G01*
X228768626Y-32429389D01*
X228920291Y-32530728D01*
X229049272Y-32659709D01*
X229150611Y-32811374D01*
X229220415Y-32979896D01*
X229256000Y-33158797D01*
X229256000Y-33341203D01*
X229220415Y-33520104D01*
X229150611Y-33688626D01*
X229049272Y-33840291D01*
X228920291Y-33969272D01*
X228768626Y-34070611D01*
X228600104Y-34140415D01*
X228421203Y-34176000D01*
X228238797Y-34176000D01*
X228059896Y-34140415D01*
X227891374Y-34070611D01*
X227739709Y-33969272D01*
X227610728Y-33840291D01*
X227509389Y-33688626D01*
X227439585Y-33520104D01*
X227404000Y-33341203D01*
X227404000Y-33158797D01*
X227439585Y-32979896D01*
X227509389Y-32811374D01*
X227610728Y-32659709D01*
X227739709Y-32530728D01*
X227891374Y-32429389D01*
X228059896Y-32359585D01*
X228238797Y-32324000D01*
X228421203Y-32324000D01*
X228600104Y-32359585D01*
G37*
G36*
X199440104Y-32359585D02*
G01*
X199608626Y-32429389D01*
X199760291Y-32530728D01*
X199889272Y-32659709D01*
X199990611Y-32811374D01*
X200060415Y-32979896D01*
X200096000Y-33158797D01*
X200096000Y-33341203D01*
X200060415Y-33520104D01*
X199990611Y-33688626D01*
X199889272Y-33840291D01*
X199760291Y-33969272D01*
X199608626Y-34070611D01*
X199440104Y-34140415D01*
X199261203Y-34176000D01*
X199078797Y-34176000D01*
X198899896Y-34140415D01*
X198731374Y-34070611D01*
X198579709Y-33969272D01*
X198450728Y-33840291D01*
X198349389Y-33688626D01*
X198279585Y-33520104D01*
X198244000Y-33341203D01*
X198244000Y-33158797D01*
X198279585Y-32979896D01*
X198349389Y-32811374D01*
X198450728Y-32659709D01*
X198579709Y-32530728D01*
X198731374Y-32429389D01*
X198899896Y-32359585D01*
X199078797Y-32324000D01*
X199261203Y-32324000D01*
X199440104Y-32359585D01*
G37*
G36*
X209600104Y-32359585D02*
G01*
X209768626Y-32429389D01*
X209920291Y-32530728D01*
X210049272Y-32659709D01*
X210150611Y-32811374D01*
X210220415Y-32979896D01*
X210256000Y-33158797D01*
X210256000Y-33341203D01*
X210220415Y-33520104D01*
X210150611Y-33688626D01*
X210049272Y-33840291D01*
X209920291Y-33969272D01*
X209768626Y-34070611D01*
X209600104Y-34140415D01*
X209421203Y-34176000D01*
X209238797Y-34176000D01*
X209059896Y-34140415D01*
X208891374Y-34070611D01*
X208739709Y-33969272D01*
X208610728Y-33840291D01*
X208509389Y-33688626D01*
X208439585Y-33520104D01*
X208404000Y-33341203D01*
X208404000Y-33158797D01*
X208439585Y-32979896D01*
X208509389Y-32811374D01*
X208610728Y-32659709D01*
X208739709Y-32530728D01*
X208891374Y-32429389D01*
X209059896Y-32359585D01*
X209238797Y-32324000D01*
X209421203Y-32324000D01*
X209600104Y-32359585D01*
G37*
G36*
X180440104Y-32359585D02*
G01*
X180608626Y-32429389D01*
X180760291Y-32530728D01*
X180889272Y-32659709D01*
X180990611Y-32811374D01*
X181060415Y-32979896D01*
X181096000Y-33158797D01*
X181096000Y-33341203D01*
X181060415Y-33520104D01*
X180990611Y-33688626D01*
X180889272Y-33840291D01*
X180760291Y-33969272D01*
X180608626Y-34070611D01*
X180440104Y-34140415D01*
X180261203Y-34176000D01*
X180078797Y-34176000D01*
X179899896Y-34140415D01*
X179731374Y-34070611D01*
X179579709Y-33969272D01*
X179450728Y-33840291D01*
X179349389Y-33688626D01*
X179279585Y-33520104D01*
X179244000Y-33341203D01*
X179244000Y-33158797D01*
X179279585Y-32979896D01*
X179349389Y-32811374D01*
X179450728Y-32659709D01*
X179579709Y-32530728D01*
X179731374Y-32429389D01*
X179899896Y-32359585D01*
X180078797Y-32324000D01*
X180261203Y-32324000D01*
X180440104Y-32359585D01*
G37*
G36*
X190600104Y-32359585D02*
G01*
X190768626Y-32429389D01*
X190920291Y-32530728D01*
X191049272Y-32659709D01*
X191150611Y-32811374D01*
X191220415Y-32979896D01*
X191256000Y-33158797D01*
X191256000Y-33341203D01*
X191220415Y-33520104D01*
X191150611Y-33688626D01*
X191049272Y-33840291D01*
X190920291Y-33969272D01*
X190768626Y-34070611D01*
X190600104Y-34140415D01*
X190421203Y-34176000D01*
X190238797Y-34176000D01*
X190059896Y-34140415D01*
X189891374Y-34070611D01*
X189739709Y-33969272D01*
X189610728Y-33840291D01*
X189509389Y-33688626D01*
X189439585Y-33520104D01*
X189404000Y-33341203D01*
X189404000Y-33158797D01*
X189439585Y-32979896D01*
X189509389Y-32811374D01*
X189610728Y-32659709D01*
X189739709Y-32530728D01*
X189891374Y-32429389D01*
X190059896Y-32359585D01*
X190238797Y-32324000D01*
X190421203Y-32324000D01*
X190600104Y-32359585D01*
G37*
G36*
X66440104Y-32359585D02*
G01*
X66608626Y-32429389D01*
X66760291Y-32530728D01*
X66889272Y-32659709D01*
X66990611Y-32811374D01*
X67060415Y-32979896D01*
X67096000Y-33158797D01*
X67096000Y-33341203D01*
X67060415Y-33520104D01*
X66990611Y-33688626D01*
X66889272Y-33840291D01*
X66760291Y-33969272D01*
X66608626Y-34070611D01*
X66440104Y-34140415D01*
X66261203Y-34176000D01*
X66078797Y-34176000D01*
X65899896Y-34140415D01*
X65731374Y-34070611D01*
X65579709Y-33969272D01*
X65450728Y-33840291D01*
X65349389Y-33688626D01*
X65279585Y-33520104D01*
X65244000Y-33341203D01*
X65244000Y-33158797D01*
X65279585Y-32979896D01*
X65349389Y-32811374D01*
X65450728Y-32659709D01*
X65579709Y-32530728D01*
X65731374Y-32429389D01*
X65899896Y-32359585D01*
X66078797Y-32324000D01*
X66261203Y-32324000D01*
X66440104Y-32359585D01*
G37*
G36*
X161178014Y-23499473D02*
G01*
X161281878Y-23530979D01*
X161325907Y-23554513D01*
X161377599Y-23582143D01*
X161377601Y-23582144D01*
X161377600Y-23582144D01*
X161461501Y-23650999D01*
X161530356Y-23734900D01*
X161581521Y-23830621D01*
X161613027Y-23934485D01*
X161621000Y-24015433D01*
X161621000Y-25169567D01*
X161613027Y-25250515D01*
X161581521Y-25354379D01*
X161581519Y-25354382D01*
X161530357Y-25450100D01*
X161461501Y-25534001D01*
X161377600Y-25602857D01*
X161309055Y-25639495D01*
X161281879Y-25654021D01*
X161178015Y-25685527D01*
X161070000Y-25696166D01*
X160961986Y-25685527D01*
X160858122Y-25654021D01*
X160830946Y-25639495D01*
X160762401Y-25602857D01*
X160678500Y-25534001D01*
X160609644Y-25450100D01*
X160558482Y-25354382D01*
X160558480Y-25354379D01*
X160526974Y-25250515D01*
X160519001Y-25169567D01*
X160519000Y-24015434D01*
X160526973Y-23934486D01*
X160558479Y-23830622D01*
X160609644Y-23734900D01*
X160678499Y-23650999D01*
X160762400Y-23582144D01*
X160762399Y-23582144D01*
X160762401Y-23582143D01*
X160814093Y-23554513D01*
X160858121Y-23530979D01*
X160961985Y-23499473D01*
X161070000Y-23488834D01*
X161178014Y-23499473D01*
G37*
G36*
X152538014Y-23499473D02*
G01*
X152641878Y-23530979D01*
X152685907Y-23554513D01*
X152737599Y-23582143D01*
X152737601Y-23582144D01*
X152737600Y-23582144D01*
X152821501Y-23650999D01*
X152890356Y-23734900D01*
X152941521Y-23830621D01*
X152973027Y-23934485D01*
X152981000Y-24015433D01*
X152981000Y-25169567D01*
X152973027Y-25250515D01*
X152941521Y-25354379D01*
X152941519Y-25354382D01*
X152890357Y-25450100D01*
X152821501Y-25534001D01*
X152737600Y-25602857D01*
X152669055Y-25639495D01*
X152641879Y-25654021D01*
X152538015Y-25685527D01*
X152430000Y-25696166D01*
X152321986Y-25685527D01*
X152218122Y-25654021D01*
X152190946Y-25639495D01*
X152122401Y-25602857D01*
X152038500Y-25534001D01*
X151969644Y-25450100D01*
X151918482Y-25354382D01*
X151918480Y-25354379D01*
X151886974Y-25250515D01*
X151879001Y-25169567D01*
X151879000Y-24015434D01*
X151886973Y-23934486D01*
X151918479Y-23830622D01*
X151969644Y-23734900D01*
X152038499Y-23650999D01*
X152122400Y-23582144D01*
X152122399Y-23582144D01*
X152122401Y-23582143D01*
X152174093Y-23554513D01*
X152218121Y-23530979D01*
X152321985Y-23499473D01*
X152430000Y-23488834D01*
X152538014Y-23499473D01*
G37*
G36*
X153969672Y-23700949D02*
G01*
X153969674Y-23700950D01*
X153969675Y-23700950D01*
X154038103Y-23729293D01*
X154099686Y-23770442D01*
X154152058Y-23822814D01*
X154193207Y-23884397D01*
X154221550Y-23952825D01*
X154221551Y-23952828D01*
X154236000Y-24025466D01*
X154236000Y-24099533D01*
X154221550Y-24172175D01*
X154193207Y-24240603D01*
X154152058Y-24302186D01*
X154099686Y-24354558D01*
X154038103Y-24395707D01*
X153969675Y-24424050D01*
X153969674Y-24424050D01*
X153969672Y-24424051D01*
X153897034Y-24438500D01*
X153822966Y-24438500D01*
X153750328Y-24424051D01*
X153750326Y-24424050D01*
X153750325Y-24424050D01*
X153681897Y-24395707D01*
X153620314Y-24354558D01*
X153567942Y-24302186D01*
X153526793Y-24240603D01*
X153498450Y-24172175D01*
X153484000Y-24099533D01*
X153484000Y-24025466D01*
X153498449Y-23952828D01*
X153498450Y-23952825D01*
X153526793Y-23884397D01*
X153567942Y-23822814D01*
X153620314Y-23770442D01*
X153681897Y-23729293D01*
X153750325Y-23700950D01*
X153750326Y-23700950D01*
X153750328Y-23700949D01*
X153822966Y-23686500D01*
X153897034Y-23686500D01*
X153969672Y-23700949D01*
G37*
G36*
X159749672Y-23700949D02*
G01*
X159749674Y-23700950D01*
X159749675Y-23700950D01*
X159818103Y-23729293D01*
X159879686Y-23770442D01*
X159932058Y-23822814D01*
X159973207Y-23884397D01*
X160001550Y-23952825D01*
X160001551Y-23952828D01*
X160016000Y-24025466D01*
X160016000Y-24099533D01*
X160001550Y-24172175D01*
X159973207Y-24240603D01*
X159932058Y-24302186D01*
X159879686Y-24354558D01*
X159818103Y-24395707D01*
X159749675Y-24424050D01*
X159749674Y-24424050D01*
X159749672Y-24424051D01*
X159677034Y-24438500D01*
X159602966Y-24438500D01*
X159530328Y-24424051D01*
X159530326Y-24424050D01*
X159530325Y-24424050D01*
X159461897Y-24395707D01*
X159400314Y-24354558D01*
X159347942Y-24302186D01*
X159306793Y-24240603D01*
X159278450Y-24172175D01*
X159264000Y-24099533D01*
X159264000Y-24025466D01*
X159278449Y-23952828D01*
X159278450Y-23952825D01*
X159306793Y-23884397D01*
X159347942Y-23822814D01*
X159400314Y-23770442D01*
X159461897Y-23729293D01*
X159530325Y-23700950D01*
X159530326Y-23700950D01*
X159530328Y-23700949D01*
X159602966Y-23686500D01*
X159677034Y-23686500D01*
X159749672Y-23700949D01*
G37*
G36*
X152538014Y-19569473D02*
G01*
X152641878Y-19600979D01*
X152685907Y-19624513D01*
X152737599Y-19652143D01*
X152737601Y-19652144D01*
X152737600Y-19652144D01*
X152821501Y-19720999D01*
X152890356Y-19804900D01*
X152941521Y-19900621D01*
X152973027Y-20004485D01*
X152981000Y-20085433D01*
X152981000Y-20739567D01*
X152973027Y-20820515D01*
X152941521Y-20924379D01*
X152941519Y-20924382D01*
X152890357Y-21020100D01*
X152821501Y-21104001D01*
X152737600Y-21172857D01*
X152669055Y-21209495D01*
X152641879Y-21224021D01*
X152538015Y-21255527D01*
X152430000Y-21266166D01*
X152321986Y-21255527D01*
X152218122Y-21224021D01*
X152190946Y-21209495D01*
X152122401Y-21172857D01*
X152038500Y-21104001D01*
X151969645Y-21020101D01*
X151918480Y-20924379D01*
X151886973Y-20820515D01*
X151879000Y-20739567D01*
X151879000Y-20085434D01*
X151886973Y-20004486D01*
X151918479Y-19900622D01*
X151969644Y-19804900D01*
X152038499Y-19720999D01*
X152122400Y-19652144D01*
X152122399Y-19652144D01*
X152122401Y-19652143D01*
X152174093Y-19624513D01*
X152218121Y-19600979D01*
X152321985Y-19569473D01*
X152430000Y-19558834D01*
X152538014Y-19569473D01*
G37*
G36*
X161178014Y-19569473D02*
G01*
X161281878Y-19600979D01*
X161325907Y-19624513D01*
X161377599Y-19652143D01*
X161377601Y-19652144D01*
X161377600Y-19652144D01*
X161461501Y-19720999D01*
X161530356Y-19804900D01*
X161581521Y-19900621D01*
X161613027Y-20004485D01*
X161621000Y-20085433D01*
X161621000Y-20739567D01*
X161613027Y-20820515D01*
X161581521Y-20924379D01*
X161581519Y-20924382D01*
X161530357Y-21020100D01*
X161461501Y-21104001D01*
X161377600Y-21172857D01*
X161309055Y-21209495D01*
X161281879Y-21224021D01*
X161178015Y-21255527D01*
X161070000Y-21266166D01*
X160961986Y-21255527D01*
X160858122Y-21224021D01*
X160830946Y-21209495D01*
X160762401Y-21172857D01*
X160678500Y-21104001D01*
X160609645Y-21020101D01*
X160558480Y-20924379D01*
X160526973Y-20820515D01*
X160519000Y-20739567D01*
X160519000Y-20085434D01*
X160526973Y-20004486D01*
X160558479Y-19900622D01*
X160609644Y-19804900D01*
X160678499Y-19720999D01*
X160762400Y-19652144D01*
X160762399Y-19652144D01*
X160762401Y-19652143D01*
X160814093Y-19624513D01*
X160858121Y-19600979D01*
X160961985Y-19569473D01*
X161070000Y-19558834D01*
X161178014Y-19569473D01*
G37*
M02*
